G04 #@! TF.GenerationSoftware,KiCad,Pcbnew,5.0.0-fee4fd1~66~ubuntu18.04.1*
G04 #@! TF.CreationDate,2018-08-23T18:28:32+02:00*
G04 #@! TF.ProjectId,redox_rev1,7265646F785F726576312E6B69636164,1.0*
G04 #@! TF.SameCoordinates,Original*
G04 #@! TF.FileFunction,Soldermask,Top*
G04 #@! TF.FilePolarity,Negative*
%FSLAX46Y46*%
G04 Gerber Fmt 4.6, Leading zero omitted, Abs format (unit mm)*
G04 Created by KiCad (PCBNEW 5.0.0-fee4fd1~66~ubuntu18.04.1) date Thu Aug 23 18:28:32 2018*
%MOMM*%
%LPD*%
G01*
G04 APERTURE LIST*
%ADD10R,1.200000X1.200000*%
%ADD11C,1.600000*%
%ADD12R,1.600000X1.600000*%
%ADD13C,1.200000*%
%ADD14C,0.100000*%
%ADD15R,1.700000X1.700000*%
%ADD16O,1.700000X1.700000*%
%ADD17C,2.000000*%
%ADD18C,1.500000*%
%ADD19O,1.600000X2.200000*%
%ADD20R,1.752600X1.752600*%
%ADD21C,1.752600*%
%ADD22C,4.000000*%
%ADD23C,2.500000*%
%ADD24C,2.500000*%
G04 APERTURE END LIST*
D10*
G04 #@! TO.C,D0*
X89865000Y-74930000D03*
X93015000Y-74930000D03*
D11*
X95340000Y-74930000D03*
D12*
X87540000Y-74930000D03*
G04 #@! TD*
D10*
G04 #@! TO.C,D1*
X111455000Y-74930000D03*
X114605000Y-74930000D03*
D11*
X116930000Y-74930000D03*
D12*
X109130000Y-74930000D03*
G04 #@! TD*
D10*
G04 #@! TO.C,D2*
X130505000Y-70485000D03*
X133655000Y-70485000D03*
D11*
X135980000Y-70485000D03*
D12*
X128180000Y-70485000D03*
G04 #@! TD*
D10*
G04 #@! TO.C,D3*
X149555000Y-67945000D03*
X152705000Y-67945000D03*
D11*
X155030000Y-67945000D03*
D12*
X147230000Y-67945000D03*
G04 #@! TD*
D10*
G04 #@! TO.C,D4*
X168605000Y-70485000D03*
X171755000Y-70485000D03*
D11*
X174080000Y-70485000D03*
D12*
X166280000Y-70485000D03*
G04 #@! TD*
D10*
G04 #@! TO.C,D5*
X187655000Y-72390000D03*
X190805000Y-72390000D03*
D11*
X193130000Y-72390000D03*
D12*
X185330000Y-72390000D03*
G04 #@! TD*
D10*
G04 #@! TO.C,D6*
X206705000Y-81915000D03*
X209855000Y-81915000D03*
D11*
X212180000Y-81915000D03*
D12*
X204380000Y-81915000D03*
G04 #@! TD*
D10*
G04 #@! TO.C,D10*
X89865000Y-93980000D03*
X93015000Y-93980000D03*
D11*
X95340000Y-93980000D03*
D12*
X87540000Y-93980000D03*
G04 #@! TD*
D10*
G04 #@! TO.C,D11*
X111455000Y-93980000D03*
X114605000Y-93980000D03*
D11*
X116930000Y-93980000D03*
D12*
X109130000Y-93980000D03*
G04 #@! TD*
D10*
G04 #@! TO.C,D12*
X130505000Y-89535000D03*
X133655000Y-89535000D03*
D11*
X135980000Y-89535000D03*
D12*
X128180000Y-89535000D03*
G04 #@! TD*
D10*
G04 #@! TO.C,D13*
X149555000Y-86995000D03*
X152705000Y-86995000D03*
D11*
X155030000Y-86995000D03*
D12*
X147230000Y-86995000D03*
G04 #@! TD*
D10*
G04 #@! TO.C,D14*
X168605000Y-89535000D03*
X171755000Y-89535000D03*
D11*
X174080000Y-89535000D03*
D12*
X166280000Y-89535000D03*
G04 #@! TD*
D10*
G04 #@! TO.C,D15*
X187655000Y-91440000D03*
X190805000Y-91440000D03*
D11*
X193130000Y-91440000D03*
D12*
X185330000Y-91440000D03*
G04 #@! TD*
D10*
G04 #@! TO.C,D16*
X206705000Y-106680000D03*
X209855000Y-106680000D03*
D11*
X212180000Y-106680000D03*
D12*
X204380000Y-106680000D03*
G04 #@! TD*
D10*
G04 #@! TO.C,D20*
X89865000Y-113030000D03*
X93015000Y-113030000D03*
D11*
X95340000Y-113030000D03*
D12*
X87540000Y-113030000D03*
G04 #@! TD*
D10*
G04 #@! TO.C,D21*
X111455000Y-113030000D03*
X114605000Y-113030000D03*
D11*
X116930000Y-113030000D03*
D12*
X109130000Y-113030000D03*
G04 #@! TD*
D10*
G04 #@! TO.C,D22*
X130505000Y-108585000D03*
X133655000Y-108585000D03*
D11*
X135980000Y-108585000D03*
D12*
X128180000Y-108585000D03*
G04 #@! TD*
D10*
G04 #@! TO.C,D23*
X149555000Y-106045000D03*
X152705000Y-106045000D03*
D11*
X155030000Y-106045000D03*
D12*
X147230000Y-106045000D03*
G04 #@! TD*
D10*
G04 #@! TO.C,D24*
X168605000Y-108585000D03*
X171755000Y-108585000D03*
D11*
X174080000Y-108585000D03*
D12*
X166280000Y-108585000D03*
G04 #@! TD*
D10*
G04 #@! TO.C,D25*
X187655000Y-110490000D03*
X190805000Y-110490000D03*
D11*
X193130000Y-110490000D03*
D12*
X185330000Y-110490000D03*
G04 #@! TD*
D13*
G04 #@! TO.C,D26*
X206281010Y-133832500D03*
D14*
G36*
X207100625Y-133612885D02*
X206500625Y-134652115D01*
X205461395Y-134052115D01*
X206061395Y-133012885D01*
X207100625Y-133612885D01*
X207100625Y-133612885D01*
G37*
D13*
X209008990Y-135407500D03*
D14*
G36*
X209828605Y-135187885D02*
X209228605Y-136227115D01*
X208189375Y-135627115D01*
X208789375Y-134587885D01*
X209828605Y-135187885D01*
X209828605Y-135187885D01*
G37*
D11*
X211022499Y-136570000D03*
X204267501Y-132670000D03*
D14*
G36*
X205360321Y-132377180D02*
X204560321Y-133762820D01*
X203174681Y-132962820D01*
X203974681Y-131577180D01*
X205360321Y-132377180D01*
X205360321Y-132377180D01*
G37*
G04 #@! TD*
D10*
G04 #@! TO.C,D30*
X89865000Y-132080000D03*
X93015000Y-132080000D03*
D11*
X95340000Y-132080000D03*
D12*
X87540000Y-132080000D03*
G04 #@! TD*
D10*
G04 #@! TO.C,D31*
X111455000Y-132080000D03*
X114605000Y-132080000D03*
D11*
X116930000Y-132080000D03*
D12*
X109130000Y-132080000D03*
G04 #@! TD*
D10*
G04 #@! TO.C,D32*
X130505000Y-127635000D03*
X133655000Y-127635000D03*
D11*
X135980000Y-127635000D03*
D12*
X128180000Y-127635000D03*
G04 #@! TD*
D10*
G04 #@! TO.C,D33*
X149555000Y-125095000D03*
X152705000Y-125095000D03*
D11*
X155030000Y-125095000D03*
D12*
X147230000Y-125095000D03*
G04 #@! TD*
D10*
G04 #@! TO.C,D34*
X168605000Y-127635000D03*
X171755000Y-127635000D03*
D11*
X174080000Y-127635000D03*
D12*
X166280000Y-127635000D03*
G04 #@! TD*
D10*
G04 #@! TO.C,D35*
X187655000Y-129540000D03*
X190805000Y-129540000D03*
D11*
X193130000Y-129540000D03*
D12*
X185330000Y-129540000D03*
G04 #@! TD*
D13*
G04 #@! TO.C,D36*
X222791010Y-143357500D03*
D14*
G36*
X223610625Y-143137885D02*
X223010625Y-144177115D01*
X221971395Y-143577115D01*
X222571395Y-142537885D01*
X223610625Y-143137885D01*
X223610625Y-143137885D01*
G37*
D13*
X225518990Y-144932500D03*
D14*
G36*
X226338605Y-144712885D02*
X225738605Y-145752115D01*
X224699375Y-145152115D01*
X225299375Y-144112885D01*
X226338605Y-144712885D01*
X226338605Y-144712885D01*
G37*
D11*
X227532499Y-146095000D03*
X220777501Y-142195000D03*
D14*
G36*
X221870321Y-141902180D02*
X221070321Y-143287820D01*
X219684681Y-142487820D01*
X220484681Y-141102180D01*
X221870321Y-141902180D01*
X221870321Y-141902180D01*
G37*
G04 #@! TD*
D10*
G04 #@! TO.C,D40*
X103505000Y-144450000D03*
X103505000Y-141300000D03*
D11*
X103505000Y-138975000D03*
D12*
X103505000Y-146775000D03*
G04 #@! TD*
D10*
G04 #@! TO.C,D41*
X122555000Y-142545000D03*
X122555000Y-139395000D03*
D11*
X122555000Y-137070000D03*
D12*
X122555000Y-144870000D03*
G04 #@! TD*
D10*
G04 #@! TO.C,D42*
X141605000Y-140005000D03*
X141605000Y-136855000D03*
D11*
X141605000Y-134530000D03*
D12*
X141605000Y-142330000D03*
G04 #@! TD*
D10*
G04 #@! TO.C,D43*
X160655000Y-137465000D03*
X160655000Y-134315000D03*
D11*
X160655000Y-131990000D03*
D12*
X160655000Y-139790000D03*
G04 #@! TD*
D13*
G04 #@! TO.C,D44*
X187552360Y-146047333D03*
D14*
G36*
X187128096Y-145312486D02*
X188287207Y-145623069D01*
X187976624Y-146782180D01*
X186817513Y-146471597D01*
X187128096Y-145312486D01*
X187128096Y-145312486D01*
G37*
D13*
X188367640Y-143004667D03*
D14*
G36*
X187943376Y-142269820D02*
X189102487Y-142580403D01*
X188791904Y-143739514D01*
X187632793Y-143428931D01*
X187943376Y-142269820D01*
X187943376Y-142269820D01*
G37*
D11*
X188969394Y-140758889D03*
X186950606Y-148293111D03*
D14*
G36*
X186384921Y-147313315D02*
X187930402Y-147727426D01*
X187516291Y-149272907D01*
X185970810Y-148858796D01*
X186384921Y-147313315D01*
X186384921Y-147313315D01*
G37*
G04 #@! TD*
D13*
G04 #@! TO.C,D45*
X193962010Y-155168500D03*
D14*
G36*
X194781625Y-154948885D02*
X194181625Y-155988115D01*
X193142395Y-155388115D01*
X193742395Y-154348885D01*
X194781625Y-154948885D01*
X194781625Y-154948885D01*
G37*
D13*
X196689990Y-156743500D03*
D14*
G36*
X197509605Y-156523885D02*
X196909605Y-157563115D01*
X195870375Y-156963115D01*
X196470375Y-155923885D01*
X197509605Y-156523885D01*
X197509605Y-156523885D01*
G37*
D11*
X198703499Y-157906000D03*
X191948501Y-154006000D03*
D14*
G36*
X193041321Y-153713180D02*
X192241321Y-155098820D01*
X190855681Y-154298820D01*
X191655681Y-152913180D01*
X193041321Y-153713180D01*
X193041321Y-153713180D01*
G37*
G04 #@! TD*
D13*
G04 #@! TO.C,D46*
X210726010Y-164820500D03*
D14*
G36*
X211545625Y-164600885D02*
X210945625Y-165640115D01*
X209906395Y-165040115D01*
X210506395Y-164000885D01*
X211545625Y-164600885D01*
X211545625Y-164600885D01*
G37*
D13*
X213453990Y-166395500D03*
D14*
G36*
X214273605Y-166175885D02*
X213673605Y-167215115D01*
X212634375Y-166615115D01*
X213234375Y-165575885D01*
X214273605Y-166175885D01*
X214273605Y-166175885D01*
G37*
D11*
X215467499Y-167558000D03*
X208712501Y-163658000D03*
D14*
G36*
X209805321Y-163365180D02*
X209005321Y-164750820D01*
X207619681Y-163950820D01*
X208419681Y-162565180D01*
X209805321Y-163365180D01*
X209805321Y-163365180D01*
G37*
G04 #@! TD*
D11*
G04 #@! TO.C,R1*
X200660000Y-63336000D03*
X200660000Y-55536000D03*
G04 #@! TD*
G04 #@! TO.C,R2*
X214884000Y-63336000D03*
X214884000Y-55536000D03*
G04 #@! TD*
D15*
G04 #@! TO.C,RGB_STRIP1*
X198882000Y-101600000D03*
D16*
X198882000Y-104140000D03*
X198882000Y-106680000D03*
G04 #@! TD*
D17*
G04 #@! TO.C,RST_SW1*
X114808000Y-55808000D03*
X114808000Y-51308000D03*
X121308000Y-55808000D03*
X121308000Y-51308000D03*
G04 #@! TD*
D18*
G04 #@! TO.C,TRRS1*
X210072000Y-59400000D03*
X210072000Y-52400000D03*
D19*
X212372000Y-62100000D03*
X203172000Y-62100000D03*
X207772000Y-61000000D03*
X207772000Y-54000000D03*
D18*
X205472000Y-59400000D03*
X205472000Y-52400000D03*
D19*
X207772000Y-57000000D03*
G04 #@! TD*
D20*
G04 #@! TO.C,U1*
X143510000Y-52070000D03*
D21*
X143510000Y-54610000D03*
X143510000Y-57150000D03*
X143510000Y-59690000D03*
X143510000Y-62230000D03*
X143510000Y-64770000D03*
X143510000Y-67310000D03*
X143510000Y-69850000D03*
X143510000Y-72390000D03*
X143510000Y-74930000D03*
X143510000Y-77470000D03*
X158750000Y-80010000D03*
X158750000Y-77470000D03*
X158750000Y-74930000D03*
X158750000Y-72390000D03*
X158750000Y-69850000D03*
X158750000Y-67310000D03*
X158750000Y-64770000D03*
X158750000Y-62230000D03*
X158750000Y-59690000D03*
X158750000Y-57150000D03*
X158750000Y-54610000D03*
X143510000Y-80010000D03*
X158750000Y-52070000D03*
G04 #@! TD*
D22*
G04 #@! TO.C,HOLE_M3*
X213360000Y-144272000D03*
G04 #@! TD*
G04 #@! TO.C,HOLE_M3*
X85725000Y-53975000D03*
G04 #@! TD*
G04 #@! TO.C,HOLE_M3*
X102870000Y-128905000D03*
G04 #@! TD*
G04 #@! TO.C,HOLE_M3*
X196215000Y-52070000D03*
G04 #@! TD*
D23*
G04 #@! TO.C,K44*
X175335610Y-136325991D03*
D24*
X175391441Y-136041416D02*
X175279779Y-136610566D01*
D23*
X180665316Y-139327701D03*
D24*
X180462604Y-138517681D02*
X180868028Y-140137721D01*
D23*
X174087361Y-137565144D03*
D24*
X174667925Y-136965002D02*
X173506797Y-138165286D01*
D23*
X180203876Y-137630439D03*
D24*
X180297812Y-137356074D02*
X180109940Y-137904804D01*
G04 #@! TD*
D23*
G04 #@! TO.C,K30*
X88920000Y-119035000D03*
D24*
X88900276Y-118745672D02*
X88939724Y-119324328D01*
D23*
X94845000Y-120555000D03*
D24*
X94439547Y-119825046D02*
X95250453Y-121284954D01*
D23*
X88035000Y-120555000D03*
D24*
X88440453Y-119825046D02*
X87629547Y-121284954D01*
D23*
X93960000Y-119035000D03*
D24*
X93979724Y-118745672D02*
X93940276Y-119324328D01*
G04 #@! TD*
D23*
G04 #@! TO.C,K20*
X88920000Y-99985000D03*
D24*
X88900276Y-99695672D02*
X88939724Y-100274328D01*
D23*
X94845000Y-101505000D03*
D24*
X94439547Y-100775046D02*
X95250453Y-102234954D01*
D23*
X88035000Y-101505000D03*
D24*
X88440453Y-100775046D02*
X87629547Y-102234954D01*
D23*
X93960000Y-99985000D03*
D24*
X93979724Y-99695672D02*
X93940276Y-100274328D01*
G04 #@! TD*
D23*
G04 #@! TO.C,K10*
X88920000Y-80935000D03*
D24*
X88900276Y-80645672D02*
X88939724Y-81224328D01*
D23*
X94845000Y-82455000D03*
D24*
X94439547Y-81725046D02*
X95250453Y-83184954D01*
D23*
X88035000Y-82455000D03*
D24*
X88440453Y-81725046D02*
X87629547Y-83184954D01*
D23*
X93960000Y-80935000D03*
D24*
X93979724Y-80645672D02*
X93940276Y-81224328D01*
G04 #@! TD*
D23*
G04 #@! TO.C,K0*
X88920000Y-61885000D03*
D24*
X88900276Y-61595672D02*
X88939724Y-62174328D01*
D23*
X94845000Y-63405000D03*
D24*
X94439547Y-62675046D02*
X95250453Y-64134954D01*
D23*
X88035000Y-63405000D03*
D24*
X88440453Y-62675046D02*
X87629547Y-64134954D01*
D23*
X93960000Y-61885000D03*
D24*
X93979724Y-61595672D02*
X93940276Y-62174328D01*
G04 #@! TD*
D23*
G04 #@! TO.C,K36*
X228812616Y-131751738D03*
D24*
X228940198Y-131491310D02*
X228685034Y-132012166D01*
D23*
X233183816Y-136030597D03*
D24*
X233197660Y-135195712D02*
X233169972Y-136865482D01*
D23*
X227286184Y-132625597D03*
D24*
X228002294Y-132196165D02*
X226570074Y-133055029D01*
D23*
X233177384Y-134271738D03*
D24*
X233339130Y-134031034D02*
X233015638Y-134512442D01*
G04 #@! TD*
D23*
G04 #@! TO.C,K43*
X148610000Y-131100000D03*
D24*
X148590276Y-130810672D02*
X148629724Y-131389328D01*
D23*
X154535000Y-132620000D03*
D24*
X154129547Y-131890046D02*
X154940453Y-133349954D01*
D23*
X147725000Y-132620000D03*
D24*
X148130453Y-131890046D02*
X147319547Y-133349954D01*
D23*
X153650000Y-131100000D03*
D24*
X153669724Y-130810672D02*
X153630276Y-131389328D01*
G04 #@! TD*
D23*
G04 #@! TO.C,K42*
X129560000Y-133640000D03*
D24*
X129540276Y-133350672D02*
X129579724Y-133929328D01*
D23*
X135485000Y-135160000D03*
D24*
X135079547Y-134430046D02*
X135890453Y-135889954D01*
D23*
X128675000Y-135160000D03*
D24*
X129080453Y-134430046D02*
X128269547Y-135889954D01*
D23*
X134600000Y-133640000D03*
D24*
X134619724Y-133350672D02*
X134580276Y-133929328D01*
G04 #@! TD*
D23*
G04 #@! TO.C,K41*
X110510000Y-138085000D03*
D24*
X110490276Y-137795672D02*
X110529724Y-138374328D01*
D23*
X116435000Y-139605000D03*
D24*
X116029547Y-138875046D02*
X116840453Y-140334954D01*
D23*
X109625000Y-139605000D03*
D24*
X110030453Y-138875046D02*
X109219547Y-140334954D01*
D23*
X115550000Y-138085000D03*
D24*
X115569724Y-137795672D02*
X115530276Y-138374328D01*
G04 #@! TD*
D23*
G04 #@! TO.C,K40*
X91460000Y-138085000D03*
D24*
X91440276Y-137795672D02*
X91479724Y-138374328D01*
D23*
X97385000Y-139605000D03*
D24*
X96979547Y-138875046D02*
X97790453Y-140334954D01*
D23*
X90575000Y-139605000D03*
D24*
X90980453Y-138875046D02*
X90169547Y-140334954D01*
D23*
X96500000Y-138085000D03*
D24*
X96519724Y-137795672D02*
X96480276Y-138374328D01*
G04 #@! TD*
D23*
G04 #@! TO.C,K35*
X186710000Y-116495000D03*
D24*
X186690276Y-116205672D02*
X186729724Y-116784328D01*
D23*
X192635000Y-118015000D03*
D24*
X192229547Y-117285046D02*
X193040453Y-118744954D01*
D23*
X185825000Y-118015000D03*
D24*
X186230453Y-117285046D02*
X185419547Y-118744954D01*
D23*
X191750000Y-116495000D03*
D24*
X191769724Y-116205672D02*
X191730276Y-116784328D01*
G04 #@! TD*
D23*
G04 #@! TO.C,K34*
X167660000Y-114590000D03*
D24*
X167640276Y-114300672D02*
X167679724Y-114879328D01*
D23*
X173585000Y-116110000D03*
D24*
X173179547Y-115380046D02*
X173990453Y-116839954D01*
D23*
X166775000Y-116110000D03*
D24*
X167180453Y-115380046D02*
X166369547Y-116839954D01*
D23*
X172700000Y-114590000D03*
D24*
X172719724Y-114300672D02*
X172680276Y-114879328D01*
G04 #@! TD*
D23*
G04 #@! TO.C,K33*
X148610000Y-112050000D03*
D24*
X148590276Y-111760672D02*
X148629724Y-112339328D01*
D23*
X154535000Y-113570000D03*
D24*
X154129547Y-112840046D02*
X154940453Y-114299954D01*
D23*
X147725000Y-113570000D03*
D24*
X148130453Y-112840046D02*
X147319547Y-114299954D01*
D23*
X153650000Y-112050000D03*
D24*
X153669724Y-111760672D02*
X153630276Y-112339328D01*
G04 #@! TD*
D23*
G04 #@! TO.C,K32*
X129560000Y-114590000D03*
D24*
X129540276Y-114300672D02*
X129579724Y-114879328D01*
D23*
X135485000Y-116110000D03*
D24*
X135079547Y-115380046D02*
X135890453Y-116839954D01*
D23*
X128675000Y-116110000D03*
D24*
X129080453Y-115380046D02*
X128269547Y-116839954D01*
D23*
X134600000Y-114590000D03*
D24*
X134619724Y-114300672D02*
X134580276Y-114879328D01*
G04 #@! TD*
D23*
G04 #@! TO.C,K31*
X110510000Y-119035000D03*
D24*
X110490276Y-118745672D02*
X110529724Y-119324328D01*
D23*
X116435000Y-120555000D03*
D24*
X116029547Y-119825046D02*
X116840453Y-121284954D01*
D23*
X109625000Y-120555000D03*
D24*
X110030453Y-119825046D02*
X109219547Y-121284954D01*
D23*
X115550000Y-119035000D03*
D24*
X115569724Y-118745672D02*
X115530276Y-119324328D01*
G04 #@! TD*
D23*
G04 #@! TO.C,K26*
X212302616Y-122226738D03*
D24*
X212430198Y-121966310D02*
X212175034Y-122487166D01*
D23*
X216673816Y-126505597D03*
D24*
X216687660Y-125670712D02*
X216659972Y-127340482D01*
D23*
X210776184Y-123100597D03*
D24*
X211492294Y-122671165D02*
X210060074Y-123530029D01*
D23*
X216667384Y-124746738D03*
D24*
X216829130Y-124506034D02*
X216505638Y-124987442D01*
G04 #@! TD*
D23*
G04 #@! TO.C,K25*
X186710000Y-97445000D03*
D24*
X186690276Y-97155672D02*
X186729724Y-97734328D01*
D23*
X192635000Y-98965000D03*
D24*
X192229547Y-98235046D02*
X193040453Y-99694954D01*
D23*
X185825000Y-98965000D03*
D24*
X186230453Y-98235046D02*
X185419547Y-99694954D01*
D23*
X191750000Y-97445000D03*
D24*
X191769724Y-97155672D02*
X191730276Y-97734328D01*
G04 #@! TD*
D23*
G04 #@! TO.C,K24*
X167660000Y-95540000D03*
D24*
X167640276Y-95250672D02*
X167679724Y-95829328D01*
D23*
X173585000Y-97060000D03*
D24*
X173179547Y-96330046D02*
X173990453Y-97789954D01*
D23*
X166775000Y-97060000D03*
D24*
X167180453Y-96330046D02*
X166369547Y-97789954D01*
D23*
X172700000Y-95540000D03*
D24*
X172719724Y-95250672D02*
X172680276Y-95829328D01*
G04 #@! TD*
D23*
G04 #@! TO.C,K23*
X148610000Y-93000000D03*
D24*
X148590276Y-92710672D02*
X148629724Y-93289328D01*
D23*
X154535000Y-94520000D03*
D24*
X154129547Y-93790046D02*
X154940453Y-95249954D01*
D23*
X147725000Y-94520000D03*
D24*
X148130453Y-93790046D02*
X147319547Y-95249954D01*
D23*
X153650000Y-93000000D03*
D24*
X153669724Y-92710672D02*
X153630276Y-93289328D01*
G04 #@! TD*
D23*
G04 #@! TO.C,K22*
X129560000Y-95540000D03*
D24*
X129540276Y-95250672D02*
X129579724Y-95829328D01*
D23*
X135485000Y-97060000D03*
D24*
X135079547Y-96330046D02*
X135890453Y-97789954D01*
D23*
X128675000Y-97060000D03*
D24*
X129080453Y-96330046D02*
X128269547Y-97789954D01*
D23*
X134600000Y-95540000D03*
D24*
X134619724Y-95250672D02*
X134580276Y-95829328D01*
G04 #@! TD*
D23*
G04 #@! TO.C,K21*
X110510000Y-99985000D03*
D24*
X110490276Y-99695672D02*
X110529724Y-100274328D01*
D23*
X116435000Y-101505000D03*
D24*
X116029547Y-100775046D02*
X116840453Y-102234954D01*
D23*
X109625000Y-101505000D03*
D24*
X110030453Y-100775046D02*
X109219547Y-102234954D01*
D23*
X115550000Y-99985000D03*
D24*
X115569724Y-99695672D02*
X115530276Y-100274328D01*
G04 #@! TD*
D23*
G04 #@! TO.C,K15*
X186710000Y-78395000D03*
D24*
X186690276Y-78105672D02*
X186729724Y-78684328D01*
D23*
X192635000Y-79915000D03*
D24*
X192229547Y-79185046D02*
X193040453Y-80644954D01*
D23*
X185825000Y-79915000D03*
D24*
X186230453Y-79185046D02*
X185419547Y-80644954D01*
D23*
X191750000Y-78395000D03*
D24*
X191769724Y-78105672D02*
X191730276Y-78684328D01*
G04 #@! TD*
D23*
G04 #@! TO.C,K14*
X167660000Y-76490000D03*
D24*
X167640276Y-76200672D02*
X167679724Y-76779328D01*
D23*
X173585000Y-78010000D03*
D24*
X173179547Y-77280046D02*
X173990453Y-78739954D01*
D23*
X166775000Y-78010000D03*
D24*
X167180453Y-77280046D02*
X166369547Y-78739954D01*
D23*
X172700000Y-76490000D03*
D24*
X172719724Y-76200672D02*
X172680276Y-76779328D01*
G04 #@! TD*
D23*
G04 #@! TO.C,K13*
X148610000Y-73950000D03*
D24*
X148590276Y-73660672D02*
X148629724Y-74239328D01*
D23*
X154535000Y-75470000D03*
D24*
X154129547Y-74740046D02*
X154940453Y-76199954D01*
D23*
X147725000Y-75470000D03*
D24*
X148130453Y-74740046D02*
X147319547Y-76199954D01*
D23*
X153650000Y-73950000D03*
D24*
X153669724Y-73660672D02*
X153630276Y-74239328D01*
G04 #@! TD*
D23*
G04 #@! TO.C,K12*
X129560000Y-76490000D03*
D24*
X129540276Y-76200672D02*
X129579724Y-76779328D01*
D23*
X135485000Y-78010000D03*
D24*
X135079547Y-77280046D02*
X135890453Y-78739954D01*
D23*
X128675000Y-78010000D03*
D24*
X129080453Y-77280046D02*
X128269547Y-78739954D01*
D23*
X134600000Y-76490000D03*
D24*
X134619724Y-76200672D02*
X134580276Y-76779328D01*
G04 #@! TD*
D23*
G04 #@! TO.C,K11*
X110510000Y-80935000D03*
D24*
X110490276Y-80645672D02*
X110529724Y-81224328D01*
D23*
X116435000Y-82455000D03*
D24*
X116029547Y-81725046D02*
X116840453Y-83184954D01*
D23*
X109625000Y-82455000D03*
D24*
X110030453Y-81725046D02*
X109219547Y-83184954D01*
D23*
X115550000Y-80935000D03*
D24*
X115569724Y-80645672D02*
X115530276Y-81224328D01*
G04 #@! TD*
D23*
G04 #@! TO.C,K6*
X205760000Y-68870000D03*
D24*
X205740276Y-68580672D02*
X205779724Y-69159328D01*
D23*
X211685000Y-70390000D03*
D24*
X211279547Y-69660046D02*
X212090453Y-71119954D01*
D23*
X204875000Y-70390000D03*
D24*
X205280453Y-69660046D02*
X204469547Y-71119954D01*
D23*
X210800000Y-68870000D03*
D24*
X210819724Y-68580672D02*
X210780276Y-69159328D01*
G04 #@! TD*
D23*
G04 #@! TO.C,K5*
X186710000Y-59345000D03*
D24*
X186690276Y-59055672D02*
X186729724Y-59634328D01*
D23*
X192635000Y-60865000D03*
D24*
X192229547Y-60135046D02*
X193040453Y-61594954D01*
D23*
X185825000Y-60865000D03*
D24*
X186230453Y-60135046D02*
X185419547Y-61594954D01*
D23*
X191750000Y-59345000D03*
D24*
X191769724Y-59055672D02*
X191730276Y-59634328D01*
G04 #@! TD*
D23*
G04 #@! TO.C,K4*
X167660000Y-57440000D03*
D24*
X167640276Y-57150672D02*
X167679724Y-57729328D01*
D23*
X173585000Y-58960000D03*
D24*
X173179547Y-58230046D02*
X173990453Y-59689954D01*
D23*
X166775000Y-58960000D03*
D24*
X167180453Y-58230046D02*
X166369547Y-59689954D01*
D23*
X172700000Y-57440000D03*
D24*
X172719724Y-57150672D02*
X172680276Y-57729328D01*
G04 #@! TD*
D23*
G04 #@! TO.C,K3*
X148610000Y-54900000D03*
D24*
X148590276Y-54610672D02*
X148629724Y-55189328D01*
D23*
X154535000Y-56420000D03*
D24*
X154129547Y-55690046D02*
X154940453Y-57149954D01*
D23*
X147725000Y-56420000D03*
D24*
X148130453Y-55690046D02*
X147319547Y-57149954D01*
D23*
X153650000Y-54900000D03*
D24*
X153669724Y-54610672D02*
X153630276Y-55189328D01*
G04 #@! TD*
D23*
G04 #@! TO.C,K2*
X129560000Y-57440000D03*
D24*
X129540276Y-57150672D02*
X129579724Y-57729328D01*
D23*
X135485000Y-58960000D03*
D24*
X135079547Y-58230046D02*
X135890453Y-59689954D01*
D23*
X128675000Y-58960000D03*
D24*
X129080453Y-58230046D02*
X128269547Y-59689954D01*
D23*
X134600000Y-57440000D03*
D24*
X134619724Y-57150672D02*
X134580276Y-57729328D01*
G04 #@! TD*
D23*
G04 #@! TO.C,K1*
X110510000Y-61885000D03*
D24*
X110490276Y-61595672D02*
X110529724Y-62174328D01*
D23*
X116435000Y-63405000D03*
D24*
X116029547Y-62675046D02*
X116840453Y-64134954D01*
D23*
X109625000Y-63405000D03*
D24*
X110030453Y-62675046D02*
X109219547Y-64134954D01*
D23*
X115550000Y-61885000D03*
D24*
X115569724Y-61595672D02*
X115530276Y-62174328D01*
G04 #@! TD*
D23*
G04 #@! TO.C,K16*
X213070000Y-95270000D03*
D24*
X213359328Y-95250276D02*
X212780672Y-95289724D01*
D23*
X211550000Y-101195000D03*
D24*
X212279954Y-100789547D02*
X210820046Y-101600453D01*
D23*
X211550000Y-94385000D03*
D24*
X212279954Y-94790453D02*
X210820046Y-93979547D01*
D23*
X213070000Y-100310000D03*
D24*
X213359328Y-100329724D02*
X212780672Y-100290276D01*
G04 #@! TD*
D23*
G04 #@! TO.C,K46*
X221943262Y-158327616D03*
D24*
X222203690Y-158455198D02*
X221682834Y-158200034D01*
D23*
X217664403Y-162698816D03*
D24*
X218499288Y-162712660D02*
X216829518Y-162684972D01*
D23*
X221069403Y-156801184D03*
D24*
X221498835Y-157517294D02*
X220639971Y-156085074D01*
D23*
X219423262Y-162692384D03*
D24*
X219663966Y-162854130D02*
X219182558Y-162530638D01*
G04 #@! TD*
D23*
G04 #@! TO.C,K45*
X205433262Y-148802616D03*
D24*
X205693690Y-148930198D02*
X205172834Y-148675034D01*
D23*
X201154403Y-153173816D03*
D24*
X201989288Y-153187660D02*
X200319518Y-153159972D01*
D23*
X204559403Y-147276184D03*
D24*
X204988835Y-147992294D02*
X204129971Y-146560074D01*
D23*
X202913262Y-153167384D03*
D24*
X203153966Y-153329130D02*
X202672558Y-153005638D01*
G04 #@! TD*
M02*
