G04 #@! TF.GenerationSoftware,KiCad,Pcbnew,5.0.0-fee4fd1~66~ubuntu18.04.1*
G04 #@! TF.CreationDate,2018-08-23T18:28:32+02:00*
G04 #@! TF.ProjectId,redox_rev1,7265646F785F726576312E6B69636164,1.0*
G04 #@! TF.SameCoordinates,Original*
G04 #@! TF.FileFunction,Legend,Bot*
G04 #@! TF.FilePolarity,Positive*
%FSLAX46Y46*%
G04 Gerber Fmt 4.6, Leading zero omitted, Abs format (unit mm)*
G04 Created by KiCad (PCBNEW 5.0.0-fee4fd1~66~ubuntu18.04.1) date Thu Aug 23 18:28:32 2018*
%MOMM*%
%LPD*%
G01*
G04 APERTURE LIST*
%ADD10C,0.300000*%
%ADD11C,0.150000*%
%ADD12C,0.381000*%
%ADD13C,0.010000*%
G04 APERTURE END LIST*
D10*
X82593571Y-61773714D02*
X81093571Y-61773714D01*
X82522142Y-61773714D02*
X82593571Y-61630857D01*
X82593571Y-61345142D01*
X82522142Y-61202285D01*
X82450714Y-61130857D01*
X82307857Y-61059428D01*
X81879285Y-61059428D01*
X81736428Y-61130857D01*
X81665000Y-61202285D01*
X81593571Y-61345142D01*
X81593571Y-61630857D01*
X81665000Y-61773714D01*
X82522142Y-63059428D02*
X82593571Y-62916571D01*
X82593571Y-62630857D01*
X82522142Y-62488000D01*
X82379285Y-62416571D01*
X81807857Y-62416571D01*
X81665000Y-62488000D01*
X81593571Y-62630857D01*
X81593571Y-62916571D01*
X81665000Y-63059428D01*
X81807857Y-63130857D01*
X81950714Y-63130857D01*
X82093571Y-62416571D01*
X82522142Y-63702285D02*
X82593571Y-63845142D01*
X82593571Y-64130857D01*
X82522142Y-64273714D01*
X82379285Y-64345142D01*
X82307857Y-64345142D01*
X82165000Y-64273714D01*
X82093571Y-64130857D01*
X82093571Y-63916571D01*
X82022142Y-63773714D01*
X81879285Y-63702285D01*
X81807857Y-63702285D01*
X81665000Y-63773714D01*
X81593571Y-63916571D01*
X81593571Y-64130857D01*
X81665000Y-64273714D01*
X82593571Y-64988000D02*
X81593571Y-64988000D01*
X81093571Y-64988000D02*
X81165000Y-64916571D01*
X81236428Y-64988000D01*
X81165000Y-65059428D01*
X81093571Y-64988000D01*
X81236428Y-64988000D01*
X81593571Y-66345142D02*
X82807857Y-66345142D01*
X82950714Y-66273714D01*
X83022142Y-66202285D01*
X83093571Y-66059428D01*
X83093571Y-65845142D01*
X83022142Y-65702285D01*
X82522142Y-66345142D02*
X82593571Y-66202285D01*
X82593571Y-65916571D01*
X82522142Y-65773714D01*
X82450714Y-65702285D01*
X82307857Y-65630857D01*
X81879285Y-65630857D01*
X81736428Y-65702285D01*
X81665000Y-65773714D01*
X81593571Y-65916571D01*
X81593571Y-66202285D01*
X81665000Y-66345142D01*
X81593571Y-67059428D02*
X82593571Y-67059428D01*
X81736428Y-67059428D02*
X81665000Y-67130857D01*
X81593571Y-67273714D01*
X81593571Y-67488000D01*
X81665000Y-67630857D01*
X81807857Y-67702285D01*
X82593571Y-67702285D01*
X82522142Y-68988000D02*
X82593571Y-68845142D01*
X82593571Y-68559428D01*
X82522142Y-68416571D01*
X82379285Y-68345142D01*
X81807857Y-68345142D01*
X81665000Y-68416571D01*
X81593571Y-68559428D01*
X81593571Y-68845142D01*
X81665000Y-68988000D01*
X81807857Y-69059428D01*
X81950714Y-69059428D01*
X82093571Y-68345142D01*
X82593571Y-70345142D02*
X81093571Y-70345142D01*
X82522142Y-70345142D02*
X82593571Y-70202285D01*
X82593571Y-69916571D01*
X82522142Y-69773714D01*
X82450714Y-69702285D01*
X82307857Y-69630857D01*
X81879285Y-69630857D01*
X81736428Y-69702285D01*
X81665000Y-69773714D01*
X81593571Y-69916571D01*
X81593571Y-70202285D01*
X81665000Y-70345142D01*
X82593571Y-72202285D02*
X81093571Y-72202285D01*
X81665000Y-72202285D02*
X81593571Y-72345142D01*
X81593571Y-72630857D01*
X81665000Y-72773714D01*
X81736428Y-72845142D01*
X81879285Y-72916571D01*
X82307857Y-72916571D01*
X82450714Y-72845142D01*
X82522142Y-72773714D01*
X82593571Y-72630857D01*
X82593571Y-72345142D01*
X82522142Y-72202285D01*
X81593571Y-73416571D02*
X82593571Y-73773714D01*
X81593571Y-74130857D02*
X82593571Y-73773714D01*
X82950714Y-73630857D01*
X83022142Y-73559428D01*
X83093571Y-73416571D01*
X82593571Y-75845142D02*
X81093571Y-75845142D01*
X82165000Y-76345142D01*
X81093571Y-76845142D01*
X82593571Y-76845142D01*
X82593571Y-78202285D02*
X81807857Y-78202285D01*
X81665000Y-78130857D01*
X81593571Y-77988000D01*
X81593571Y-77702285D01*
X81665000Y-77559428D01*
X82522142Y-78202285D02*
X82593571Y-78059428D01*
X82593571Y-77702285D01*
X82522142Y-77559428D01*
X82379285Y-77488000D01*
X82236428Y-77488000D01*
X82093571Y-77559428D01*
X82022142Y-77702285D01*
X82022142Y-78059428D01*
X81950714Y-78202285D01*
X81593571Y-78702285D02*
X81593571Y-79273714D01*
X81093571Y-78916571D02*
X82379285Y-78916571D01*
X82522142Y-78988000D01*
X82593571Y-79130857D01*
X82593571Y-79273714D01*
X81593571Y-79559428D02*
X81593571Y-80130857D01*
X81093571Y-79773714D02*
X82379285Y-79773714D01*
X82522142Y-79845142D01*
X82593571Y-79988000D01*
X82593571Y-80130857D01*
X82593571Y-80630857D02*
X81593571Y-80630857D01*
X81093571Y-80630857D02*
X81165000Y-80559428D01*
X81236428Y-80630857D01*
X81165000Y-80702285D01*
X81093571Y-80630857D01*
X81236428Y-80630857D01*
X82593571Y-81988000D02*
X81807857Y-81988000D01*
X81665000Y-81916571D01*
X81593571Y-81773714D01*
X81593571Y-81488000D01*
X81665000Y-81345142D01*
X82522142Y-81988000D02*
X82593571Y-81845142D01*
X82593571Y-81488000D01*
X82522142Y-81345142D01*
X82379285Y-81273714D01*
X82236428Y-81273714D01*
X82093571Y-81345142D01*
X82022142Y-81488000D01*
X82022142Y-81845142D01*
X81950714Y-81988000D01*
X82593571Y-83845142D02*
X81093571Y-83845142D01*
X81093571Y-84202285D01*
X81165000Y-84416571D01*
X81307857Y-84559428D01*
X81450714Y-84630857D01*
X81736428Y-84702285D01*
X81950714Y-84702285D01*
X82236428Y-84630857D01*
X82379285Y-84559428D01*
X82522142Y-84416571D01*
X82593571Y-84202285D01*
X82593571Y-83845142D01*
X82593571Y-85988000D02*
X81807857Y-85988000D01*
X81665000Y-85916571D01*
X81593571Y-85773714D01*
X81593571Y-85488000D01*
X81665000Y-85345142D01*
X82522142Y-85988000D02*
X82593571Y-85845142D01*
X82593571Y-85488000D01*
X82522142Y-85345142D01*
X82379285Y-85273714D01*
X82236428Y-85273714D01*
X82093571Y-85345142D01*
X82022142Y-85488000D01*
X82022142Y-85845142D01*
X81950714Y-85988000D01*
X82593571Y-86916571D02*
X82522142Y-86773714D01*
X82379285Y-86702285D01*
X81093571Y-86702285D01*
X81807857Y-89130857D02*
X81879285Y-89345142D01*
X81950714Y-89416571D01*
X82093571Y-89488000D01*
X82307857Y-89488000D01*
X82450714Y-89416571D01*
X82522142Y-89345142D01*
X82593571Y-89202285D01*
X82593571Y-88630857D01*
X81093571Y-88630857D01*
X81093571Y-89130857D01*
X81165000Y-89273714D01*
X81236428Y-89345142D01*
X81379285Y-89416571D01*
X81522142Y-89416571D01*
X81665000Y-89345142D01*
X81736428Y-89273714D01*
X81807857Y-89130857D01*
X81807857Y-88630857D01*
X82522142Y-90702285D02*
X82593571Y-90559428D01*
X82593571Y-90273714D01*
X82522142Y-90130857D01*
X82379285Y-90059428D01*
X81807857Y-90059428D01*
X81665000Y-90130857D01*
X81593571Y-90273714D01*
X81593571Y-90559428D01*
X81665000Y-90702285D01*
X81807857Y-90773714D01*
X81950714Y-90773714D01*
X82093571Y-90059428D01*
X81593571Y-91416571D02*
X82593571Y-91416571D01*
X81736428Y-91416571D02*
X81665000Y-91488000D01*
X81593571Y-91630857D01*
X81593571Y-91845142D01*
X81665000Y-91988000D01*
X81807857Y-92059428D01*
X82593571Y-92059428D01*
X83165000Y-94345142D02*
X83093571Y-94273714D01*
X82879285Y-94130857D01*
X82736428Y-94059428D01*
X82522142Y-93988000D01*
X82165000Y-93916571D01*
X81879285Y-93916571D01*
X81522142Y-93988000D01*
X81307857Y-94059428D01*
X81165000Y-94130857D01*
X80950714Y-94273714D01*
X80879285Y-94345142D01*
X82593571Y-94916571D02*
X81093571Y-94916571D01*
X82593571Y-95559428D02*
X81807857Y-95559428D01*
X81665000Y-95488000D01*
X81593571Y-95345142D01*
X81593571Y-95130857D01*
X81665000Y-94988000D01*
X81736428Y-94916571D01*
X81593571Y-96059428D02*
X81593571Y-96630857D01*
X81093571Y-96273714D02*
X82379285Y-96273714D01*
X82522142Y-96345142D01*
X82593571Y-96488000D01*
X82593571Y-96630857D01*
X81593571Y-96916571D02*
X81593571Y-97488000D01*
X81093571Y-97130857D02*
X82379285Y-97130857D01*
X82522142Y-97202285D01*
X82593571Y-97345142D01*
X82593571Y-97488000D01*
X81593571Y-97988000D02*
X83093571Y-97988000D01*
X81665000Y-97988000D02*
X81593571Y-98130857D01*
X81593571Y-98416571D01*
X81665000Y-98559428D01*
X81736428Y-98630857D01*
X81879285Y-98702285D01*
X82307857Y-98702285D01*
X82450714Y-98630857D01*
X82522142Y-98559428D01*
X82593571Y-98416571D01*
X82593571Y-98130857D01*
X82522142Y-97988000D01*
X82522142Y-99273714D02*
X82593571Y-99416571D01*
X82593571Y-99702285D01*
X82522142Y-99845142D01*
X82379285Y-99916571D01*
X82307857Y-99916571D01*
X82165000Y-99845142D01*
X82093571Y-99702285D01*
X82093571Y-99488000D01*
X82022142Y-99345142D01*
X81879285Y-99273714D01*
X81807857Y-99273714D01*
X81665000Y-99345142D01*
X81593571Y-99488000D01*
X81593571Y-99702285D01*
X81665000Y-99845142D01*
X82450714Y-100559428D02*
X82522142Y-100630857D01*
X82593571Y-100559428D01*
X82522142Y-100488000D01*
X82450714Y-100559428D01*
X82593571Y-100559428D01*
X81665000Y-100559428D02*
X81736428Y-100630857D01*
X81807857Y-100559428D01*
X81736428Y-100488000D01*
X81665000Y-100559428D01*
X81807857Y-100559428D01*
X81022142Y-102345142D02*
X82950714Y-101059428D01*
X81022142Y-103916571D02*
X82950714Y-102630857D01*
X81593571Y-105059428D02*
X82807857Y-105059428D01*
X82950714Y-104988000D01*
X83022142Y-104916571D01*
X83093571Y-104773714D01*
X83093571Y-104559428D01*
X83022142Y-104416571D01*
X82522142Y-105059428D02*
X82593571Y-104916571D01*
X82593571Y-104630857D01*
X82522142Y-104488000D01*
X82450714Y-104416571D01*
X82307857Y-104345142D01*
X81879285Y-104345142D01*
X81736428Y-104416571D01*
X81665000Y-104488000D01*
X81593571Y-104630857D01*
X81593571Y-104916571D01*
X81665000Y-105059428D01*
X82593571Y-105773714D02*
X81593571Y-105773714D01*
X81093571Y-105773714D02*
X81165000Y-105702285D01*
X81236428Y-105773714D01*
X81165000Y-105845142D01*
X81093571Y-105773714D01*
X81236428Y-105773714D01*
X81593571Y-106273714D02*
X81593571Y-106845142D01*
X81093571Y-106488000D02*
X82379285Y-106488000D01*
X82522142Y-106559428D01*
X82593571Y-106702285D01*
X82593571Y-106845142D01*
X82593571Y-107345142D02*
X81093571Y-107345142D01*
X82593571Y-107988000D02*
X81807857Y-107988000D01*
X81665000Y-107916571D01*
X81593571Y-107773714D01*
X81593571Y-107559428D01*
X81665000Y-107416571D01*
X81736428Y-107345142D01*
X81593571Y-109345142D02*
X82593571Y-109345142D01*
X81593571Y-108702285D02*
X82379285Y-108702285D01*
X82522142Y-108773714D01*
X82593571Y-108916571D01*
X82593571Y-109130857D01*
X82522142Y-109273714D01*
X82450714Y-109345142D01*
X82593571Y-110059428D02*
X81093571Y-110059428D01*
X81665000Y-110059428D02*
X81593571Y-110202285D01*
X81593571Y-110488000D01*
X81665000Y-110630857D01*
X81736428Y-110702285D01*
X81879285Y-110773714D01*
X82307857Y-110773714D01*
X82450714Y-110702285D01*
X82522142Y-110630857D01*
X82593571Y-110488000D01*
X82593571Y-110202285D01*
X82522142Y-110059428D01*
X82450714Y-111416571D02*
X82522142Y-111488000D01*
X82593571Y-111416571D01*
X82522142Y-111345142D01*
X82450714Y-111416571D01*
X82593571Y-111416571D01*
X82522142Y-112773714D02*
X82593571Y-112630857D01*
X82593571Y-112345142D01*
X82522142Y-112202285D01*
X82450714Y-112130857D01*
X82307857Y-112059428D01*
X81879285Y-112059428D01*
X81736428Y-112130857D01*
X81665000Y-112202285D01*
X81593571Y-112345142D01*
X81593571Y-112630857D01*
X81665000Y-112773714D01*
X82593571Y-113630857D02*
X82522142Y-113488000D01*
X82450714Y-113416571D01*
X82307857Y-113345142D01*
X81879285Y-113345142D01*
X81736428Y-113416571D01*
X81665000Y-113488000D01*
X81593571Y-113630857D01*
X81593571Y-113845142D01*
X81665000Y-113988000D01*
X81736428Y-114059428D01*
X81879285Y-114130857D01*
X82307857Y-114130857D01*
X82450714Y-114059428D01*
X82522142Y-113988000D01*
X82593571Y-113845142D01*
X82593571Y-113630857D01*
X82593571Y-114773714D02*
X81593571Y-114773714D01*
X81736428Y-114773714D02*
X81665000Y-114845142D01*
X81593571Y-114988000D01*
X81593571Y-115202285D01*
X81665000Y-115345142D01*
X81807857Y-115416571D01*
X82593571Y-115416571D01*
X81807857Y-115416571D02*
X81665000Y-115488000D01*
X81593571Y-115630857D01*
X81593571Y-115845142D01*
X81665000Y-115988000D01*
X81807857Y-116059428D01*
X82593571Y-116059428D01*
X81022142Y-117845142D02*
X82950714Y-116559428D01*
X82593571Y-118345142D02*
X81593571Y-118345142D01*
X81736428Y-118345142D02*
X81665000Y-118416571D01*
X81593571Y-118559428D01*
X81593571Y-118773714D01*
X81665000Y-118916571D01*
X81807857Y-118988000D01*
X82593571Y-118988000D01*
X81807857Y-118988000D02*
X81665000Y-119059428D01*
X81593571Y-119202285D01*
X81593571Y-119416571D01*
X81665000Y-119559428D01*
X81807857Y-119630857D01*
X82593571Y-119630857D01*
X82593571Y-120988000D02*
X81807857Y-120988000D01*
X81665000Y-120916571D01*
X81593571Y-120773714D01*
X81593571Y-120488000D01*
X81665000Y-120345142D01*
X82522142Y-120988000D02*
X82593571Y-120845142D01*
X82593571Y-120488000D01*
X82522142Y-120345142D01*
X82379285Y-120273714D01*
X82236428Y-120273714D01*
X82093571Y-120345142D01*
X82022142Y-120488000D01*
X82022142Y-120845142D01*
X81950714Y-120988000D01*
X81593571Y-121488000D02*
X81593571Y-122059428D01*
X81093571Y-121702285D02*
X82379285Y-121702285D01*
X82522142Y-121773714D01*
X82593571Y-121916571D01*
X82593571Y-122059428D01*
X81593571Y-122345142D02*
X81593571Y-122916571D01*
X81093571Y-122559428D02*
X82379285Y-122559428D01*
X82522142Y-122630857D01*
X82593571Y-122773714D01*
X82593571Y-122916571D01*
X82593571Y-124059428D02*
X81093571Y-124059428D01*
X82522142Y-124059428D02*
X82593571Y-123916571D01*
X82593571Y-123630857D01*
X82522142Y-123488000D01*
X82450714Y-123416571D01*
X82307857Y-123345142D01*
X81879285Y-123345142D01*
X81736428Y-123416571D01*
X81665000Y-123488000D01*
X81593571Y-123630857D01*
X81593571Y-123916571D01*
X81665000Y-124059428D01*
X82593571Y-124773714D02*
X81593571Y-124773714D01*
X81093571Y-124773714D02*
X81165000Y-124702285D01*
X81236428Y-124773714D01*
X81165000Y-124845142D01*
X81093571Y-124773714D01*
X81236428Y-124773714D01*
X82593571Y-125488000D02*
X81093571Y-125488000D01*
X81665000Y-125488000D02*
X81593571Y-125630857D01*
X81593571Y-125916571D01*
X81665000Y-126059428D01*
X81736428Y-126130857D01*
X81879285Y-126202285D01*
X82307857Y-126202285D01*
X82450714Y-126130857D01*
X82522142Y-126059428D01*
X82593571Y-125916571D01*
X82593571Y-125630857D01*
X82522142Y-125488000D01*
X82593571Y-126845142D02*
X81593571Y-126845142D01*
X81093571Y-126845142D02*
X81165000Y-126773714D01*
X81236428Y-126845142D01*
X81165000Y-126916571D01*
X81093571Y-126845142D01*
X81236428Y-126845142D01*
X83165000Y-127416571D02*
X83093571Y-127488000D01*
X82879285Y-127630857D01*
X82736428Y-127702285D01*
X82522142Y-127773714D01*
X82165000Y-127845142D01*
X81879285Y-127845142D01*
X81522142Y-127773714D01*
X81307857Y-127702285D01*
X81165000Y-127630857D01*
X80950714Y-127488000D01*
X80879285Y-127416571D01*
X97313333Y-55105952D02*
X98146666Y-53915476D01*
X98741904Y-55105952D02*
X98741904Y-52605952D01*
X97789523Y-52605952D01*
X97551428Y-52725000D01*
X97432380Y-52844047D01*
X97313333Y-53082142D01*
X97313333Y-53439285D01*
X97432380Y-53677380D01*
X97551428Y-53796428D01*
X97789523Y-53915476D01*
X98741904Y-53915476D01*
X96241904Y-55105952D02*
X96241904Y-52605952D01*
X93741904Y-52725000D02*
X93980000Y-52605952D01*
X94337142Y-52605952D01*
X94694285Y-52725000D01*
X94932380Y-52963095D01*
X95051428Y-53201190D01*
X95170476Y-53677380D01*
X95170476Y-54034523D01*
X95051428Y-54510714D01*
X94932380Y-54748809D01*
X94694285Y-54986904D01*
X94337142Y-55105952D01*
X94099047Y-55105952D01*
X93741904Y-54986904D01*
X93622857Y-54867857D01*
X93622857Y-54034523D01*
X94099047Y-54034523D01*
X92551428Y-55105952D02*
X92551428Y-52605952D01*
X92551428Y-53796428D02*
X91122857Y-53796428D01*
X91122857Y-55105952D02*
X91122857Y-52605952D01*
X90289523Y-52605952D02*
X88860952Y-52605952D01*
X89575238Y-55105952D02*
X89575238Y-52605952D01*
D11*
G04 #@! TO.C,R1*
X200660000Y-56642000D02*
X200660000Y-56134000D01*
X201422000Y-62230000D02*
X200660000Y-62230000D01*
X201676000Y-61976000D02*
X201422000Y-62230000D01*
X201676000Y-61722000D02*
X201676000Y-61976000D01*
X201422000Y-61468000D02*
X201676000Y-61722000D01*
X201422000Y-57404000D02*
X201422000Y-61468000D01*
X201676000Y-57150000D02*
X201422000Y-57404000D01*
X201676000Y-56896000D02*
X201676000Y-57150000D01*
X201422000Y-56642000D02*
X201676000Y-56896000D01*
X199898000Y-56642000D02*
X201422000Y-56642000D01*
X199644000Y-56896000D02*
X199898000Y-56642000D01*
X199644000Y-57150000D02*
X199644000Y-56896000D01*
X199898000Y-57404000D02*
X199644000Y-57150000D01*
X199898000Y-61468000D02*
X199898000Y-57404000D01*
X199644000Y-61722000D02*
X199898000Y-61468000D01*
X199644000Y-61976000D02*
X199644000Y-61722000D01*
X199898000Y-62230000D02*
X199644000Y-61976000D01*
X200660000Y-62230000D02*
X199898000Y-62230000D01*
X200660000Y-62738000D02*
X200660000Y-62230000D01*
G04 #@! TO.C,R2*
X214884000Y-56642000D02*
X214884000Y-56134000D01*
X215646000Y-62230000D02*
X214884000Y-62230000D01*
X215900000Y-61976000D02*
X215646000Y-62230000D01*
X215900000Y-61722000D02*
X215900000Y-61976000D01*
X215646000Y-61468000D02*
X215900000Y-61722000D01*
X215646000Y-57404000D02*
X215646000Y-61468000D01*
X215900000Y-57150000D02*
X215646000Y-57404000D01*
X215900000Y-56896000D02*
X215900000Y-57150000D01*
X215646000Y-56642000D02*
X215900000Y-56896000D01*
X214122000Y-56642000D02*
X215646000Y-56642000D01*
X213868000Y-56896000D02*
X214122000Y-56642000D01*
X213868000Y-57150000D02*
X213868000Y-56896000D01*
X214122000Y-57404000D02*
X213868000Y-57150000D01*
X214122000Y-61468000D02*
X214122000Y-57404000D01*
X213868000Y-61722000D02*
X214122000Y-61468000D01*
X213868000Y-61976000D02*
X213868000Y-61722000D01*
X214122000Y-62230000D02*
X213868000Y-61976000D01*
X214884000Y-62230000D02*
X214122000Y-62230000D01*
X214884000Y-62738000D02*
X214884000Y-62230000D01*
G04 #@! TO.C,TRRS1*
X212872000Y-50800000D02*
X212872000Y-48800000D01*
X207272000Y-48800000D02*
X212872000Y-48800000D01*
X207272000Y-50800000D02*
X207272000Y-48800000D01*
X207022000Y-62900000D02*
X213122000Y-62900000D01*
X213122000Y-50800000D02*
X213122000Y-62900000D01*
X207022000Y-50800000D02*
X213122000Y-50800000D01*
X207022000Y-50800000D02*
X207022000Y-62900000D01*
D12*
G04 #@! TO.C,U1*
X144780000Y-53340000D02*
X142240000Y-53340000D01*
X144780000Y-50800000D02*
X144780000Y-53340000D01*
D13*
G04 #@! TO.C,G\002A\002A\002A*
G36*
X98056886Y-81157456D02*
X98069223Y-81589470D01*
X98088949Y-81994790D01*
X98115865Y-82350545D01*
X98149774Y-82633866D01*
X98179383Y-82783947D01*
X98435178Y-83516905D01*
X98795416Y-84171136D01*
X99251746Y-84739669D01*
X99795816Y-85215533D01*
X100419275Y-85591756D01*
X101113770Y-85861368D01*
X101870951Y-86017398D01*
X102078461Y-86038615D01*
X102331820Y-86055596D01*
X102492387Y-86050030D01*
X102600287Y-86013649D01*
X102695647Y-85938184D01*
X102730171Y-85904327D01*
X102903421Y-85731076D01*
X102903421Y-82782927D01*
X104463198Y-83953174D01*
X104865860Y-84252001D01*
X105238955Y-84522661D01*
X105567851Y-84755029D01*
X105837921Y-84938981D01*
X106034533Y-85064394D01*
X106143057Y-85121143D01*
X106154303Y-85123421D01*
X106294387Y-85095090D01*
X106383598Y-84996712D01*
X106431084Y-84808210D01*
X106445993Y-84509505D01*
X106446053Y-84483104D01*
X106446053Y-84003209D01*
X106161974Y-83774994D01*
X106032539Y-83674570D01*
X105812801Y-83508072D01*
X105520211Y-83288550D01*
X105172217Y-83029053D01*
X104786271Y-82742631D01*
X104390658Y-82450323D01*
X102903421Y-81353868D01*
X102903421Y-80377631D01*
X106184761Y-80377631D01*
X106348828Y-80213564D01*
X106480394Y-79991945D01*
X106505668Y-79712700D01*
X106438487Y-79443729D01*
X106359720Y-79299618D01*
X106292329Y-79227516D01*
X106212684Y-79218315D01*
X106011257Y-79209615D01*
X105699951Y-79201566D01*
X105290667Y-79194321D01*
X104795306Y-79188033D01*
X104225772Y-79182854D01*
X103593966Y-79178935D01*
X102911789Y-79176430D01*
X102226474Y-79175497D01*
X101392318Y-79175529D01*
X100681747Y-79176267D01*
X100084664Y-79177985D01*
X99590971Y-79180954D01*
X99293948Y-79184287D01*
X99293948Y-80377631D01*
X101633421Y-80377631D01*
X101633421Y-82550000D01*
X101633017Y-83147175D01*
X101631323Y-83624084D01*
X101627615Y-83994147D01*
X101621173Y-84270781D01*
X101611272Y-84467403D01*
X101597192Y-84597432D01*
X101578208Y-84674286D01*
X101553599Y-84711383D01*
X101522642Y-84722141D01*
X101516448Y-84722316D01*
X101341160Y-84683547D01*
X101096785Y-84580217D01*
X100818356Y-84431611D01*
X100540904Y-84257017D01*
X100299461Y-84075721D01*
X100229378Y-84013722D01*
X99906067Y-83670829D01*
X99660230Y-83309350D01*
X99484004Y-82906770D01*
X99369530Y-82440578D01*
X99308945Y-81888259D01*
X99293948Y-81334710D01*
X99293948Y-80377631D01*
X99293948Y-79184287D01*
X99190571Y-79185448D01*
X98873364Y-79191738D01*
X98629255Y-79200097D01*
X98448144Y-79210798D01*
X98319933Y-79224113D01*
X98234526Y-79240314D01*
X98181825Y-79259674D01*
X98151730Y-79282465D01*
X98149106Y-79285507D01*
X98112956Y-79397417D01*
X98085381Y-79619854D01*
X98066185Y-79929946D01*
X98055169Y-80304824D01*
X98052135Y-80721617D01*
X98056886Y-81157456D01*
X98056886Y-81157456D01*
G37*
X98056886Y-81157456D02*
X98069223Y-81589470D01*
X98088949Y-81994790D01*
X98115865Y-82350545D01*
X98149774Y-82633866D01*
X98179383Y-82783947D01*
X98435178Y-83516905D01*
X98795416Y-84171136D01*
X99251746Y-84739669D01*
X99795816Y-85215533D01*
X100419275Y-85591756D01*
X101113770Y-85861368D01*
X101870951Y-86017398D01*
X102078461Y-86038615D01*
X102331820Y-86055596D01*
X102492387Y-86050030D01*
X102600287Y-86013649D01*
X102695647Y-85938184D01*
X102730171Y-85904327D01*
X102903421Y-85731076D01*
X102903421Y-82782927D01*
X104463198Y-83953174D01*
X104865860Y-84252001D01*
X105238955Y-84522661D01*
X105567851Y-84755029D01*
X105837921Y-84938981D01*
X106034533Y-85064394D01*
X106143057Y-85121143D01*
X106154303Y-85123421D01*
X106294387Y-85095090D01*
X106383598Y-84996712D01*
X106431084Y-84808210D01*
X106445993Y-84509505D01*
X106446053Y-84483104D01*
X106446053Y-84003209D01*
X106161974Y-83774994D01*
X106032539Y-83674570D01*
X105812801Y-83508072D01*
X105520211Y-83288550D01*
X105172217Y-83029053D01*
X104786271Y-82742631D01*
X104390658Y-82450323D01*
X102903421Y-81353868D01*
X102903421Y-80377631D01*
X106184761Y-80377631D01*
X106348828Y-80213564D01*
X106480394Y-79991945D01*
X106505668Y-79712700D01*
X106438487Y-79443729D01*
X106359720Y-79299618D01*
X106292329Y-79227516D01*
X106212684Y-79218315D01*
X106011257Y-79209615D01*
X105699951Y-79201566D01*
X105290667Y-79194321D01*
X104795306Y-79188033D01*
X104225772Y-79182854D01*
X103593966Y-79178935D01*
X102911789Y-79176430D01*
X102226474Y-79175497D01*
X101392318Y-79175529D01*
X100681747Y-79176267D01*
X100084664Y-79177985D01*
X99590971Y-79180954D01*
X99293948Y-79184287D01*
X99293948Y-80377631D01*
X101633421Y-80377631D01*
X101633421Y-82550000D01*
X101633017Y-83147175D01*
X101631323Y-83624084D01*
X101627615Y-83994147D01*
X101621173Y-84270781D01*
X101611272Y-84467403D01*
X101597192Y-84597432D01*
X101578208Y-84674286D01*
X101553599Y-84711383D01*
X101522642Y-84722141D01*
X101516448Y-84722316D01*
X101341160Y-84683547D01*
X101096785Y-84580217D01*
X100818356Y-84431611D01*
X100540904Y-84257017D01*
X100299461Y-84075721D01*
X100229378Y-84013722D01*
X99906067Y-83670829D01*
X99660230Y-83309350D01*
X99484004Y-82906770D01*
X99369530Y-82440578D01*
X99308945Y-81888259D01*
X99293948Y-81334710D01*
X99293948Y-80377631D01*
X99293948Y-79184287D01*
X99190571Y-79185448D01*
X98873364Y-79191738D01*
X98629255Y-79200097D01*
X98448144Y-79210798D01*
X98319933Y-79224113D01*
X98234526Y-79240314D01*
X98181825Y-79259674D01*
X98151730Y-79282465D01*
X98149106Y-79285507D01*
X98112956Y-79397417D01*
X98085381Y-79619854D01*
X98066185Y-79929946D01*
X98055169Y-80304824D01*
X98052135Y-80721617D01*
X98056886Y-81157456D01*
G36*
X98092120Y-93450829D02*
X98098681Y-93871062D01*
X98113528Y-94195042D01*
X98139928Y-94435242D01*
X98181145Y-94604136D01*
X98240447Y-94714198D01*
X98321100Y-94777903D01*
X98426369Y-94807723D01*
X98559521Y-94816133D01*
X98723822Y-94815607D01*
X98756859Y-94815526D01*
X98993206Y-94807340D01*
X99132047Y-94776236D01*
X99208916Y-94712396D01*
X99224754Y-94686236D01*
X99245663Y-94578615D01*
X99263143Y-94345272D01*
X99276947Y-93994132D01*
X99286829Y-93533118D01*
X99292543Y-92970157D01*
X99293948Y-92461069D01*
X99295293Y-91805366D01*
X99300768Y-91266275D01*
X99312528Y-90826738D01*
X99332731Y-90469698D01*
X99363531Y-90178096D01*
X99407087Y-89934876D01*
X99465553Y-89722979D01*
X99541088Y-89525349D01*
X99635846Y-89324926D01*
X99707895Y-89186716D01*
X100006708Y-88749965D01*
X100404259Y-88351093D01*
X100865973Y-88018027D01*
X101357273Y-87778689D01*
X101516448Y-87726063D01*
X101700264Y-87672753D01*
X101700264Y-94607419D01*
X101848821Y-94711473D01*
X102033803Y-94783754D01*
X102280376Y-94811954D01*
X102529089Y-94795459D01*
X102720494Y-94733654D01*
X102740251Y-94720683D01*
X102769086Y-94695083D01*
X102793476Y-94656602D01*
X102813923Y-94594249D01*
X102830930Y-94497030D01*
X102845000Y-94353952D01*
X102856637Y-94154023D01*
X102866343Y-93886248D01*
X102874620Y-93539635D01*
X102881973Y-93103192D01*
X102888904Y-92565925D01*
X102895916Y-91916841D01*
X102903421Y-91154314D01*
X102936843Y-87682788D01*
X103248960Y-87773821D01*
X103716385Y-87973187D01*
X104162971Y-88281047D01*
X104561944Y-88672343D01*
X104886530Y-89122017D01*
X105059262Y-89468158D01*
X105099040Y-89571392D01*
X105131396Y-89675820D01*
X105157349Y-89796568D01*
X105177913Y-89948764D01*
X105194105Y-90147535D01*
X105206941Y-90408009D01*
X105217436Y-90745312D01*
X105226607Y-91174573D01*
X105235469Y-91710918D01*
X105242602Y-92197975D01*
X105276316Y-94560161D01*
X105434116Y-94687843D01*
X105647677Y-94790933D01*
X105907715Y-94821596D01*
X106161628Y-94781355D01*
X106356817Y-94671732D01*
X106367559Y-94660823D01*
X106407445Y-94615130D01*
X106439231Y-94562514D01*
X106463795Y-94488438D01*
X106482012Y-94378365D01*
X106494759Y-94217758D01*
X106502912Y-93992080D01*
X106507348Y-93686794D01*
X106508942Y-93287362D01*
X106508572Y-92779249D01*
X106507581Y-92338060D01*
X106503955Y-91648989D01*
X106496468Y-91081476D01*
X106484661Y-90623440D01*
X106468077Y-90262797D01*
X106446258Y-89987466D01*
X106418746Y-89785365D01*
X106408953Y-89735526D01*
X106202308Y-89078962D01*
X105879358Y-88453701D01*
X105457147Y-87881562D01*
X104952719Y-87384367D01*
X104383117Y-86983936D01*
X104171159Y-86870509D01*
X103453034Y-86585065D01*
X102731657Y-86431254D01*
X102015858Y-86407571D01*
X101314467Y-86512513D01*
X100636313Y-86744576D01*
X99990224Y-87102254D01*
X99385030Y-87584043D01*
X99257042Y-87707753D01*
X98988044Y-88001669D01*
X98773454Y-88302430D01*
X98574573Y-88665866D01*
X98531870Y-88753934D01*
X98396195Y-89054347D01*
X98276360Y-89348577D01*
X98190168Y-89591626D01*
X98164854Y-89681573D01*
X98142686Y-89848101D01*
X98124119Y-90139559D01*
X98109402Y-90547234D01*
X98098784Y-91062415D01*
X98092514Y-91676388D01*
X98090790Y-92271704D01*
X98090578Y-92921867D01*
X98092120Y-93450829D01*
X98092120Y-93450829D01*
G37*
X98092120Y-93450829D02*
X98098681Y-93871062D01*
X98113528Y-94195042D01*
X98139928Y-94435242D01*
X98181145Y-94604136D01*
X98240447Y-94714198D01*
X98321100Y-94777903D01*
X98426369Y-94807723D01*
X98559521Y-94816133D01*
X98723822Y-94815607D01*
X98756859Y-94815526D01*
X98993206Y-94807340D01*
X99132047Y-94776236D01*
X99208916Y-94712396D01*
X99224754Y-94686236D01*
X99245663Y-94578615D01*
X99263143Y-94345272D01*
X99276947Y-93994132D01*
X99286829Y-93533118D01*
X99292543Y-92970157D01*
X99293948Y-92461069D01*
X99295293Y-91805366D01*
X99300768Y-91266275D01*
X99312528Y-90826738D01*
X99332731Y-90469698D01*
X99363531Y-90178096D01*
X99407087Y-89934876D01*
X99465553Y-89722979D01*
X99541088Y-89525349D01*
X99635846Y-89324926D01*
X99707895Y-89186716D01*
X100006708Y-88749965D01*
X100404259Y-88351093D01*
X100865973Y-88018027D01*
X101357273Y-87778689D01*
X101516448Y-87726063D01*
X101700264Y-87672753D01*
X101700264Y-94607419D01*
X101848821Y-94711473D01*
X102033803Y-94783754D01*
X102280376Y-94811954D01*
X102529089Y-94795459D01*
X102720494Y-94733654D01*
X102740251Y-94720683D01*
X102769086Y-94695083D01*
X102793476Y-94656602D01*
X102813923Y-94594249D01*
X102830930Y-94497030D01*
X102845000Y-94353952D01*
X102856637Y-94154023D01*
X102866343Y-93886248D01*
X102874620Y-93539635D01*
X102881973Y-93103192D01*
X102888904Y-92565925D01*
X102895916Y-91916841D01*
X102903421Y-91154314D01*
X102936843Y-87682788D01*
X103248960Y-87773821D01*
X103716385Y-87973187D01*
X104162971Y-88281047D01*
X104561944Y-88672343D01*
X104886530Y-89122017D01*
X105059262Y-89468158D01*
X105099040Y-89571392D01*
X105131396Y-89675820D01*
X105157349Y-89796568D01*
X105177913Y-89948764D01*
X105194105Y-90147535D01*
X105206941Y-90408009D01*
X105217436Y-90745312D01*
X105226607Y-91174573D01*
X105235469Y-91710918D01*
X105242602Y-92197975D01*
X105276316Y-94560161D01*
X105434116Y-94687843D01*
X105647677Y-94790933D01*
X105907715Y-94821596D01*
X106161628Y-94781355D01*
X106356817Y-94671732D01*
X106367559Y-94660823D01*
X106407445Y-94615130D01*
X106439231Y-94562514D01*
X106463795Y-94488438D01*
X106482012Y-94378365D01*
X106494759Y-94217758D01*
X106502912Y-93992080D01*
X106507348Y-93686794D01*
X106508942Y-93287362D01*
X106508572Y-92779249D01*
X106507581Y-92338060D01*
X106503955Y-91648989D01*
X106496468Y-91081476D01*
X106484661Y-90623440D01*
X106468077Y-90262797D01*
X106446258Y-89987466D01*
X106418746Y-89785365D01*
X106408953Y-89735526D01*
X106202308Y-89078962D01*
X105879358Y-88453701D01*
X105457147Y-87881562D01*
X104952719Y-87384367D01*
X104383117Y-86983936D01*
X104171159Y-86870509D01*
X103453034Y-86585065D01*
X102731657Y-86431254D01*
X102015858Y-86407571D01*
X101314467Y-86512513D01*
X100636313Y-86744576D01*
X99990224Y-87102254D01*
X99385030Y-87584043D01*
X99257042Y-87707753D01*
X98988044Y-88001669D01*
X98773454Y-88302430D01*
X98574573Y-88665866D01*
X98531870Y-88753934D01*
X98396195Y-89054347D01*
X98276360Y-89348577D01*
X98190168Y-89591626D01*
X98164854Y-89681573D01*
X98142686Y-89848101D01*
X98124119Y-90139559D01*
X98109402Y-90547234D01*
X98098784Y-91062415D01*
X98092514Y-91676388D01*
X98090790Y-92271704D01*
X98090578Y-92921867D01*
X98092120Y-93450829D01*
G36*
X98025980Y-96615958D02*
X98026012Y-96633935D01*
X98036653Y-97351228D01*
X98068454Y-97956680D01*
X98125411Y-98471028D01*
X98211517Y-98915009D01*
X98330769Y-99309361D01*
X98487161Y-99674820D01*
X98678811Y-100022453D01*
X99120376Y-100623759D01*
X99658259Y-101137551D01*
X100279645Y-101553527D01*
X100962048Y-101858024D01*
X101603732Y-102018987D01*
X102279399Y-102075015D01*
X102948190Y-102025209D01*
X103438158Y-101912508D01*
X104134291Y-101630354D01*
X104763446Y-101241087D01*
X105313471Y-100756565D01*
X105772214Y-100188648D01*
X106127524Y-99549193D01*
X106287308Y-99132083D01*
X106345161Y-98944215D01*
X106389212Y-98771665D01*
X106421789Y-98591068D01*
X106445219Y-98379058D01*
X106461831Y-98112268D01*
X106473950Y-97767332D01*
X106483906Y-97320884D01*
X106487573Y-97121579D01*
X106492922Y-96654288D01*
X106491846Y-96241360D01*
X106484778Y-95901660D01*
X106472155Y-95654053D01*
X106454411Y-95517404D01*
X106450277Y-95505027D01*
X106349341Y-95361573D01*
X106266008Y-95296765D01*
X106177717Y-95284419D01*
X105967174Y-95271646D01*
X105645805Y-95258731D01*
X105225042Y-95245961D01*
X104716311Y-95233620D01*
X104131043Y-95221995D01*
X103480666Y-95211370D01*
X102776610Y-95202032D01*
X102244523Y-95196282D01*
X99293948Y-95167353D01*
X99293948Y-96419737D01*
X105242895Y-96419737D01*
X105242895Y-97348485D01*
X105238295Y-97776479D01*
X105222356Y-98104119D01*
X105191869Y-98364489D01*
X105143625Y-98590674D01*
X105111609Y-98702038D01*
X104864715Y-99288316D01*
X104511423Y-99793660D01*
X104051727Y-100218077D01*
X103508467Y-100550305D01*
X103288853Y-100656886D01*
X103115640Y-100727435D01*
X102950724Y-100769381D01*
X102756000Y-100790152D01*
X102493362Y-100797177D01*
X102238467Y-100797895D01*
X101897643Y-100795619D01*
X101652681Y-100784388D01*
X101465780Y-100757590D01*
X101299139Y-100708617D01*
X101114956Y-100630859D01*
X101014562Y-100583903D01*
X100501320Y-100274601D01*
X100059326Y-99875243D01*
X99705748Y-99406808D01*
X99457757Y-98890276D01*
X99368056Y-98572105D01*
X99339745Y-98368210D01*
X99316423Y-98069671D01*
X99300399Y-97715500D01*
X99293978Y-97344708D01*
X99293948Y-97318815D01*
X99293948Y-96419737D01*
X99293948Y-95167353D01*
X98343783Y-95158036D01*
X98183865Y-95317953D01*
X98125998Y-95380424D01*
X98084141Y-95448534D01*
X98055752Y-95543492D01*
X98038284Y-95686505D01*
X98029196Y-95898781D01*
X98025942Y-96201530D01*
X98025980Y-96615958D01*
X98025980Y-96615958D01*
G37*
X98025980Y-96615958D02*
X98026012Y-96633935D01*
X98036653Y-97351228D01*
X98068454Y-97956680D01*
X98125411Y-98471028D01*
X98211517Y-98915009D01*
X98330769Y-99309361D01*
X98487161Y-99674820D01*
X98678811Y-100022453D01*
X99120376Y-100623759D01*
X99658259Y-101137551D01*
X100279645Y-101553527D01*
X100962048Y-101858024D01*
X101603732Y-102018987D01*
X102279399Y-102075015D01*
X102948190Y-102025209D01*
X103438158Y-101912508D01*
X104134291Y-101630354D01*
X104763446Y-101241087D01*
X105313471Y-100756565D01*
X105772214Y-100188648D01*
X106127524Y-99549193D01*
X106287308Y-99132083D01*
X106345161Y-98944215D01*
X106389212Y-98771665D01*
X106421789Y-98591068D01*
X106445219Y-98379058D01*
X106461831Y-98112268D01*
X106473950Y-97767332D01*
X106483906Y-97320884D01*
X106487573Y-97121579D01*
X106492922Y-96654288D01*
X106491846Y-96241360D01*
X106484778Y-95901660D01*
X106472155Y-95654053D01*
X106454411Y-95517404D01*
X106450277Y-95505027D01*
X106349341Y-95361573D01*
X106266008Y-95296765D01*
X106177717Y-95284419D01*
X105967174Y-95271646D01*
X105645805Y-95258731D01*
X105225042Y-95245961D01*
X104716311Y-95233620D01*
X104131043Y-95221995D01*
X103480666Y-95211370D01*
X102776610Y-95202032D01*
X102244523Y-95196282D01*
X99293948Y-95167353D01*
X99293948Y-96419737D01*
X105242895Y-96419737D01*
X105242895Y-97348485D01*
X105238295Y-97776479D01*
X105222356Y-98104119D01*
X105191869Y-98364489D01*
X105143625Y-98590674D01*
X105111609Y-98702038D01*
X104864715Y-99288316D01*
X104511423Y-99793660D01*
X104051727Y-100218077D01*
X103508467Y-100550305D01*
X103288853Y-100656886D01*
X103115640Y-100727435D01*
X102950724Y-100769381D01*
X102756000Y-100790152D01*
X102493362Y-100797177D01*
X102238467Y-100797895D01*
X101897643Y-100795619D01*
X101652681Y-100784388D01*
X101465780Y-100757590D01*
X101299139Y-100708617D01*
X101114956Y-100630859D01*
X101014562Y-100583903D01*
X100501320Y-100274601D01*
X100059326Y-99875243D01*
X99705748Y-99406808D01*
X99457757Y-98890276D01*
X99368056Y-98572105D01*
X99339745Y-98368210D01*
X99316423Y-98069671D01*
X99300399Y-97715500D01*
X99293978Y-97344708D01*
X99293948Y-97318815D01*
X99293948Y-96419737D01*
X99293948Y-95167353D01*
X98343783Y-95158036D01*
X98183865Y-95317953D01*
X98125998Y-95380424D01*
X98084141Y-95448534D01*
X98055752Y-95543492D01*
X98038284Y-95686505D01*
X98029196Y-95898781D01*
X98025942Y-96201530D01*
X98025980Y-96615958D01*
G36*
X98143368Y-107356477D02*
X98324606Y-108055007D01*
X98617710Y-108701180D01*
X99013437Y-109283642D01*
X99502543Y-109791040D01*
X100075783Y-110212021D01*
X100723915Y-110535231D01*
X101437693Y-110749316D01*
X101449848Y-110751844D01*
X101957436Y-110833745D01*
X102410970Y-110850172D01*
X102872806Y-110801377D01*
X103098534Y-110758507D01*
X103807457Y-110544703D01*
X104451723Y-110222067D01*
X105022547Y-109802830D01*
X105511140Y-109299222D01*
X105908717Y-108723475D01*
X106206490Y-108087820D01*
X106395672Y-107404488D01*
X106467476Y-106685709D01*
X106436775Y-106111842D01*
X106297358Y-105469121D01*
X106044017Y-104832089D01*
X105693881Y-104232822D01*
X105264080Y-103703398D01*
X105032022Y-103481325D01*
X104487532Y-103084682D01*
X103874050Y-102776263D01*
X103217603Y-102562711D01*
X102544216Y-102450668D01*
X102436154Y-102450036D01*
X102436154Y-103577326D01*
X103010638Y-103664269D01*
X103013698Y-103665082D01*
X103573836Y-103881561D01*
X104077906Y-104211013D01*
X104512423Y-104639690D01*
X104863904Y-105153846D01*
X105118864Y-105739733D01*
X105151345Y-105844474D01*
X105198438Y-106105532D01*
X105219730Y-106459103D01*
X105216943Y-106765478D01*
X105200015Y-107083124D01*
X105168208Y-107319071D01*
X105109158Y-107525283D01*
X105010499Y-107753722D01*
X104954485Y-107868373D01*
X104719294Y-108294670D01*
X104477869Y-108624385D01*
X104201054Y-108892640D01*
X103953662Y-109073972D01*
X103472746Y-109343602D01*
X102986277Y-109507375D01*
X102454752Y-109575946D01*
X102093818Y-109575670D01*
X101772957Y-109558125D01*
X101535274Y-109527468D01*
X101330270Y-109471601D01*
X101107440Y-109378427D01*
X100946938Y-109300946D01*
X100413172Y-108966753D01*
X99975261Y-108545399D01*
X99640493Y-108049861D01*
X99416157Y-107493115D01*
X99309539Y-106888138D01*
X99312769Y-106391328D01*
X99423559Y-105798905D01*
X99643488Y-105253703D01*
X99957935Y-104766493D01*
X100352278Y-104348047D01*
X100811893Y-104009136D01*
X101322159Y-103760531D01*
X101868454Y-103613004D01*
X102436154Y-103577326D01*
X102436154Y-102450036D01*
X101879917Y-102446779D01*
X101329965Y-102536454D01*
X100909914Y-102674411D01*
X100456087Y-102875572D01*
X100016794Y-103115040D01*
X99640345Y-103367921D01*
X99510329Y-103474139D01*
X98987555Y-104020072D01*
X98580217Y-104631416D01*
X98291771Y-105300557D01*
X98125673Y-106019884D01*
X98083242Y-106616944D01*
X98143368Y-107356477D01*
X98143368Y-107356477D01*
G37*
X98143368Y-107356477D02*
X98324606Y-108055007D01*
X98617710Y-108701180D01*
X99013437Y-109283642D01*
X99502543Y-109791040D01*
X100075783Y-110212021D01*
X100723915Y-110535231D01*
X101437693Y-110749316D01*
X101449848Y-110751844D01*
X101957436Y-110833745D01*
X102410970Y-110850172D01*
X102872806Y-110801377D01*
X103098534Y-110758507D01*
X103807457Y-110544703D01*
X104451723Y-110222067D01*
X105022547Y-109802830D01*
X105511140Y-109299222D01*
X105908717Y-108723475D01*
X106206490Y-108087820D01*
X106395672Y-107404488D01*
X106467476Y-106685709D01*
X106436775Y-106111842D01*
X106297358Y-105469121D01*
X106044017Y-104832089D01*
X105693881Y-104232822D01*
X105264080Y-103703398D01*
X105032022Y-103481325D01*
X104487532Y-103084682D01*
X103874050Y-102776263D01*
X103217603Y-102562711D01*
X102544216Y-102450668D01*
X102436154Y-102450036D01*
X102436154Y-103577326D01*
X103010638Y-103664269D01*
X103013698Y-103665082D01*
X103573836Y-103881561D01*
X104077906Y-104211013D01*
X104512423Y-104639690D01*
X104863904Y-105153846D01*
X105118864Y-105739733D01*
X105151345Y-105844474D01*
X105198438Y-106105532D01*
X105219730Y-106459103D01*
X105216943Y-106765478D01*
X105200015Y-107083124D01*
X105168208Y-107319071D01*
X105109158Y-107525283D01*
X105010499Y-107753722D01*
X104954485Y-107868373D01*
X104719294Y-108294670D01*
X104477869Y-108624385D01*
X104201054Y-108892640D01*
X103953662Y-109073972D01*
X103472746Y-109343602D01*
X102986277Y-109507375D01*
X102454752Y-109575946D01*
X102093818Y-109575670D01*
X101772957Y-109558125D01*
X101535274Y-109527468D01*
X101330270Y-109471601D01*
X101107440Y-109378427D01*
X100946938Y-109300946D01*
X100413172Y-108966753D01*
X99975261Y-108545399D01*
X99640493Y-108049861D01*
X99416157Y-107493115D01*
X99309539Y-106888138D01*
X99312769Y-106391328D01*
X99423559Y-105798905D01*
X99643488Y-105253703D01*
X99957935Y-104766493D01*
X100352278Y-104348047D01*
X100811893Y-104009136D01*
X101322159Y-103760531D01*
X101868454Y-103613004D01*
X102436154Y-103577326D01*
X102436154Y-102450036D01*
X101879917Y-102446779D01*
X101329965Y-102536454D01*
X100909914Y-102674411D01*
X100456087Y-102875572D01*
X100016794Y-103115040D01*
X99640345Y-103367921D01*
X99510329Y-103474139D01*
X98987555Y-104020072D01*
X98580217Y-104631416D01*
X98291771Y-105300557D01*
X98125673Y-106019884D01*
X98083242Y-106616944D01*
X98143368Y-107356477D01*
G36*
X98094914Y-116849034D02*
X98227047Y-117053470D01*
X98355162Y-117139548D01*
X98414074Y-117159740D01*
X98477618Y-117165331D01*
X98558764Y-117149552D01*
X98670483Y-117105630D01*
X98825744Y-117026793D01*
X99037521Y-116906271D01*
X99318782Y-116737292D01*
X99682499Y-116513085D01*
X100141643Y-116226877D01*
X100335141Y-116105893D01*
X100801714Y-115817099D01*
X101223798Y-115561761D01*
X101588622Y-115347208D01*
X101883418Y-115180765D01*
X102095415Y-115069761D01*
X102211842Y-115021523D01*
X102226716Y-115020508D01*
X102309522Y-115061542D01*
X102491451Y-115163248D01*
X102757419Y-115316812D01*
X103092344Y-115513420D01*
X103481141Y-115744259D01*
X103908727Y-116000514D01*
X104063619Y-116093891D01*
X104617231Y-116425607D01*
X105069958Y-116690216D01*
X105433305Y-116892992D01*
X105718780Y-117039210D01*
X105937892Y-117134143D01*
X106102148Y-117183065D01*
X106223055Y-117191250D01*
X106312121Y-117163973D01*
X106346523Y-117140181D01*
X106397330Y-117033276D01*
X106431985Y-116840232D01*
X106448163Y-116607878D01*
X106443539Y-116383041D01*
X106415789Y-116212550D01*
X106394898Y-116165681D01*
X106326372Y-116112535D01*
X106159000Y-116000741D01*
X105908626Y-115840341D01*
X105591093Y-115641373D01*
X105222243Y-115413879D01*
X104875264Y-115202588D01*
X104475016Y-114959740D01*
X104112104Y-114738570D01*
X103802378Y-114548814D01*
X103561687Y-114400212D01*
X103405882Y-114302503D01*
X103351775Y-114266524D01*
X103387129Y-114218690D01*
X103520993Y-114117149D01*
X103734900Y-113972908D01*
X104010383Y-113796971D01*
X104328975Y-113600345D01*
X104672209Y-113394036D01*
X105021619Y-113189050D01*
X105358736Y-112996394D01*
X105665095Y-112827073D01*
X105922227Y-112692093D01*
X106111667Y-112602462D01*
X106193917Y-112572643D01*
X106347650Y-112470459D01*
X106453748Y-112273830D01*
X106504581Y-112015872D01*
X106492515Y-111729698D01*
X106437450Y-111516073D01*
X106329675Y-111362948D01*
X106176147Y-111257633D01*
X106118734Y-111238252D01*
X106055402Y-111232876D01*
X105973533Y-111247762D01*
X105860512Y-111289168D01*
X105703721Y-111363352D01*
X105490545Y-111476573D01*
X105208366Y-111635087D01*
X104844568Y-111845154D01*
X104386535Y-112113031D01*
X104033563Y-112320375D01*
X103570784Y-112591637D01*
X103144592Y-112839932D01*
X102768666Y-113057410D01*
X102456683Y-113236219D01*
X102222322Y-113368510D01*
X102079261Y-113446431D01*
X102040229Y-113464474D01*
X101973228Y-113431247D01*
X101806361Y-113337221D01*
X101554095Y-113190874D01*
X101230896Y-113000688D01*
X100851229Y-112775141D01*
X100429561Y-112522715D01*
X100272800Y-112428421D01*
X99835906Y-112167635D01*
X99431880Y-111930921D01*
X99075943Y-111726849D01*
X98783318Y-111563986D01*
X98569227Y-111450902D01*
X98448894Y-111396166D01*
X98432283Y-111392368D01*
X98300522Y-111439198D01*
X98184702Y-111533070D01*
X98100575Y-111702403D01*
X98058900Y-111942096D01*
X98061362Y-112197073D01*
X98109644Y-112412260D01*
X98155369Y-112492536D01*
X98239142Y-112559213D01*
X98420897Y-112682091D01*
X98683111Y-112850062D01*
X99008263Y-113052018D01*
X99378831Y-113276851D01*
X99610477Y-113415026D01*
X99989822Y-113642444D01*
X100324989Y-113848315D01*
X100600637Y-114022806D01*
X100801422Y-114156080D01*
X100912002Y-114238304D01*
X100928238Y-114259716D01*
X100862899Y-114305114D01*
X100700204Y-114411271D01*
X100456093Y-114567991D01*
X100146508Y-114765074D01*
X99787391Y-114992322D01*
X99506551Y-115169242D01*
X99073770Y-115442316D01*
X98740820Y-115655821D01*
X98493829Y-115820494D01*
X98318922Y-115947073D01*
X98202229Y-116046295D01*
X98129875Y-116128896D01*
X98087988Y-116205614D01*
X98062833Y-116286626D01*
X98036138Y-116581636D01*
X98094914Y-116849034D01*
X98094914Y-116849034D01*
G37*
X98094914Y-116849034D02*
X98227047Y-117053470D01*
X98355162Y-117139548D01*
X98414074Y-117159740D01*
X98477618Y-117165331D01*
X98558764Y-117149552D01*
X98670483Y-117105630D01*
X98825744Y-117026793D01*
X99037521Y-116906271D01*
X99318782Y-116737292D01*
X99682499Y-116513085D01*
X100141643Y-116226877D01*
X100335141Y-116105893D01*
X100801714Y-115817099D01*
X101223798Y-115561761D01*
X101588622Y-115347208D01*
X101883418Y-115180765D01*
X102095415Y-115069761D01*
X102211842Y-115021523D01*
X102226716Y-115020508D01*
X102309522Y-115061542D01*
X102491451Y-115163248D01*
X102757419Y-115316812D01*
X103092344Y-115513420D01*
X103481141Y-115744259D01*
X103908727Y-116000514D01*
X104063619Y-116093891D01*
X104617231Y-116425607D01*
X105069958Y-116690216D01*
X105433305Y-116892992D01*
X105718780Y-117039210D01*
X105937892Y-117134143D01*
X106102148Y-117183065D01*
X106223055Y-117191250D01*
X106312121Y-117163973D01*
X106346523Y-117140181D01*
X106397330Y-117033276D01*
X106431985Y-116840232D01*
X106448163Y-116607878D01*
X106443539Y-116383041D01*
X106415789Y-116212550D01*
X106394898Y-116165681D01*
X106326372Y-116112535D01*
X106159000Y-116000741D01*
X105908626Y-115840341D01*
X105591093Y-115641373D01*
X105222243Y-115413879D01*
X104875264Y-115202588D01*
X104475016Y-114959740D01*
X104112104Y-114738570D01*
X103802378Y-114548814D01*
X103561687Y-114400212D01*
X103405882Y-114302503D01*
X103351775Y-114266524D01*
X103387129Y-114218690D01*
X103520993Y-114117149D01*
X103734900Y-113972908D01*
X104010383Y-113796971D01*
X104328975Y-113600345D01*
X104672209Y-113394036D01*
X105021619Y-113189050D01*
X105358736Y-112996394D01*
X105665095Y-112827073D01*
X105922227Y-112692093D01*
X106111667Y-112602462D01*
X106193917Y-112572643D01*
X106347650Y-112470459D01*
X106453748Y-112273830D01*
X106504581Y-112015872D01*
X106492515Y-111729698D01*
X106437450Y-111516073D01*
X106329675Y-111362948D01*
X106176147Y-111257633D01*
X106118734Y-111238252D01*
X106055402Y-111232876D01*
X105973533Y-111247762D01*
X105860512Y-111289168D01*
X105703721Y-111363352D01*
X105490545Y-111476573D01*
X105208366Y-111635087D01*
X104844568Y-111845154D01*
X104386535Y-112113031D01*
X104033563Y-112320375D01*
X103570784Y-112591637D01*
X103144592Y-112839932D01*
X102768666Y-113057410D01*
X102456683Y-113236219D01*
X102222322Y-113368510D01*
X102079261Y-113446431D01*
X102040229Y-113464474D01*
X101973228Y-113431247D01*
X101806361Y-113337221D01*
X101554095Y-113190874D01*
X101230896Y-113000688D01*
X100851229Y-112775141D01*
X100429561Y-112522715D01*
X100272800Y-112428421D01*
X99835906Y-112167635D01*
X99431880Y-111930921D01*
X99075943Y-111726849D01*
X98783318Y-111563986D01*
X98569227Y-111450902D01*
X98448894Y-111396166D01*
X98432283Y-111392368D01*
X98300522Y-111439198D01*
X98184702Y-111533070D01*
X98100575Y-111702403D01*
X98058900Y-111942096D01*
X98061362Y-112197073D01*
X98109644Y-112412260D01*
X98155369Y-112492536D01*
X98239142Y-112559213D01*
X98420897Y-112682091D01*
X98683111Y-112850062D01*
X99008263Y-113052018D01*
X99378831Y-113276851D01*
X99610477Y-113415026D01*
X99989822Y-113642444D01*
X100324989Y-113848315D01*
X100600637Y-114022806D01*
X100801422Y-114156080D01*
X100912002Y-114238304D01*
X100928238Y-114259716D01*
X100862899Y-114305114D01*
X100700204Y-114411271D01*
X100456093Y-114567991D01*
X100146508Y-114765074D01*
X99787391Y-114992322D01*
X99506551Y-115169242D01*
X99073770Y-115442316D01*
X98740820Y-115655821D01*
X98493829Y-115820494D01*
X98318922Y-115947073D01*
X98202229Y-116046295D01*
X98129875Y-116128896D01*
X98087988Y-116205614D01*
X98062833Y-116286626D01*
X98036138Y-116581636D01*
X98094914Y-116849034D01*
G36*
X98767139Y-123419217D02*
X99847646Y-125295526D01*
X104140035Y-125295526D01*
X104975544Y-123845439D01*
X105221231Y-123418271D01*
X105458954Y-123003551D01*
X105675951Y-122623652D01*
X105859458Y-122300943D01*
X105996715Y-122057797D01*
X106052803Y-121957149D01*
X106294553Y-121518947D01*
X104147295Y-117807417D01*
X103825941Y-117810032D01*
X103825941Y-118408698D01*
X104724447Y-119963823D01*
X105622953Y-121518947D01*
X105449634Y-121824600D01*
X105364657Y-121973744D01*
X105225801Y-122216624D01*
X105045769Y-122531053D01*
X104837269Y-122894843D01*
X104613006Y-123285810D01*
X104541053Y-123411179D01*
X103805790Y-124692105D01*
X100188460Y-124693947D01*
X99295856Y-123139868D01*
X99058689Y-122726763D01*
X98843903Y-122352295D01*
X98660345Y-122031912D01*
X98516859Y-121781065D01*
X98422289Y-121615202D01*
X98385481Y-121549771D01*
X98385474Y-121549757D01*
X98412771Y-121484618D01*
X98498784Y-121319426D01*
X98634972Y-121069656D01*
X98812789Y-120750787D01*
X99023692Y-120378295D01*
X99252615Y-119978968D01*
X100137533Y-118444210D01*
X103825941Y-118408698D01*
X103825941Y-117810032D01*
X101983917Y-117825024D01*
X99820540Y-117842631D01*
X97686632Y-121542909D01*
X98767139Y-123419217D01*
X98767139Y-123419217D01*
G37*
X98767139Y-123419217D02*
X99847646Y-125295526D01*
X104140035Y-125295526D01*
X104975544Y-123845439D01*
X105221231Y-123418271D01*
X105458954Y-123003551D01*
X105675951Y-122623652D01*
X105859458Y-122300943D01*
X105996715Y-122057797D01*
X106052803Y-121957149D01*
X106294553Y-121518947D01*
X104147295Y-117807417D01*
X103825941Y-117810032D01*
X103825941Y-118408698D01*
X104724447Y-119963823D01*
X105622953Y-121518947D01*
X105449634Y-121824600D01*
X105364657Y-121973744D01*
X105225801Y-122216624D01*
X105045769Y-122531053D01*
X104837269Y-122894843D01*
X104613006Y-123285810D01*
X104541053Y-123411179D01*
X103805790Y-124692105D01*
X100188460Y-124693947D01*
X99295856Y-123139868D01*
X99058689Y-122726763D01*
X98843903Y-122352295D01*
X98660345Y-122031912D01*
X98516859Y-121781065D01*
X98422289Y-121615202D01*
X98385481Y-121549771D01*
X98385474Y-121549757D01*
X98412771Y-121484618D01*
X98498784Y-121319426D01*
X98634972Y-121069656D01*
X98812789Y-120750787D01*
X99023692Y-120378295D01*
X99252615Y-119978968D01*
X100137533Y-118444210D01*
X103825941Y-118408698D01*
X103825941Y-117810032D01*
X101983917Y-117825024D01*
X99820540Y-117842631D01*
X97686632Y-121542909D01*
X98767139Y-123419217D01*
G36*
X101231948Y-106940274D02*
X101414537Y-107237898D01*
X101708885Y-107484610D01*
X101735661Y-107500563D01*
X102026808Y-107611303D01*
X102349515Y-107642459D01*
X102658637Y-107596125D01*
X102909026Y-107474395D01*
X102944542Y-107444485D01*
X103175828Y-107148065D01*
X103286274Y-106808104D01*
X103272847Y-106444245D01*
X103150554Y-106109170D01*
X102939936Y-105833167D01*
X102661131Y-105640187D01*
X102344414Y-105538585D01*
X102020062Y-105536720D01*
X101718352Y-105642950D01*
X101642496Y-105692875D01*
X101366393Y-105968039D01*
X101206711Y-106282734D01*
X101162285Y-106614350D01*
X101231948Y-106940274D01*
X101231948Y-106940274D01*
G37*
X101231948Y-106940274D02*
X101414537Y-107237898D01*
X101708885Y-107484610D01*
X101735661Y-107500563D01*
X102026808Y-107611303D01*
X102349515Y-107642459D01*
X102658637Y-107596125D01*
X102909026Y-107474395D01*
X102944542Y-107444485D01*
X103175828Y-107148065D01*
X103286274Y-106808104D01*
X103272847Y-106444245D01*
X103150554Y-106109170D01*
X102939936Y-105833167D01*
X102661131Y-105640187D01*
X102344414Y-105538585D01*
X102020062Y-105536720D01*
X101718352Y-105642950D01*
X101642496Y-105692875D01*
X101366393Y-105968039D01*
X101206711Y-106282734D01*
X101162285Y-106614350D01*
X101231948Y-106940274D01*
G36*
X102935328Y-119264411D02*
X103024856Y-119432100D01*
X103162719Y-119682049D01*
X103339631Y-119997520D01*
X103546305Y-120361776D01*
X103681600Y-120598295D01*
X104459778Y-121954637D01*
X104662155Y-121836443D01*
X104803971Y-121739372D01*
X104882283Y-121658824D01*
X104885144Y-121652019D01*
X104859100Y-121577147D01*
X104774667Y-121404706D01*
X104641264Y-121152341D01*
X104468306Y-120837694D01*
X104265211Y-120478411D01*
X104175818Y-120322992D01*
X103958823Y-119949622D01*
X103761661Y-119614222D01*
X103594958Y-119334554D01*
X103469334Y-119128379D01*
X103395415Y-119013458D01*
X103382857Y-118997173D01*
X103292412Y-118986404D01*
X103146639Y-119027278D01*
X103001102Y-119096783D01*
X102911366Y-119171910D01*
X102903421Y-119195719D01*
X102935328Y-119264411D01*
X102935328Y-119264411D01*
G37*
X102935328Y-119264411D02*
X103024856Y-119432100D01*
X103162719Y-119682049D01*
X103339631Y-119997520D01*
X103546305Y-120361776D01*
X103681600Y-120598295D01*
X104459778Y-121954637D01*
X104662155Y-121836443D01*
X104803971Y-121739372D01*
X104882283Y-121658824D01*
X104885144Y-121652019D01*
X104859100Y-121577147D01*
X104774667Y-121404706D01*
X104641264Y-121152341D01*
X104468306Y-120837694D01*
X104265211Y-120478411D01*
X104175818Y-120322992D01*
X103958823Y-119949622D01*
X103761661Y-119614222D01*
X103594958Y-119334554D01*
X103469334Y-119128379D01*
X103395415Y-119013458D01*
X103382857Y-118997173D01*
X103292412Y-118986404D01*
X103146639Y-119027278D01*
X103001102Y-119096783D01*
X102911366Y-119171910D01*
X102903421Y-119195719D01*
X102935328Y-119264411D01*
G36*
X103571843Y-124025526D02*
X103571843Y-123490789D01*
X100363421Y-123490789D01*
X100363421Y-124025526D01*
X103571843Y-124025526D01*
X103571843Y-124025526D01*
G37*
X103571843Y-124025526D02*
X103571843Y-123490789D01*
X100363421Y-123490789D01*
X100363421Y-124025526D01*
X103571843Y-124025526D01*
G36*
X99529096Y-121939700D02*
X100297180Y-120605577D01*
X100517082Y-120222818D01*
X100714022Y-119878500D01*
X100878361Y-119589600D01*
X101000461Y-119373095D01*
X101070682Y-119245963D01*
X101083722Y-119220220D01*
X101042829Y-119159617D01*
X100918247Y-119071332D01*
X100869124Y-119043477D01*
X100715982Y-118971157D01*
X100620146Y-118944853D01*
X100609169Y-118948458D01*
X100569056Y-119013241D01*
X100473092Y-119175851D01*
X100331866Y-119418111D01*
X100155970Y-119721842D01*
X99955995Y-120068868D01*
X99929328Y-120115263D01*
X99718376Y-120481909D01*
X99522059Y-120822242D01*
X99353232Y-121114041D01*
X99224753Y-121335087D01*
X99149479Y-121463160D01*
X99147976Y-121465668D01*
X99019566Y-121679758D01*
X99529096Y-121939700D01*
X99529096Y-121939700D01*
G37*
X99529096Y-121939700D02*
X100297180Y-120605577D01*
X100517082Y-120222818D01*
X100714022Y-119878500D01*
X100878361Y-119589600D01*
X101000461Y-119373095D01*
X101070682Y-119245963D01*
X101083722Y-119220220D01*
X101042829Y-119159617D01*
X100918247Y-119071332D01*
X100869124Y-119043477D01*
X100715982Y-118971157D01*
X100620146Y-118944853D01*
X100609169Y-118948458D01*
X100569056Y-119013241D01*
X100473092Y-119175851D01*
X100331866Y-119418111D01*
X100155970Y-119721842D01*
X99955995Y-120068868D01*
X99929328Y-120115263D01*
X99718376Y-120481909D01*
X99522059Y-120822242D01*
X99353232Y-121114041D01*
X99224753Y-121335087D01*
X99149479Y-121463160D01*
X99147976Y-121465668D01*
X99019566Y-121679758D01*
X99529096Y-121939700D01*
G04 #@! TO.C,REF\002A\002A\002A*
G36*
X104663464Y-51210427D02*
X104550882Y-51807618D01*
X104135469Y-51978865D01*
X103720055Y-52150112D01*
X103221698Y-51811233D01*
X103082131Y-51716877D01*
X102955971Y-51632630D01*
X102849104Y-51562338D01*
X102767417Y-51509847D01*
X102716798Y-51479004D01*
X102703013Y-51472353D01*
X102678179Y-51489458D01*
X102625111Y-51536744D01*
X102549759Y-51608172D01*
X102458070Y-51697700D01*
X102355992Y-51799289D01*
X102249473Y-51906898D01*
X102144463Y-52014487D01*
X102046908Y-52116015D01*
X101962757Y-52205441D01*
X101897959Y-52276726D01*
X101858462Y-52323828D01*
X101849019Y-52339592D01*
X101862608Y-52368653D01*
X101900706Y-52432321D01*
X101959306Y-52524367D01*
X102034402Y-52638564D01*
X102121991Y-52768684D01*
X102172745Y-52842901D01*
X102265254Y-52978422D01*
X102347459Y-53100716D01*
X102415369Y-53203695D01*
X102464999Y-53281273D01*
X102492359Y-53327361D01*
X102496470Y-53337047D01*
X102487150Y-53364574D01*
X102461745Y-53428728D01*
X102424088Y-53520490D01*
X102378013Y-53630839D01*
X102327353Y-53750755D01*
X102275940Y-53871219D01*
X102227610Y-53983209D01*
X102186193Y-54077707D01*
X102155525Y-54145692D01*
X102139438Y-54178143D01*
X102138488Y-54179420D01*
X102113227Y-54185617D01*
X102045954Y-54199440D01*
X101943639Y-54219532D01*
X101813258Y-54244534D01*
X101661783Y-54273086D01*
X101573406Y-54289551D01*
X101411547Y-54320369D01*
X101265350Y-54349694D01*
X101142212Y-54375921D01*
X101049530Y-54397446D01*
X100994698Y-54412665D01*
X100983676Y-54417493D01*
X100972881Y-54450174D01*
X100964170Y-54523985D01*
X100957539Y-54630292D01*
X100952981Y-54760467D01*
X100950490Y-54905876D01*
X100950061Y-55057890D01*
X100951688Y-55207877D01*
X100955364Y-55347206D01*
X100961084Y-55467245D01*
X100968842Y-55559365D01*
X100978631Y-55614932D01*
X100984503Y-55626500D01*
X101019600Y-55640365D01*
X101093971Y-55660188D01*
X101197776Y-55683639D01*
X101321180Y-55708391D01*
X101364258Y-55716398D01*
X101571952Y-55754441D01*
X101736015Y-55785079D01*
X101861869Y-55809529D01*
X101954934Y-55829009D01*
X102020632Y-55844736D01*
X102064382Y-55857928D01*
X102091607Y-55869804D01*
X102107727Y-55881580D01*
X102109982Y-55883908D01*
X102132496Y-55921400D01*
X102166841Y-55994365D01*
X102209588Y-56093867D01*
X102257307Y-56210973D01*
X102306569Y-56336748D01*
X102353944Y-56462257D01*
X102396004Y-56578565D01*
X102429319Y-56676739D01*
X102450458Y-56747843D01*
X102455994Y-56782942D01*
X102455533Y-56784172D01*
X102436776Y-56812861D01*
X102394223Y-56875985D01*
X102332346Y-56966973D01*
X102255617Y-57079255D01*
X102168508Y-57206260D01*
X102143701Y-57242353D01*
X102055247Y-57373203D01*
X101977411Y-57492591D01*
X101914433Y-57593662D01*
X101870554Y-57669559D01*
X101850014Y-57713427D01*
X101849019Y-57718817D01*
X101866277Y-57747144D01*
X101913964Y-57803261D01*
X101985949Y-57881137D01*
X102076102Y-57974740D01*
X102178294Y-58078041D01*
X102286394Y-58185006D01*
X102394271Y-58289606D01*
X102495795Y-58385809D01*
X102584837Y-58467584D01*
X102655266Y-58528900D01*
X102700952Y-58563726D01*
X102713590Y-58569412D01*
X102743008Y-58556020D01*
X102803238Y-58519899D01*
X102884470Y-58467136D01*
X102946969Y-58424667D01*
X103060214Y-58346740D01*
X103194325Y-58254984D01*
X103328844Y-58163375D01*
X103401166Y-58114346D01*
X103645961Y-57948770D01*
X103851449Y-58059875D01*
X103945063Y-58108548D01*
X104024669Y-58146381D01*
X104078532Y-58167958D01*
X104092242Y-58170961D01*
X104108729Y-58148793D01*
X104141254Y-58086149D01*
X104187391Y-57988809D01*
X104244709Y-57862549D01*
X104310783Y-57713150D01*
X104383184Y-57546388D01*
X104459483Y-57368042D01*
X104537253Y-57183891D01*
X104614065Y-56999712D01*
X104687493Y-56821285D01*
X104755107Y-56654387D01*
X104814479Y-56504797D01*
X104863183Y-56378293D01*
X104898789Y-56280654D01*
X104918869Y-56217657D01*
X104922099Y-56196021D01*
X104896503Y-56168424D01*
X104840461Y-56123625D01*
X104765688Y-56070934D01*
X104759412Y-56066765D01*
X104566154Y-55912069D01*
X104410325Y-55731591D01*
X104293275Y-55531102D01*
X104216354Y-55316374D01*
X104180913Y-55093177D01*
X104188302Y-54867281D01*
X104239872Y-54644459D01*
X104336973Y-54430479D01*
X104365541Y-54383664D01*
X104514131Y-54194618D01*
X104689672Y-54042812D01*
X104886089Y-53929034D01*
X105097306Y-53854075D01*
X105317246Y-53818722D01*
X105539836Y-53823767D01*
X105758998Y-53869999D01*
X105968657Y-53958206D01*
X106162738Y-54089179D01*
X106222773Y-54142337D01*
X106375564Y-54308739D01*
X106486902Y-54483912D01*
X106563276Y-54680266D01*
X106605812Y-54874717D01*
X106616313Y-55093342D01*
X106581299Y-55313052D01*
X106504326Y-55526420D01*
X106388952Y-55726022D01*
X106238734Y-55904429D01*
X106057226Y-56054217D01*
X106033372Y-56070006D01*
X105957798Y-56121712D01*
X105900348Y-56166512D01*
X105872882Y-56195117D01*
X105872482Y-56196021D01*
X105878379Y-56226964D01*
X105901754Y-56297191D01*
X105940178Y-56400925D01*
X105991222Y-56532390D01*
X106052457Y-56685807D01*
X106121455Y-56855401D01*
X106195786Y-57035393D01*
X106273021Y-57220008D01*
X106350731Y-57403468D01*
X106426488Y-57579996D01*
X106497862Y-57743814D01*
X106562425Y-57889147D01*
X106617747Y-58010217D01*
X106661399Y-58101247D01*
X106690953Y-58156460D01*
X106702855Y-58170961D01*
X106739222Y-58159669D01*
X106807269Y-58129385D01*
X106895263Y-58085520D01*
X106943649Y-58059875D01*
X107149136Y-57948770D01*
X107393931Y-58114346D01*
X107518893Y-58199170D01*
X107655704Y-58292516D01*
X107783911Y-58380408D01*
X107848128Y-58424667D01*
X107938448Y-58485318D01*
X108014928Y-58533381D01*
X108067592Y-58562770D01*
X108084697Y-58568982D01*
X108109594Y-58552223D01*
X108164694Y-58505436D01*
X108244656Y-58433480D01*
X108344139Y-58341212D01*
X108457799Y-58233490D01*
X108529684Y-58164326D01*
X108655448Y-58040757D01*
X108764136Y-57930234D01*
X108851354Y-57837485D01*
X108912710Y-57767237D01*
X108943808Y-57724220D01*
X108946791Y-57715490D01*
X108932946Y-57682284D01*
X108894687Y-57615142D01*
X108836258Y-57520863D01*
X108761902Y-57406245D01*
X108675864Y-57278083D01*
X108651397Y-57242353D01*
X108562245Y-57112489D01*
X108482261Y-56995569D01*
X108415919Y-56898162D01*
X108367688Y-56826839D01*
X108342042Y-56788170D01*
X108339564Y-56784172D01*
X108343270Y-56753355D01*
X108362938Y-56685599D01*
X108395139Y-56589839D01*
X108436444Y-56475009D01*
X108483424Y-56350044D01*
X108532650Y-56223879D01*
X108580691Y-56105448D01*
X108624118Y-56003685D01*
X108659503Y-55927526D01*
X108683415Y-55885904D01*
X108685115Y-55883908D01*
X108699737Y-55872013D01*
X108724434Y-55860250D01*
X108764627Y-55847401D01*
X108825736Y-55832249D01*
X108913182Y-55813576D01*
X109032387Y-55790165D01*
X109188772Y-55760797D01*
X109387756Y-55724255D01*
X109430839Y-55716398D01*
X109558529Y-55691727D01*
X109669846Y-55667593D01*
X109754954Y-55646324D01*
X109804016Y-55630248D01*
X109810594Y-55626500D01*
X109821435Y-55593273D01*
X109830246Y-55519021D01*
X109837023Y-55412376D01*
X109841759Y-55281967D01*
X109844449Y-55136427D01*
X109845086Y-54984386D01*
X109843665Y-54834476D01*
X109840179Y-54695328D01*
X109834623Y-54575572D01*
X109826991Y-54483841D01*
X109817277Y-54428766D01*
X109811421Y-54417493D01*
X109778819Y-54406123D01*
X109704581Y-54387624D01*
X109596103Y-54363602D01*
X109460782Y-54335662D01*
X109306014Y-54305408D01*
X109221692Y-54289551D01*
X109061703Y-54259644D01*
X108919032Y-54232550D01*
X108800651Y-54209631D01*
X108713534Y-54192243D01*
X108664654Y-54181747D01*
X108656609Y-54179420D01*
X108643012Y-54153186D01*
X108614270Y-54089995D01*
X108574214Y-53998877D01*
X108526675Y-53888857D01*
X108475484Y-53768965D01*
X108424473Y-53648227D01*
X108377473Y-53535671D01*
X108338315Y-53440326D01*
X108310830Y-53371217D01*
X108298850Y-53337374D01*
X108298627Y-53335895D01*
X108312208Y-53309197D01*
X108350284Y-53247760D01*
X108408852Y-53157689D01*
X108483911Y-53045090D01*
X108571459Y-52916070D01*
X108622352Y-52841961D01*
X108715090Y-52706077D01*
X108797458Y-52582709D01*
X108865438Y-52478097D01*
X108915011Y-52398483D01*
X108942157Y-52350107D01*
X108946078Y-52339262D01*
X108929224Y-52314020D01*
X108882631Y-52260124D01*
X108812251Y-52183613D01*
X108724034Y-52090523D01*
X108623934Y-51986895D01*
X108517901Y-51878764D01*
X108411888Y-51772170D01*
X108311847Y-51673150D01*
X108223729Y-51587742D01*
X108153486Y-51521985D01*
X108107071Y-51481916D01*
X108091543Y-51472353D01*
X108066260Y-51485800D01*
X108005788Y-51523575D01*
X107916007Y-51581835D01*
X107802796Y-51656734D01*
X107672036Y-51744425D01*
X107573400Y-51811233D01*
X107075042Y-52150112D01*
X106659629Y-51978865D01*
X106244215Y-51807618D01*
X106131633Y-51210427D01*
X106019050Y-50613235D01*
X104776047Y-50613235D01*
X104663464Y-51210427D01*
X104663464Y-51210427D01*
G37*
X104663464Y-51210427D02*
X104550882Y-51807618D01*
X104135469Y-51978865D01*
X103720055Y-52150112D01*
X103221698Y-51811233D01*
X103082131Y-51716877D01*
X102955971Y-51632630D01*
X102849104Y-51562338D01*
X102767417Y-51509847D01*
X102716798Y-51479004D01*
X102703013Y-51472353D01*
X102678179Y-51489458D01*
X102625111Y-51536744D01*
X102549759Y-51608172D01*
X102458070Y-51697700D01*
X102355992Y-51799289D01*
X102249473Y-51906898D01*
X102144463Y-52014487D01*
X102046908Y-52116015D01*
X101962757Y-52205441D01*
X101897959Y-52276726D01*
X101858462Y-52323828D01*
X101849019Y-52339592D01*
X101862608Y-52368653D01*
X101900706Y-52432321D01*
X101959306Y-52524367D01*
X102034402Y-52638564D01*
X102121991Y-52768684D01*
X102172745Y-52842901D01*
X102265254Y-52978422D01*
X102347459Y-53100716D01*
X102415369Y-53203695D01*
X102464999Y-53281273D01*
X102492359Y-53327361D01*
X102496470Y-53337047D01*
X102487150Y-53364574D01*
X102461745Y-53428728D01*
X102424088Y-53520490D01*
X102378013Y-53630839D01*
X102327353Y-53750755D01*
X102275940Y-53871219D01*
X102227610Y-53983209D01*
X102186193Y-54077707D01*
X102155525Y-54145692D01*
X102139438Y-54178143D01*
X102138488Y-54179420D01*
X102113227Y-54185617D01*
X102045954Y-54199440D01*
X101943639Y-54219532D01*
X101813258Y-54244534D01*
X101661783Y-54273086D01*
X101573406Y-54289551D01*
X101411547Y-54320369D01*
X101265350Y-54349694D01*
X101142212Y-54375921D01*
X101049530Y-54397446D01*
X100994698Y-54412665D01*
X100983676Y-54417493D01*
X100972881Y-54450174D01*
X100964170Y-54523985D01*
X100957539Y-54630292D01*
X100952981Y-54760467D01*
X100950490Y-54905876D01*
X100950061Y-55057890D01*
X100951688Y-55207877D01*
X100955364Y-55347206D01*
X100961084Y-55467245D01*
X100968842Y-55559365D01*
X100978631Y-55614932D01*
X100984503Y-55626500D01*
X101019600Y-55640365D01*
X101093971Y-55660188D01*
X101197776Y-55683639D01*
X101321180Y-55708391D01*
X101364258Y-55716398D01*
X101571952Y-55754441D01*
X101736015Y-55785079D01*
X101861869Y-55809529D01*
X101954934Y-55829009D01*
X102020632Y-55844736D01*
X102064382Y-55857928D01*
X102091607Y-55869804D01*
X102107727Y-55881580D01*
X102109982Y-55883908D01*
X102132496Y-55921400D01*
X102166841Y-55994365D01*
X102209588Y-56093867D01*
X102257307Y-56210973D01*
X102306569Y-56336748D01*
X102353944Y-56462257D01*
X102396004Y-56578565D01*
X102429319Y-56676739D01*
X102450458Y-56747843D01*
X102455994Y-56782942D01*
X102455533Y-56784172D01*
X102436776Y-56812861D01*
X102394223Y-56875985D01*
X102332346Y-56966973D01*
X102255617Y-57079255D01*
X102168508Y-57206260D01*
X102143701Y-57242353D01*
X102055247Y-57373203D01*
X101977411Y-57492591D01*
X101914433Y-57593662D01*
X101870554Y-57669559D01*
X101850014Y-57713427D01*
X101849019Y-57718817D01*
X101866277Y-57747144D01*
X101913964Y-57803261D01*
X101985949Y-57881137D01*
X102076102Y-57974740D01*
X102178294Y-58078041D01*
X102286394Y-58185006D01*
X102394271Y-58289606D01*
X102495795Y-58385809D01*
X102584837Y-58467584D01*
X102655266Y-58528900D01*
X102700952Y-58563726D01*
X102713590Y-58569412D01*
X102743008Y-58556020D01*
X102803238Y-58519899D01*
X102884470Y-58467136D01*
X102946969Y-58424667D01*
X103060214Y-58346740D01*
X103194325Y-58254984D01*
X103328844Y-58163375D01*
X103401166Y-58114346D01*
X103645961Y-57948770D01*
X103851449Y-58059875D01*
X103945063Y-58108548D01*
X104024669Y-58146381D01*
X104078532Y-58167958D01*
X104092242Y-58170961D01*
X104108729Y-58148793D01*
X104141254Y-58086149D01*
X104187391Y-57988809D01*
X104244709Y-57862549D01*
X104310783Y-57713150D01*
X104383184Y-57546388D01*
X104459483Y-57368042D01*
X104537253Y-57183891D01*
X104614065Y-56999712D01*
X104687493Y-56821285D01*
X104755107Y-56654387D01*
X104814479Y-56504797D01*
X104863183Y-56378293D01*
X104898789Y-56280654D01*
X104918869Y-56217657D01*
X104922099Y-56196021D01*
X104896503Y-56168424D01*
X104840461Y-56123625D01*
X104765688Y-56070934D01*
X104759412Y-56066765D01*
X104566154Y-55912069D01*
X104410325Y-55731591D01*
X104293275Y-55531102D01*
X104216354Y-55316374D01*
X104180913Y-55093177D01*
X104188302Y-54867281D01*
X104239872Y-54644459D01*
X104336973Y-54430479D01*
X104365541Y-54383664D01*
X104514131Y-54194618D01*
X104689672Y-54042812D01*
X104886089Y-53929034D01*
X105097306Y-53854075D01*
X105317246Y-53818722D01*
X105539836Y-53823767D01*
X105758998Y-53869999D01*
X105968657Y-53958206D01*
X106162738Y-54089179D01*
X106222773Y-54142337D01*
X106375564Y-54308739D01*
X106486902Y-54483912D01*
X106563276Y-54680266D01*
X106605812Y-54874717D01*
X106616313Y-55093342D01*
X106581299Y-55313052D01*
X106504326Y-55526420D01*
X106388952Y-55726022D01*
X106238734Y-55904429D01*
X106057226Y-56054217D01*
X106033372Y-56070006D01*
X105957798Y-56121712D01*
X105900348Y-56166512D01*
X105872882Y-56195117D01*
X105872482Y-56196021D01*
X105878379Y-56226964D01*
X105901754Y-56297191D01*
X105940178Y-56400925D01*
X105991222Y-56532390D01*
X106052457Y-56685807D01*
X106121455Y-56855401D01*
X106195786Y-57035393D01*
X106273021Y-57220008D01*
X106350731Y-57403468D01*
X106426488Y-57579996D01*
X106497862Y-57743814D01*
X106562425Y-57889147D01*
X106617747Y-58010217D01*
X106661399Y-58101247D01*
X106690953Y-58156460D01*
X106702855Y-58170961D01*
X106739222Y-58159669D01*
X106807269Y-58129385D01*
X106895263Y-58085520D01*
X106943649Y-58059875D01*
X107149136Y-57948770D01*
X107393931Y-58114346D01*
X107518893Y-58199170D01*
X107655704Y-58292516D01*
X107783911Y-58380408D01*
X107848128Y-58424667D01*
X107938448Y-58485318D01*
X108014928Y-58533381D01*
X108067592Y-58562770D01*
X108084697Y-58568982D01*
X108109594Y-58552223D01*
X108164694Y-58505436D01*
X108244656Y-58433480D01*
X108344139Y-58341212D01*
X108457799Y-58233490D01*
X108529684Y-58164326D01*
X108655448Y-58040757D01*
X108764136Y-57930234D01*
X108851354Y-57837485D01*
X108912710Y-57767237D01*
X108943808Y-57724220D01*
X108946791Y-57715490D01*
X108932946Y-57682284D01*
X108894687Y-57615142D01*
X108836258Y-57520863D01*
X108761902Y-57406245D01*
X108675864Y-57278083D01*
X108651397Y-57242353D01*
X108562245Y-57112489D01*
X108482261Y-56995569D01*
X108415919Y-56898162D01*
X108367688Y-56826839D01*
X108342042Y-56788170D01*
X108339564Y-56784172D01*
X108343270Y-56753355D01*
X108362938Y-56685599D01*
X108395139Y-56589839D01*
X108436444Y-56475009D01*
X108483424Y-56350044D01*
X108532650Y-56223879D01*
X108580691Y-56105448D01*
X108624118Y-56003685D01*
X108659503Y-55927526D01*
X108683415Y-55885904D01*
X108685115Y-55883908D01*
X108699737Y-55872013D01*
X108724434Y-55860250D01*
X108764627Y-55847401D01*
X108825736Y-55832249D01*
X108913182Y-55813576D01*
X109032387Y-55790165D01*
X109188772Y-55760797D01*
X109387756Y-55724255D01*
X109430839Y-55716398D01*
X109558529Y-55691727D01*
X109669846Y-55667593D01*
X109754954Y-55646324D01*
X109804016Y-55630248D01*
X109810594Y-55626500D01*
X109821435Y-55593273D01*
X109830246Y-55519021D01*
X109837023Y-55412376D01*
X109841759Y-55281967D01*
X109844449Y-55136427D01*
X109845086Y-54984386D01*
X109843665Y-54834476D01*
X109840179Y-54695328D01*
X109834623Y-54575572D01*
X109826991Y-54483841D01*
X109817277Y-54428766D01*
X109811421Y-54417493D01*
X109778819Y-54406123D01*
X109704581Y-54387624D01*
X109596103Y-54363602D01*
X109460782Y-54335662D01*
X109306014Y-54305408D01*
X109221692Y-54289551D01*
X109061703Y-54259644D01*
X108919032Y-54232550D01*
X108800651Y-54209631D01*
X108713534Y-54192243D01*
X108664654Y-54181747D01*
X108656609Y-54179420D01*
X108643012Y-54153186D01*
X108614270Y-54089995D01*
X108574214Y-53998877D01*
X108526675Y-53888857D01*
X108475484Y-53768965D01*
X108424473Y-53648227D01*
X108377473Y-53535671D01*
X108338315Y-53440326D01*
X108310830Y-53371217D01*
X108298850Y-53337374D01*
X108298627Y-53335895D01*
X108312208Y-53309197D01*
X108350284Y-53247760D01*
X108408852Y-53157689D01*
X108483911Y-53045090D01*
X108571459Y-52916070D01*
X108622352Y-52841961D01*
X108715090Y-52706077D01*
X108797458Y-52582709D01*
X108865438Y-52478097D01*
X108915011Y-52398483D01*
X108942157Y-52350107D01*
X108946078Y-52339262D01*
X108929224Y-52314020D01*
X108882631Y-52260124D01*
X108812251Y-52183613D01*
X108724034Y-52090523D01*
X108623934Y-51986895D01*
X108517901Y-51878764D01*
X108411888Y-51772170D01*
X108311847Y-51673150D01*
X108223729Y-51587742D01*
X108153486Y-51521985D01*
X108107071Y-51481916D01*
X108091543Y-51472353D01*
X108066260Y-51485800D01*
X108005788Y-51523575D01*
X107916007Y-51581835D01*
X107802796Y-51656734D01*
X107672036Y-51744425D01*
X107573400Y-51811233D01*
X107075042Y-52150112D01*
X106659629Y-51978865D01*
X106244215Y-51807618D01*
X106131633Y-51210427D01*
X106019050Y-50613235D01*
X104776047Y-50613235D01*
X104663464Y-51210427D01*
D12*
G04 #@! TO.C,K44*
X170470286Y-146555308D02*
X168752870Y-146095128D01*
X168752870Y-146095128D02*
X169213050Y-144377712D01*
X171579692Y-135545286D02*
X172039872Y-133827870D01*
X172039872Y-133827870D02*
X173757288Y-134288050D01*
X183846950Y-138832288D02*
X184307130Y-137114872D01*
X184307130Y-137114872D02*
X182589714Y-136654692D01*
X181480308Y-147664714D02*
X181020128Y-149382130D01*
X181020128Y-149382130D02*
X179302712Y-148921950D01*
G04 #@! TO.C,K30*
X86868000Y-130175000D02*
X85090000Y-130175000D01*
X85090000Y-130175000D02*
X85090000Y-128397000D01*
X85090000Y-119253000D02*
X85090000Y-117475000D01*
X85090000Y-117475000D02*
X86868000Y-117475000D01*
X97790000Y-119253000D02*
X97790000Y-117475000D01*
X97790000Y-117475000D02*
X96012000Y-117475000D01*
X97790000Y-128397000D02*
X97790000Y-130175000D01*
X97790000Y-130175000D02*
X96012000Y-130175000D01*
G04 #@! TO.C,K20*
X86868000Y-111125000D02*
X85090000Y-111125000D01*
X85090000Y-111125000D02*
X85090000Y-109347000D01*
X85090000Y-100203000D02*
X85090000Y-98425000D01*
X85090000Y-98425000D02*
X86868000Y-98425000D01*
X97790000Y-100203000D02*
X97790000Y-98425000D01*
X97790000Y-98425000D02*
X96012000Y-98425000D01*
X97790000Y-109347000D02*
X97790000Y-111125000D01*
X97790000Y-111125000D02*
X96012000Y-111125000D01*
G04 #@! TO.C,K10*
X86868000Y-92075000D02*
X85090000Y-92075000D01*
X85090000Y-92075000D02*
X85090000Y-90297000D01*
X85090000Y-81153000D02*
X85090000Y-79375000D01*
X85090000Y-79375000D02*
X86868000Y-79375000D01*
X97790000Y-81153000D02*
X97790000Y-79375000D01*
X97790000Y-79375000D02*
X96012000Y-79375000D01*
X97790000Y-90297000D02*
X97790000Y-92075000D01*
X97790000Y-92075000D02*
X96012000Y-92075000D01*
G04 #@! TO.C,K0*
X86868000Y-73025000D02*
X85090000Y-73025000D01*
X85090000Y-73025000D02*
X85090000Y-71247000D01*
X85090000Y-62103000D02*
X85090000Y-60325000D01*
X85090000Y-60325000D02*
X86868000Y-60325000D01*
X97790000Y-62103000D02*
X97790000Y-60325000D01*
X97790000Y-60325000D02*
X96012000Y-60325000D01*
X97790000Y-71247000D02*
X97790000Y-73025000D01*
X97790000Y-73025000D02*
X96012000Y-73025000D01*
G04 #@! TO.C,K36*
X221465532Y-140373261D02*
X219925739Y-139484261D01*
X219925739Y-139484261D02*
X220814739Y-137944468D01*
X225386739Y-130025532D02*
X226275739Y-128485739D01*
X226275739Y-128485739D02*
X227815532Y-129374739D01*
X236385261Y-136375532D02*
X237274261Y-134835739D01*
X237274261Y-134835739D02*
X235734468Y-133946739D01*
X231813261Y-144294468D02*
X230924261Y-145834261D01*
X230924261Y-145834261D02*
X229384468Y-144945261D01*
G04 #@! TO.C,K43*
X146558000Y-142240000D02*
X144780000Y-142240000D01*
X144780000Y-142240000D02*
X144780000Y-140462000D01*
X144780000Y-131318000D02*
X144780000Y-129540000D01*
X144780000Y-129540000D02*
X146558000Y-129540000D01*
X157480000Y-131318000D02*
X157480000Y-129540000D01*
X157480000Y-129540000D02*
X155702000Y-129540000D01*
X157480000Y-140462000D02*
X157480000Y-142240000D01*
X157480000Y-142240000D02*
X155702000Y-142240000D01*
G04 #@! TO.C,K42*
X127508000Y-144780000D02*
X125730000Y-144780000D01*
X125730000Y-144780000D02*
X125730000Y-143002000D01*
X125730000Y-133858000D02*
X125730000Y-132080000D01*
X125730000Y-132080000D02*
X127508000Y-132080000D01*
X138430000Y-133858000D02*
X138430000Y-132080000D01*
X138430000Y-132080000D02*
X136652000Y-132080000D01*
X138430000Y-143002000D02*
X138430000Y-144780000D01*
X138430000Y-144780000D02*
X136652000Y-144780000D01*
G04 #@! TO.C,K41*
X108458000Y-149225000D02*
X106680000Y-149225000D01*
X106680000Y-149225000D02*
X106680000Y-147447000D01*
X106680000Y-138303000D02*
X106680000Y-136525000D01*
X106680000Y-136525000D02*
X108458000Y-136525000D01*
X119380000Y-138303000D02*
X119380000Y-136525000D01*
X119380000Y-136525000D02*
X117602000Y-136525000D01*
X119380000Y-147447000D02*
X119380000Y-149225000D01*
X119380000Y-149225000D02*
X117602000Y-149225000D01*
G04 #@! TO.C,K40*
X89408000Y-149225000D02*
X87630000Y-149225000D01*
X87630000Y-149225000D02*
X87630000Y-147447000D01*
X87630000Y-138303000D02*
X87630000Y-136525000D01*
X87630000Y-136525000D02*
X89408000Y-136525000D01*
X100330000Y-138303000D02*
X100330000Y-136525000D01*
X100330000Y-136525000D02*
X98552000Y-136525000D01*
X100330000Y-147447000D02*
X100330000Y-149225000D01*
X100330000Y-149225000D02*
X98552000Y-149225000D01*
G04 #@! TO.C,K35*
X184658000Y-127635000D02*
X182880000Y-127635000D01*
X182880000Y-127635000D02*
X182880000Y-125857000D01*
X182880000Y-116713000D02*
X182880000Y-114935000D01*
X182880000Y-114935000D02*
X184658000Y-114935000D01*
X195580000Y-116713000D02*
X195580000Y-114935000D01*
X195580000Y-114935000D02*
X193802000Y-114935000D01*
X195580000Y-125857000D02*
X195580000Y-127635000D01*
X195580000Y-127635000D02*
X193802000Y-127635000D01*
G04 #@! TO.C,K34*
X165608000Y-125730000D02*
X163830000Y-125730000D01*
X163830000Y-125730000D02*
X163830000Y-123952000D01*
X163830000Y-114808000D02*
X163830000Y-113030000D01*
X163830000Y-113030000D02*
X165608000Y-113030000D01*
X176530000Y-114808000D02*
X176530000Y-113030000D01*
X176530000Y-113030000D02*
X174752000Y-113030000D01*
X176530000Y-123952000D02*
X176530000Y-125730000D01*
X176530000Y-125730000D02*
X174752000Y-125730000D01*
G04 #@! TO.C,K33*
X146558000Y-123190000D02*
X144780000Y-123190000D01*
X144780000Y-123190000D02*
X144780000Y-121412000D01*
X144780000Y-112268000D02*
X144780000Y-110490000D01*
X144780000Y-110490000D02*
X146558000Y-110490000D01*
X157480000Y-112268000D02*
X157480000Y-110490000D01*
X157480000Y-110490000D02*
X155702000Y-110490000D01*
X157480000Y-121412000D02*
X157480000Y-123190000D01*
X157480000Y-123190000D02*
X155702000Y-123190000D01*
G04 #@! TO.C,K32*
X127508000Y-125730000D02*
X125730000Y-125730000D01*
X125730000Y-125730000D02*
X125730000Y-123952000D01*
X125730000Y-114808000D02*
X125730000Y-113030000D01*
X125730000Y-113030000D02*
X127508000Y-113030000D01*
X138430000Y-114808000D02*
X138430000Y-113030000D01*
X138430000Y-113030000D02*
X136652000Y-113030000D01*
X138430000Y-123952000D02*
X138430000Y-125730000D01*
X138430000Y-125730000D02*
X136652000Y-125730000D01*
G04 #@! TO.C,K31*
X108458000Y-130175000D02*
X106680000Y-130175000D01*
X106680000Y-130175000D02*
X106680000Y-128397000D01*
X106680000Y-119253000D02*
X106680000Y-117475000D01*
X106680000Y-117475000D02*
X108458000Y-117475000D01*
X119380000Y-119253000D02*
X119380000Y-117475000D01*
X119380000Y-117475000D02*
X117602000Y-117475000D01*
X119380000Y-128397000D02*
X119380000Y-130175000D01*
X119380000Y-130175000D02*
X117602000Y-130175000D01*
G04 #@! TO.C,K26*
X204955532Y-130848261D02*
X203415739Y-129959261D01*
X203415739Y-129959261D02*
X204304739Y-128419468D01*
X208876739Y-120500532D02*
X209765739Y-118960739D01*
X209765739Y-118960739D02*
X211305532Y-119849739D01*
X219875261Y-126850532D02*
X220764261Y-125310739D01*
X220764261Y-125310739D02*
X219224468Y-124421739D01*
X215303261Y-134769468D02*
X214414261Y-136309261D01*
X214414261Y-136309261D02*
X212874468Y-135420261D01*
G04 #@! TO.C,K25*
X184658000Y-108585000D02*
X182880000Y-108585000D01*
X182880000Y-108585000D02*
X182880000Y-106807000D01*
X182880000Y-97663000D02*
X182880000Y-95885000D01*
X182880000Y-95885000D02*
X184658000Y-95885000D01*
X195580000Y-97663000D02*
X195580000Y-95885000D01*
X195580000Y-95885000D02*
X193802000Y-95885000D01*
X195580000Y-106807000D02*
X195580000Y-108585000D01*
X195580000Y-108585000D02*
X193802000Y-108585000D01*
G04 #@! TO.C,K24*
X165608000Y-106680000D02*
X163830000Y-106680000D01*
X163830000Y-106680000D02*
X163830000Y-104902000D01*
X163830000Y-95758000D02*
X163830000Y-93980000D01*
X163830000Y-93980000D02*
X165608000Y-93980000D01*
X176530000Y-95758000D02*
X176530000Y-93980000D01*
X176530000Y-93980000D02*
X174752000Y-93980000D01*
X176530000Y-104902000D02*
X176530000Y-106680000D01*
X176530000Y-106680000D02*
X174752000Y-106680000D01*
G04 #@! TO.C,K23*
X146558000Y-104140000D02*
X144780000Y-104140000D01*
X144780000Y-104140000D02*
X144780000Y-102362000D01*
X144780000Y-93218000D02*
X144780000Y-91440000D01*
X144780000Y-91440000D02*
X146558000Y-91440000D01*
X157480000Y-93218000D02*
X157480000Y-91440000D01*
X157480000Y-91440000D02*
X155702000Y-91440000D01*
X157480000Y-102362000D02*
X157480000Y-104140000D01*
X157480000Y-104140000D02*
X155702000Y-104140000D01*
G04 #@! TO.C,K22*
X127508000Y-106680000D02*
X125730000Y-106680000D01*
X125730000Y-106680000D02*
X125730000Y-104902000D01*
X125730000Y-95758000D02*
X125730000Y-93980000D01*
X125730000Y-93980000D02*
X127508000Y-93980000D01*
X138430000Y-95758000D02*
X138430000Y-93980000D01*
X138430000Y-93980000D02*
X136652000Y-93980000D01*
X138430000Y-104902000D02*
X138430000Y-106680000D01*
X138430000Y-106680000D02*
X136652000Y-106680000D01*
G04 #@! TO.C,K21*
X108458000Y-111125000D02*
X106680000Y-111125000D01*
X106680000Y-111125000D02*
X106680000Y-109347000D01*
X106680000Y-100203000D02*
X106680000Y-98425000D01*
X106680000Y-98425000D02*
X108458000Y-98425000D01*
X119380000Y-100203000D02*
X119380000Y-98425000D01*
X119380000Y-98425000D02*
X117602000Y-98425000D01*
X119380000Y-109347000D02*
X119380000Y-111125000D01*
X119380000Y-111125000D02*
X117602000Y-111125000D01*
G04 #@! TO.C,K15*
X184658000Y-89535000D02*
X182880000Y-89535000D01*
X182880000Y-89535000D02*
X182880000Y-87757000D01*
X182880000Y-78613000D02*
X182880000Y-76835000D01*
X182880000Y-76835000D02*
X184658000Y-76835000D01*
X195580000Y-78613000D02*
X195580000Y-76835000D01*
X195580000Y-76835000D02*
X193802000Y-76835000D01*
X195580000Y-87757000D02*
X195580000Y-89535000D01*
X195580000Y-89535000D02*
X193802000Y-89535000D01*
G04 #@! TO.C,K14*
X165608000Y-87630000D02*
X163830000Y-87630000D01*
X163830000Y-87630000D02*
X163830000Y-85852000D01*
X163830000Y-76708000D02*
X163830000Y-74930000D01*
X163830000Y-74930000D02*
X165608000Y-74930000D01*
X176530000Y-76708000D02*
X176530000Y-74930000D01*
X176530000Y-74930000D02*
X174752000Y-74930000D01*
X176530000Y-85852000D02*
X176530000Y-87630000D01*
X176530000Y-87630000D02*
X174752000Y-87630000D01*
G04 #@! TO.C,K13*
X146558000Y-85090000D02*
X144780000Y-85090000D01*
X144780000Y-85090000D02*
X144780000Y-83312000D01*
X144780000Y-74168000D02*
X144780000Y-72390000D01*
X144780000Y-72390000D02*
X146558000Y-72390000D01*
X157480000Y-74168000D02*
X157480000Y-72390000D01*
X157480000Y-72390000D02*
X155702000Y-72390000D01*
X157480000Y-83312000D02*
X157480000Y-85090000D01*
X157480000Y-85090000D02*
X155702000Y-85090000D01*
G04 #@! TO.C,K12*
X127508000Y-87630000D02*
X125730000Y-87630000D01*
X125730000Y-87630000D02*
X125730000Y-85852000D01*
X125730000Y-76708000D02*
X125730000Y-74930000D01*
X125730000Y-74930000D02*
X127508000Y-74930000D01*
X138430000Y-76708000D02*
X138430000Y-74930000D01*
X138430000Y-74930000D02*
X136652000Y-74930000D01*
X138430000Y-85852000D02*
X138430000Y-87630000D01*
X138430000Y-87630000D02*
X136652000Y-87630000D01*
G04 #@! TO.C,K11*
X108458000Y-92075000D02*
X106680000Y-92075000D01*
X106680000Y-92075000D02*
X106680000Y-90297000D01*
X106680000Y-81153000D02*
X106680000Y-79375000D01*
X106680000Y-79375000D02*
X108458000Y-79375000D01*
X119380000Y-81153000D02*
X119380000Y-79375000D01*
X119380000Y-79375000D02*
X117602000Y-79375000D01*
X119380000Y-90297000D02*
X119380000Y-92075000D01*
X119380000Y-92075000D02*
X117602000Y-92075000D01*
G04 #@! TO.C,K6*
X203708000Y-80010000D02*
X201930000Y-80010000D01*
X201930000Y-80010000D02*
X201930000Y-78232000D01*
X201930000Y-69088000D02*
X201930000Y-67310000D01*
X201930000Y-67310000D02*
X203708000Y-67310000D01*
X214630000Y-69088000D02*
X214630000Y-67310000D01*
X214630000Y-67310000D02*
X212852000Y-67310000D01*
X214630000Y-78232000D02*
X214630000Y-80010000D01*
X214630000Y-80010000D02*
X212852000Y-80010000D01*
G04 #@! TO.C,K5*
X184658000Y-70485000D02*
X182880000Y-70485000D01*
X182880000Y-70485000D02*
X182880000Y-68707000D01*
X182880000Y-59563000D02*
X182880000Y-57785000D01*
X182880000Y-57785000D02*
X184658000Y-57785000D01*
X195580000Y-59563000D02*
X195580000Y-57785000D01*
X195580000Y-57785000D02*
X193802000Y-57785000D01*
X195580000Y-68707000D02*
X195580000Y-70485000D01*
X195580000Y-70485000D02*
X193802000Y-70485000D01*
G04 #@! TO.C,K4*
X165608000Y-68580000D02*
X163830000Y-68580000D01*
X163830000Y-68580000D02*
X163830000Y-66802000D01*
X163830000Y-57658000D02*
X163830000Y-55880000D01*
X163830000Y-55880000D02*
X165608000Y-55880000D01*
X176530000Y-57658000D02*
X176530000Y-55880000D01*
X176530000Y-55880000D02*
X174752000Y-55880000D01*
X176530000Y-66802000D02*
X176530000Y-68580000D01*
X176530000Y-68580000D02*
X174752000Y-68580000D01*
G04 #@! TO.C,K3*
X146558000Y-66040000D02*
X144780000Y-66040000D01*
X144780000Y-66040000D02*
X144780000Y-64262000D01*
X144780000Y-55118000D02*
X144780000Y-53340000D01*
X144780000Y-53340000D02*
X146558000Y-53340000D01*
X157480000Y-55118000D02*
X157480000Y-53340000D01*
X157480000Y-53340000D02*
X155702000Y-53340000D01*
X157480000Y-64262000D02*
X157480000Y-66040000D01*
X157480000Y-66040000D02*
X155702000Y-66040000D01*
G04 #@! TO.C,K2*
X127508000Y-68580000D02*
X125730000Y-68580000D01*
X125730000Y-68580000D02*
X125730000Y-66802000D01*
X125730000Y-57658000D02*
X125730000Y-55880000D01*
X125730000Y-55880000D02*
X127508000Y-55880000D01*
X138430000Y-57658000D02*
X138430000Y-55880000D01*
X138430000Y-55880000D02*
X136652000Y-55880000D01*
X138430000Y-66802000D02*
X138430000Y-68580000D01*
X138430000Y-68580000D02*
X136652000Y-68580000D01*
G04 #@! TO.C,K1*
X108458000Y-73025000D02*
X106680000Y-73025000D01*
X106680000Y-73025000D02*
X106680000Y-71247000D01*
X106680000Y-62103000D02*
X106680000Y-60325000D01*
X106680000Y-60325000D02*
X108458000Y-60325000D01*
X119380000Y-62103000D02*
X119380000Y-60325000D01*
X119380000Y-60325000D02*
X117602000Y-60325000D01*
X119380000Y-71247000D02*
X119380000Y-73025000D01*
X119380000Y-73025000D02*
X117602000Y-73025000D01*
G04 #@! TO.C,K16*
X212852000Y-104140000D02*
X214630000Y-104140000D01*
X201930000Y-104140000D02*
X203708000Y-104140000D01*
X201930000Y-102362000D02*
X201930000Y-104140000D01*
X201930000Y-91440000D02*
X201930000Y-93218000D01*
X203708000Y-91440000D02*
X201930000Y-91440000D01*
X214630000Y-91440000D02*
X212852000Y-91440000D01*
X214630000Y-93218000D02*
X214630000Y-91440000D01*
X214630000Y-104140000D02*
X214630000Y-102362000D01*
G04 #@! TO.C,K46*
X217319468Y-165900261D02*
X218859261Y-166789261D01*
X207860739Y-160439261D02*
X209400532Y-161328261D01*
X208749739Y-158899468D02*
X207860739Y-160439261D01*
X214210739Y-149440739D02*
X213321739Y-150980532D01*
X215750532Y-150329739D02*
X214210739Y-149440739D01*
X225209261Y-155790739D02*
X223669468Y-154901739D01*
X224320261Y-157330532D02*
X225209261Y-155790739D01*
X218859261Y-166789261D02*
X219748261Y-165249468D01*
G04 #@! TO.C,K45*
X200809468Y-156375261D02*
X202349261Y-157264261D01*
X191350739Y-150914261D02*
X192890532Y-151803261D01*
X192239739Y-149374468D02*
X191350739Y-150914261D01*
X197700739Y-139915739D02*
X196811739Y-141455532D01*
X199240532Y-140804739D02*
X197700739Y-139915739D01*
X208699261Y-146265739D02*
X207159468Y-145376739D01*
X207810261Y-147805532D02*
X208699261Y-146265739D01*
X202349261Y-157264261D02*
X203238261Y-155724468D01*
D13*
G04 #@! TO.C,G\002A\002A\002A*
G36*
X180955128Y-50298645D02*
X180912686Y-50317537D01*
X180894242Y-50353180D01*
X180890538Y-50378811D01*
X180891924Y-50437801D01*
X180913677Y-50465123D01*
X180959932Y-50464650D01*
X180977343Y-50460207D01*
X181056689Y-50456477D01*
X181132621Y-50491205D01*
X181204059Y-50563844D01*
X181216997Y-50581830D01*
X181277846Y-50670271D01*
X181277846Y-51298231D01*
X181434825Y-51298231D01*
X181429604Y-50804885D01*
X181424384Y-50311538D01*
X181356000Y-50311538D01*
X181310821Y-50314771D01*
X181289298Y-50332139D01*
X181279209Y-50375151D01*
X181277846Y-50385128D01*
X181268077Y-50458717D01*
X181214050Y-50390686D01*
X181143435Y-50329342D01*
X181057295Y-50296231D01*
X180967861Y-50295701D01*
X180955128Y-50298645D01*
X180955128Y-50298645D01*
G37*
X180955128Y-50298645D02*
X180912686Y-50317537D01*
X180894242Y-50353180D01*
X180890538Y-50378811D01*
X180891924Y-50437801D01*
X180913677Y-50465123D01*
X180959932Y-50464650D01*
X180977343Y-50460207D01*
X181056689Y-50456477D01*
X181132621Y-50491205D01*
X181204059Y-50563844D01*
X181216997Y-50581830D01*
X181277846Y-50670271D01*
X181277846Y-51298231D01*
X181434825Y-51298231D01*
X181429604Y-50804885D01*
X181424384Y-50311538D01*
X181356000Y-50311538D01*
X181310821Y-50314771D01*
X181289298Y-50332139D01*
X181279209Y-50375151D01*
X181277846Y-50385128D01*
X181268077Y-50458717D01*
X181214050Y-50390686D01*
X181143435Y-50329342D01*
X181057295Y-50296231D01*
X180967861Y-50295701D01*
X180955128Y-50298645D01*
G36*
X183993030Y-50311701D02*
X183959962Y-50331910D01*
X183957295Y-50335961D01*
X183946250Y-50365007D01*
X183926586Y-50425049D01*
X183900353Y-50509491D01*
X183869602Y-50611739D01*
X183837350Y-50721846D01*
X183804616Y-50833391D01*
X183774799Y-50931928D01*
X183749832Y-51011313D01*
X183731646Y-51065402D01*
X183722174Y-51088052D01*
X183722163Y-51088064D01*
X183713255Y-51074793D01*
X183696500Y-51029184D01*
X183673643Y-50956782D01*
X183646430Y-50863130D01*
X183616607Y-50753773D01*
X183615051Y-50747885D01*
X183577720Y-50606317D01*
X183548707Y-50498064D01*
X183526012Y-50418753D01*
X183507637Y-50364008D01*
X183491585Y-50329455D01*
X183475857Y-50310719D01*
X183458455Y-50303424D01*
X183437382Y-50303197D01*
X183412992Y-50305472D01*
X183340224Y-50311538D01*
X183248637Y-50624154D01*
X183216073Y-50735890D01*
X183185733Y-50841070D01*
X183160070Y-50931103D01*
X183141542Y-50997397D01*
X183134876Y-51022184D01*
X183119940Y-51070886D01*
X183107368Y-51096919D01*
X183103366Y-51098263D01*
X183095350Y-51077511D01*
X183078315Y-51024901D01*
X183054014Y-50946139D01*
X183024200Y-50846931D01*
X182990626Y-50732983D01*
X182981087Y-50700233D01*
X182868144Y-50311538D01*
X182803203Y-50305231D01*
X182753656Y-50305744D01*
X182721721Y-50315566D01*
X182720682Y-50316502D01*
X182721045Y-50340034D01*
X182732728Y-50396787D01*
X182754713Y-50482906D01*
X182785986Y-50594532D01*
X182825529Y-50727810D01*
X182850167Y-50808075D01*
X182890136Y-50937241D01*
X182925975Y-51053714D01*
X182956137Y-51152415D01*
X182979075Y-51228262D01*
X182993241Y-51276174D01*
X182997230Y-51291125D01*
X183014895Y-51295083D01*
X183060589Y-51295952D01*
X183107910Y-51294321D01*
X183218590Y-51288461D01*
X183316632Y-50941965D01*
X183348104Y-50833312D01*
X183376586Y-50739802D01*
X183400245Y-50667074D01*
X183417248Y-50620763D01*
X183425760Y-50606504D01*
X183434174Y-50628089D01*
X183450695Y-50681195D01*
X183473493Y-50759552D01*
X183500740Y-50856891D01*
X183526870Y-50953001D01*
X183616895Y-51288461D01*
X183727140Y-51294321D01*
X183786808Y-51296162D01*
X183826841Y-51294849D01*
X183837384Y-51291876D01*
X183842893Y-51271708D01*
X183858398Y-51219279D01*
X183882364Y-51139663D01*
X183913257Y-51037935D01*
X183949542Y-50919170D01*
X183983272Y-50809290D01*
X184022571Y-50679635D01*
X184057058Y-50562191D01*
X184085302Y-50462138D01*
X184105872Y-50384655D01*
X184117337Y-50334923D01*
X184118888Y-50318389D01*
X184089752Y-50303064D01*
X184042046Y-50301460D01*
X183993030Y-50311701D01*
X183993030Y-50311701D01*
G37*
X183993030Y-50311701D02*
X183959962Y-50331910D01*
X183957295Y-50335961D01*
X183946250Y-50365007D01*
X183926586Y-50425049D01*
X183900353Y-50509491D01*
X183869602Y-50611739D01*
X183837350Y-50721846D01*
X183804616Y-50833391D01*
X183774799Y-50931928D01*
X183749832Y-51011313D01*
X183731646Y-51065402D01*
X183722174Y-51088052D01*
X183722163Y-51088064D01*
X183713255Y-51074793D01*
X183696500Y-51029184D01*
X183673643Y-50956782D01*
X183646430Y-50863130D01*
X183616607Y-50753773D01*
X183615051Y-50747885D01*
X183577720Y-50606317D01*
X183548707Y-50498064D01*
X183526012Y-50418753D01*
X183507637Y-50364008D01*
X183491585Y-50329455D01*
X183475857Y-50310719D01*
X183458455Y-50303424D01*
X183437382Y-50303197D01*
X183412992Y-50305472D01*
X183340224Y-50311538D01*
X183248637Y-50624154D01*
X183216073Y-50735890D01*
X183185733Y-50841070D01*
X183160070Y-50931103D01*
X183141542Y-50997397D01*
X183134876Y-51022184D01*
X183119940Y-51070886D01*
X183107368Y-51096919D01*
X183103366Y-51098263D01*
X183095350Y-51077511D01*
X183078315Y-51024901D01*
X183054014Y-50946139D01*
X183024200Y-50846931D01*
X182990626Y-50732983D01*
X182981087Y-50700233D01*
X182868144Y-50311538D01*
X182803203Y-50305231D01*
X182753656Y-50305744D01*
X182721721Y-50315566D01*
X182720682Y-50316502D01*
X182721045Y-50340034D01*
X182732728Y-50396787D01*
X182754713Y-50482906D01*
X182785986Y-50594532D01*
X182825529Y-50727810D01*
X182850167Y-50808075D01*
X182890136Y-50937241D01*
X182925975Y-51053714D01*
X182956137Y-51152415D01*
X182979075Y-51228262D01*
X182993241Y-51276174D01*
X182997230Y-51291125D01*
X183014895Y-51295083D01*
X183060589Y-51295952D01*
X183107910Y-51294321D01*
X183218590Y-51288461D01*
X183316632Y-50941965D01*
X183348104Y-50833312D01*
X183376586Y-50739802D01*
X183400245Y-50667074D01*
X183417248Y-50620763D01*
X183425760Y-50606504D01*
X183434174Y-50628089D01*
X183450695Y-50681195D01*
X183473493Y-50759552D01*
X183500740Y-50856891D01*
X183526870Y-50953001D01*
X183616895Y-51288461D01*
X183727140Y-51294321D01*
X183786808Y-51296162D01*
X183826841Y-51294849D01*
X183837384Y-51291876D01*
X183842893Y-51271708D01*
X183858398Y-51219279D01*
X183882364Y-51139663D01*
X183913257Y-51037935D01*
X183949542Y-50919170D01*
X183983272Y-50809290D01*
X184022571Y-50679635D01*
X184057058Y-50562191D01*
X184085302Y-50462138D01*
X184105872Y-50384655D01*
X184117337Y-50334923D01*
X184118888Y-50318389D01*
X184089752Y-50303064D01*
X184042046Y-50301460D01*
X183993030Y-50311701D01*
G36*
X185939927Y-49951883D02*
X185874117Y-49953708D01*
X185761042Y-49960257D01*
X185676682Y-49971118D01*
X185610765Y-49987973D01*
X185572843Y-50002983D01*
X185480714Y-50063626D01*
X185415641Y-50145475D01*
X185377186Y-50241970D01*
X185364908Y-50346550D01*
X185378371Y-50452656D01*
X185417134Y-50553726D01*
X185480758Y-50643200D01*
X185568805Y-50714517D01*
X185622253Y-50741485D01*
X185678108Y-50757860D01*
X185757563Y-50772679D01*
X185845160Y-50783169D01*
X185861599Y-50784455D01*
X186025692Y-50796035D01*
X186025692Y-51298231D01*
X186182000Y-51298231D01*
X186182000Y-50637979D01*
X186026821Y-50637979D01*
X185858678Y-50631066D01*
X185776857Y-50627045D01*
X185723260Y-50620711D01*
X185687056Y-50608382D01*
X185657416Y-50586378D01*
X185623652Y-50551171D01*
X185585747Y-50505883D01*
X185565677Y-50465590D01*
X185557889Y-50414320D01*
X185556769Y-50358718D01*
X185558820Y-50289238D01*
X185568489Y-50243713D01*
X185591051Y-50207090D01*
X185621224Y-50174791D01*
X185663868Y-50137574D01*
X185708207Y-50115340D01*
X185768958Y-50102116D01*
X185813794Y-50096617D01*
X185891503Y-50088177D01*
X185946295Y-50085846D01*
X185982301Y-50095018D01*
X186003654Y-50121087D01*
X186014486Y-50169445D01*
X186018930Y-50245487D01*
X186021118Y-50354606D01*
X186021372Y-50367540D01*
X186026821Y-50637979D01*
X186182000Y-50637979D01*
X186182000Y-49970360D01*
X186133002Y-49958062D01*
X186093477Y-49953670D01*
X186025572Y-49951551D01*
X185939927Y-49951883D01*
X185939927Y-49951883D01*
G37*
X185939927Y-49951883D02*
X185874117Y-49953708D01*
X185761042Y-49960257D01*
X185676682Y-49971118D01*
X185610765Y-49987973D01*
X185572843Y-50002983D01*
X185480714Y-50063626D01*
X185415641Y-50145475D01*
X185377186Y-50241970D01*
X185364908Y-50346550D01*
X185378371Y-50452656D01*
X185417134Y-50553726D01*
X185480758Y-50643200D01*
X185568805Y-50714517D01*
X185622253Y-50741485D01*
X185678108Y-50757860D01*
X185757563Y-50772679D01*
X185845160Y-50783169D01*
X185861599Y-50784455D01*
X186025692Y-50796035D01*
X186025692Y-51298231D01*
X186182000Y-51298231D01*
X186182000Y-50637979D01*
X186026821Y-50637979D01*
X185858678Y-50631066D01*
X185776857Y-50627045D01*
X185723260Y-50620711D01*
X185687056Y-50608382D01*
X185657416Y-50586378D01*
X185623652Y-50551171D01*
X185585747Y-50505883D01*
X185565677Y-50465590D01*
X185557889Y-50414320D01*
X185556769Y-50358718D01*
X185558820Y-50289238D01*
X185568489Y-50243713D01*
X185591051Y-50207090D01*
X185621224Y-50174791D01*
X185663868Y-50137574D01*
X185708207Y-50115340D01*
X185768958Y-50102116D01*
X185813794Y-50096617D01*
X185891503Y-50088177D01*
X185946295Y-50085846D01*
X185982301Y-50095018D01*
X186003654Y-50121087D01*
X186014486Y-50169445D01*
X186018930Y-50245487D01*
X186021118Y-50354606D01*
X186021372Y-50367540D01*
X186026821Y-50637979D01*
X186182000Y-50637979D01*
X186182000Y-49970360D01*
X186133002Y-49958062D01*
X186093477Y-49953670D01*
X186025572Y-49951551D01*
X185939927Y-49951883D01*
G36*
X177951423Y-49856146D02*
X177868384Y-49862154D01*
X177862975Y-50150845D01*
X177857565Y-50439536D01*
X177784821Y-50382051D01*
X177677946Y-50318928D01*
X177566251Y-50294346D01*
X177473064Y-50302789D01*
X177384987Y-50330238D01*
X177320783Y-50372223D01*
X177269155Y-50437972D01*
X177238766Y-50494191D01*
X177212372Y-50552687D01*
X177196171Y-50605385D01*
X177187776Y-50665331D01*
X177184799Y-50745568D01*
X177184590Y-50790231D01*
X177187601Y-50887285D01*
X177195701Y-50974659D01*
X177207568Y-51039359D01*
X177211081Y-51050791D01*
X177254251Y-51135340D01*
X177317417Y-51213895D01*
X177389133Y-51273460D01*
X177422952Y-51291372D01*
X177502091Y-51311100D01*
X177594422Y-51315248D01*
X177679058Y-51303468D01*
X177701724Y-51296031D01*
X177749641Y-51271125D01*
X177804569Y-51235000D01*
X177812766Y-51228885D01*
X177861012Y-51194092D01*
X177886388Y-51185074D01*
X177896180Y-51202750D01*
X177897692Y-51239615D01*
X177901504Y-51278997D01*
X177920840Y-51295149D01*
X177966077Y-51298231D01*
X178034461Y-51298231D01*
X178034461Y-50602512D01*
X177858615Y-50602512D01*
X177858615Y-51021219D01*
X177795115Y-51074738D01*
X177698493Y-51140501D01*
X177608259Y-51170618D01*
X177526790Y-51164718D01*
X177461484Y-51127037D01*
X177407467Y-51056563D01*
X177371413Y-50963326D01*
X177353199Y-50856626D01*
X177352705Y-50745764D01*
X177369809Y-50640038D01*
X177404388Y-50548750D01*
X177456321Y-50481198D01*
X177470079Y-50470435D01*
X177535017Y-50444711D01*
X177613359Y-50440469D01*
X177685287Y-50458615D01*
X177688938Y-50460421D01*
X177730062Y-50487692D01*
X177780429Y-50528943D01*
X177795115Y-50542408D01*
X177858615Y-50602512D01*
X178034461Y-50602512D01*
X178034461Y-49850138D01*
X177951423Y-49856146D01*
X177951423Y-49856146D01*
G37*
X177951423Y-49856146D02*
X177868384Y-49862154D01*
X177862975Y-50150845D01*
X177857565Y-50439536D01*
X177784821Y-50382051D01*
X177677946Y-50318928D01*
X177566251Y-50294346D01*
X177473064Y-50302789D01*
X177384987Y-50330238D01*
X177320783Y-50372223D01*
X177269155Y-50437972D01*
X177238766Y-50494191D01*
X177212372Y-50552687D01*
X177196171Y-50605385D01*
X177187776Y-50665331D01*
X177184799Y-50745568D01*
X177184590Y-50790231D01*
X177187601Y-50887285D01*
X177195701Y-50974659D01*
X177207568Y-51039359D01*
X177211081Y-51050791D01*
X177254251Y-51135340D01*
X177317417Y-51213895D01*
X177389133Y-51273460D01*
X177422952Y-51291372D01*
X177502091Y-51311100D01*
X177594422Y-51315248D01*
X177679058Y-51303468D01*
X177701724Y-51296031D01*
X177749641Y-51271125D01*
X177804569Y-51235000D01*
X177812766Y-51228885D01*
X177861012Y-51194092D01*
X177886388Y-51185074D01*
X177896180Y-51202750D01*
X177897692Y-51239615D01*
X177901504Y-51278997D01*
X177920840Y-51295149D01*
X177966077Y-51298231D01*
X178034461Y-51298231D01*
X178034461Y-50602512D01*
X177858615Y-50602512D01*
X177858615Y-51021219D01*
X177795115Y-51074738D01*
X177698493Y-51140501D01*
X177608259Y-51170618D01*
X177526790Y-51164718D01*
X177461484Y-51127037D01*
X177407467Y-51056563D01*
X177371413Y-50963326D01*
X177353199Y-50856626D01*
X177352705Y-50745764D01*
X177369809Y-50640038D01*
X177404388Y-50548750D01*
X177456321Y-50481198D01*
X177470079Y-50470435D01*
X177535017Y-50444711D01*
X177613359Y-50440469D01*
X177685287Y-50458615D01*
X177688938Y-50460421D01*
X177730062Y-50487692D01*
X177780429Y-50528943D01*
X177795115Y-50542408D01*
X177858615Y-50602512D01*
X178034461Y-50602512D01*
X178034461Y-49850138D01*
X177951423Y-49856146D01*
G36*
X178855077Y-51298231D02*
X178922282Y-51298231D01*
X178967015Y-51294962D01*
X178987230Y-51277344D01*
X178994953Y-51233657D01*
X178995551Y-51226814D01*
X179001615Y-51155397D01*
X179060230Y-51204527D01*
X179172171Y-51279063D01*
X179283828Y-51314594D01*
X179395627Y-51311184D01*
X179501657Y-51272303D01*
X179561640Y-51232571D01*
X179608063Y-51179237D01*
X179644680Y-51115825D01*
X179673518Y-51054543D01*
X179690740Y-51000106D01*
X179699269Y-50938173D01*
X179702032Y-50854402D01*
X179702148Y-50834021D01*
X179700139Y-50803991D01*
X179532221Y-50803991D01*
X179527077Y-50892542D01*
X179501708Y-51005105D01*
X179456122Y-51092020D01*
X179393901Y-51150153D01*
X179318627Y-51176368D01*
X179233882Y-51167532D01*
X179218832Y-51162333D01*
X179176090Y-51138494D01*
X179121326Y-51098305D01*
X179090560Y-51072137D01*
X179011384Y-51000607D01*
X179011384Y-50818863D01*
X179012651Y-50735277D01*
X179016043Y-50664291D01*
X179020948Y-50616604D01*
X179023625Y-50605222D01*
X179045295Y-50576179D01*
X179088051Y-50535343D01*
X179124127Y-50505931D01*
X179213952Y-50455084D01*
X179298392Y-50440296D01*
X179374374Y-50458616D01*
X179438822Y-50507096D01*
X179488662Y-50582785D01*
X179520820Y-50682733D01*
X179532221Y-50803991D01*
X179700139Y-50803991D01*
X179691214Y-50670610D01*
X179656627Y-50537002D01*
X179597466Y-50431215D01*
X179512808Y-50351266D01*
X179463911Y-50322032D01*
X179386412Y-50299435D01*
X179294412Y-50297798D01*
X179201293Y-50314858D01*
X179120438Y-50348356D01*
X179071069Y-50388404D01*
X179042595Y-50413669D01*
X179028530Y-50419000D01*
X179022468Y-50400608D01*
X179017348Y-50350011D01*
X179013584Y-50274078D01*
X179011592Y-50179677D01*
X179011384Y-50135692D01*
X179011384Y-49852385D01*
X178855077Y-49852385D01*
X178855077Y-51298231D01*
X178855077Y-51298231D01*
G37*
X178855077Y-51298231D02*
X178922282Y-51298231D01*
X178967015Y-51294962D01*
X178987230Y-51277344D01*
X178994953Y-51233657D01*
X178995551Y-51226814D01*
X179001615Y-51155397D01*
X179060230Y-51204527D01*
X179172171Y-51279063D01*
X179283828Y-51314594D01*
X179395627Y-51311184D01*
X179501657Y-51272303D01*
X179561640Y-51232571D01*
X179608063Y-51179237D01*
X179644680Y-51115825D01*
X179673518Y-51054543D01*
X179690740Y-51000106D01*
X179699269Y-50938173D01*
X179702032Y-50854402D01*
X179702148Y-50834021D01*
X179700139Y-50803991D01*
X179532221Y-50803991D01*
X179527077Y-50892542D01*
X179501708Y-51005105D01*
X179456122Y-51092020D01*
X179393901Y-51150153D01*
X179318627Y-51176368D01*
X179233882Y-51167532D01*
X179218832Y-51162333D01*
X179176090Y-51138494D01*
X179121326Y-51098305D01*
X179090560Y-51072137D01*
X179011384Y-51000607D01*
X179011384Y-50818863D01*
X179012651Y-50735277D01*
X179016043Y-50664291D01*
X179020948Y-50616604D01*
X179023625Y-50605222D01*
X179045295Y-50576179D01*
X179088051Y-50535343D01*
X179124127Y-50505931D01*
X179213952Y-50455084D01*
X179298392Y-50440296D01*
X179374374Y-50458616D01*
X179438822Y-50507096D01*
X179488662Y-50582785D01*
X179520820Y-50682733D01*
X179532221Y-50803991D01*
X179700139Y-50803991D01*
X179691214Y-50670610D01*
X179656627Y-50537002D01*
X179597466Y-50431215D01*
X179512808Y-50351266D01*
X179463911Y-50322032D01*
X179386412Y-50299435D01*
X179294412Y-50297798D01*
X179201293Y-50314858D01*
X179120438Y-50348356D01*
X179071069Y-50388404D01*
X179042595Y-50413669D01*
X179028530Y-50419000D01*
X179022468Y-50400608D01*
X179017348Y-50350011D01*
X179013584Y-50274078D01*
X179011592Y-50179677D01*
X179011384Y-50135692D01*
X179011384Y-49852385D01*
X178855077Y-49852385D01*
X178855077Y-51298231D01*
G36*
X180234421Y-50303261D02*
X180122555Y-50339550D01*
X180036342Y-50402806D01*
X179973821Y-50495212D01*
X179933033Y-50618950D01*
X179927828Y-50644828D01*
X179916380Y-50708234D01*
X179911998Y-50755065D01*
X179919382Y-50787932D01*
X179943233Y-50809447D01*
X179988251Y-50822222D01*
X180059137Y-50828868D01*
X180160590Y-50831996D01*
X180267850Y-50833736D01*
X180603664Y-50839077D01*
X180597285Y-50917231D01*
X180572418Y-51019534D01*
X180518661Y-51098352D01*
X180439477Y-51152114D01*
X180338329Y-51179247D01*
X180218681Y-51178181D01*
X180087533Y-51148495D01*
X180011131Y-51130157D01*
X179965952Y-51134860D01*
X179951471Y-51162862D01*
X179964508Y-51208758D01*
X180002013Y-51248537D01*
X180069142Y-51280395D01*
X180157004Y-51303025D01*
X180256710Y-51315118D01*
X180359370Y-51315369D01*
X180456094Y-51302468D01*
X180506077Y-51288408D01*
X180586552Y-51244029D01*
X180662452Y-51175057D01*
X180721806Y-51094145D01*
X180748597Y-51032050D01*
X180758841Y-50975161D01*
X180766358Y-50895348D01*
X180769688Y-50808744D01*
X180769737Y-50798619D01*
X180767614Y-50712077D01*
X180609423Y-50712077D01*
X180347711Y-50712077D01*
X180235257Y-50711102D01*
X180157476Y-50707905D01*
X180110010Y-50702080D01*
X180088497Y-50693219D01*
X180086109Y-50687654D01*
X180097888Y-50618280D01*
X180127132Y-50544331D01*
X180165511Y-50486007D01*
X180171973Y-50479447D01*
X180236771Y-50441471D01*
X180319571Y-50423473D01*
X180403365Y-50428066D01*
X180437830Y-50438596D01*
X180506777Y-50486171D01*
X180562314Y-50560887D01*
X180594337Y-50645187D01*
X180609423Y-50712077D01*
X180767614Y-50712077D01*
X180767560Y-50709914D01*
X180758757Y-50644518D01*
X180740144Y-50586815D01*
X180716115Y-50535829D01*
X180640257Y-50424778D01*
X180544269Y-50346858D01*
X180430351Y-50303131D01*
X180300705Y-50294660D01*
X180234421Y-50303261D01*
X180234421Y-50303261D01*
G37*
X180234421Y-50303261D02*
X180122555Y-50339550D01*
X180036342Y-50402806D01*
X179973821Y-50495212D01*
X179933033Y-50618950D01*
X179927828Y-50644828D01*
X179916380Y-50708234D01*
X179911998Y-50755065D01*
X179919382Y-50787932D01*
X179943233Y-50809447D01*
X179988251Y-50822222D01*
X180059137Y-50828868D01*
X180160590Y-50831996D01*
X180267850Y-50833736D01*
X180603664Y-50839077D01*
X180597285Y-50917231D01*
X180572418Y-51019534D01*
X180518661Y-51098352D01*
X180439477Y-51152114D01*
X180338329Y-51179247D01*
X180218681Y-51178181D01*
X180087533Y-51148495D01*
X180011131Y-51130157D01*
X179965952Y-51134860D01*
X179951471Y-51162862D01*
X179964508Y-51208758D01*
X180002013Y-51248537D01*
X180069142Y-51280395D01*
X180157004Y-51303025D01*
X180256710Y-51315118D01*
X180359370Y-51315369D01*
X180456094Y-51302468D01*
X180506077Y-51288408D01*
X180586552Y-51244029D01*
X180662452Y-51175057D01*
X180721806Y-51094145D01*
X180748597Y-51032050D01*
X180758841Y-50975161D01*
X180766358Y-50895348D01*
X180769688Y-50808744D01*
X180769737Y-50798619D01*
X180767614Y-50712077D01*
X180609423Y-50712077D01*
X180347711Y-50712077D01*
X180235257Y-50711102D01*
X180157476Y-50707905D01*
X180110010Y-50702080D01*
X180088497Y-50693219D01*
X180086109Y-50687654D01*
X180097888Y-50618280D01*
X180127132Y-50544331D01*
X180165511Y-50486007D01*
X180171973Y-50479447D01*
X180236771Y-50441471D01*
X180319571Y-50423473D01*
X180403365Y-50428066D01*
X180437830Y-50438596D01*
X180506777Y-50486171D01*
X180562314Y-50560887D01*
X180594337Y-50645187D01*
X180609423Y-50712077D01*
X180767614Y-50712077D01*
X180767560Y-50709914D01*
X180758757Y-50644518D01*
X180740144Y-50586815D01*
X180716115Y-50535829D01*
X180640257Y-50424778D01*
X180544269Y-50346858D01*
X180430351Y-50303131D01*
X180300705Y-50294660D01*
X180234421Y-50303261D01*
G36*
X181986013Y-50311295D02*
X181879116Y-50357951D01*
X181797702Y-50433168D01*
X181743922Y-50534808D01*
X181719928Y-50660732D01*
X181718870Y-50690416D01*
X181717461Y-50819538D01*
X182054500Y-50824884D01*
X182176421Y-50826959D01*
X182264699Y-50829250D01*
X182324761Y-50832542D01*
X182362037Y-50837625D01*
X182381954Y-50845284D01*
X182389943Y-50856307D01*
X182391430Y-50871480D01*
X182391429Y-50873730D01*
X182375354Y-50973757D01*
X182332252Y-51065842D01*
X182293631Y-51112822D01*
X182253120Y-51145740D01*
X182208835Y-51164640D01*
X182146346Y-51174567D01*
X182108978Y-51177418D01*
X181968855Y-51172538D01*
X181890914Y-51153899D01*
X181818781Y-51131236D01*
X181775579Y-51124836D01*
X181754095Y-51136105D01*
X181747118Y-51166448D01*
X181746769Y-51181997D01*
X181752775Y-51223971D01*
X181777749Y-51251493D01*
X181820038Y-51272454D01*
X181874637Y-51288060D01*
X181953217Y-51301588D01*
X182040684Y-51310567D01*
X182059384Y-51311675D01*
X182146654Y-51314540D01*
X182208836Y-51311248D01*
X182259704Y-51299757D01*
X182313031Y-51278028D01*
X182325098Y-51272325D01*
X182427294Y-51202934D01*
X182501865Y-51106156D01*
X182548541Y-50982507D01*
X182567053Y-50832508D01*
X182567384Y-50807347D01*
X182554173Y-50675230D01*
X182391012Y-50675230D01*
X182379625Y-50694745D01*
X182347096Y-50705764D01*
X182288328Y-50710715D01*
X182198222Y-50712027D01*
X182137538Y-50712077D01*
X181883538Y-50712077D01*
X181883611Y-50648577D01*
X181901253Y-50561940D01*
X181949364Y-50491877D01*
X182021039Y-50443541D01*
X182109376Y-50422087D01*
X182181077Y-50426484D01*
X182253391Y-50457397D01*
X182319280Y-50515931D01*
X182366732Y-50591032D01*
X182370757Y-50601003D01*
X182386357Y-50644792D01*
X182391012Y-50675230D01*
X182554173Y-50675230D01*
X182552378Y-50657282D01*
X182508857Y-50529737D01*
X182439066Y-50427261D01*
X182345251Y-50352402D01*
X182229655Y-50307708D01*
X182116241Y-50295339D01*
X181986013Y-50311295D01*
X181986013Y-50311295D01*
G37*
X181986013Y-50311295D02*
X181879116Y-50357951D01*
X181797702Y-50433168D01*
X181743922Y-50534808D01*
X181719928Y-50660732D01*
X181718870Y-50690416D01*
X181717461Y-50819538D01*
X182054500Y-50824884D01*
X182176421Y-50826959D01*
X182264699Y-50829250D01*
X182324761Y-50832542D01*
X182362037Y-50837625D01*
X182381954Y-50845284D01*
X182389943Y-50856307D01*
X182391430Y-50871480D01*
X182391429Y-50873730D01*
X182375354Y-50973757D01*
X182332252Y-51065842D01*
X182293631Y-51112822D01*
X182253120Y-51145740D01*
X182208835Y-51164640D01*
X182146346Y-51174567D01*
X182108978Y-51177418D01*
X181968855Y-51172538D01*
X181890914Y-51153899D01*
X181818781Y-51131236D01*
X181775579Y-51124836D01*
X181754095Y-51136105D01*
X181747118Y-51166448D01*
X181746769Y-51181997D01*
X181752775Y-51223971D01*
X181777749Y-51251493D01*
X181820038Y-51272454D01*
X181874637Y-51288060D01*
X181953217Y-51301588D01*
X182040684Y-51310567D01*
X182059384Y-51311675D01*
X182146654Y-51314540D01*
X182208836Y-51311248D01*
X182259704Y-51299757D01*
X182313031Y-51278028D01*
X182325098Y-51272325D01*
X182427294Y-51202934D01*
X182501865Y-51106156D01*
X182548541Y-50982507D01*
X182567053Y-50832508D01*
X182567384Y-50807347D01*
X182554173Y-50675230D01*
X182391012Y-50675230D01*
X182379625Y-50694745D01*
X182347096Y-50705764D01*
X182288328Y-50710715D01*
X182198222Y-50712027D01*
X182137538Y-50712077D01*
X181883538Y-50712077D01*
X181883611Y-50648577D01*
X181901253Y-50561940D01*
X181949364Y-50491877D01*
X182021039Y-50443541D01*
X182109376Y-50422087D01*
X182181077Y-50426484D01*
X182253391Y-50457397D01*
X182319280Y-50515931D01*
X182366732Y-50591032D01*
X182370757Y-50601003D01*
X182386357Y-50644792D01*
X182391012Y-50675230D01*
X182554173Y-50675230D01*
X182552378Y-50657282D01*
X182508857Y-50529737D01*
X182439066Y-50427261D01*
X182345251Y-50352402D01*
X182229655Y-50307708D01*
X182116241Y-50295339D01*
X181986013Y-50311295D01*
G36*
X184598037Y-50310745D02*
X184482285Y-50353322D01*
X184392658Y-50424948D01*
X184329143Y-50525637D01*
X184291727Y-50655403D01*
X184280398Y-50814261D01*
X184280400Y-50814369D01*
X184296943Y-50963384D01*
X184342394Y-51089482D01*
X184415252Y-51190400D01*
X184514018Y-51263870D01*
X184600956Y-51298681D01*
X184698481Y-51314443D01*
X184808848Y-51313900D01*
X184910943Y-51297644D01*
X184938275Y-51289269D01*
X185042234Y-51232812D01*
X185120778Y-51147021D01*
X185173430Y-51032650D01*
X185199713Y-50890451D01*
X185200835Y-50875310D01*
X185199727Y-50814026D01*
X185029200Y-50814026D01*
X185020416Y-50935201D01*
X184992244Y-51027727D01*
X184941870Y-51098344D01*
X184894456Y-51136649D01*
X184805092Y-51174448D01*
X184708742Y-51178394D01*
X184617287Y-51148475D01*
X184598446Y-51136972D01*
X184530354Y-51079406D01*
X184486264Y-51010643D01*
X184462592Y-50922245D01*
X184455754Y-50805775D01*
X184455776Y-50801049D01*
X184465967Y-50667823D01*
X184495761Y-50567155D01*
X184546843Y-50496877D01*
X184620894Y-50454823D01*
X184719599Y-50438825D01*
X184737289Y-50438538D01*
X184843449Y-50452893D01*
X184925142Y-50496452D01*
X184982944Y-50569959D01*
X185017435Y-50674159D01*
X185029192Y-50809795D01*
X185029200Y-50814026D01*
X185199727Y-50814026D01*
X185197886Y-50712271D01*
X185166810Y-50574359D01*
X185108590Y-50462809D01*
X185024210Y-50378853D01*
X184914654Y-50323726D01*
X184780905Y-50298662D01*
X184739926Y-50297203D01*
X184598037Y-50310745D01*
X184598037Y-50310745D01*
G37*
X184598037Y-50310745D02*
X184482285Y-50353322D01*
X184392658Y-50424948D01*
X184329143Y-50525637D01*
X184291727Y-50655403D01*
X184280398Y-50814261D01*
X184280400Y-50814369D01*
X184296943Y-50963384D01*
X184342394Y-51089482D01*
X184415252Y-51190400D01*
X184514018Y-51263870D01*
X184600956Y-51298681D01*
X184698481Y-51314443D01*
X184808848Y-51313900D01*
X184910943Y-51297644D01*
X184938275Y-51289269D01*
X185042234Y-51232812D01*
X185120778Y-51147021D01*
X185173430Y-51032650D01*
X185199713Y-50890451D01*
X185200835Y-50875310D01*
X185199727Y-50814026D01*
X185029200Y-50814026D01*
X185020416Y-50935201D01*
X184992244Y-51027727D01*
X184941870Y-51098344D01*
X184894456Y-51136649D01*
X184805092Y-51174448D01*
X184708742Y-51178394D01*
X184617287Y-51148475D01*
X184598446Y-51136972D01*
X184530354Y-51079406D01*
X184486264Y-51010643D01*
X184462592Y-50922245D01*
X184455754Y-50805775D01*
X184455776Y-50801049D01*
X184465967Y-50667823D01*
X184495761Y-50567155D01*
X184546843Y-50496877D01*
X184620894Y-50454823D01*
X184719599Y-50438825D01*
X184737289Y-50438538D01*
X184843449Y-50452893D01*
X184925142Y-50496452D01*
X184982944Y-50569959D01*
X185017435Y-50674159D01*
X185029192Y-50809795D01*
X185029200Y-50814026D01*
X185199727Y-50814026D01*
X185197886Y-50712271D01*
X185166810Y-50574359D01*
X185108590Y-50462809D01*
X185024210Y-50378853D01*
X184914654Y-50323726D01*
X184780905Y-50298662D01*
X184739926Y-50297203D01*
X184598037Y-50310745D01*
G36*
X176185200Y-50312927D02*
X176165575Y-50331752D01*
X176169813Y-50354837D01*
X176185616Y-50409488D01*
X176211188Y-50490549D01*
X176244734Y-50592862D01*
X176284458Y-50711273D01*
X176328567Y-50840624D01*
X176375264Y-50975758D01*
X176422755Y-51111520D01*
X176469245Y-51242754D01*
X176512937Y-51364302D01*
X176552038Y-51471008D01*
X176584752Y-51557717D01*
X176609283Y-51619270D01*
X176623838Y-51650514D01*
X176625466Y-51652749D01*
X176659994Y-51669399D01*
X176712450Y-51678588D01*
X176762005Y-51677835D01*
X176781953Y-51671405D01*
X176792557Y-51656969D01*
X176791846Y-51629365D01*
X176778317Y-51581746D01*
X176750467Y-51507265D01*
X176740348Y-51481785D01*
X176704234Y-51384097D01*
X176686972Y-51318090D01*
X176687996Y-51281538D01*
X176689011Y-51279538D01*
X176706335Y-51242882D01*
X176732869Y-51178232D01*
X176766443Y-51091657D01*
X176804890Y-50989226D01*
X176846040Y-50877010D01*
X176887723Y-50761076D01*
X176927771Y-50647495D01*
X176964015Y-50542336D01*
X176994285Y-50451667D01*
X177016414Y-50381559D01*
X177028231Y-50338080D01*
X177029399Y-50327075D01*
X177002578Y-50307512D01*
X176945349Y-50305465D01*
X176871923Y-50311538D01*
X176735154Y-50697147D01*
X176693884Y-50811962D01*
X176656452Y-50913190D01*
X176624945Y-50995421D01*
X176601450Y-51053244D01*
X176588055Y-51081250D01*
X176586277Y-51083032D01*
X176576670Y-51065483D01*
X176556963Y-51016389D01*
X176529214Y-50941339D01*
X176495481Y-50845926D01*
X176457823Y-50735740D01*
X176451520Y-50716961D01*
X176412809Y-50602919D01*
X176377153Y-50500842D01*
X176346768Y-50416834D01*
X176323865Y-50356999D01*
X176310659Y-50327439D01*
X176309813Y-50326192D01*
X176275828Y-50306755D01*
X176228348Y-50302563D01*
X176185200Y-50312927D01*
X176185200Y-50312927D01*
G37*
X176185200Y-50312927D02*
X176165575Y-50331752D01*
X176169813Y-50354837D01*
X176185616Y-50409488D01*
X176211188Y-50490549D01*
X176244734Y-50592862D01*
X176284458Y-50711273D01*
X176328567Y-50840624D01*
X176375264Y-50975758D01*
X176422755Y-51111520D01*
X176469245Y-51242754D01*
X176512937Y-51364302D01*
X176552038Y-51471008D01*
X176584752Y-51557717D01*
X176609283Y-51619270D01*
X176623838Y-51650514D01*
X176625466Y-51652749D01*
X176659994Y-51669399D01*
X176712450Y-51678588D01*
X176762005Y-51677835D01*
X176781953Y-51671405D01*
X176792557Y-51656969D01*
X176791846Y-51629365D01*
X176778317Y-51581746D01*
X176750467Y-51507265D01*
X176740348Y-51481785D01*
X176704234Y-51384097D01*
X176686972Y-51318090D01*
X176687996Y-51281538D01*
X176689011Y-51279538D01*
X176706335Y-51242882D01*
X176732869Y-51178232D01*
X176766443Y-51091657D01*
X176804890Y-50989226D01*
X176846040Y-50877010D01*
X176887723Y-50761076D01*
X176927771Y-50647495D01*
X176964015Y-50542336D01*
X176994285Y-50451667D01*
X177016414Y-50381559D01*
X177028231Y-50338080D01*
X177029399Y-50327075D01*
X177002578Y-50307512D01*
X176945349Y-50305465D01*
X176871923Y-50311538D01*
X176735154Y-50697147D01*
X176693884Y-50811962D01*
X176656452Y-50913190D01*
X176624945Y-50995421D01*
X176601450Y-51053244D01*
X176588055Y-51081250D01*
X176586277Y-51083032D01*
X176576670Y-51065483D01*
X176556963Y-51016389D01*
X176529214Y-50941339D01*
X176495481Y-50845926D01*
X176457823Y-50735740D01*
X176451520Y-50716961D01*
X176412809Y-50602919D01*
X176377153Y-50500842D01*
X176346768Y-50416834D01*
X176323865Y-50356999D01*
X176310659Y-50327439D01*
X176309813Y-50326192D01*
X176275828Y-50306755D01*
X176228348Y-50302563D01*
X176185200Y-50312927D01*
G36*
X178407476Y-51984966D02*
X178360016Y-51998769D01*
X178350984Y-52005523D01*
X178332805Y-52045982D01*
X178328433Y-52104789D01*
X178337214Y-52163989D01*
X178358241Y-52205374D01*
X178403581Y-52228073D01*
X178466549Y-52235288D01*
X178528894Y-52227017D01*
X178570373Y-52205374D01*
X178591876Y-52164987D01*
X178601072Y-52110250D01*
X178601077Y-52109077D01*
X178592237Y-52054300D01*
X178570920Y-52013338D01*
X178570373Y-52012780D01*
X178529642Y-51992533D01*
X178469681Y-51983074D01*
X178407476Y-51984966D01*
X178407476Y-51984966D01*
G37*
X178407476Y-51984966D02*
X178360016Y-51998769D01*
X178350984Y-52005523D01*
X178332805Y-52045982D01*
X178328433Y-52104789D01*
X178337214Y-52163989D01*
X178358241Y-52205374D01*
X178403581Y-52228073D01*
X178466549Y-52235288D01*
X178528894Y-52227017D01*
X178570373Y-52205374D01*
X178591876Y-52164987D01*
X178601072Y-52110250D01*
X178601077Y-52109077D01*
X178592237Y-52054300D01*
X178570920Y-52013338D01*
X178570373Y-52012780D01*
X178529642Y-51992533D01*
X178469681Y-51983074D01*
X178407476Y-51984966D01*
G36*
X170731961Y-52482853D02*
X170706200Y-52494493D01*
X170693009Y-52518645D01*
X170688369Y-52566001D01*
X170688000Y-52599817D01*
X170690303Y-52664487D01*
X170702881Y-52696592D01*
X170734233Y-52702604D01*
X170792862Y-52688994D01*
X170801795Y-52686447D01*
X170885960Y-52681742D01*
X170971062Y-52715754D01*
X171057309Y-52788602D01*
X171124516Y-52871077D01*
X171138410Y-52892663D01*
X171149084Y-52917456D01*
X171157124Y-52950962D01*
X171163116Y-52998684D01*
X171167645Y-53066129D01*
X171171296Y-53158802D01*
X171174654Y-53282207D01*
X171176461Y-53359538D01*
X171186230Y-53789385D01*
X171274881Y-53795170D01*
X171331092Y-53795827D01*
X171369813Y-53790753D01*
X171377458Y-53787029D01*
X171380804Y-53764816D01*
X171383861Y-53708221D01*
X171386529Y-53621937D01*
X171388710Y-53510658D01*
X171390304Y-53379079D01*
X171391211Y-53231894D01*
X171391384Y-53130519D01*
X171391384Y-52487936D01*
X171298577Y-52493891D01*
X171205769Y-52499846D01*
X171196000Y-52596632D01*
X171186230Y-52693418D01*
X171134285Y-52631447D01*
X171037201Y-52539423D01*
X170932335Y-52485379D01*
X170820295Y-52469539D01*
X170731961Y-52482853D01*
X170731961Y-52482853D01*
G37*
X170731961Y-52482853D02*
X170706200Y-52494493D01*
X170693009Y-52518645D01*
X170688369Y-52566001D01*
X170688000Y-52599817D01*
X170690303Y-52664487D01*
X170702881Y-52696592D01*
X170734233Y-52702604D01*
X170792862Y-52688994D01*
X170801795Y-52686447D01*
X170885960Y-52681742D01*
X170971062Y-52715754D01*
X171057309Y-52788602D01*
X171124516Y-52871077D01*
X171138410Y-52892663D01*
X171149084Y-52917456D01*
X171157124Y-52950962D01*
X171163116Y-52998684D01*
X171167645Y-53066129D01*
X171171296Y-53158802D01*
X171174654Y-53282207D01*
X171176461Y-53359538D01*
X171186230Y-53789385D01*
X171274881Y-53795170D01*
X171331092Y-53795827D01*
X171369813Y-53790753D01*
X171377458Y-53787029D01*
X171380804Y-53764816D01*
X171383861Y-53708221D01*
X171386529Y-53621937D01*
X171388710Y-53510658D01*
X171390304Y-53379079D01*
X171391211Y-53231894D01*
X171391384Y-53130519D01*
X171391384Y-52487936D01*
X171298577Y-52493891D01*
X171205769Y-52499846D01*
X171196000Y-52596632D01*
X171186230Y-52693418D01*
X171134285Y-52631447D01*
X171037201Y-52539423D01*
X170932335Y-52485379D01*
X170820295Y-52469539D01*
X170731961Y-52482853D01*
G36*
X174588446Y-52651269D02*
X174566791Y-52723791D01*
X174537202Y-52824046D01*
X174502560Y-52942219D01*
X174465743Y-53068491D01*
X174436574Y-53169038D01*
X174403870Y-53280174D01*
X174374289Y-53377174D01*
X174349677Y-53454256D01*
X174331885Y-53505641D01*
X174322760Y-53525548D01*
X174322529Y-53525615D01*
X174314826Y-53507531D01*
X174298573Y-53456513D01*
X174275176Y-53377418D01*
X174246038Y-53275099D01*
X174212564Y-53154413D01*
X174176159Y-53020215D01*
X174174151Y-53012731D01*
X174036634Y-52499846D01*
X173824376Y-52499846D01*
X173673912Y-53017615D01*
X173634512Y-53153227D01*
X173598781Y-53276273D01*
X173568140Y-53381852D01*
X173544012Y-53465061D01*
X173527818Y-53520997D01*
X173520982Y-53544758D01*
X173520873Y-53545154D01*
X173514983Y-53530242D01*
X173499953Y-53483027D01*
X173477379Y-53408782D01*
X173448854Y-53312778D01*
X173415974Y-53200285D01*
X173402690Y-53154385D01*
X173365443Y-53025641D01*
X173329130Y-52900670D01*
X173296119Y-52787578D01*
X173268777Y-52694477D01*
X173249472Y-52629474D01*
X173247209Y-52621961D01*
X173207337Y-52490077D01*
X173111360Y-52490077D01*
X173053537Y-52493398D01*
X173013692Y-52501853D01*
X173004431Y-52507797D01*
X173007458Y-52529803D01*
X173020752Y-52583698D01*
X173042690Y-52664145D01*
X173071649Y-52765811D01*
X173106009Y-52883358D01*
X173144145Y-53011451D01*
X173184437Y-53144755D01*
X173225261Y-53277934D01*
X173264995Y-53405652D01*
X173302017Y-53522574D01*
X173334704Y-53623364D01*
X173361435Y-53702687D01*
X173380587Y-53755206D01*
X173389650Y-53774731D01*
X173419927Y-53789337D01*
X173476025Y-53797937D01*
X173509965Y-53799154D01*
X173574577Y-53794612D01*
X173626277Y-53783039D01*
X173643204Y-53774731D01*
X173658833Y-53748139D01*
X173682736Y-53688137D01*
X173713401Y-53599143D01*
X173749316Y-53485580D01*
X173788969Y-53351867D01*
X173795116Y-53330451D01*
X173830579Y-53207442D01*
X173863180Y-53096352D01*
X173891179Y-53002952D01*
X173912837Y-52933009D01*
X173926413Y-52892294D01*
X173929435Y-52885023D01*
X173938368Y-52895497D01*
X173955587Y-52939582D01*
X173979737Y-53013017D01*
X174009461Y-53111544D01*
X174043402Y-53230904D01*
X174066246Y-53314534D01*
X174101368Y-53442216D01*
X174134451Y-53557263D01*
X174163829Y-53654293D01*
X174187839Y-53727924D01*
X174204814Y-53772775D01*
X174211488Y-53784086D01*
X174247177Y-53793556D01*
X174305591Y-53797855D01*
X174370734Y-53797072D01*
X174426610Y-53791295D01*
X174454519Y-53782750D01*
X174465456Y-53761326D01*
X174485819Y-53707825D01*
X174513916Y-53627633D01*
X174548051Y-53526134D01*
X174586530Y-53408712D01*
X174627659Y-53280753D01*
X174669745Y-53147641D01*
X174711093Y-53014761D01*
X174750009Y-52887497D01*
X174784798Y-52771234D01*
X174813767Y-52671357D01*
X174835221Y-52593251D01*
X174847467Y-52542300D01*
X174849692Y-52526720D01*
X174844206Y-52505340D01*
X174821676Y-52494260D01*
X174772999Y-52490342D01*
X174743413Y-52490077D01*
X174637134Y-52490077D01*
X174588446Y-52651269D01*
X174588446Y-52651269D01*
G37*
X174588446Y-52651269D02*
X174566791Y-52723791D01*
X174537202Y-52824046D01*
X174502560Y-52942219D01*
X174465743Y-53068491D01*
X174436574Y-53169038D01*
X174403870Y-53280174D01*
X174374289Y-53377174D01*
X174349677Y-53454256D01*
X174331885Y-53505641D01*
X174322760Y-53525548D01*
X174322529Y-53525615D01*
X174314826Y-53507531D01*
X174298573Y-53456513D01*
X174275176Y-53377418D01*
X174246038Y-53275099D01*
X174212564Y-53154413D01*
X174176159Y-53020215D01*
X174174151Y-53012731D01*
X174036634Y-52499846D01*
X173824376Y-52499846D01*
X173673912Y-53017615D01*
X173634512Y-53153227D01*
X173598781Y-53276273D01*
X173568140Y-53381852D01*
X173544012Y-53465061D01*
X173527818Y-53520997D01*
X173520982Y-53544758D01*
X173520873Y-53545154D01*
X173514983Y-53530242D01*
X173499953Y-53483027D01*
X173477379Y-53408782D01*
X173448854Y-53312778D01*
X173415974Y-53200285D01*
X173402690Y-53154385D01*
X173365443Y-53025641D01*
X173329130Y-52900670D01*
X173296119Y-52787578D01*
X173268777Y-52694477D01*
X173249472Y-52629474D01*
X173247209Y-52621961D01*
X173207337Y-52490077D01*
X173111360Y-52490077D01*
X173053537Y-52493398D01*
X173013692Y-52501853D01*
X173004431Y-52507797D01*
X173007458Y-52529803D01*
X173020752Y-52583698D01*
X173042690Y-52664145D01*
X173071649Y-52765811D01*
X173106009Y-52883358D01*
X173144145Y-53011451D01*
X173184437Y-53144755D01*
X173225261Y-53277934D01*
X173264995Y-53405652D01*
X173302017Y-53522574D01*
X173334704Y-53623364D01*
X173361435Y-53702687D01*
X173380587Y-53755206D01*
X173389650Y-53774731D01*
X173419927Y-53789337D01*
X173476025Y-53797937D01*
X173509965Y-53799154D01*
X173574577Y-53794612D01*
X173626277Y-53783039D01*
X173643204Y-53774731D01*
X173658833Y-53748139D01*
X173682736Y-53688137D01*
X173713401Y-53599143D01*
X173749316Y-53485580D01*
X173788969Y-53351867D01*
X173795116Y-53330451D01*
X173830579Y-53207442D01*
X173863180Y-53096352D01*
X173891179Y-53002952D01*
X173912837Y-52933009D01*
X173926413Y-52892294D01*
X173929435Y-52885023D01*
X173938368Y-52895497D01*
X173955587Y-52939582D01*
X173979737Y-53013017D01*
X174009461Y-53111544D01*
X174043402Y-53230904D01*
X174066246Y-53314534D01*
X174101368Y-53442216D01*
X174134451Y-53557263D01*
X174163829Y-53654293D01*
X174187839Y-53727924D01*
X174204814Y-53772775D01*
X174211488Y-53784086D01*
X174247177Y-53793556D01*
X174305591Y-53797855D01*
X174370734Y-53797072D01*
X174426610Y-53791295D01*
X174454519Y-53782750D01*
X174465456Y-53761326D01*
X174485819Y-53707825D01*
X174513916Y-53627633D01*
X174548051Y-53526134D01*
X174586530Y-53408712D01*
X174627659Y-53280753D01*
X174669745Y-53147641D01*
X174711093Y-53014761D01*
X174750009Y-52887497D01*
X174784798Y-52771234D01*
X174813767Y-52671357D01*
X174835221Y-52593251D01*
X174847467Y-52542300D01*
X174849692Y-52526720D01*
X174844206Y-52505340D01*
X174821676Y-52494260D01*
X174772999Y-52490342D01*
X174743413Y-52490077D01*
X174637134Y-52490077D01*
X174588446Y-52651269D01*
G36*
X176302740Y-52474661D02*
X176179370Y-52498072D01*
X176080375Y-52552017D01*
X176005710Y-52636519D01*
X176001438Y-52643505D01*
X175962336Y-52709010D01*
X175876879Y-52630239D01*
X175777364Y-52548942D01*
X175685425Y-52498724D01*
X175591450Y-52475568D01*
X175503234Y-52474136D01*
X175379996Y-52496833D01*
X175282037Y-52548582D01*
X175206819Y-52630991D01*
X175179328Y-52679288D01*
X175165270Y-52709113D01*
X175154386Y-52737998D01*
X175146272Y-52771223D01*
X175140522Y-52814064D01*
X175136728Y-52871800D01*
X175134486Y-52949708D01*
X175133388Y-53053066D01*
X175133029Y-53187153D01*
X175133000Y-53281385D01*
X175133000Y-53789385D01*
X175328384Y-53789385D01*
X175338621Y-53320461D01*
X175342716Y-53157416D01*
X175347718Y-53028594D01*
X175354606Y-52929144D01*
X175364358Y-52854212D01*
X175377955Y-52798946D01*
X175396374Y-52758493D01*
X175420595Y-52728001D01*
X175451597Y-52702616D01*
X175465113Y-52693461D01*
X175546111Y-52662043D01*
X175634341Y-52668369D01*
X175728500Y-52712046D01*
X175827287Y-52792683D01*
X175840891Y-52806364D01*
X175923551Y-52891323D01*
X175934077Y-53789385D01*
X176129461Y-53789385D01*
X176140117Y-53330231D01*
X176144662Y-53164550D01*
X176150333Y-53033175D01*
X176158025Y-52931336D01*
X176168633Y-52854262D01*
X176183051Y-52797185D01*
X176202175Y-52755333D01*
X176226898Y-52723936D01*
X176258117Y-52698225D01*
X176258745Y-52697784D01*
X176322278Y-52672839D01*
X176401984Y-52667586D01*
X176480112Y-52682319D01*
X176506547Y-52693664D01*
X176549393Y-52723107D01*
X176604042Y-52769655D01*
X176641967Y-52806364D01*
X176724628Y-52891323D01*
X176735154Y-53789385D01*
X176823804Y-53795170D01*
X176880015Y-53795827D01*
X176918736Y-53790753D01*
X176926381Y-53787029D01*
X176929727Y-53764816D01*
X176932784Y-53708221D01*
X176935453Y-53621937D01*
X176937634Y-53510658D01*
X176939227Y-53379079D01*
X176940134Y-53231894D01*
X176940307Y-53130519D01*
X176940307Y-52487936D01*
X176847500Y-52493891D01*
X176754692Y-52499846D01*
X176742664Y-52688356D01*
X176657189Y-52609568D01*
X176561373Y-52533898D01*
X176468090Y-52490111D01*
X176365565Y-52473725D01*
X176302740Y-52474661D01*
X176302740Y-52474661D01*
G37*
X176302740Y-52474661D02*
X176179370Y-52498072D01*
X176080375Y-52552017D01*
X176005710Y-52636519D01*
X176001438Y-52643505D01*
X175962336Y-52709010D01*
X175876879Y-52630239D01*
X175777364Y-52548942D01*
X175685425Y-52498724D01*
X175591450Y-52475568D01*
X175503234Y-52474136D01*
X175379996Y-52496833D01*
X175282037Y-52548582D01*
X175206819Y-52630991D01*
X175179328Y-52679288D01*
X175165270Y-52709113D01*
X175154386Y-52737998D01*
X175146272Y-52771223D01*
X175140522Y-52814064D01*
X175136728Y-52871800D01*
X175134486Y-52949708D01*
X175133388Y-53053066D01*
X175133029Y-53187153D01*
X175133000Y-53281385D01*
X175133000Y-53789385D01*
X175328384Y-53789385D01*
X175338621Y-53320461D01*
X175342716Y-53157416D01*
X175347718Y-53028594D01*
X175354606Y-52929144D01*
X175364358Y-52854212D01*
X175377955Y-52798946D01*
X175396374Y-52758493D01*
X175420595Y-52728001D01*
X175451597Y-52702616D01*
X175465113Y-52693461D01*
X175546111Y-52662043D01*
X175634341Y-52668369D01*
X175728500Y-52712046D01*
X175827287Y-52792683D01*
X175840891Y-52806364D01*
X175923551Y-52891323D01*
X175934077Y-53789385D01*
X176129461Y-53789385D01*
X176140117Y-53330231D01*
X176144662Y-53164550D01*
X176150333Y-53033175D01*
X176158025Y-52931336D01*
X176168633Y-52854262D01*
X176183051Y-52797185D01*
X176202175Y-52755333D01*
X176226898Y-52723936D01*
X176258117Y-52698225D01*
X176258745Y-52697784D01*
X176322278Y-52672839D01*
X176401984Y-52667586D01*
X176480112Y-52682319D01*
X176506547Y-52693664D01*
X176549393Y-52723107D01*
X176604042Y-52769655D01*
X176641967Y-52806364D01*
X176724628Y-52891323D01*
X176735154Y-53789385D01*
X176823804Y-53795170D01*
X176880015Y-53795827D01*
X176918736Y-53790753D01*
X176926381Y-53787029D01*
X176929727Y-53764816D01*
X176932784Y-53708221D01*
X176935453Y-53621937D01*
X176937634Y-53510658D01*
X176939227Y-53379079D01*
X176940134Y-53231894D01*
X176940307Y-53130519D01*
X176940307Y-52487936D01*
X176847500Y-52493891D01*
X176754692Y-52499846D01*
X176742664Y-52688356D01*
X176657189Y-52609568D01*
X176561373Y-52533898D01*
X176468090Y-52490111D01*
X176365565Y-52473725D01*
X176302740Y-52474661D01*
G36*
X177302343Y-52474993D02*
X177250717Y-52492116D01*
X177223668Y-52527547D01*
X177214263Y-52586926D01*
X177213846Y-52610169D01*
X177213846Y-52709349D01*
X177287115Y-52694079D01*
X177382047Y-52680966D01*
X177457192Y-52689442D01*
X177522559Y-52723612D01*
X177588155Y-52787578D01*
X177624445Y-52832378D01*
X177702307Y-52933302D01*
X177702307Y-53354368D01*
X177702313Y-53497213D01*
X177703216Y-53605700D01*
X177706345Y-53684546D01*
X177713030Y-53738469D01*
X177724600Y-53772185D01*
X177742384Y-53790411D01*
X177767712Y-53797864D01*
X177801912Y-53799260D01*
X177827649Y-53799154D01*
X177875362Y-53795492D01*
X177903656Y-53786630D01*
X177904205Y-53786128D01*
X177907334Y-53764138D01*
X177910193Y-53707757D01*
X177912689Y-53621669D01*
X177914728Y-53510562D01*
X177916219Y-53379119D01*
X177917068Y-53232026D01*
X177917230Y-53130519D01*
X177917230Y-52487936D01*
X177824423Y-52493891D01*
X177731615Y-52499846D01*
X177721846Y-52597538D01*
X177712077Y-52695231D01*
X177673760Y-52638635D01*
X177596399Y-52552975D01*
X177502824Y-52495425D01*
X177401685Y-52471028D01*
X177385476Y-52470538D01*
X177302343Y-52474993D01*
X177302343Y-52474993D01*
G37*
X177302343Y-52474993D02*
X177250717Y-52492116D01*
X177223668Y-52527547D01*
X177214263Y-52586926D01*
X177213846Y-52610169D01*
X177213846Y-52709349D01*
X177287115Y-52694079D01*
X177382047Y-52680966D01*
X177457192Y-52689442D01*
X177522559Y-52723612D01*
X177588155Y-52787578D01*
X177624445Y-52832378D01*
X177702307Y-52933302D01*
X177702307Y-53354368D01*
X177702313Y-53497213D01*
X177703216Y-53605700D01*
X177706345Y-53684546D01*
X177713030Y-53738469D01*
X177724600Y-53772185D01*
X177742384Y-53790411D01*
X177767712Y-53797864D01*
X177801912Y-53799260D01*
X177827649Y-53799154D01*
X177875362Y-53795492D01*
X177903656Y-53786630D01*
X177904205Y-53786128D01*
X177907334Y-53764138D01*
X177910193Y-53707757D01*
X177912689Y-53621669D01*
X177914728Y-53510562D01*
X177916219Y-53379119D01*
X177917068Y-53232026D01*
X177917230Y-53130519D01*
X177917230Y-52487936D01*
X177824423Y-52493891D01*
X177731615Y-52499846D01*
X177721846Y-52597538D01*
X177712077Y-52695231D01*
X177673760Y-52638635D01*
X177596399Y-52552975D01*
X177502824Y-52495425D01*
X177401685Y-52471028D01*
X177385476Y-52470538D01*
X177302343Y-52474993D01*
G36*
X178459423Y-52493940D02*
X178356846Y-52499846D01*
X178351686Y-53133523D01*
X178350523Y-53316437D01*
X178350387Y-53463621D01*
X178351381Y-53578410D01*
X178353603Y-53664138D01*
X178357154Y-53724142D01*
X178362135Y-53761756D01*
X178368646Y-53780316D01*
X178371224Y-53782877D01*
X178407043Y-53793633D01*
X178459772Y-53798329D01*
X178511964Y-53796648D01*
X178546174Y-53788269D01*
X178548974Y-53786128D01*
X178552103Y-53764138D01*
X178554962Y-53707757D01*
X178557458Y-53621670D01*
X178559498Y-53510563D01*
X178560989Y-53379122D01*
X178561837Y-53232032D01*
X178562000Y-53130569D01*
X178562000Y-52488035D01*
X178459423Y-52493940D01*
X178459423Y-52493940D01*
G37*
X178459423Y-52493940D02*
X178356846Y-52499846D01*
X178351686Y-53133523D01*
X178350523Y-53316437D01*
X178350387Y-53463621D01*
X178351381Y-53578410D01*
X178353603Y-53664138D01*
X178357154Y-53724142D01*
X178362135Y-53761756D01*
X178368646Y-53780316D01*
X178371224Y-53782877D01*
X178407043Y-53793633D01*
X178459772Y-53798329D01*
X178511964Y-53796648D01*
X178546174Y-53788269D01*
X178548974Y-53786128D01*
X178552103Y-53764138D01*
X178554962Y-53707757D01*
X178557458Y-53621670D01*
X178559498Y-53510563D01*
X178560989Y-53379122D01*
X178561837Y-53232032D01*
X178562000Y-53130569D01*
X178562000Y-52488035D01*
X178459423Y-52493940D01*
G36*
X179350838Y-52025651D02*
X178923461Y-52030923D01*
X178923461Y-52206769D01*
X179260500Y-52212115D01*
X179597538Y-52217461D01*
X179597538Y-52821263D01*
X179280038Y-52826631D01*
X178962538Y-52832000D01*
X178962538Y-53007846D01*
X179280038Y-53013215D01*
X179597538Y-53018583D01*
X179597538Y-53385422D01*
X179598492Y-53531205D01*
X179601459Y-53640636D01*
X179606602Y-53716397D01*
X179614081Y-53761171D01*
X179620984Y-53775708D01*
X179653306Y-53789536D01*
X179706222Y-53797532D01*
X179763010Y-53798815D01*
X179806948Y-53792505D01*
X179818974Y-53786128D01*
X179821700Y-53764460D01*
X179824233Y-53707753D01*
X179826511Y-53620043D01*
X179828474Y-53505369D01*
X179830062Y-53367768D01*
X179831214Y-53211276D01*
X179831869Y-53039933D01*
X179832000Y-52919059D01*
X179831811Y-52707979D01*
X179831179Y-52532788D01*
X179830005Y-52390299D01*
X179828194Y-52277325D01*
X179825645Y-52190681D01*
X179822262Y-52127178D01*
X179817947Y-52083632D01*
X179812603Y-52056854D01*
X179806130Y-52043659D01*
X179805107Y-52042697D01*
X179779271Y-52034569D01*
X179722931Y-52028881D01*
X179633957Y-52025555D01*
X179510214Y-52024510D01*
X179350838Y-52025651D01*
X179350838Y-52025651D01*
G37*
X179350838Y-52025651D02*
X178923461Y-52030923D01*
X178923461Y-52206769D01*
X179260500Y-52212115D01*
X179597538Y-52217461D01*
X179597538Y-52821263D01*
X179280038Y-52826631D01*
X178962538Y-52832000D01*
X178962538Y-53007846D01*
X179280038Y-53013215D01*
X179597538Y-53018583D01*
X179597538Y-53385422D01*
X179598492Y-53531205D01*
X179601459Y-53640636D01*
X179606602Y-53716397D01*
X179614081Y-53761171D01*
X179620984Y-53775708D01*
X179653306Y-53789536D01*
X179706222Y-53797532D01*
X179763010Y-53798815D01*
X179806948Y-53792505D01*
X179818974Y-53786128D01*
X179821700Y-53764460D01*
X179824233Y-53707753D01*
X179826511Y-53620043D01*
X179828474Y-53505369D01*
X179830062Y-53367768D01*
X179831214Y-53211276D01*
X179831869Y-53039933D01*
X179832000Y-52919059D01*
X179831811Y-52707979D01*
X179831179Y-52532788D01*
X179830005Y-52390299D01*
X179828194Y-52277325D01*
X179825645Y-52190681D01*
X179822262Y-52127178D01*
X179817947Y-52083632D01*
X179812603Y-52056854D01*
X179806130Y-52043659D01*
X179805107Y-52042697D01*
X179779271Y-52034569D01*
X179722931Y-52028881D01*
X179633957Y-52025555D01*
X179510214Y-52024510D01*
X179350838Y-52025651D01*
G36*
X181703196Y-52432346D02*
X181697923Y-52843539D01*
X181371063Y-52432346D01*
X181044202Y-52021154D01*
X180937485Y-52021154D01*
X180876496Y-52024065D01*
X180833115Y-52031555D01*
X180820124Y-52038376D01*
X180818616Y-52052944D01*
X180828555Y-52077707D01*
X180852197Y-52115709D01*
X180891797Y-52169993D01*
X180949609Y-52243603D01*
X181027888Y-52339581D01*
X181128891Y-52460971D01*
X181166570Y-52505907D01*
X181245803Y-52601128D01*
X181315721Y-52686794D01*
X181372636Y-52758253D01*
X181412859Y-52810848D01*
X181432704Y-52839927D01*
X181434154Y-52843636D01*
X181422778Y-52863626D01*
X181390683Y-52910441D01*
X181340913Y-52979887D01*
X181276516Y-53067769D01*
X181200536Y-53169892D01*
X181116020Y-53282063D01*
X181109985Y-53290021D01*
X181004522Y-53430718D01*
X180919033Y-53548320D01*
X180854628Y-53641209D01*
X180812413Y-53707768D01*
X180793497Y-53746378D01*
X180792645Y-53753369D01*
X180814737Y-53782795D01*
X180865517Y-53795709D01*
X180910359Y-53798463D01*
X180948768Y-53794825D01*
X180984958Y-53781150D01*
X181023147Y-53753793D01*
X181067553Y-53709111D01*
X181122390Y-53643460D01*
X181191876Y-53553196D01*
X181274791Y-53442011D01*
X181355169Y-53333568D01*
X181433608Y-53227739D01*
X181504990Y-53131428D01*
X181564194Y-53051544D01*
X181606103Y-52994993D01*
X181611057Y-52988308D01*
X181697923Y-52871077D01*
X181717461Y-53789385D01*
X181805486Y-53795144D01*
X181868883Y-53793480D01*
X181911944Y-53781071D01*
X181917832Y-53776583D01*
X181924079Y-53761219D01*
X181929251Y-53726891D01*
X181933428Y-53670809D01*
X181936688Y-53590186D01*
X181939110Y-53482234D01*
X181940774Y-53344167D01*
X181941759Y-53173195D01*
X181942142Y-52966531D01*
X181942154Y-52917613D01*
X181941883Y-52739863D01*
X181941111Y-52573612D01*
X181939893Y-52423062D01*
X181938289Y-52292416D01*
X181936355Y-52185874D01*
X181934149Y-52107641D01*
X181931729Y-52061917D01*
X181930294Y-52052059D01*
X181910530Y-52032486D01*
X181865485Y-52022951D01*
X181813452Y-52021154D01*
X181708469Y-52021154D01*
X181703196Y-52432346D01*
X181703196Y-52432346D01*
G37*
X181703196Y-52432346D02*
X181697923Y-52843539D01*
X181371063Y-52432346D01*
X181044202Y-52021154D01*
X180937485Y-52021154D01*
X180876496Y-52024065D01*
X180833115Y-52031555D01*
X180820124Y-52038376D01*
X180818616Y-52052944D01*
X180828555Y-52077707D01*
X180852197Y-52115709D01*
X180891797Y-52169993D01*
X180949609Y-52243603D01*
X181027888Y-52339581D01*
X181128891Y-52460971D01*
X181166570Y-52505907D01*
X181245803Y-52601128D01*
X181315721Y-52686794D01*
X181372636Y-52758253D01*
X181412859Y-52810848D01*
X181432704Y-52839927D01*
X181434154Y-52843636D01*
X181422778Y-52863626D01*
X181390683Y-52910441D01*
X181340913Y-52979887D01*
X181276516Y-53067769D01*
X181200536Y-53169892D01*
X181116020Y-53282063D01*
X181109985Y-53290021D01*
X181004522Y-53430718D01*
X180919033Y-53548320D01*
X180854628Y-53641209D01*
X180812413Y-53707768D01*
X180793497Y-53746378D01*
X180792645Y-53753369D01*
X180814737Y-53782795D01*
X180865517Y-53795709D01*
X180910359Y-53798463D01*
X180948768Y-53794825D01*
X180984958Y-53781150D01*
X181023147Y-53753793D01*
X181067553Y-53709111D01*
X181122390Y-53643460D01*
X181191876Y-53553196D01*
X181274791Y-53442011D01*
X181355169Y-53333568D01*
X181433608Y-53227739D01*
X181504990Y-53131428D01*
X181564194Y-53051544D01*
X181606103Y-52994993D01*
X181611057Y-52988308D01*
X181697923Y-52871077D01*
X181717461Y-53789385D01*
X181805486Y-53795144D01*
X181868883Y-53793480D01*
X181911944Y-53781071D01*
X181917832Y-53776583D01*
X181924079Y-53761219D01*
X181929251Y-53726891D01*
X181933428Y-53670809D01*
X181936688Y-53590186D01*
X181939110Y-53482234D01*
X181940774Y-53344167D01*
X181941759Y-53173195D01*
X181942142Y-52966531D01*
X181942154Y-52917613D01*
X181941883Y-52739863D01*
X181941111Y-52573612D01*
X181939893Y-52423062D01*
X181938289Y-52292416D01*
X181936355Y-52185874D01*
X181934149Y-52107641D01*
X181931729Y-52061917D01*
X181930294Y-52052059D01*
X181910530Y-52032486D01*
X181865485Y-52022951D01*
X181813452Y-52021154D01*
X181708469Y-52021154D01*
X181703196Y-52432346D01*
G36*
X182497296Y-52027581D02*
X182448007Y-52046616D01*
X182441780Y-52051857D01*
X182434290Y-52063063D01*
X182428106Y-52082622D01*
X182423105Y-52113990D01*
X182419167Y-52160625D01*
X182416170Y-52225984D01*
X182413994Y-52313522D01*
X182412518Y-52426698D01*
X182411621Y-52568969D01*
X182411181Y-52743790D01*
X182411077Y-52928997D01*
X182410994Y-53136318D01*
X182411050Y-53307925D01*
X182411695Y-53447179D01*
X182413384Y-53557441D01*
X182416569Y-53642075D01*
X182421703Y-53704441D01*
X182429239Y-53747900D01*
X182439630Y-53775814D01*
X182453328Y-53791546D01*
X182470787Y-53798455D01*
X182492460Y-53799905D01*
X182518798Y-53799256D01*
X182528307Y-53799154D01*
X182557185Y-53799700D01*
X182580901Y-53799011D01*
X182599966Y-53793597D01*
X182614888Y-53779969D01*
X182626176Y-53754637D01*
X182634339Y-53714111D01*
X182639886Y-53654902D01*
X182643327Y-53573519D01*
X182645169Y-53466474D01*
X182645923Y-53330275D01*
X182646098Y-53161434D01*
X182646169Y-52991102D01*
X182646800Y-52206769D01*
X182961910Y-52988308D01*
X183028837Y-53153435D01*
X183091889Y-53307338D01*
X183149461Y-53446224D01*
X183199949Y-53566298D01*
X183241751Y-53663768D01*
X183273263Y-53734838D01*
X183292881Y-53775715D01*
X183298318Y-53784201D01*
X183331181Y-53793966D01*
X183382691Y-53798513D01*
X183388000Y-53798555D01*
X183440349Y-53794695D01*
X183476144Y-53785290D01*
X183477980Y-53784201D01*
X183489364Y-53763454D01*
X183513087Y-53710012D01*
X183547597Y-53627704D01*
X183591343Y-53520359D01*
X183642773Y-53391808D01*
X183700337Y-53245880D01*
X183762484Y-53086404D01*
X183800365Y-52988308D01*
X184101154Y-52206769D01*
X184120692Y-53789385D01*
X184208717Y-53795144D01*
X184272114Y-53793480D01*
X184315174Y-53781071D01*
X184321063Y-53776583D01*
X184327469Y-53751022D01*
X184332970Y-53691393D01*
X184337568Y-53602694D01*
X184341265Y-53489921D01*
X184344064Y-53358072D01*
X184345968Y-53212146D01*
X184346979Y-53057140D01*
X184347100Y-52898052D01*
X184346333Y-52739880D01*
X184344682Y-52587621D01*
X184342148Y-52446273D01*
X184338734Y-52320834D01*
X184334443Y-52216302D01*
X184329278Y-52137674D01*
X184323240Y-52089948D01*
X184320182Y-52079769D01*
X184302130Y-52052599D01*
X184275273Y-52036920D01*
X184228779Y-52028767D01*
X184170665Y-52025021D01*
X184067960Y-52026082D01*
X183994489Y-52042929D01*
X183942393Y-52079055D01*
X183903812Y-52137952D01*
X183900451Y-52145106D01*
X183884397Y-52182659D01*
X183856073Y-52251612D01*
X183817477Y-52346986D01*
X183770610Y-52463805D01*
X183717471Y-52597090D01*
X183660061Y-52741863D01*
X183622305Y-52837473D01*
X183564882Y-52981755D01*
X183511596Y-53113007D01*
X183464185Y-53227157D01*
X183424384Y-53320134D01*
X183393927Y-53387863D01*
X183374551Y-53426272D01*
X183368341Y-53433396D01*
X183358197Y-53412397D01*
X183335055Y-53359337D01*
X183300649Y-53278352D01*
X183256713Y-53173574D01*
X183204980Y-53049138D01*
X183147183Y-52909179D01*
X183085056Y-52757829D01*
X183084891Y-52757426D01*
X183005225Y-52564306D01*
X182938361Y-52405671D01*
X182883346Y-52279427D01*
X182839224Y-52183484D01*
X182805043Y-52115749D01*
X182779850Y-52074132D01*
X182766442Y-52058926D01*
X182715751Y-52035564D01*
X182644865Y-52022353D01*
X182567481Y-52019593D01*
X182497296Y-52027581D01*
X182497296Y-52027581D01*
G37*
X182497296Y-52027581D02*
X182448007Y-52046616D01*
X182441780Y-52051857D01*
X182434290Y-52063063D01*
X182428106Y-52082622D01*
X182423105Y-52113990D01*
X182419167Y-52160625D01*
X182416170Y-52225984D01*
X182413994Y-52313522D01*
X182412518Y-52426698D01*
X182411621Y-52568969D01*
X182411181Y-52743790D01*
X182411077Y-52928997D01*
X182410994Y-53136318D01*
X182411050Y-53307925D01*
X182411695Y-53447179D01*
X182413384Y-53557441D01*
X182416569Y-53642075D01*
X182421703Y-53704441D01*
X182429239Y-53747900D01*
X182439630Y-53775814D01*
X182453328Y-53791546D01*
X182470787Y-53798455D01*
X182492460Y-53799905D01*
X182518798Y-53799256D01*
X182528307Y-53799154D01*
X182557185Y-53799700D01*
X182580901Y-53799011D01*
X182599966Y-53793597D01*
X182614888Y-53779969D01*
X182626176Y-53754637D01*
X182634339Y-53714111D01*
X182639886Y-53654902D01*
X182643327Y-53573519D01*
X182645169Y-53466474D01*
X182645923Y-53330275D01*
X182646098Y-53161434D01*
X182646169Y-52991102D01*
X182646800Y-52206769D01*
X182961910Y-52988308D01*
X183028837Y-53153435D01*
X183091889Y-53307338D01*
X183149461Y-53446224D01*
X183199949Y-53566298D01*
X183241751Y-53663768D01*
X183273263Y-53734838D01*
X183292881Y-53775715D01*
X183298318Y-53784201D01*
X183331181Y-53793966D01*
X183382691Y-53798513D01*
X183388000Y-53798555D01*
X183440349Y-53794695D01*
X183476144Y-53785290D01*
X183477980Y-53784201D01*
X183489364Y-53763454D01*
X183513087Y-53710012D01*
X183547597Y-53627704D01*
X183591343Y-53520359D01*
X183642773Y-53391808D01*
X183700337Y-53245880D01*
X183762484Y-53086404D01*
X183800365Y-52988308D01*
X184101154Y-52206769D01*
X184120692Y-53789385D01*
X184208717Y-53795144D01*
X184272114Y-53793480D01*
X184315174Y-53781071D01*
X184321063Y-53776583D01*
X184327469Y-53751022D01*
X184332970Y-53691393D01*
X184337568Y-53602694D01*
X184341265Y-53489921D01*
X184344064Y-53358072D01*
X184345968Y-53212146D01*
X184346979Y-53057140D01*
X184347100Y-52898052D01*
X184346333Y-52739880D01*
X184344682Y-52587621D01*
X184342148Y-52446273D01*
X184338734Y-52320834D01*
X184334443Y-52216302D01*
X184329278Y-52137674D01*
X184323240Y-52089948D01*
X184320182Y-52079769D01*
X184302130Y-52052599D01*
X184275273Y-52036920D01*
X184228779Y-52028767D01*
X184170665Y-52025021D01*
X184067960Y-52026082D01*
X183994489Y-52042929D01*
X183942393Y-52079055D01*
X183903812Y-52137952D01*
X183900451Y-52145106D01*
X183884397Y-52182659D01*
X183856073Y-52251612D01*
X183817477Y-52346986D01*
X183770610Y-52463805D01*
X183717471Y-52597090D01*
X183660061Y-52741863D01*
X183622305Y-52837473D01*
X183564882Y-52981755D01*
X183511596Y-53113007D01*
X183464185Y-53227157D01*
X183424384Y-53320134D01*
X183393927Y-53387863D01*
X183374551Y-53426272D01*
X183368341Y-53433396D01*
X183358197Y-53412397D01*
X183335055Y-53359337D01*
X183300649Y-53278352D01*
X183256713Y-53173574D01*
X183204980Y-53049138D01*
X183147183Y-52909179D01*
X183085056Y-52757829D01*
X183084891Y-52757426D01*
X183005225Y-52564306D01*
X182938361Y-52405671D01*
X182883346Y-52279427D01*
X182839224Y-52183484D01*
X182805043Y-52115749D01*
X182779850Y-52074132D01*
X182766442Y-52058926D01*
X182715751Y-52035564D01*
X182644865Y-52022353D01*
X182567481Y-52019593D01*
X182497296Y-52027581D01*
G36*
X169825050Y-52480898D02*
X169693055Y-52519087D01*
X169584455Y-52588193D01*
X169500286Y-52687301D01*
X169441584Y-52815496D01*
X169409385Y-52971862D01*
X169408678Y-52978538D01*
X169402507Y-53041368D01*
X169401330Y-53089836D01*
X169409460Y-53125884D01*
X169431210Y-53151449D01*
X169470891Y-53168471D01*
X169532816Y-53178890D01*
X169621297Y-53184644D01*
X169740646Y-53187673D01*
X169878167Y-53189675D01*
X170302471Y-53195657D01*
X170291457Y-53302374D01*
X170264354Y-53423160D01*
X170210574Y-53515796D01*
X170129605Y-53580693D01*
X170020939Y-53618263D01*
X169886923Y-53628963D01*
X169764491Y-53619148D01*
X169645266Y-53595796D01*
X169614823Y-53586982D01*
X169549091Y-53568188D01*
X169498108Y-53557451D01*
X169473169Y-53557052D01*
X169460253Y-53584176D01*
X169457547Y-53631161D01*
X169464131Y-53680411D01*
X169479087Y-53714329D01*
X169481500Y-53716614D01*
X169539214Y-53747190D01*
X169625715Y-53772887D01*
X169730885Y-53792490D01*
X169844603Y-53804786D01*
X169956754Y-53808560D01*
X170057217Y-53802599D01*
X170113434Y-53792432D01*
X170246732Y-53743188D01*
X170352773Y-53669415D01*
X170432810Y-53569322D01*
X170488092Y-53441118D01*
X170519873Y-53283011D01*
X170526904Y-53200478D01*
X170523669Y-53021874D01*
X170522796Y-53017615D01*
X170302376Y-53017615D01*
X169632923Y-53017615D01*
X169633244Y-52944346D01*
X169649726Y-52857574D01*
X169692575Y-52771674D01*
X169752980Y-52702153D01*
X169783177Y-52680556D01*
X169862950Y-52652296D01*
X169959561Y-52644545D01*
X170056474Y-52657489D01*
X170111371Y-52676886D01*
X170186897Y-52731985D01*
X170248002Y-52813085D01*
X170285942Y-52907522D01*
X170291706Y-52938064D01*
X170302376Y-53017615D01*
X170522796Y-53017615D01*
X170492163Y-52868234D01*
X170431585Y-52736731D01*
X170373422Y-52658562D01*
X170286270Y-52574143D01*
X170194431Y-52518619D01*
X170086607Y-52486715D01*
X169979403Y-52474541D01*
X169825050Y-52480898D01*
X169825050Y-52480898D01*
G37*
X169825050Y-52480898D02*
X169693055Y-52519087D01*
X169584455Y-52588193D01*
X169500286Y-52687301D01*
X169441584Y-52815496D01*
X169409385Y-52971862D01*
X169408678Y-52978538D01*
X169402507Y-53041368D01*
X169401330Y-53089836D01*
X169409460Y-53125884D01*
X169431210Y-53151449D01*
X169470891Y-53168471D01*
X169532816Y-53178890D01*
X169621297Y-53184644D01*
X169740646Y-53187673D01*
X169878167Y-53189675D01*
X170302471Y-53195657D01*
X170291457Y-53302374D01*
X170264354Y-53423160D01*
X170210574Y-53515796D01*
X170129605Y-53580693D01*
X170020939Y-53618263D01*
X169886923Y-53628963D01*
X169764491Y-53619148D01*
X169645266Y-53595796D01*
X169614823Y-53586982D01*
X169549091Y-53568188D01*
X169498108Y-53557451D01*
X169473169Y-53557052D01*
X169460253Y-53584176D01*
X169457547Y-53631161D01*
X169464131Y-53680411D01*
X169479087Y-53714329D01*
X169481500Y-53716614D01*
X169539214Y-53747190D01*
X169625715Y-53772887D01*
X169730885Y-53792490D01*
X169844603Y-53804786D01*
X169956754Y-53808560D01*
X170057217Y-53802599D01*
X170113434Y-53792432D01*
X170246732Y-53743188D01*
X170352773Y-53669415D01*
X170432810Y-53569322D01*
X170488092Y-53441118D01*
X170519873Y-53283011D01*
X170526904Y-53200478D01*
X170523669Y-53021874D01*
X170522796Y-53017615D01*
X170302376Y-53017615D01*
X169632923Y-53017615D01*
X169633244Y-52944346D01*
X169649726Y-52857574D01*
X169692575Y-52771674D01*
X169752980Y-52702153D01*
X169783177Y-52680556D01*
X169862950Y-52652296D01*
X169959561Y-52644545D01*
X170056474Y-52657489D01*
X170111371Y-52676886D01*
X170186897Y-52731985D01*
X170248002Y-52813085D01*
X170285942Y-52907522D01*
X170291706Y-52938064D01*
X170302376Y-53017615D01*
X170522796Y-53017615D01*
X170492163Y-52868234D01*
X170431585Y-52736731D01*
X170373422Y-52658562D01*
X170286270Y-52574143D01*
X170194431Y-52518619D01*
X170086607Y-52486715D01*
X169979403Y-52474541D01*
X169825050Y-52480898D01*
G36*
X172177452Y-52475405D02*
X172085440Y-52492331D01*
X172001601Y-52532756D01*
X171924305Y-52599828D01*
X171865469Y-52681489D01*
X171842302Y-52738384D01*
X171834642Y-52789890D01*
X171829138Y-52878188D01*
X171825854Y-53001048D01*
X171824857Y-53156240D01*
X171825770Y-53304291D01*
X171831000Y-53789385D01*
X171909154Y-53789385D01*
X171959414Y-53787138D01*
X171982785Y-53773338D01*
X171991441Y-53737391D01*
X171993371Y-53716115D01*
X171999564Y-53669005D01*
X172007318Y-53644045D01*
X172009171Y-53642846D01*
X172028750Y-53654035D01*
X172067710Y-53682521D01*
X172093213Y-53702561D01*
X172204287Y-53769487D01*
X172329192Y-53807275D01*
X172457208Y-53813933D01*
X172568399Y-53790890D01*
X172679364Y-53736989D01*
X172756257Y-53665184D01*
X172800961Y-53572599D01*
X172815357Y-53456358D01*
X172814785Y-53439230D01*
X172597271Y-53439230D01*
X172585462Y-53486795D01*
X172544427Y-53562424D01*
X172478710Y-53614551D01*
X172396616Y-53640620D01*
X172306451Y-53638075D01*
X172216520Y-53604361D01*
X172212000Y-53601704D01*
X172151082Y-53560274D01*
X172094266Y-53514248D01*
X172089884Y-53510198D01*
X172061105Y-53479261D01*
X172044916Y-53446421D01*
X172037778Y-53399403D01*
X172036154Y-53325926D01*
X172036154Y-53187779D01*
X172228633Y-53198385D01*
X172351967Y-53209263D01*
X172442928Y-53228007D01*
X172507862Y-53257197D01*
X172553114Y-53299413D01*
X172577494Y-53340205D01*
X172596852Y-53391882D01*
X172597271Y-53439230D01*
X172814785Y-53439230D01*
X172813995Y-53415606D01*
X172792713Y-53303270D01*
X172743543Y-53212246D01*
X172664944Y-53141520D01*
X172555374Y-53090074D01*
X172413290Y-53056893D01*
X172246192Y-53041335D01*
X172036154Y-53032134D01*
X172036263Y-52961375D01*
X172048756Y-52850758D01*
X172083645Y-52758215D01*
X172124678Y-52704435D01*
X172193335Y-52664765D01*
X172285548Y-52647276D01*
X172392568Y-52652164D01*
X172505644Y-52679627D01*
X172545831Y-52694945D01*
X172616336Y-52723389D01*
X172678257Y-52746278D01*
X172716361Y-52758148D01*
X172744227Y-52761630D01*
X172756186Y-52748523D01*
X172757112Y-52709585D01*
X172755438Y-52684057D01*
X172746471Y-52625687D01*
X172724021Y-52589378D01*
X172685901Y-52562567D01*
X172579033Y-52516659D01*
X172449379Y-52485743D01*
X172310873Y-52471448D01*
X172177452Y-52475405D01*
X172177452Y-52475405D01*
G37*
X172177452Y-52475405D02*
X172085440Y-52492331D01*
X172001601Y-52532756D01*
X171924305Y-52599828D01*
X171865469Y-52681489D01*
X171842302Y-52738384D01*
X171834642Y-52789890D01*
X171829138Y-52878188D01*
X171825854Y-53001048D01*
X171824857Y-53156240D01*
X171825770Y-53304291D01*
X171831000Y-53789385D01*
X171909154Y-53789385D01*
X171959414Y-53787138D01*
X171982785Y-53773338D01*
X171991441Y-53737391D01*
X171993371Y-53716115D01*
X171999564Y-53669005D01*
X172007318Y-53644045D01*
X172009171Y-53642846D01*
X172028750Y-53654035D01*
X172067710Y-53682521D01*
X172093213Y-53702561D01*
X172204287Y-53769487D01*
X172329192Y-53807275D01*
X172457208Y-53813933D01*
X172568399Y-53790890D01*
X172679364Y-53736989D01*
X172756257Y-53665184D01*
X172800961Y-53572599D01*
X172815357Y-53456358D01*
X172814785Y-53439230D01*
X172597271Y-53439230D01*
X172585462Y-53486795D01*
X172544427Y-53562424D01*
X172478710Y-53614551D01*
X172396616Y-53640620D01*
X172306451Y-53638075D01*
X172216520Y-53604361D01*
X172212000Y-53601704D01*
X172151082Y-53560274D01*
X172094266Y-53514248D01*
X172089884Y-53510198D01*
X172061105Y-53479261D01*
X172044916Y-53446421D01*
X172037778Y-53399403D01*
X172036154Y-53325926D01*
X172036154Y-53187779D01*
X172228633Y-53198385D01*
X172351967Y-53209263D01*
X172442928Y-53228007D01*
X172507862Y-53257197D01*
X172553114Y-53299413D01*
X172577494Y-53340205D01*
X172596852Y-53391882D01*
X172597271Y-53439230D01*
X172814785Y-53439230D01*
X172813995Y-53415606D01*
X172792713Y-53303270D01*
X172743543Y-53212246D01*
X172664944Y-53141520D01*
X172555374Y-53090074D01*
X172413290Y-53056893D01*
X172246192Y-53041335D01*
X172036154Y-53032134D01*
X172036263Y-52961375D01*
X172048756Y-52850758D01*
X172083645Y-52758215D01*
X172124678Y-52704435D01*
X172193335Y-52664765D01*
X172285548Y-52647276D01*
X172392568Y-52652164D01*
X172505644Y-52679627D01*
X172545831Y-52694945D01*
X172616336Y-52723389D01*
X172678257Y-52746278D01*
X172716361Y-52758148D01*
X172744227Y-52761630D01*
X172756186Y-52748523D01*
X172757112Y-52709585D01*
X172755438Y-52684057D01*
X172746471Y-52625687D01*
X172724021Y-52589378D01*
X172685901Y-52562567D01*
X172579033Y-52516659D01*
X172449379Y-52485743D01*
X172310873Y-52471448D01*
X172177452Y-52475405D01*
G36*
X185356074Y-52012363D02*
X185216834Y-52045912D01*
X185095285Y-52104682D01*
X185047209Y-52137755D01*
X184947765Y-52226507D01*
X184872123Y-52329069D01*
X184811587Y-52457428D01*
X184807568Y-52468014D01*
X184791201Y-52516919D01*
X184779718Y-52567241D01*
X184772282Y-52627254D01*
X184768061Y-52705235D01*
X184766217Y-52809458D01*
X184765915Y-52880846D01*
X184766350Y-53001407D01*
X184768672Y-53091540D01*
X184773786Y-53159884D01*
X184782595Y-53215075D01*
X184796003Y-53265752D01*
X184810730Y-53309072D01*
X184844053Y-53389572D01*
X184883685Y-53468805D01*
X184912626Y-53516757D01*
X184969254Y-53599062D01*
X184857588Y-53677051D01*
X184781484Y-53727108D01*
X184699752Y-53776178D01*
X184645678Y-53805552D01*
X184571569Y-53853156D01*
X184533023Y-53906304D01*
X184526530Y-53971170D01*
X184532746Y-54004308D01*
X184545206Y-54037087D01*
X184567041Y-54049646D01*
X184607622Y-54043565D01*
X184661044Y-54025923D01*
X184770357Y-53976815D01*
X184894785Y-53903760D01*
X185024283Y-53812706D01*
X185035028Y-53804463D01*
X185148287Y-53716973D01*
X185249951Y-53762640D01*
X185347306Y-53792115D01*
X185468547Y-53807602D01*
X185601088Y-53809145D01*
X185732342Y-53796787D01*
X185849724Y-53770573D01*
X185879154Y-53760468D01*
X186004672Y-53693609D01*
X186116568Y-53596850D01*
X186206273Y-53479040D01*
X186258886Y-53368349D01*
X186283994Y-53270689D01*
X186302653Y-53146753D01*
X186314154Y-53008921D01*
X186316986Y-52900385D01*
X186073217Y-52900385D01*
X186069309Y-53060076D01*
X186054864Y-53188683D01*
X186028310Y-53293158D01*
X185988078Y-53380449D01*
X185953011Y-53432360D01*
X185862875Y-53519228D01*
X185750783Y-53578482D01*
X185623621Y-53608870D01*
X185488276Y-53609141D01*
X185351636Y-53578045D01*
X185290066Y-53552780D01*
X185190545Y-53488607D01*
X185110754Y-53397648D01*
X185046171Y-53274645D01*
X185041992Y-53264424D01*
X185024800Y-53215507D01*
X185013178Y-53163682D01*
X185006129Y-53099915D01*
X185002653Y-53015173D01*
X185001753Y-52900422D01*
X185001753Y-52900385D01*
X185006139Y-52742639D01*
X185020558Y-52616117D01*
X185047114Y-52513778D01*
X185087912Y-52428580D01*
X185145057Y-52353483D01*
X185174228Y-52323465D01*
X185263352Y-52255121D01*
X185365369Y-52214294D01*
X185489359Y-52197733D01*
X185527461Y-52197000D01*
X185654774Y-52206615D01*
X185758421Y-52238237D01*
X185849501Y-52296027D01*
X185891111Y-52333400D01*
X185960533Y-52411573D01*
X186010953Y-52495384D01*
X186044824Y-52592464D01*
X186064593Y-52710441D01*
X186072713Y-52856943D01*
X186073217Y-52900385D01*
X186316986Y-52900385D01*
X186317791Y-52869569D01*
X186312858Y-52741074D01*
X186300279Y-52643790D01*
X186248652Y-52463315D01*
X186170831Y-52311774D01*
X186067445Y-52189686D01*
X185939128Y-52097573D01*
X185786511Y-52035953D01*
X185610225Y-52005348D01*
X185520699Y-52001827D01*
X185356074Y-52012363D01*
X185356074Y-52012363D01*
G37*
X185356074Y-52012363D02*
X185216834Y-52045912D01*
X185095285Y-52104682D01*
X185047209Y-52137755D01*
X184947765Y-52226507D01*
X184872123Y-52329069D01*
X184811587Y-52457428D01*
X184807568Y-52468014D01*
X184791201Y-52516919D01*
X184779718Y-52567241D01*
X184772282Y-52627254D01*
X184768061Y-52705235D01*
X184766217Y-52809458D01*
X184765915Y-52880846D01*
X184766350Y-53001407D01*
X184768672Y-53091540D01*
X184773786Y-53159884D01*
X184782595Y-53215075D01*
X184796003Y-53265752D01*
X184810730Y-53309072D01*
X184844053Y-53389572D01*
X184883685Y-53468805D01*
X184912626Y-53516757D01*
X184969254Y-53599062D01*
X184857588Y-53677051D01*
X184781484Y-53727108D01*
X184699752Y-53776178D01*
X184645678Y-53805552D01*
X184571569Y-53853156D01*
X184533023Y-53906304D01*
X184526530Y-53971170D01*
X184532746Y-54004308D01*
X184545206Y-54037087D01*
X184567041Y-54049646D01*
X184607622Y-54043565D01*
X184661044Y-54025923D01*
X184770357Y-53976815D01*
X184894785Y-53903760D01*
X185024283Y-53812706D01*
X185035028Y-53804463D01*
X185148287Y-53716973D01*
X185249951Y-53762640D01*
X185347306Y-53792115D01*
X185468547Y-53807602D01*
X185601088Y-53809145D01*
X185732342Y-53796787D01*
X185849724Y-53770573D01*
X185879154Y-53760468D01*
X186004672Y-53693609D01*
X186116568Y-53596850D01*
X186206273Y-53479040D01*
X186258886Y-53368349D01*
X186283994Y-53270689D01*
X186302653Y-53146753D01*
X186314154Y-53008921D01*
X186316986Y-52900385D01*
X186073217Y-52900385D01*
X186069309Y-53060076D01*
X186054864Y-53188683D01*
X186028310Y-53293158D01*
X185988078Y-53380449D01*
X185953011Y-53432360D01*
X185862875Y-53519228D01*
X185750783Y-53578482D01*
X185623621Y-53608870D01*
X185488276Y-53609141D01*
X185351636Y-53578045D01*
X185290066Y-53552780D01*
X185190545Y-53488607D01*
X185110754Y-53397648D01*
X185046171Y-53274645D01*
X185041992Y-53264424D01*
X185024800Y-53215507D01*
X185013178Y-53163682D01*
X185006129Y-53099915D01*
X185002653Y-53015173D01*
X185001753Y-52900422D01*
X185001753Y-52900385D01*
X185006139Y-52742639D01*
X185020558Y-52616117D01*
X185047114Y-52513778D01*
X185087912Y-52428580D01*
X185145057Y-52353483D01*
X185174228Y-52323465D01*
X185263352Y-52255121D01*
X185365369Y-52214294D01*
X185489359Y-52197733D01*
X185527461Y-52197000D01*
X185654774Y-52206615D01*
X185758421Y-52238237D01*
X185849501Y-52296027D01*
X185891111Y-52333400D01*
X185960533Y-52411573D01*
X186010953Y-52495384D01*
X186044824Y-52592464D01*
X186064593Y-52710441D01*
X186072713Y-52856943D01*
X186073217Y-52900385D01*
X186316986Y-52900385D01*
X186317791Y-52869569D01*
X186312858Y-52741074D01*
X186300279Y-52643790D01*
X186248652Y-52463315D01*
X186170831Y-52311774D01*
X186067445Y-52189686D01*
X185939128Y-52097573D01*
X185786511Y-52035953D01*
X185610225Y-52005348D01*
X185520699Y-52001827D01*
X185356074Y-52012363D01*
G36*
X190537822Y-50147148D02*
X190396795Y-50141420D01*
X190255769Y-50135692D01*
X190246000Y-49911000D01*
X190236230Y-49686308D01*
X190021307Y-49686308D01*
X190010283Y-50147148D01*
X189869257Y-50141420D01*
X189728230Y-50135692D01*
X189708692Y-49686308D01*
X189493769Y-49686308D01*
X189482745Y-50147148D01*
X189341719Y-50141420D01*
X189200692Y-50135692D01*
X189181154Y-49686308D01*
X188966230Y-49686308D01*
X188960719Y-49916728D01*
X188955207Y-50147148D01*
X188814180Y-50141420D01*
X188673154Y-50135692D01*
X188663384Y-49911000D01*
X188653615Y-49686308D01*
X188438692Y-49686308D01*
X188433187Y-49915884D01*
X188427683Y-50145461D01*
X188334091Y-50145461D01*
X188194839Y-50163638D01*
X188069743Y-50215068D01*
X187963453Y-50295102D01*
X187880618Y-50399092D01*
X187825888Y-50522387D01*
X187803910Y-50660340D01*
X187803692Y-50675860D01*
X187803692Y-50769452D01*
X187574115Y-50774957D01*
X187344538Y-50780461D01*
X187338527Y-50886074D01*
X187339295Y-50962302D01*
X187352521Y-51002942D01*
X187358066Y-51007890D01*
X187387266Y-51014580D01*
X187446216Y-51019986D01*
X187525592Y-51023455D01*
X187593654Y-51024393D01*
X187803692Y-51024692D01*
X187803692Y-51296991D01*
X187574115Y-51302495D01*
X187344538Y-51308000D01*
X187338527Y-51413612D01*
X187339295Y-51489840D01*
X187352521Y-51530480D01*
X187358066Y-51535428D01*
X187387266Y-51542119D01*
X187446216Y-51547525D01*
X187525592Y-51550993D01*
X187593654Y-51551931D01*
X187803692Y-51552231D01*
X187803692Y-51824529D01*
X187574115Y-51830034D01*
X187344538Y-51835538D01*
X187338754Y-51945370D01*
X187337134Y-51997586D01*
X187342566Y-52034070D01*
X187360843Y-52057655D01*
X187397757Y-52071172D01*
X187459103Y-52077452D01*
X187550673Y-52079327D01*
X187613192Y-52079502D01*
X187803692Y-52079769D01*
X187803692Y-52352067D01*
X187344538Y-52363077D01*
X187338754Y-52472909D01*
X187337134Y-52525124D01*
X187342566Y-52561609D01*
X187360843Y-52585194D01*
X187397757Y-52598710D01*
X187459103Y-52604990D01*
X187550673Y-52606865D01*
X187613192Y-52607041D01*
X187803692Y-52607308D01*
X187803692Y-52879606D01*
X187574115Y-52885111D01*
X187344538Y-52890615D01*
X187338754Y-53000447D01*
X187337134Y-53052663D01*
X187342566Y-53089147D01*
X187360843Y-53112732D01*
X187397757Y-53126249D01*
X187459103Y-53132529D01*
X187550673Y-53134404D01*
X187613192Y-53134579D01*
X187803692Y-53134846D01*
X187803883Y-53237423D01*
X187822457Y-53371358D01*
X187874843Y-53492062D01*
X187956813Y-53595249D01*
X188064139Y-53676631D01*
X188192591Y-53731919D01*
X188314361Y-53755116D01*
X188428923Y-53765504D01*
X188428923Y-53975321D01*
X188430350Y-54080354D01*
X188436819Y-54152196D01*
X188451609Y-54196694D01*
X188477998Y-54219695D01*
X188519265Y-54227046D01*
X188569133Y-54225309D01*
X188653615Y-54219231D01*
X188663384Y-53994538D01*
X188673154Y-53769846D01*
X188814807Y-53764105D01*
X188956461Y-53758365D01*
X188956461Y-53971752D01*
X188957835Y-54077613D01*
X188964099Y-54150251D01*
X188978470Y-54195480D01*
X189004165Y-54219118D01*
X189044400Y-54226982D01*
X189096671Y-54225309D01*
X189181154Y-54219231D01*
X189186658Y-53989654D01*
X189192163Y-53760077D01*
X189484000Y-53760077D01*
X189484000Y-53972608D01*
X189485386Y-54078271D01*
X189491698Y-54150718D01*
X189506168Y-54195773D01*
X189532027Y-54219258D01*
X189572506Y-54226999D01*
X189624210Y-54225309D01*
X189708692Y-54219231D01*
X189714197Y-53989654D01*
X189719701Y-53760077D01*
X190011538Y-53760077D01*
X190011538Y-53972608D01*
X190012924Y-54078271D01*
X190019237Y-54150718D01*
X190033707Y-54195773D01*
X190059566Y-54219258D01*
X190100045Y-54226999D01*
X190151748Y-54225309D01*
X190236230Y-54219231D01*
X190247240Y-53760077D01*
X190539077Y-53760077D01*
X190539077Y-53971092D01*
X190541445Y-54083985D01*
X190548444Y-54161558D01*
X190559912Y-54202199D01*
X190562523Y-54205554D01*
X190594845Y-54219382D01*
X190647761Y-54227378D01*
X190704549Y-54228661D01*
X190748487Y-54222351D01*
X190760513Y-54215974D01*
X190765738Y-54192280D01*
X190769964Y-54137964D01*
X190772715Y-54061479D01*
X190773538Y-53984338D01*
X190773538Y-53765728D01*
X190899556Y-53753960D01*
X191050495Y-53722978D01*
X191177672Y-53661403D01*
X191279487Y-53570827D01*
X191354337Y-53452842D01*
X191400624Y-53309039D01*
X191410665Y-53245648D01*
X191423688Y-53134846D01*
X191617667Y-53134846D01*
X191725642Y-53133173D01*
X191800517Y-53126348D01*
X191848192Y-53111662D01*
X191874569Y-53086404D01*
X191885548Y-53047867D01*
X191887230Y-53011066D01*
X191882031Y-52953692D01*
X191869043Y-52911679D01*
X191863784Y-52904292D01*
X191830186Y-52892012D01*
X191759356Y-52884170D01*
X191652907Y-52880929D01*
X191629323Y-52880846D01*
X191418307Y-52880846D01*
X191418307Y-52607308D01*
X191614977Y-52607308D01*
X191723554Y-52605674D01*
X191799004Y-52598990D01*
X191847204Y-52584585D01*
X191874032Y-52559787D01*
X191885364Y-52521923D01*
X191887230Y-52483528D01*
X191882031Y-52426153D01*
X191869043Y-52384140D01*
X191863784Y-52376754D01*
X191830186Y-52364473D01*
X191759356Y-52356632D01*
X191652907Y-52353390D01*
X191629323Y-52353308D01*
X191418307Y-52353308D01*
X191418307Y-52079769D01*
X191614977Y-52079769D01*
X191723554Y-52078135D01*
X191799004Y-52071452D01*
X191847204Y-52057047D01*
X191874032Y-52032249D01*
X191885364Y-51994385D01*
X191887231Y-51955989D01*
X191882031Y-51898615D01*
X191869043Y-51856602D01*
X191863784Y-51849215D01*
X191830186Y-51836935D01*
X191759356Y-51829093D01*
X191652907Y-51825852D01*
X191629323Y-51825769D01*
X191418307Y-51825769D01*
X191418307Y-51575884D01*
X190633392Y-51575884D01*
X190633019Y-51714634D01*
X190630917Y-51823723D01*
X190626920Y-51907847D01*
X190620857Y-51971699D01*
X190612561Y-52019977D01*
X190609636Y-52032031D01*
X190549929Y-52188320D01*
X190459237Y-52321738D01*
X190339137Y-52431020D01*
X190191207Y-52514899D01*
X190017022Y-52572108D01*
X189913133Y-52591391D01*
X189757538Y-52613395D01*
X189757538Y-52811598D01*
X189754850Y-52923980D01*
X189746803Y-52998171D01*
X189733426Y-53033910D01*
X189733282Y-53034056D01*
X189696003Y-53048695D01*
X189626675Y-53053565D01*
X189591628Y-53052617D01*
X189474230Y-53046923D01*
X189468706Y-52827115D01*
X189465845Y-52731752D01*
X189462076Y-52668792D01*
X189456040Y-52631567D01*
X189446379Y-52613406D01*
X189431732Y-52607638D01*
X189423921Y-52607308D01*
X189358624Y-52600952D01*
X189270687Y-52584213D01*
X189174000Y-52560581D01*
X189082455Y-52533546D01*
X189009942Y-52506598D01*
X188994847Y-52499496D01*
X188890363Y-52431434D01*
X188789416Y-52339216D01*
X188705975Y-52236346D01*
X188681213Y-52196288D01*
X188651095Y-52139459D01*
X188627260Y-52085320D01*
X188608984Y-52028396D01*
X188595543Y-51963211D01*
X188586212Y-51884288D01*
X188580267Y-51786151D01*
X188576985Y-51663325D01*
X188575640Y-51510334D01*
X188575461Y-51396763D01*
X188575461Y-50879834D01*
X188643846Y-50865735D01*
X188713536Y-50859921D01*
X188780615Y-50865738D01*
X188849000Y-50879841D01*
X188860437Y-51396767D01*
X188865084Y-51566910D01*
X188870889Y-51713747D01*
X188877634Y-51833597D01*
X188885101Y-51922781D01*
X188893071Y-51977620D01*
X188895411Y-51986468D01*
X188952037Y-52100774D01*
X189039517Y-52199523D01*
X189151007Y-52277443D01*
X189279662Y-52329262D01*
X189361647Y-52345558D01*
X189463987Y-52358279D01*
X189469109Y-51619013D01*
X189474230Y-50879747D01*
X189542615Y-50865691D01*
X189612302Y-50859917D01*
X189679384Y-50865764D01*
X189747769Y-50879894D01*
X189752891Y-51618784D01*
X189758012Y-52357673D01*
X189850583Y-52344307D01*
X189997700Y-52306336D01*
X190124084Y-52239480D01*
X190225370Y-52146734D01*
X190292832Y-52040692D01*
X190305161Y-52011746D01*
X190314933Y-51980358D01*
X190322559Y-51941464D01*
X190328451Y-51890000D01*
X190333023Y-51820902D01*
X190336687Y-51729105D01*
X190339854Y-51609547D01*
X190342938Y-51457163D01*
X190343692Y-51416235D01*
X190353461Y-50879702D01*
X190421846Y-50865668D01*
X190491535Y-50859909D01*
X190558615Y-50865761D01*
X190627000Y-50879886D01*
X190632206Y-51402777D01*
X190633392Y-51575884D01*
X191418307Y-51575884D01*
X191418307Y-51552231D01*
X191614977Y-51552231D01*
X191723554Y-51550597D01*
X191799004Y-51543913D01*
X191847204Y-51529509D01*
X191874032Y-51504710D01*
X191885364Y-51466846D01*
X191887230Y-51428451D01*
X191882031Y-51371076D01*
X191869043Y-51329063D01*
X191863784Y-51321677D01*
X191830186Y-51309396D01*
X191759356Y-51301555D01*
X191652907Y-51298313D01*
X191629323Y-51298231D01*
X191418307Y-51298231D01*
X191418307Y-51024692D01*
X191614977Y-51024692D01*
X191723554Y-51023058D01*
X191799004Y-51016375D01*
X191847204Y-51001970D01*
X191874032Y-50977172D01*
X191885364Y-50939308D01*
X191887230Y-50900912D01*
X191882031Y-50843538D01*
X191869043Y-50801525D01*
X191863784Y-50794138D01*
X191830198Y-50781833D01*
X191759595Y-50773980D01*
X191653805Y-50770764D01*
X191632106Y-50770692D01*
X191423874Y-50770692D01*
X191411634Y-50653581D01*
X191391535Y-50535152D01*
X191355217Y-50439713D01*
X191296355Y-50352452D01*
X191270116Y-50322050D01*
X191173357Y-50235572D01*
X191063694Y-50179932D01*
X190931769Y-50150591D01*
X190912247Y-50148447D01*
X190783307Y-50135692D01*
X190763769Y-49686308D01*
X190548846Y-49686308D01*
X190537822Y-50147148D01*
X190537822Y-50147148D01*
G37*
X190537822Y-50147148D02*
X190396795Y-50141420D01*
X190255769Y-50135692D01*
X190246000Y-49911000D01*
X190236230Y-49686308D01*
X190021307Y-49686308D01*
X190010283Y-50147148D01*
X189869257Y-50141420D01*
X189728230Y-50135692D01*
X189708692Y-49686308D01*
X189493769Y-49686308D01*
X189482745Y-50147148D01*
X189341719Y-50141420D01*
X189200692Y-50135692D01*
X189181154Y-49686308D01*
X188966230Y-49686308D01*
X188960719Y-49916728D01*
X188955207Y-50147148D01*
X188814180Y-50141420D01*
X188673154Y-50135692D01*
X188663384Y-49911000D01*
X188653615Y-49686308D01*
X188438692Y-49686308D01*
X188433187Y-49915884D01*
X188427683Y-50145461D01*
X188334091Y-50145461D01*
X188194839Y-50163638D01*
X188069743Y-50215068D01*
X187963453Y-50295102D01*
X187880618Y-50399092D01*
X187825888Y-50522387D01*
X187803910Y-50660340D01*
X187803692Y-50675860D01*
X187803692Y-50769452D01*
X187574115Y-50774957D01*
X187344538Y-50780461D01*
X187338527Y-50886074D01*
X187339295Y-50962302D01*
X187352521Y-51002942D01*
X187358066Y-51007890D01*
X187387266Y-51014580D01*
X187446216Y-51019986D01*
X187525592Y-51023455D01*
X187593654Y-51024393D01*
X187803692Y-51024692D01*
X187803692Y-51296991D01*
X187574115Y-51302495D01*
X187344538Y-51308000D01*
X187338527Y-51413612D01*
X187339295Y-51489840D01*
X187352521Y-51530480D01*
X187358066Y-51535428D01*
X187387266Y-51542119D01*
X187446216Y-51547525D01*
X187525592Y-51550993D01*
X187593654Y-51551931D01*
X187803692Y-51552231D01*
X187803692Y-51824529D01*
X187574115Y-51830034D01*
X187344538Y-51835538D01*
X187338754Y-51945370D01*
X187337134Y-51997586D01*
X187342566Y-52034070D01*
X187360843Y-52057655D01*
X187397757Y-52071172D01*
X187459103Y-52077452D01*
X187550673Y-52079327D01*
X187613192Y-52079502D01*
X187803692Y-52079769D01*
X187803692Y-52352067D01*
X187344538Y-52363077D01*
X187338754Y-52472909D01*
X187337134Y-52525124D01*
X187342566Y-52561609D01*
X187360843Y-52585194D01*
X187397757Y-52598710D01*
X187459103Y-52604990D01*
X187550673Y-52606865D01*
X187613192Y-52607041D01*
X187803692Y-52607308D01*
X187803692Y-52879606D01*
X187574115Y-52885111D01*
X187344538Y-52890615D01*
X187338754Y-53000447D01*
X187337134Y-53052663D01*
X187342566Y-53089147D01*
X187360843Y-53112732D01*
X187397757Y-53126249D01*
X187459103Y-53132529D01*
X187550673Y-53134404D01*
X187613192Y-53134579D01*
X187803692Y-53134846D01*
X187803883Y-53237423D01*
X187822457Y-53371358D01*
X187874843Y-53492062D01*
X187956813Y-53595249D01*
X188064139Y-53676631D01*
X188192591Y-53731919D01*
X188314361Y-53755116D01*
X188428923Y-53765504D01*
X188428923Y-53975321D01*
X188430350Y-54080354D01*
X188436819Y-54152196D01*
X188451609Y-54196694D01*
X188477998Y-54219695D01*
X188519265Y-54227046D01*
X188569133Y-54225309D01*
X188653615Y-54219231D01*
X188663384Y-53994538D01*
X188673154Y-53769846D01*
X188814807Y-53764105D01*
X188956461Y-53758365D01*
X188956461Y-53971752D01*
X188957835Y-54077613D01*
X188964099Y-54150251D01*
X188978470Y-54195480D01*
X189004165Y-54219118D01*
X189044400Y-54226982D01*
X189096671Y-54225309D01*
X189181154Y-54219231D01*
X189186658Y-53989654D01*
X189192163Y-53760077D01*
X189484000Y-53760077D01*
X189484000Y-53972608D01*
X189485386Y-54078271D01*
X189491698Y-54150718D01*
X189506168Y-54195773D01*
X189532027Y-54219258D01*
X189572506Y-54226999D01*
X189624210Y-54225309D01*
X189708692Y-54219231D01*
X189714197Y-53989654D01*
X189719701Y-53760077D01*
X190011538Y-53760077D01*
X190011538Y-53972608D01*
X190012924Y-54078271D01*
X190019237Y-54150718D01*
X190033707Y-54195773D01*
X190059566Y-54219258D01*
X190100045Y-54226999D01*
X190151748Y-54225309D01*
X190236230Y-54219231D01*
X190247240Y-53760077D01*
X190539077Y-53760077D01*
X190539077Y-53971092D01*
X190541445Y-54083985D01*
X190548444Y-54161558D01*
X190559912Y-54202199D01*
X190562523Y-54205554D01*
X190594845Y-54219382D01*
X190647761Y-54227378D01*
X190704549Y-54228661D01*
X190748487Y-54222351D01*
X190760513Y-54215974D01*
X190765738Y-54192280D01*
X190769964Y-54137964D01*
X190772715Y-54061479D01*
X190773538Y-53984338D01*
X190773538Y-53765728D01*
X190899556Y-53753960D01*
X191050495Y-53722978D01*
X191177672Y-53661403D01*
X191279487Y-53570827D01*
X191354337Y-53452842D01*
X191400624Y-53309039D01*
X191410665Y-53245648D01*
X191423688Y-53134846D01*
X191617667Y-53134846D01*
X191725642Y-53133173D01*
X191800517Y-53126348D01*
X191848192Y-53111662D01*
X191874569Y-53086404D01*
X191885548Y-53047867D01*
X191887230Y-53011066D01*
X191882031Y-52953692D01*
X191869043Y-52911679D01*
X191863784Y-52904292D01*
X191830186Y-52892012D01*
X191759356Y-52884170D01*
X191652907Y-52880929D01*
X191629323Y-52880846D01*
X191418307Y-52880846D01*
X191418307Y-52607308D01*
X191614977Y-52607308D01*
X191723554Y-52605674D01*
X191799004Y-52598990D01*
X191847204Y-52584585D01*
X191874032Y-52559787D01*
X191885364Y-52521923D01*
X191887230Y-52483528D01*
X191882031Y-52426153D01*
X191869043Y-52384140D01*
X191863784Y-52376754D01*
X191830186Y-52364473D01*
X191759356Y-52356632D01*
X191652907Y-52353390D01*
X191629323Y-52353308D01*
X191418307Y-52353308D01*
X191418307Y-52079769D01*
X191614977Y-52079769D01*
X191723554Y-52078135D01*
X191799004Y-52071452D01*
X191847204Y-52057047D01*
X191874032Y-52032249D01*
X191885364Y-51994385D01*
X191887231Y-51955989D01*
X191882031Y-51898615D01*
X191869043Y-51856602D01*
X191863784Y-51849215D01*
X191830186Y-51836935D01*
X191759356Y-51829093D01*
X191652907Y-51825852D01*
X191629323Y-51825769D01*
X191418307Y-51825769D01*
X191418307Y-51575884D01*
X190633392Y-51575884D01*
X190633019Y-51714634D01*
X190630917Y-51823723D01*
X190626920Y-51907847D01*
X190620857Y-51971699D01*
X190612561Y-52019977D01*
X190609636Y-52032031D01*
X190549929Y-52188320D01*
X190459237Y-52321738D01*
X190339137Y-52431020D01*
X190191207Y-52514899D01*
X190017022Y-52572108D01*
X189913133Y-52591391D01*
X189757538Y-52613395D01*
X189757538Y-52811598D01*
X189754850Y-52923980D01*
X189746803Y-52998171D01*
X189733426Y-53033910D01*
X189733282Y-53034056D01*
X189696003Y-53048695D01*
X189626675Y-53053565D01*
X189591628Y-53052617D01*
X189474230Y-53046923D01*
X189468706Y-52827115D01*
X189465845Y-52731752D01*
X189462076Y-52668792D01*
X189456040Y-52631567D01*
X189446379Y-52613406D01*
X189431732Y-52607638D01*
X189423921Y-52607308D01*
X189358624Y-52600952D01*
X189270687Y-52584213D01*
X189174000Y-52560581D01*
X189082455Y-52533546D01*
X189009942Y-52506598D01*
X188994847Y-52499496D01*
X188890363Y-52431434D01*
X188789416Y-52339216D01*
X188705975Y-52236346D01*
X188681213Y-52196288D01*
X188651095Y-52139459D01*
X188627260Y-52085320D01*
X188608984Y-52028396D01*
X188595543Y-51963211D01*
X188586212Y-51884288D01*
X188580267Y-51786151D01*
X188576985Y-51663325D01*
X188575640Y-51510334D01*
X188575461Y-51396763D01*
X188575461Y-50879834D01*
X188643846Y-50865735D01*
X188713536Y-50859921D01*
X188780615Y-50865738D01*
X188849000Y-50879841D01*
X188860437Y-51396767D01*
X188865084Y-51566910D01*
X188870889Y-51713747D01*
X188877634Y-51833597D01*
X188885101Y-51922781D01*
X188893071Y-51977620D01*
X188895411Y-51986468D01*
X188952037Y-52100774D01*
X189039517Y-52199523D01*
X189151007Y-52277443D01*
X189279662Y-52329262D01*
X189361647Y-52345558D01*
X189463987Y-52358279D01*
X189469109Y-51619013D01*
X189474230Y-50879747D01*
X189542615Y-50865691D01*
X189612302Y-50859917D01*
X189679384Y-50865764D01*
X189747769Y-50879894D01*
X189752891Y-51618784D01*
X189758012Y-52357673D01*
X189850583Y-52344307D01*
X189997700Y-52306336D01*
X190124084Y-52239480D01*
X190225370Y-52146734D01*
X190292832Y-52040692D01*
X190305161Y-52011746D01*
X190314933Y-51980358D01*
X190322559Y-51941464D01*
X190328451Y-51890000D01*
X190333023Y-51820902D01*
X190336687Y-51729105D01*
X190339854Y-51609547D01*
X190342938Y-51457163D01*
X190343692Y-51416235D01*
X190353461Y-50879702D01*
X190421846Y-50865668D01*
X190491535Y-50859909D01*
X190558615Y-50865761D01*
X190627000Y-50879886D01*
X190632206Y-51402777D01*
X190633392Y-51575884D01*
X191418307Y-51575884D01*
X191418307Y-51552231D01*
X191614977Y-51552231D01*
X191723554Y-51550597D01*
X191799004Y-51543913D01*
X191847204Y-51529509D01*
X191874032Y-51504710D01*
X191885364Y-51466846D01*
X191887230Y-51428451D01*
X191882031Y-51371076D01*
X191869043Y-51329063D01*
X191863784Y-51321677D01*
X191830186Y-51309396D01*
X191759356Y-51301555D01*
X191652907Y-51298313D01*
X191629323Y-51298231D01*
X191418307Y-51298231D01*
X191418307Y-51024692D01*
X191614977Y-51024692D01*
X191723554Y-51023058D01*
X191799004Y-51016375D01*
X191847204Y-51001970D01*
X191874032Y-50977172D01*
X191885364Y-50939308D01*
X191887230Y-50900912D01*
X191882031Y-50843538D01*
X191869043Y-50801525D01*
X191863784Y-50794138D01*
X191830198Y-50781833D01*
X191759595Y-50773980D01*
X191653805Y-50770764D01*
X191632106Y-50770692D01*
X191423874Y-50770692D01*
X191411634Y-50653581D01*
X191391535Y-50535152D01*
X191355217Y-50439713D01*
X191296355Y-50352452D01*
X191270116Y-50322050D01*
X191173357Y-50235572D01*
X191063694Y-50179932D01*
X190931769Y-50150591D01*
X190912247Y-50148447D01*
X190783307Y-50135692D01*
X190763769Y-49686308D01*
X190548846Y-49686308D01*
X190537822Y-50147148D01*
G04 #@! TO.C,R1*
D11*
X201021904Y-59302666D02*
X200640952Y-59036000D01*
X201021904Y-58845523D02*
X200221904Y-58845523D01*
X200221904Y-59150285D01*
X200260000Y-59226476D01*
X200298095Y-59264571D01*
X200374285Y-59302666D01*
X200488571Y-59302666D01*
X200564761Y-59264571D01*
X200602857Y-59226476D01*
X200640952Y-59150285D01*
X200640952Y-58845523D01*
X201021904Y-60064571D02*
X201021904Y-59607428D01*
X201021904Y-59836000D02*
X200221904Y-59836000D01*
X200336190Y-59759809D01*
X200412380Y-59683619D01*
X200450476Y-59607428D01*
G04 #@! TO.C,R2*
X215245904Y-59302666D02*
X214864952Y-59036000D01*
X215245904Y-58845523D02*
X214445904Y-58845523D01*
X214445904Y-59150285D01*
X214484000Y-59226476D01*
X214522095Y-59264571D01*
X214598285Y-59302666D01*
X214712571Y-59302666D01*
X214788761Y-59264571D01*
X214826857Y-59226476D01*
X214864952Y-59150285D01*
X214864952Y-58845523D01*
X214522095Y-59607428D02*
X214484000Y-59645523D01*
X214445904Y-59721714D01*
X214445904Y-59912190D01*
X214484000Y-59988380D01*
X214522095Y-60026476D01*
X214598285Y-60064571D01*
X214674476Y-60064571D01*
X214788761Y-60026476D01*
X215245904Y-59569333D01*
X215245904Y-60064571D01*
G04 #@! TO.C,TRRS1*
X212224380Y-52930952D02*
X211224380Y-52930952D01*
X211224380Y-53311904D01*
X211272000Y-53407142D01*
X211319619Y-53454761D01*
X211414857Y-53502380D01*
X211557714Y-53502380D01*
X211652952Y-53454761D01*
X211700571Y-53407142D01*
X211748190Y-53311904D01*
X211748190Y-52930952D01*
X211224380Y-54216666D02*
X211938666Y-54216666D01*
X212081523Y-54169047D01*
X212176761Y-54073809D01*
X212224380Y-53930952D01*
X212224380Y-53835714D01*
X211843428Y-54692857D02*
X211843428Y-55454761D01*
X211224380Y-55835714D02*
X211224380Y-56454761D01*
X211605333Y-56121428D01*
X211605333Y-56264285D01*
X211652952Y-56359523D01*
X211700571Y-56407142D01*
X211795809Y-56454761D01*
X212033904Y-56454761D01*
X212129142Y-56407142D01*
X212176761Y-56359523D01*
X212224380Y-56264285D01*
X212224380Y-55978571D01*
X212176761Y-55883333D01*
X212129142Y-55835714D01*
X211319619Y-56835714D02*
X211272000Y-56883333D01*
X211224380Y-56978571D01*
X211224380Y-57216666D01*
X211272000Y-57311904D01*
X211319619Y-57359523D01*
X211414857Y-57407142D01*
X211510095Y-57407142D01*
X211652952Y-57359523D01*
X212224380Y-56788095D01*
X212224380Y-57407142D01*
X211224380Y-58026190D02*
X211224380Y-58121428D01*
X211272000Y-58216666D01*
X211319619Y-58264285D01*
X211414857Y-58311904D01*
X211605333Y-58359523D01*
X211843428Y-58359523D01*
X212033904Y-58311904D01*
X212129142Y-58264285D01*
X212176761Y-58216666D01*
X212224380Y-58121428D01*
X212224380Y-58026190D01*
X212176761Y-57930952D01*
X212129142Y-57883333D01*
X212033904Y-57835714D01*
X211843428Y-57788095D01*
X211605333Y-57788095D01*
X211414857Y-57835714D01*
X211319619Y-57883333D01*
X211272000Y-57930952D01*
X211224380Y-58026190D01*
X211938666Y-58740476D02*
X211938666Y-59216666D01*
X212224380Y-58645238D02*
X211224380Y-58978571D01*
X212224380Y-59311904D01*
G04 #@! TO.C,U1*
X146259476Y-54971904D02*
X146259476Y-54171904D01*
X146069000Y-54171904D01*
X145954714Y-54210000D01*
X145878523Y-54286190D01*
X145840428Y-54362380D01*
X145802333Y-54514761D01*
X145802333Y-54629047D01*
X145840428Y-54781428D01*
X145878523Y-54857619D01*
X145954714Y-54933809D01*
X146069000Y-54971904D01*
X146259476Y-54971904D01*
X145497571Y-54248095D02*
X145459476Y-54210000D01*
X145383285Y-54171904D01*
X145192809Y-54171904D01*
X145116619Y-54210000D01*
X145078523Y-54248095D01*
X145040428Y-54324285D01*
X145040428Y-54400476D01*
X145078523Y-54514761D01*
X145535666Y-54971904D01*
X145040428Y-54971904D01*
X146259476Y-65131904D02*
X146259476Y-64331904D01*
X146069000Y-64331904D01*
X145954714Y-64370000D01*
X145878523Y-64446190D01*
X145840428Y-64522380D01*
X145802333Y-64674761D01*
X145802333Y-64789047D01*
X145840428Y-64941428D01*
X145878523Y-65017619D01*
X145954714Y-65093809D01*
X146069000Y-65131904D01*
X146259476Y-65131904D01*
X145307095Y-64331904D02*
X145230904Y-64331904D01*
X145154714Y-64370000D01*
X145116619Y-64408095D01*
X145078523Y-64484285D01*
X145040428Y-64636666D01*
X145040428Y-64827142D01*
X145078523Y-64979523D01*
X145116619Y-65055714D01*
X145154714Y-65093809D01*
X145230904Y-65131904D01*
X145307095Y-65131904D01*
X145383285Y-65093809D01*
X145421380Y-65055714D01*
X145459476Y-64979523D01*
X145497571Y-64827142D01*
X145497571Y-64636666D01*
X145459476Y-64484285D01*
X145421380Y-64408095D01*
X145383285Y-64370000D01*
X145307095Y-64331904D01*
X146259476Y-62591904D02*
X146259476Y-61791904D01*
X146069000Y-61791904D01*
X145954714Y-61830000D01*
X145878523Y-61906190D01*
X145840428Y-61982380D01*
X145802333Y-62134761D01*
X145802333Y-62249047D01*
X145840428Y-62401428D01*
X145878523Y-62477619D01*
X145954714Y-62553809D01*
X146069000Y-62591904D01*
X146259476Y-62591904D01*
X145040428Y-62591904D02*
X145497571Y-62591904D01*
X145269000Y-62591904D02*
X145269000Y-61791904D01*
X145345190Y-61906190D01*
X145421380Y-61982380D01*
X145497571Y-62020476D01*
X146278523Y-59290000D02*
X146354714Y-59251904D01*
X146469000Y-59251904D01*
X146583285Y-59290000D01*
X146659476Y-59366190D01*
X146697571Y-59442380D01*
X146735666Y-59594761D01*
X146735666Y-59709047D01*
X146697571Y-59861428D01*
X146659476Y-59937619D01*
X146583285Y-60013809D01*
X146469000Y-60051904D01*
X146392809Y-60051904D01*
X146278523Y-60013809D01*
X146240428Y-59975714D01*
X146240428Y-59709047D01*
X146392809Y-59709047D01*
X145897571Y-60051904D02*
X145897571Y-59251904D01*
X145440428Y-60051904D01*
X145440428Y-59251904D01*
X145059476Y-60051904D02*
X145059476Y-59251904D01*
X144869000Y-59251904D01*
X144754714Y-59290000D01*
X144678523Y-59366190D01*
X144640428Y-59442380D01*
X144602333Y-59594761D01*
X144602333Y-59709047D01*
X144640428Y-59861428D01*
X144678523Y-59937619D01*
X144754714Y-60013809D01*
X144869000Y-60051904D01*
X145059476Y-60051904D01*
X146278523Y-56750000D02*
X146354714Y-56711904D01*
X146469000Y-56711904D01*
X146583285Y-56750000D01*
X146659476Y-56826190D01*
X146697571Y-56902380D01*
X146735666Y-57054761D01*
X146735666Y-57169047D01*
X146697571Y-57321428D01*
X146659476Y-57397619D01*
X146583285Y-57473809D01*
X146469000Y-57511904D01*
X146392809Y-57511904D01*
X146278523Y-57473809D01*
X146240428Y-57435714D01*
X146240428Y-57169047D01*
X146392809Y-57169047D01*
X145897571Y-57511904D02*
X145897571Y-56711904D01*
X145440428Y-57511904D01*
X145440428Y-56711904D01*
X145059476Y-57511904D02*
X145059476Y-56711904D01*
X144869000Y-56711904D01*
X144754714Y-56750000D01*
X144678523Y-56826190D01*
X144640428Y-56902380D01*
X144602333Y-57054761D01*
X144602333Y-57169047D01*
X144640428Y-57321428D01*
X144678523Y-57397619D01*
X144754714Y-57473809D01*
X144869000Y-57511904D01*
X145059476Y-57511904D01*
X146259476Y-67671904D02*
X146259476Y-66871904D01*
X146069000Y-66871904D01*
X145954714Y-66910000D01*
X145878523Y-66986190D01*
X145840428Y-67062380D01*
X145802333Y-67214761D01*
X145802333Y-67329047D01*
X145840428Y-67481428D01*
X145878523Y-67557619D01*
X145954714Y-67633809D01*
X146069000Y-67671904D01*
X146259476Y-67671904D01*
X145116619Y-67138571D02*
X145116619Y-67671904D01*
X145307095Y-66833809D02*
X145497571Y-67405238D01*
X145002333Y-67405238D01*
X145802333Y-70135714D02*
X145840428Y-70173809D01*
X145954714Y-70211904D01*
X146030904Y-70211904D01*
X146145190Y-70173809D01*
X146221380Y-70097619D01*
X146259476Y-70021428D01*
X146297571Y-69869047D01*
X146297571Y-69754761D01*
X146259476Y-69602380D01*
X146221380Y-69526190D01*
X146145190Y-69450000D01*
X146030904Y-69411904D01*
X145954714Y-69411904D01*
X145840428Y-69450000D01*
X145802333Y-69488095D01*
X145116619Y-69411904D02*
X145269000Y-69411904D01*
X145345190Y-69450000D01*
X145383285Y-69488095D01*
X145459476Y-69602380D01*
X145497571Y-69754761D01*
X145497571Y-70059523D01*
X145459476Y-70135714D01*
X145421380Y-70173809D01*
X145345190Y-70211904D01*
X145192809Y-70211904D01*
X145116619Y-70173809D01*
X145078523Y-70135714D01*
X145040428Y-70059523D01*
X145040428Y-69869047D01*
X145078523Y-69792857D01*
X145116619Y-69754761D01*
X145192809Y-69716666D01*
X145345190Y-69716666D01*
X145421380Y-69754761D01*
X145459476Y-69792857D01*
X145497571Y-69869047D01*
X146259476Y-72751904D02*
X146259476Y-71951904D01*
X146069000Y-71951904D01*
X145954714Y-71990000D01*
X145878523Y-72066190D01*
X145840428Y-72142380D01*
X145802333Y-72294761D01*
X145802333Y-72409047D01*
X145840428Y-72561428D01*
X145878523Y-72637619D01*
X145954714Y-72713809D01*
X146069000Y-72751904D01*
X146259476Y-72751904D01*
X145535666Y-71951904D02*
X145002333Y-71951904D01*
X145345190Y-72751904D01*
X146221380Y-74872857D02*
X145954714Y-74872857D01*
X145840428Y-75291904D02*
X146221380Y-75291904D01*
X146221380Y-74491904D01*
X145840428Y-74491904D01*
X145154714Y-74491904D02*
X145307095Y-74491904D01*
X145383285Y-74530000D01*
X145421380Y-74568095D01*
X145497571Y-74682380D01*
X145535666Y-74834761D01*
X145535666Y-75139523D01*
X145497571Y-75215714D01*
X145459476Y-75253809D01*
X145383285Y-75291904D01*
X145230904Y-75291904D01*
X145154714Y-75253809D01*
X145116619Y-75215714D01*
X145078523Y-75139523D01*
X145078523Y-74949047D01*
X145116619Y-74872857D01*
X145154714Y-74834761D01*
X145230904Y-74796666D01*
X145383285Y-74796666D01*
X145459476Y-74834761D01*
X145497571Y-74872857D01*
X145535666Y-74949047D01*
X145992809Y-77412857D02*
X145878523Y-77450952D01*
X145840428Y-77489047D01*
X145802333Y-77565238D01*
X145802333Y-77679523D01*
X145840428Y-77755714D01*
X145878523Y-77793809D01*
X145954714Y-77831904D01*
X146259476Y-77831904D01*
X146259476Y-77031904D01*
X145992809Y-77031904D01*
X145916619Y-77070000D01*
X145878523Y-77108095D01*
X145840428Y-77184285D01*
X145840428Y-77260476D01*
X145878523Y-77336666D01*
X145916619Y-77374761D01*
X145992809Y-77412857D01*
X146259476Y-77412857D01*
X145116619Y-77298571D02*
X145116619Y-77831904D01*
X145307095Y-76993809D02*
X145497571Y-77565238D01*
X145002333Y-77565238D01*
X145992809Y-79952857D02*
X145878523Y-79990952D01*
X145840428Y-80029047D01*
X145802333Y-80105238D01*
X145802333Y-80219523D01*
X145840428Y-80295714D01*
X145878523Y-80333809D01*
X145954714Y-80371904D01*
X146259476Y-80371904D01*
X146259476Y-79571904D01*
X145992809Y-79571904D01*
X145916619Y-79610000D01*
X145878523Y-79648095D01*
X145840428Y-79724285D01*
X145840428Y-79800476D01*
X145878523Y-79876666D01*
X145916619Y-79914761D01*
X145992809Y-79952857D01*
X146259476Y-79952857D01*
X145078523Y-79571904D02*
X145459476Y-79571904D01*
X145497571Y-79952857D01*
X145459476Y-79914761D01*
X145383285Y-79876666D01*
X145192809Y-79876666D01*
X145116619Y-79914761D01*
X145078523Y-79952857D01*
X145040428Y-80029047D01*
X145040428Y-80219523D01*
X145078523Y-80295714D01*
X145116619Y-80333809D01*
X145192809Y-80371904D01*
X145383285Y-80371904D01*
X145459476Y-80333809D01*
X145497571Y-80295714D01*
X156914809Y-79952857D02*
X156800523Y-79990952D01*
X156762428Y-80029047D01*
X156724333Y-80105238D01*
X156724333Y-80219523D01*
X156762428Y-80295714D01*
X156800523Y-80333809D01*
X156876714Y-80371904D01*
X157181476Y-80371904D01*
X157181476Y-79571904D01*
X156914809Y-79571904D01*
X156838619Y-79610000D01*
X156800523Y-79648095D01*
X156762428Y-79724285D01*
X156762428Y-79800476D01*
X156800523Y-79876666D01*
X156838619Y-79914761D01*
X156914809Y-79952857D01*
X157181476Y-79952857D01*
X156038619Y-79571904D02*
X156191000Y-79571904D01*
X156267190Y-79610000D01*
X156305285Y-79648095D01*
X156381476Y-79762380D01*
X156419571Y-79914761D01*
X156419571Y-80219523D01*
X156381476Y-80295714D01*
X156343380Y-80333809D01*
X156267190Y-80371904D01*
X156114809Y-80371904D01*
X156038619Y-80333809D01*
X156000523Y-80295714D01*
X155962428Y-80219523D01*
X155962428Y-80029047D01*
X156000523Y-79952857D01*
X156038619Y-79914761D01*
X156114809Y-79876666D01*
X156267190Y-79876666D01*
X156343380Y-79914761D01*
X156381476Y-79952857D01*
X156419571Y-80029047D01*
X156914809Y-74872857D02*
X156800523Y-74910952D01*
X156762428Y-74949047D01*
X156724333Y-75025238D01*
X156724333Y-75139523D01*
X156762428Y-75215714D01*
X156800523Y-75253809D01*
X156876714Y-75291904D01*
X157181476Y-75291904D01*
X157181476Y-74491904D01*
X156914809Y-74491904D01*
X156838619Y-74530000D01*
X156800523Y-74568095D01*
X156762428Y-74644285D01*
X156762428Y-74720476D01*
X156800523Y-74796666D01*
X156838619Y-74834761D01*
X156914809Y-74872857D01*
X157181476Y-74872857D01*
X156457666Y-74491904D02*
X155962428Y-74491904D01*
X156229095Y-74796666D01*
X156114809Y-74796666D01*
X156038619Y-74834761D01*
X156000523Y-74872857D01*
X155962428Y-74949047D01*
X155962428Y-75139523D01*
X156000523Y-75215714D01*
X156038619Y-75253809D01*
X156114809Y-75291904D01*
X156343380Y-75291904D01*
X156419571Y-75253809D01*
X156457666Y-75215714D01*
X156914809Y-72332857D02*
X156800523Y-72370952D01*
X156762428Y-72409047D01*
X156724333Y-72485238D01*
X156724333Y-72599523D01*
X156762428Y-72675714D01*
X156800523Y-72713809D01*
X156876714Y-72751904D01*
X157181476Y-72751904D01*
X157181476Y-71951904D01*
X156914809Y-71951904D01*
X156838619Y-71990000D01*
X156800523Y-72028095D01*
X156762428Y-72104285D01*
X156762428Y-72180476D01*
X156800523Y-72256666D01*
X156838619Y-72294761D01*
X156914809Y-72332857D01*
X157181476Y-72332857D01*
X155962428Y-72751904D02*
X156419571Y-72751904D01*
X156191000Y-72751904D02*
X156191000Y-71951904D01*
X156267190Y-72066190D01*
X156343380Y-72142380D01*
X156419571Y-72180476D01*
X156857666Y-62172857D02*
X157124333Y-62172857D01*
X157124333Y-62591904D02*
X157124333Y-61791904D01*
X156743380Y-61791904D01*
X156095761Y-62058571D02*
X156095761Y-62591904D01*
X156286238Y-61753809D02*
X156476714Y-62325238D01*
X155981476Y-62325238D01*
X157657666Y-59251904D02*
X157391000Y-60051904D01*
X157124333Y-59251904D01*
X156400523Y-59975714D02*
X156438619Y-60013809D01*
X156552904Y-60051904D01*
X156629095Y-60051904D01*
X156743380Y-60013809D01*
X156819571Y-59937619D01*
X156857666Y-59861428D01*
X156895761Y-59709047D01*
X156895761Y-59594761D01*
X156857666Y-59442380D01*
X156819571Y-59366190D01*
X156743380Y-59290000D01*
X156629095Y-59251904D01*
X156552904Y-59251904D01*
X156438619Y-59290000D01*
X156400523Y-59328095D01*
X155600523Y-59975714D02*
X155638619Y-60013809D01*
X155752904Y-60051904D01*
X155829095Y-60051904D01*
X155943380Y-60013809D01*
X156019571Y-59937619D01*
X156057666Y-59861428D01*
X156095761Y-59709047D01*
X156095761Y-59594761D01*
X156057666Y-59442380D01*
X156019571Y-59366190D01*
X155943380Y-59290000D01*
X155829095Y-59251904D01*
X155752904Y-59251904D01*
X155638619Y-59290000D01*
X155600523Y-59328095D01*
X157029095Y-57511904D02*
X157295761Y-57130952D01*
X157486238Y-57511904D02*
X157486238Y-56711904D01*
X157181476Y-56711904D01*
X157105285Y-56750000D01*
X157067190Y-56788095D01*
X157029095Y-56864285D01*
X157029095Y-56978571D01*
X157067190Y-57054761D01*
X157105285Y-57092857D01*
X157181476Y-57130952D01*
X157486238Y-57130952D01*
X156724333Y-57473809D02*
X156610047Y-57511904D01*
X156419571Y-57511904D01*
X156343380Y-57473809D01*
X156305285Y-57435714D01*
X156267190Y-57359523D01*
X156267190Y-57283333D01*
X156305285Y-57207142D01*
X156343380Y-57169047D01*
X156419571Y-57130952D01*
X156571952Y-57092857D01*
X156648142Y-57054761D01*
X156686238Y-57016666D01*
X156724333Y-56940476D01*
X156724333Y-56864285D01*
X156686238Y-56788095D01*
X156648142Y-56750000D01*
X156571952Y-56711904D01*
X156381476Y-56711904D01*
X156267190Y-56750000D01*
X156038619Y-56711904D02*
X155581476Y-56711904D01*
X155810047Y-57511904D02*
X155810047Y-56711904D01*
X157200523Y-54210000D02*
X157276714Y-54171904D01*
X157391000Y-54171904D01*
X157505285Y-54210000D01*
X157581476Y-54286190D01*
X157619571Y-54362380D01*
X157657666Y-54514761D01*
X157657666Y-54629047D01*
X157619571Y-54781428D01*
X157581476Y-54857619D01*
X157505285Y-54933809D01*
X157391000Y-54971904D01*
X157314809Y-54971904D01*
X157200523Y-54933809D01*
X157162428Y-54895714D01*
X157162428Y-54629047D01*
X157314809Y-54629047D01*
X156819571Y-54971904D02*
X156819571Y-54171904D01*
X156362428Y-54971904D01*
X156362428Y-54171904D01*
X155981476Y-54971904D02*
X155981476Y-54171904D01*
X155791000Y-54171904D01*
X155676714Y-54210000D01*
X155600523Y-54286190D01*
X155562428Y-54362380D01*
X155524333Y-54514761D01*
X155524333Y-54629047D01*
X155562428Y-54781428D01*
X155600523Y-54857619D01*
X155676714Y-54933809D01*
X155791000Y-54971904D01*
X155981476Y-54971904D01*
X157143380Y-52431904D02*
X157410047Y-52050952D01*
X157600523Y-52431904D02*
X157600523Y-51631904D01*
X157295761Y-51631904D01*
X157219571Y-51670000D01*
X157181476Y-51708095D01*
X157143380Y-51784285D01*
X157143380Y-51898571D01*
X157181476Y-51974761D01*
X157219571Y-52012857D01*
X157295761Y-52050952D01*
X157600523Y-52050952D01*
X156838619Y-52203333D02*
X156457666Y-52203333D01*
X156914809Y-52431904D02*
X156648142Y-51631904D01*
X156381476Y-52431904D01*
X156191000Y-51631904D02*
X156000523Y-52431904D01*
X155848142Y-51860476D01*
X155695761Y-52431904D01*
X155505285Y-51631904D01*
X156857666Y-64712857D02*
X157124333Y-64712857D01*
X157124333Y-65131904D02*
X157124333Y-64331904D01*
X156743380Y-64331904D01*
X156057666Y-64331904D02*
X156438619Y-64331904D01*
X156476714Y-64712857D01*
X156438619Y-64674761D01*
X156362428Y-64636666D01*
X156171952Y-64636666D01*
X156095761Y-64674761D01*
X156057666Y-64712857D01*
X156019571Y-64789047D01*
X156019571Y-64979523D01*
X156057666Y-65055714D01*
X156095761Y-65093809D01*
X156171952Y-65131904D01*
X156362428Y-65131904D01*
X156438619Y-65093809D01*
X156476714Y-65055714D01*
X156857666Y-67252857D02*
X157124333Y-67252857D01*
X157124333Y-67671904D02*
X157124333Y-66871904D01*
X156743380Y-66871904D01*
X156095761Y-66871904D02*
X156248142Y-66871904D01*
X156324333Y-66910000D01*
X156362428Y-66948095D01*
X156438619Y-67062380D01*
X156476714Y-67214761D01*
X156476714Y-67519523D01*
X156438619Y-67595714D01*
X156400523Y-67633809D01*
X156324333Y-67671904D01*
X156171952Y-67671904D01*
X156095761Y-67633809D01*
X156057666Y-67595714D01*
X156019571Y-67519523D01*
X156019571Y-67329047D01*
X156057666Y-67252857D01*
X156095761Y-67214761D01*
X156171952Y-67176666D01*
X156324333Y-67176666D01*
X156400523Y-67214761D01*
X156438619Y-67252857D01*
X156476714Y-67329047D01*
X156857666Y-69792857D02*
X157124333Y-69792857D01*
X157124333Y-70211904D02*
X157124333Y-69411904D01*
X156743380Y-69411904D01*
X156514809Y-69411904D02*
X155981476Y-69411904D01*
X156324333Y-70211904D01*
X156914809Y-77412857D02*
X156800523Y-77450952D01*
X156762428Y-77489047D01*
X156724333Y-77565238D01*
X156724333Y-77679523D01*
X156762428Y-77755714D01*
X156800523Y-77793809D01*
X156876714Y-77831904D01*
X157181476Y-77831904D01*
X157181476Y-77031904D01*
X156914809Y-77031904D01*
X156838619Y-77070000D01*
X156800523Y-77108095D01*
X156762428Y-77184285D01*
X156762428Y-77260476D01*
X156800523Y-77336666D01*
X156838619Y-77374761D01*
X156914809Y-77412857D01*
X157181476Y-77412857D01*
X156419571Y-77108095D02*
X156381476Y-77070000D01*
X156305285Y-77031904D01*
X156114809Y-77031904D01*
X156038619Y-77070000D01*
X156000523Y-77108095D01*
X155962428Y-77184285D01*
X155962428Y-77260476D01*
X156000523Y-77374761D01*
X156457666Y-77831904D01*
X155962428Y-77831904D01*
X147294476Y-51631904D02*
X146837333Y-51631904D01*
X147065904Y-52431904D02*
X147065904Y-51631904D01*
X146646857Y-51631904D02*
X146113523Y-52431904D01*
X146113523Y-51631904D02*
X146646857Y-52431904D01*
X145656380Y-51631904D02*
X145580190Y-51631904D01*
X145504000Y-51670000D01*
X145465904Y-51708095D01*
X145427809Y-51784285D01*
X145389714Y-51936666D01*
X145389714Y-52127142D01*
X145427809Y-52279523D01*
X145465904Y-52355714D01*
X145504000Y-52393809D01*
X145580190Y-52431904D01*
X145656380Y-52431904D01*
X145732571Y-52393809D01*
X145770666Y-52355714D01*
X145808761Y-52279523D01*
X145846857Y-52127142D01*
X145846857Y-51936666D01*
X145808761Y-51784285D01*
X145770666Y-51708095D01*
X145732571Y-51670000D01*
X145656380Y-51631904D01*
G04 #@! TD*
M02*
