M48
;GenerationSoftware,Autodesk,EAGLE,9.7.0*%
;CreationDate,2023-09-25T02:33:58Z*%
FMAT,2
ICI,OFF
METRIC,TZ,000.000
T11C0.381
T10C0.400
T9C0.650
T8C1.000
T7C1.100
T6C1.500
T5C1.700
T4C1.800
T3C2.700
T2C3.048
T1C3.988
%
G90
M71
T1
X28575Y-9525
X-28575Y-9525
X28575Y-28575
X9525Y-28575
X-9525Y-28575
X28555Y9525
X9505Y9525
X-9545Y9525
X-28575Y-28575
X-9525Y-9525
X9525Y-9525
X-28595Y9525
T2
X31115Y-23495
X-6985Y-4445
X24765Y-26035
X5715Y-26035
X12065Y-23495
X-13335Y-26035
X-6985Y-23495
X24745Y12065
X31095Y14605
X5695Y12065
X12045Y14605
X-13355Y12065
X-7005Y14605
X-32385Y-26035
X-26035Y-23495
X-26035Y-4445
X-32385Y-6985
X-13335Y-6985
X12065Y-4445
X5715Y-6985
X31115Y-4445
X24765Y-6985
X-32405Y12065
X-26055Y14605
T3
X28575Y-19050
X-28575Y-19050
X-28575Y0
X28575Y0
T4
X-34295Y30455
X-22895Y30455
T5
X-23595Y9525
X-33595Y9525
X-23575Y-9525
X33575Y-28575
X23575Y-28575
X33575Y-9525
X23575Y-9525
X14525Y-28575
X4525Y-28575
X-4525Y-28575
X14525Y-9525
X4525Y-9525
X-14525Y-28575
X33555Y9525
X-33575Y-9525
X-4525Y-9525
X-14525Y-9525
X23555Y9525
X14505Y9525
X4505Y9525
X-4545Y9525
X-33575Y-28575
X-23575Y-28575
X-14545Y9525
T6
X-24765Y-31115
X-5715Y-12065
X13335Y-31115
X-12035Y-14605
X-31085Y-33655
X-24785Y6985
X7015Y-14605
X7015Y-33655
X32385Y-31115
X-12055Y4445
X-5735Y6985
X13335Y-12065
X-24765Y-12065
X-31105Y4445
X6995Y4445
X13315Y6985
X26065Y-14605
X-31085Y-14605
X-5715Y-31115
X26045Y4445
X32365Y6985
X32385Y-12065
X-12035Y-33655
X26065Y-33655
T7
X23495Y25400
X26035Y25400
X31115Y25400
X28575Y25400
T8
X-26095Y37955
X-28595Y37955
X-31095Y37955
X-26095Y23455
X-31095Y23455
T9
X42000Y17420
X42000Y19960
X42000Y22500
X42000Y25040
X42000Y27580
X17420Y-42000
X19960Y-42000
X22500Y-42000
X25040Y-42000
X27580Y-42000
X-27580Y-42000
X-25040Y-42000
X-22500Y-42000
X-19960Y-42000
X-17420Y-42000
X41999Y-27580
X41999Y-25040
X41999Y-22500
X41999Y-19960
X41999Y-17420
X-41990Y-17420
X-41990Y-19960
X-41990Y-22500
X-41990Y-25040
X-41990Y-27580
X-42000Y27580
X-42000Y25040
X-42000Y22500
X-42000Y19960
X-42000Y17420
T10
X-15240Y35560
X-15748Y29210
X22260Y-38560
X38827Y-22606
X24819Y-38169
X-20066Y-38205
X27432Y-37338
X35052Y24892
X-21463Y22860
X21590Y17018
X28702Y5334
X36576Y28194
X35052Y28194
X17826Y-857
X17805Y405
X-18542Y-1524
X38421Y-20066
X-16513Y30734
X17806Y-2104
X36322Y8727
X41199Y14521
X40907Y2286
X40907Y-2286
X40945Y-14732
X26162Y38354
X14986Y38354
X15240Y28194
X38100Y28194
X-13208Y35560
T11
X12202Y26914
X10668Y26924
X-17526Y-37306
X-10799Y34147
X-17145Y35560
X-11631Y26797
X25965Y27715
X20447Y35306
X31242Y35560
X12192Y35306
X17526Y32766
X21463Y23622
X21463Y25400
X26035Y18796
X31496Y18796
X-12446Y22098
X-10922Y20828
X12192Y23876
X15240Y23876
X-10795Y38989
X-10795Y37465
X38214Y-17158
X-38100Y20066
X-38100Y30988
X-37338Y17526
X-38314Y-25186
X-34175Y38439
X-37590Y-27962
X-22501Y-38630
X-38862Y22486
X-38227Y-22479
X-36703Y-20828
X28448Y32766
M30