M48
; DRILL file {KiCad (5.1.5-0-10_14)} date 2021 February 04, Thursday 13:06:20
; FORMAT={-:-/ absolute / inch / decimal}
; #@! TF.CreationDate,2021-02-04T13:06:20+01:00
; #@! TF.GenerationSoftware,Kicad,Pcbnew,(5.1.5-0-10_14)
; #@! TF.FileFunction,NonPlated,1,2,NPTH
FMAT,2
INCH
T1C0.0472
T2C0.0669
T3C0.1181
T4C0.1575
%
G90
G05
T1
X3.6016Y-3.3662
X3.6016Y-3.4351
X3.8772Y-3.3662
X3.8772Y-3.4351
T2
X6.7882Y-4.122
X7.1882Y-4.122
X8.2843Y-3.7244
X8.6843Y-3.7244
X8.2843Y-2.9685
X8.6843Y-2.9685
X4.5441Y-4.2165
X4.9441Y-4.2165
X7.5362Y-2.2244
X7.9362Y-2.2244
X6.0402Y-1.772
X6.4402Y-1.772
X6.7882Y-4.8701
X7.1882Y-4.8701
X6.7882Y-2.6181
X7.1882Y-2.6181
X5.2921Y-3.3701
X5.6921Y-3.3701
X6.0402Y-4.7717
X6.4402Y-4.7717
X7.5362Y-4.4724
X7.9362Y-4.4724
X4.5441Y-1.9685
X4.9441Y-1.9685
X8.2843Y-2.2244
X8.6843Y-2.2244
X6.0402Y-3.2756
X6.4402Y-3.2756
X8.2862Y-4.4724
X8.6862Y-4.4724
X5.2921Y-4.874
X5.6921Y-4.874
X3.7071Y-5.0792
X3.9071Y-5.4256
X5.2921Y-4.122
X5.6921Y-4.122
X4.5441Y-3.4685
X4.9441Y-3.4685
X7.5362Y-2.9685
X7.9362Y-2.9685
X5.2921Y-2.622
X5.6921Y-2.622
X4.5441Y-2.7205
X4.9441Y-2.7205
X6.7882Y-1.8701
X7.1882Y-1.8701
X6.7882Y-3.3701
X7.1882Y-3.3701
X6.0402Y-4.0236
X6.4402Y-4.0236
X4.4458Y-5.1333
X4.814Y-4.977
X5.2921Y-1.8701
X5.6921Y-1.8701
X7.5362Y-3.7244
X7.9362Y-3.7244
X6.0402Y-2.5236
X6.4402Y-2.5236
T3
X6.8382Y-4.022
X6.8882Y-3.922
X7.0882Y-3.922
X7.1382Y-4.022
X8.3343Y-3.6244
X8.3843Y-3.5244
X8.5843Y-3.5244
X8.6343Y-3.6244
X8.3343Y-2.8685
X8.3843Y-2.7685
X8.5843Y-2.7685
X8.6343Y-2.8685
X4.5941Y-4.1165
X4.6441Y-4.0165
X4.8441Y-4.0165
X4.8941Y-4.1165
X7.5862Y-2.1244
X7.6362Y-2.0244
X7.8362Y-2.0244
X7.8862Y-2.1244
X6.0902Y-1.672
X6.1402Y-1.572
X6.3402Y-1.572
X6.3902Y-1.672
X6.8382Y-4.7701
X6.8882Y-4.6701
X7.0882Y-4.6701
X7.1382Y-4.7701
X6.8382Y-2.5181
X6.8882Y-2.4181
X7.0882Y-2.4181
X7.1382Y-2.5181
X5.3421Y-3.2701
X5.3921Y-3.1701
X5.5921Y-3.1701
X5.6421Y-3.2701
X6.0902Y-4.6717
X6.1402Y-4.5717
X6.3402Y-4.5717
X6.3902Y-4.6717
X7.5862Y-4.3724
X7.6362Y-4.2724
X7.8362Y-4.2724
X7.8862Y-4.3724
X4.5941Y-1.8685
X4.6441Y-1.7685
X4.8441Y-1.7685
X4.8941Y-1.8685
X8.3343Y-2.1244
X8.3843Y-2.0244
X8.5843Y-2.0244
X8.6343Y-2.1244
X6.0902Y-3.1756
X6.1402Y-3.0756
X6.3402Y-3.0756
X6.3902Y-3.1756
X8.3362Y-4.3724
X8.3862Y-4.2724
X8.5862Y-4.2724
X8.6362Y-4.3724
X5.3421Y-4.774
X5.3921Y-4.674
X5.5921Y-4.674
X5.6421Y-4.774
X3.8187Y-5.0725
X3.9303Y-5.0658
X3.9687Y-5.3323
X4.0303Y-5.239
X5.3421Y-4.022
X5.3921Y-3.922
X5.5921Y-3.922
X5.6421Y-4.022
X4.5941Y-3.3685
X4.6441Y-3.2685
X4.8441Y-3.2685
X4.8941Y-3.3685
X7.5862Y-2.8685
X7.6362Y-2.7685
X7.8362Y-2.7685
X7.8862Y-2.8685
X5.3421Y-2.522
X5.3921Y-2.422
X5.5921Y-2.422
X5.6421Y-2.522
X4.5941Y-2.6205
X4.6441Y-2.5205
X4.8441Y-2.5205
X4.8941Y-2.6205
X6.8382Y-1.7701
X6.8882Y-1.6701
X7.0882Y-1.6701
X7.1382Y-1.7701
X6.8382Y-3.2701
X6.8882Y-3.1701
X7.0882Y-3.1701
X7.1382Y-3.2701
X6.0902Y-3.9236
X6.1402Y-3.8236
X6.3402Y-3.8236
X6.3902Y-3.9236
X4.4528Y-5.0217
X4.4597Y-4.9101
X4.6438Y-4.8319
X4.7289Y-4.9045
X5.3421Y-1.7701
X5.3921Y-1.6701
X5.5921Y-1.6701
X5.6421Y-1.7701
X7.5862Y-3.6244
X7.6362Y-3.5244
X7.8362Y-3.5244
X7.8862Y-3.6244
X6.0902Y-2.4236
X6.1402Y-2.3236
X6.3402Y-2.3236
X6.3902Y-2.4236
T4
X4.7441Y-3.4685
X7.7362Y-2.9685
X5.4921Y-2.622
X4.7441Y-2.7205
X6.9882Y-1.8701
X6.9882Y-3.3701
X6.2402Y-4.0236
X4.6299Y-5.0551
X5.4921Y-1.8701
X7.7362Y-3.7244
X6.2402Y-2.5236
X6.9882Y-4.122
X8.4843Y-3.7244
X8.4843Y-2.9685
X4.7441Y-4.2165
X7.7362Y-2.2244
X6.2402Y-1.772
X6.9882Y-4.8701
X6.9882Y-2.6181
X5.4921Y-3.3701
X6.2402Y-4.7717
X7.7362Y-4.4724
X4.7441Y-1.9685
X8.4843Y-2.2244
X6.2402Y-3.2756
X8.4862Y-4.4724
X5.4921Y-4.874
X3.8071Y-5.2524
X5.4921Y-4.122
T0
M30
