M48
; DRILL file {KiCad (5.1.5-0-10_14)} date 2021 February 04, Thursday 13:06:20
; FORMAT={-:-/ absolute / inch / decimal}
; #@! TF.CreationDate,2021-02-04T13:06:20+01:00
; #@! TF.GenerationSoftware,Kicad,Pcbnew,(5.1.5-0-10_14)
; #@! TF.FileFunction,Plated,1,2,PTH
FMAT,2
INCH
T1C0.0118
T2C0.0157
T3C0.0320
T4C0.0394
T5C0.0430
T6C0.0512
T7C0.0591
T8C0.0866
T9C0.1614
%
G90
G05
T1
X3.7402Y-2.4827
X3.7453Y-2.1792
X3.7717Y-2.5791
X3.7886Y-2.1252
X3.7913Y-2.685
X3.811Y-4.8705
X3.8268Y-2.1264
X3.8316Y-2.4069
X3.8504Y-4.7248
X3.8661Y-2.461
X3.8949Y-2.5769
X3.9047Y-2.193
X3.9154Y-4.7898
X3.9234Y-3.0483
X3.9366Y-2.729
X3.9776Y-1.8072
X3.9795Y-1.6831
X3.9921Y-2.4217
X3.9933Y-2.195
X4.0012Y-2.5769
X4.0394Y-2.7244
X4.0433Y-2.3665
X4.0433Y-2.689
X4.0661Y-3.0217
X4.0858Y-2.195
X4.0878Y-2.4509
X4.0917Y-2.2973
X4.1024Y-2.1067
X4.1063Y-2.0161
X4.1417Y-5.4531
X4.1496Y-4.9177
X4.1673Y-4.6106
X4.1713Y-4.522
X4.187Y-5.0083
X4.2362Y-2.9807
X4.2441Y-4.9965
X4.2539Y-3.1913
X4.3091Y-4.4177
X4.4016Y-4.4197
X4.4213Y-2.5236
X4.4213Y-3.2677
X4.4252Y-1.7677
X4.4252Y-4.0157
X4.4291Y-3.0083
X4.4331Y-2.087
X4.4646Y-4.6913
X4.4685Y-4.526
X4.5138Y-2.089
X4.5602Y-2.7973
X4.565Y-4.7327
X4.687Y-2.8429
X4.7047Y-4.6913
X4.7165Y-4.4236
X4.7579Y-4.5457
X4.8622Y-4.7406
X4.8917Y-4.4236
X5.063Y-4.0157
X5.0669Y-2.5197
X5.0669Y-3.2677
X5.0728Y-4.6618
X5.0787Y-1.7681
X5.0787Y-4.5299
X5.1102Y-2.0299
X5.1575Y-3.1697
X5.1575Y-4.6736
X5.1614Y-1.6697
X5.1614Y-3.9374
X5.1654Y-2.4453
X5.1654Y-2.9531
X5.1988Y-2.026
X5.2638Y-2.7976
X5.8071Y-2.4252
X5.811Y-1.6732
X5.811Y-3.9252
X5.8189Y-2.7957
X5.8189Y-3.1732
X5.8228Y-4.6736
X5.8386Y-4.5634
X5.8524Y-1.9728
X5.8543Y-4.2819
X5.8661Y-4.4866
X5.9055Y-1.5713
X5.9055Y-2.3193
X5.9055Y-2.9315
X5.9055Y-3.0752
X5.9055Y-4.5713
X5.9094Y-3.8232
X5.9173Y-1.9709
X5.9665Y-4.2839
X5.9705Y-2.7957
X6.5472Y-4.4965
X6.5551Y-4.2701
X6.5709Y-1.5713
X6.5709Y-2.3232
X6.5709Y-3.0752
X6.5709Y-3.8193
X6.5748Y-4.5713
X6.622Y-4.4315
X6.6319Y-2.7937
X6.6319Y-4.3173
X6.6535Y-4.6697
X6.6575Y-4.589
X6.6693Y-1.6732
X6.6693Y-3.9252
X6.6732Y-2.4213
X6.6732Y-2.902
X6.6732Y-3.1732
X6.6831Y-1.9886
X6.7283Y-2.7937
X6.7598Y-1.9906
X7.2776Y-4.4059
X7.3071Y-2.4213
X7.3071Y-3.9252
X7.3189Y-3.1732
X7.3189Y-3.8035
X7.3228Y-1.6697
X7.3228Y-4.6697
X7.3445Y-4.4846
X7.3484Y-2.2858
X7.3484Y-2.9965
X7.3661Y-3.4098
X7.4016Y-2.024
X7.4016Y-2.7681
X7.4016Y-3.0752
X7.4016Y-3.524
X7.4016Y-4.272
X7.4154Y-2.2858
X7.4311Y-3.8035
X7.4488Y-4.6382
X7.4508Y-3.0024
X7.4587Y-3.4098
X8.0669Y-2.7681
X8.0669Y-3.524
X8.0709Y-2.024
X8.0709Y-4.272
X8.1043Y-3.2366
X8.1496Y-2.024
X8.1496Y-2.7681
X8.1496Y-3.0634
X8.1496Y-3.5201
X8.1535Y-4.272
X8.1752Y-2.3547
X8.1969Y-3.2346
X8.2618Y-2.3547
X8.7677Y-3.8409
X8.8189Y-2.024
X8.8189Y-2.7681
X8.8189Y-3.524
X8.8189Y-4.272
T2
X4.0236Y-1.9925
X4.0236Y-2.1028
X7.4213Y-4.0472
X7.5551Y-4.0472
X8.6575Y-4.0472
X8.7913Y-4.0472
X3.8976Y-1.9925
X3.8976Y-2.1028
X4.437Y-2.4055
X4.5709Y-2.4055
X8.6614Y-4.1732
X8.7953Y-4.1732
X7.0433Y-4.5398
X7.1772Y-4.5398
X6.685Y-2.189
X6.8189Y-2.189
X5.2598Y-2.311
X5.3937Y-2.311
X4.1339Y-3.898
X4.2677Y-3.898
X4.437Y-2.2835
X4.5709Y-2.2835
X4.437Y-3.9016
X4.5709Y-3.9016
X5.2205Y-3.6929
X5.3543Y-3.6929
X5.937Y-2.2244
X6.0709Y-2.2244
X4.2894Y-4.6389
X4.3563Y-4.7548
X5.2205Y-2.1929
X5.3543Y-2.1929
X5.2598Y-3.811
X5.3937Y-3.811
X6.685Y-2.311
X6.8189Y-2.311
X4.811Y-4.6457
X4.9449Y-4.6457
X7.4291Y-2.5512
X7.563Y-2.5512
X5.937Y-3.7205
X6.0709Y-3.7205
X7.4291Y-2.6654
X7.563Y-2.6654
X5.5591Y-4.5591
X5.6929Y-4.5591
X5.937Y-3.5984
X6.0709Y-3.5984
X6.685Y-3.811
X6.8189Y-3.811
X5.9331Y-2.0984
X6.0669Y-2.0984
X8.6693Y-2.6654
X8.8031Y-2.6654
X6.3268Y-4.4413
X6.4606Y-4.4413
X6.685Y-3.685
X6.8189Y-3.685
X8.6693Y-2.5433
X8.8031Y-2.5433
X7.4213Y-4.1732
X7.5551Y-4.1732
X4.437Y-3.7795
X4.5709Y-3.7795
T3
X3.7913Y-2.9295
X3.8913Y-2.9295
X3.9913Y-2.9295
X4.0913Y-2.9295
T4
X4.6614Y-3.0988
X4.7638Y-3.0988
X4.8622Y-3.0988
X3.6102Y-4.0945
X3.6102Y-4.1929
X3.6102Y-4.2913
X4.1811Y-4.0945
X4.1811Y-4.2913
T5
X3.628Y-1.6827
X3.628Y-1.8827
X3.628Y-2.0827
X3.628Y-2.2827
X3.628Y-2.4827
X3.628Y-2.6827
X3.646Y-1.7827
X3.646Y-1.9827
X3.646Y-2.1827
X3.646Y-2.3827
X3.646Y-2.5827
X3.646Y-2.7827
X4.228Y-1.7827
X4.228Y-1.9827
X4.228Y-2.1827
X4.228Y-2.3827
X4.228Y-2.5827
X4.228Y-2.7827
X4.246Y-1.6827
X4.246Y-1.8827
X4.246Y-2.0827
X4.246Y-2.2827
X4.246Y-2.4827
X4.246Y-2.6827
T6
X3.6331Y-2.9351
X3.6331Y-3.191
T8
X4.139Y-3.6746
X3.7453Y-3.6753
T9
X5.0906Y-3.839
X5.0906Y-2.3465
X8.1024Y-4.1146
X4.0866Y-4.7563
X8.1024Y-2.6067
T4
G00X3.6626Y-3.2835
M15
G01X3.6823Y-3.2835
M16
G05
G00X3.6626Y-3.5178
M15
G01X3.6823Y-3.5178
M16
G05
G00X3.7807Y-3.2835
M15
G01X3.8004Y-3.2835
M16
G05
G00X3.7807Y-3.5178
M15
G01X3.8004Y-3.5178
M16
G05
G00X3.9382Y-3.2835
M15
G01X3.9579Y-3.2835
M16
G05
G00X3.9382Y-3.5178
M15
G01X3.9579Y-3.5178
M16
G05
G00X3.9972Y-3.3524
M15
G01X4.0169Y-3.3524
M16
G05
G00X3.9972Y-3.4489
M15
G01X4.0169Y-3.4489
M16
G05
T7
G00X3.8799Y-3.9724
M15
G01X3.9311Y-3.9724
M16
G05
G00X3.8799Y-4.4134
M15
G01X3.9311Y-4.4134
M16
G05
T0
M30
