G04 EAGLE Gerber RS-274X export*
G75*
%MOMM*%
%FSLAX34Y34*%
%LPD*%
%INBottom Copper*%
%IPPOS*%
%AMOC8*
5,1,8,0,0,1.08239X$1,22.5*%
G01*
G04 Define Apertures*
%ADD10R,0.970200X0.920900*%
%ADD11R,0.920900X0.970200*%
%ADD12C,1.500000*%
%ADD13R,1.500000X1.500000*%
%ADD14C,2.700000*%
%ADD15R,1.650000X1.650000*%
%ADD16C,1.650000*%
%ADD17R,1.500000X0.900000*%
%ADD18C,0.150000*%
%ADD19R,0.798700X0.973900*%
%ADD20R,0.973900X0.798700*%
%ADD21C,0.132500*%
%ADD22C,2.250000*%
%ADD23R,2.550000X2.500000*%
%ADD24C,1.000000*%
%ADD25C,0.095250*%
%ADD26C,0.104775*%
%ADD27C,0.295000*%
%ADD28C,1.524000*%
%ADD29R,1.600000X1.800000*%
%ADD30C,0.600000*%
%ADD31C,0.203200*%
%ADD32C,0.581000*%
%ADD33C,0.508000*%
%ADD34C,0.457200*%
G36*
X-305332Y-432158D02*
X-305728Y-432238D01*
X-312172Y-432238D01*
X-312538Y-432170D01*
X-312879Y-431952D01*
X-313108Y-431618D01*
X-313188Y-431222D01*
X-313188Y-408442D01*
X-315392Y-406238D01*
X-380000Y-406238D01*
X-380159Y-406226D01*
X-387953Y-404991D01*
X-388255Y-404893D01*
X-395286Y-401310D01*
X-395544Y-401123D01*
X-401123Y-395544D01*
X-401310Y-395286D01*
X-404893Y-388255D01*
X-404991Y-387953D01*
X-406226Y-380159D01*
X-406238Y-380000D01*
X-406238Y-315392D01*
X-408442Y-313188D01*
X-431222Y-313188D01*
X-431588Y-313120D01*
X-431929Y-312902D01*
X-432158Y-312568D01*
X-432238Y-312172D01*
X-432238Y-305728D01*
X-432170Y-305362D01*
X-431952Y-305021D01*
X-431618Y-304792D01*
X-431222Y-304712D01*
X-418442Y-304712D01*
X-416238Y-302508D01*
X-416238Y-285960D01*
X-416170Y-285594D01*
X-415952Y-285253D01*
X-415618Y-285024D01*
X-415222Y-284944D01*
X-410461Y-284944D01*
X-407100Y-283552D01*
X-404528Y-280980D01*
X-404221Y-280237D01*
X-404012Y-279919D01*
X-403678Y-279690D01*
X-403282Y-279610D01*
X-381740Y-279610D01*
X-381359Y-279684D01*
X-381022Y-279908D01*
X-380622Y-280307D01*
X-380405Y-280629D01*
X-380324Y-281026D01*
X-380324Y-281456D01*
X-377730Y-284050D01*
X-374061Y-284050D01*
X-371466Y-281456D01*
X-371466Y-277786D01*
X-373144Y-276108D01*
X-373348Y-275816D01*
X-373441Y-275422D01*
X-373374Y-275024D01*
X-373156Y-274683D01*
X-372822Y-274454D01*
X-372426Y-274374D01*
X-362906Y-274374D01*
X-362540Y-274442D01*
X-362199Y-274660D01*
X-361970Y-274994D01*
X-361890Y-275390D01*
X-361890Y-289102D01*
X-322159Y-328833D01*
X-321945Y-329148D01*
X-321861Y-329544D01*
X-321939Y-329940D01*
X-323624Y-334009D01*
X-323624Y-339091D01*
X-321679Y-343786D01*
X-318086Y-347379D01*
X-313391Y-349324D01*
X-308309Y-349324D01*
X-303614Y-347379D01*
X-300021Y-343786D01*
X-298076Y-339091D01*
X-298076Y-334009D01*
X-300021Y-329314D01*
X-303614Y-325721D01*
X-308309Y-323776D01*
X-313391Y-323776D01*
X-317460Y-325461D01*
X-317832Y-325539D01*
X-318230Y-325464D01*
X-318567Y-325241D01*
X-356512Y-287295D01*
X-356730Y-286973D01*
X-356810Y-286577D01*
X-356810Y-275390D01*
X-356742Y-275024D01*
X-356524Y-274683D01*
X-356190Y-274454D01*
X-355794Y-274374D01*
X-345969Y-274374D01*
X-345076Y-273481D01*
X-345076Y-247219D01*
X-345969Y-246326D01*
X-372731Y-246326D01*
X-373624Y-247219D01*
X-373624Y-273492D01*
X-373444Y-273750D01*
X-373351Y-274144D01*
X-373418Y-274542D01*
X-373636Y-274883D01*
X-373970Y-275112D01*
X-374366Y-275192D01*
X-374540Y-275192D01*
X-374921Y-275118D01*
X-375258Y-274894D01*
X-378163Y-271990D01*
X-403282Y-271990D01*
X-403656Y-271919D01*
X-403995Y-271698D01*
X-404221Y-271363D01*
X-404528Y-270620D01*
X-407100Y-268048D01*
X-410461Y-266656D01*
X-415222Y-266656D01*
X-415588Y-266588D01*
X-415929Y-266370D01*
X-416158Y-266036D01*
X-416238Y-265640D01*
X-416238Y-260560D01*
X-416170Y-260194D01*
X-415952Y-259853D01*
X-415618Y-259624D01*
X-415222Y-259544D01*
X-410461Y-259544D01*
X-407100Y-258152D01*
X-404528Y-255580D01*
X-403695Y-253567D01*
X-403486Y-253249D01*
X-403152Y-253020D01*
X-402756Y-252940D01*
X-388585Y-252940D01*
X-388218Y-253008D01*
X-387878Y-253226D01*
X-387649Y-253560D01*
X-387635Y-253628D01*
X-384974Y-256289D01*
X-381305Y-256289D01*
X-378711Y-253695D01*
X-378711Y-250026D01*
X-381305Y-247431D01*
X-384974Y-247431D01*
X-385105Y-247562D01*
X-385428Y-247780D01*
X-385824Y-247860D01*
X-402756Y-247860D01*
X-403130Y-247789D01*
X-403469Y-247568D01*
X-403695Y-247233D01*
X-404528Y-245220D01*
X-407100Y-242648D01*
X-410461Y-241256D01*
X-415222Y-241256D01*
X-415588Y-241188D01*
X-415929Y-240970D01*
X-416158Y-240636D01*
X-416238Y-240240D01*
X-416238Y-235160D01*
X-416170Y-234794D01*
X-415952Y-234453D01*
X-415618Y-234224D01*
X-415222Y-234144D01*
X-410461Y-234144D01*
X-407100Y-232752D01*
X-404528Y-230180D01*
X-403695Y-228167D01*
X-403486Y-227849D01*
X-403152Y-227620D01*
X-402756Y-227540D01*
X-386204Y-227540D01*
X-385823Y-227614D01*
X-385486Y-227838D01*
X-384105Y-229219D01*
X-380435Y-229219D01*
X-377841Y-226625D01*
X-377841Y-222955D01*
X-380435Y-220361D01*
X-384105Y-220361D01*
X-385906Y-222162D01*
X-386228Y-222380D01*
X-386624Y-222460D01*
X-402756Y-222460D01*
X-403130Y-222389D01*
X-403469Y-222168D01*
X-403695Y-221833D01*
X-404528Y-219820D01*
X-407100Y-217248D01*
X-410461Y-215856D01*
X-415222Y-215856D01*
X-415588Y-215788D01*
X-415929Y-215570D01*
X-416158Y-215236D01*
X-416238Y-214840D01*
X-416238Y-209760D01*
X-416170Y-209394D01*
X-415952Y-209053D01*
X-415618Y-208824D01*
X-415222Y-208744D01*
X-410461Y-208744D01*
X-407100Y-207352D01*
X-404528Y-204780D01*
X-403136Y-201419D01*
X-403136Y-197781D01*
X-404528Y-194420D01*
X-407100Y-191848D01*
X-410461Y-190456D01*
X-415222Y-190456D01*
X-415588Y-190388D01*
X-415929Y-190170D01*
X-416158Y-189836D01*
X-416238Y-189440D01*
X-416238Y-184836D01*
X-416170Y-184470D01*
X-415952Y-184129D01*
X-415618Y-183900D01*
X-415222Y-183820D01*
X-410366Y-183820D01*
X-406831Y-182355D01*
X-404125Y-179649D01*
X-402709Y-176232D01*
X-421932Y-176232D01*
X-421932Y-172168D01*
X-402709Y-172168D01*
X-404125Y-168751D01*
X-406831Y-166045D01*
X-410366Y-164580D01*
X-415222Y-164580D01*
X-415588Y-164512D01*
X-415929Y-164294D01*
X-416158Y-163960D01*
X-416238Y-163564D01*
X-416238Y-147492D01*
X-418442Y-145288D01*
X-431222Y-145288D01*
X-431588Y-145220D01*
X-431929Y-145002D01*
X-432158Y-144668D01*
X-432238Y-144272D01*
X-432238Y-137828D01*
X-432170Y-137462D01*
X-431952Y-137121D01*
X-431618Y-136892D01*
X-431222Y-136812D01*
X-408442Y-136812D01*
X-406238Y-134608D01*
X-406238Y-47603D01*
X-408956Y-39239D01*
X-414125Y-32125D01*
X-421239Y-26956D01*
X-429603Y-24238D01*
X-431222Y-24238D01*
X-431588Y-24170D01*
X-431929Y-23952D01*
X-432158Y-23618D01*
X-432238Y-23222D01*
X-432238Y-16778D01*
X-432170Y-16412D01*
X-431952Y-16071D01*
X-431618Y-15842D01*
X-431222Y-15762D01*
X-418865Y-15762D01*
X-413072Y-13362D01*
X-408638Y-8929D01*
X-406238Y-3135D01*
X-406238Y3135D01*
X-408638Y8929D01*
X-413072Y13362D01*
X-418865Y15762D01*
X-431222Y15762D01*
X-431588Y15830D01*
X-431929Y16048D01*
X-432158Y16382D01*
X-432238Y16778D01*
X-432238Y23222D01*
X-432170Y23588D01*
X-431952Y23929D01*
X-431618Y24158D01*
X-431222Y24238D01*
X-429603Y24238D01*
X-421239Y26956D01*
X-414125Y32125D01*
X-408956Y39239D01*
X-406238Y47603D01*
X-406238Y134608D01*
X-408442Y136812D01*
X-431222Y136812D01*
X-431588Y136880D01*
X-431929Y137098D01*
X-432158Y137432D01*
X-432238Y137828D01*
X-432238Y144272D01*
X-432170Y144638D01*
X-431952Y144979D01*
X-431618Y145208D01*
X-431222Y145288D01*
X-418442Y145288D01*
X-416238Y147492D01*
X-416238Y164040D01*
X-416170Y164406D01*
X-415952Y164747D01*
X-415618Y164976D01*
X-415222Y165056D01*
X-410561Y165056D01*
X-407200Y166448D01*
X-404628Y169020D01*
X-404321Y169763D01*
X-404112Y170081D01*
X-403778Y170310D01*
X-403382Y170390D01*
X-372862Y170390D01*
X-372718Y170533D01*
X-372396Y170751D01*
X-372000Y170831D01*
X-371545Y170831D01*
X-371224Y171152D01*
X-370902Y171370D01*
X-370506Y171450D01*
X-360498Y171450D01*
X-360117Y171376D01*
X-359846Y171196D01*
X-356457Y171196D01*
X-344054Y183598D01*
X-343732Y183816D01*
X-343336Y183896D01*
X-239491Y183896D01*
X-239439Y183948D01*
X-239117Y184165D01*
X-238720Y184246D01*
X-233278Y184246D01*
X-232385Y185138D01*
X-232385Y190581D01*
X-232311Y190962D01*
X-232087Y191299D01*
X-231059Y192328D01*
X-230737Y192545D01*
X-230340Y192626D01*
X-205161Y192626D01*
X-187528Y210258D01*
X-187206Y210476D01*
X-186810Y210556D01*
X-176040Y210556D01*
X-175674Y210488D01*
X-175333Y210270D01*
X-175104Y209936D01*
X-175024Y209540D01*
X-175024Y209489D01*
X-174131Y208596D01*
X-157869Y208596D01*
X-156976Y209489D01*
X-156976Y209540D01*
X-156908Y209906D01*
X-156690Y210247D01*
X-156356Y210476D01*
X-155960Y210556D01*
X-150684Y210556D01*
X-150303Y210482D01*
X-149966Y210258D01*
X-123463Y183755D01*
X-123158Y183696D01*
X-123040Y183618D01*
X-45510Y183618D01*
X-45143Y183550D01*
X-44803Y183332D01*
X-44574Y182998D01*
X-44545Y182855D01*
X-43601Y181911D01*
X-32599Y181911D01*
X-31642Y182867D01*
X-31638Y182890D01*
X-31420Y183231D01*
X-31087Y183460D01*
X-30691Y183540D01*
X-23818Y183540D01*
X-23452Y183472D01*
X-23111Y183254D01*
X-22882Y182920D01*
X-22821Y182617D01*
X-21909Y181706D01*
X-10945Y181706D01*
X-10068Y182582D01*
X-9761Y182793D01*
X-9366Y182880D01*
X-8968Y182805D01*
X-8631Y182582D01*
X-1559Y175510D01*
X22462Y175510D01*
X28261Y181308D01*
X28583Y181526D01*
X28979Y181606D01*
X39957Y181606D01*
X41714Y183363D01*
X41714Y188797D01*
X39957Y190554D01*
X28323Y190554D01*
X27956Y190188D01*
X27634Y189970D01*
X27238Y189890D01*
X26066Y189890D01*
X19604Y183428D01*
X19281Y183210D01*
X18885Y183130D01*
X17630Y183130D01*
X17264Y183198D01*
X16923Y183416D01*
X16694Y183750D01*
X16614Y184146D01*
X16614Y188797D01*
X15300Y190112D01*
X15089Y190419D01*
X15002Y190814D01*
X15076Y191211D01*
X15300Y191548D01*
X16494Y192742D01*
X16816Y192960D01*
X17212Y193040D01*
X17562Y193040D01*
X22860Y198338D01*
X22860Y205537D01*
X22934Y205918D01*
X23158Y206255D01*
X24635Y207732D01*
X24957Y207950D01*
X25353Y208030D01*
X25550Y208030D01*
X25916Y207962D01*
X26257Y207744D01*
X26486Y207410D01*
X26566Y207014D01*
X26566Y202363D01*
X28323Y200606D01*
X39957Y200606D01*
X41714Y202363D01*
X41714Y202794D01*
X41782Y203160D01*
X42000Y203501D01*
X42334Y203730D01*
X42730Y203810D01*
X73450Y203810D01*
X81422Y211782D01*
X81744Y212000D01*
X82140Y212080D01*
X155960Y212080D01*
X156326Y212012D01*
X156667Y211794D01*
X156896Y211460D01*
X156976Y211064D01*
X156976Y209489D01*
X157869Y208596D01*
X174131Y208596D01*
X175024Y209489D01*
X175024Y219751D01*
X174131Y220644D01*
X157869Y220644D01*
X156976Y219751D01*
X156976Y218176D01*
X156908Y217810D01*
X156690Y217469D01*
X156356Y217240D01*
X155960Y217160D01*
X83505Y217160D01*
X83154Y217223D01*
X82810Y217435D01*
X82576Y217765D01*
X82489Y218160D01*
X82563Y218557D01*
X82787Y218894D01*
X87508Y223616D01*
X87508Y242260D01*
X87576Y242626D01*
X87794Y242967D01*
X88128Y243196D01*
X88524Y243276D01*
X95016Y243276D01*
X97414Y244269D01*
X99249Y246104D01*
X100242Y248502D01*
X100242Y261098D01*
X99249Y263496D01*
X97414Y265331D01*
X95016Y266324D01*
X74920Y266324D01*
X72667Y265391D01*
X72310Y265314D01*
X71912Y265382D01*
X71571Y265599D01*
X71342Y265933D01*
X71262Y266329D01*
X71262Y268671D01*
X71327Y269029D01*
X71543Y269372D01*
X71874Y269603D01*
X72270Y269687D01*
X72667Y269609D01*
X74920Y268676D01*
X95016Y268676D01*
X97414Y269669D01*
X99249Y271504D01*
X100242Y273902D01*
X100242Y274713D01*
X100305Y275064D01*
X100517Y275408D01*
X100847Y275642D01*
X101242Y275729D01*
X101639Y275655D01*
X101976Y275432D01*
X103574Y273834D01*
X103784Y273527D01*
X103871Y273132D01*
X103797Y272734D01*
X103574Y272397D01*
X102251Y271075D01*
X102251Y267405D01*
X104845Y264811D01*
X108515Y264811D01*
X111109Y267405D01*
X111109Y271075D01*
X109518Y272666D01*
X109300Y272988D01*
X109220Y273384D01*
X109220Y275372D01*
X101852Y282740D01*
X101258Y282740D01*
X100892Y282808D01*
X100551Y283026D01*
X100322Y283360D01*
X100242Y283756D01*
X100242Y286498D01*
X99249Y288896D01*
X97414Y290731D01*
X95016Y291724D01*
X74920Y291724D01*
X72667Y290791D01*
X72310Y290714D01*
X71912Y290782D01*
X71571Y290999D01*
X71342Y291333D01*
X71262Y291729D01*
X71262Y294071D01*
X71327Y294429D01*
X71543Y294772D01*
X71874Y295003D01*
X72270Y295087D01*
X72667Y295009D01*
X74920Y294076D01*
X95016Y294076D01*
X97414Y295069D01*
X99318Y296973D01*
X99625Y297184D01*
X100020Y297271D01*
X100417Y297197D01*
X100755Y296973D01*
X103842Y293885D01*
X104060Y293563D01*
X104140Y293167D01*
X104140Y283428D01*
X117296Y270271D01*
X117514Y269949D01*
X117594Y269553D01*
X117594Y267302D01*
X120188Y264708D01*
X123858Y264708D01*
X126452Y267302D01*
X126452Y270972D01*
X123858Y273566D01*
X121607Y273566D01*
X121226Y273640D01*
X120889Y273864D01*
X109518Y285235D01*
X109300Y285557D01*
X109220Y285953D01*
X109220Y295692D01*
X100540Y304373D01*
X100322Y304695D01*
X100242Y305091D01*
X100242Y311898D01*
X99249Y314296D01*
X97414Y316131D01*
X95016Y317124D01*
X74920Y317124D01*
X72667Y316191D01*
X72310Y316114D01*
X71912Y316182D01*
X71571Y316399D01*
X71342Y316733D01*
X71262Y317129D01*
X71262Y319471D01*
X71327Y319829D01*
X71543Y320172D01*
X71874Y320403D01*
X72270Y320487D01*
X72667Y320409D01*
X74920Y319476D01*
X95016Y319476D01*
X97414Y320469D01*
X99249Y322304D01*
X100242Y324702D01*
X100242Y337298D01*
X99249Y339696D01*
X97414Y341531D01*
X95016Y342524D01*
X74920Y342524D01*
X72667Y341591D01*
X72310Y341514D01*
X71912Y341582D01*
X71571Y341799D01*
X71342Y342133D01*
X71262Y342529D01*
X71262Y344871D01*
X71327Y345229D01*
X71543Y345572D01*
X71874Y345803D01*
X72270Y345887D01*
X72667Y345809D01*
X74920Y344876D01*
X95016Y344876D01*
X97414Y345869D01*
X99249Y347704D01*
X100242Y350102D01*
X100242Y362698D01*
X99395Y364742D01*
X99319Y365182D01*
X99419Y365574D01*
X99664Y365895D01*
X104808Y370400D01*
X105081Y370572D01*
X105120Y370579D01*
X105853Y371313D01*
X105902Y371359D01*
X106680Y372040D01*
X106680Y373075D01*
X106682Y373142D01*
X106751Y374180D01*
X106680Y374529D01*
X106680Y384607D01*
X106754Y384988D01*
X106978Y385325D01*
X112515Y390862D01*
X112837Y391080D01*
X113233Y391160D01*
X149280Y391160D01*
X149631Y391097D01*
X149975Y390885D01*
X150209Y390555D01*
X150296Y390160D01*
X150222Y389763D01*
X149998Y389426D01*
X148934Y388362D01*
X148612Y388144D01*
X148216Y388064D01*
X147986Y388064D01*
X145336Y385414D01*
X145336Y381666D01*
X147986Y379016D01*
X151734Y379016D01*
X154326Y381608D01*
X154648Y381826D01*
X155045Y381906D01*
X163864Y381906D01*
X164230Y381838D01*
X164571Y381620D01*
X164739Y381375D01*
X176405Y381375D01*
X176405Y377565D01*
X164880Y377565D01*
X164880Y377016D01*
X165294Y376602D01*
X165504Y376295D01*
X165591Y375900D01*
X165517Y375502D01*
X165356Y375259D01*
X165356Y375249D01*
X165282Y374868D01*
X165058Y374531D01*
X135320Y344793D01*
X135320Y323238D01*
X135246Y322857D01*
X135022Y322520D01*
X133686Y321183D01*
X133686Y315929D01*
X133612Y315548D01*
X133388Y315211D01*
X124460Y306282D01*
X124460Y283428D01*
X143728Y264160D01*
X171247Y264160D01*
X171628Y264086D01*
X171965Y263862D01*
X177502Y258325D01*
X177720Y258003D01*
X177800Y257607D01*
X177800Y181122D01*
X177726Y180741D01*
X177502Y180404D01*
X177234Y180136D01*
X176942Y179932D01*
X176548Y179839D01*
X176516Y179844D01*
X176516Y179588D01*
X156500Y179588D01*
X156500Y177628D01*
X156432Y177262D01*
X156214Y176921D01*
X155880Y176692D01*
X155484Y176612D01*
X30780Y176612D01*
X-4064Y141768D01*
X-4064Y-559D01*
X-4138Y-940D01*
X-4362Y-1277D01*
X-21583Y-18498D01*
X-21905Y-18716D01*
X-22301Y-18796D01*
X-177851Y-18796D01*
X-178232Y-18722D01*
X-178569Y-18498D01*
X-180598Y-16469D01*
X-180816Y-16147D01*
X-180896Y-15751D01*
X-180896Y-13366D01*
X-183546Y-10716D01*
X-187294Y-10716D01*
X-189944Y-13366D01*
X-189944Y-17114D01*
X-187294Y-19764D01*
X-184909Y-19764D01*
X-184528Y-19838D01*
X-184191Y-20062D01*
X-180376Y-23876D01*
X-154381Y-23876D01*
X-154030Y-23939D01*
X-153686Y-24151D01*
X-153452Y-24481D01*
X-153365Y-24876D01*
X-153439Y-25273D01*
X-153663Y-25610D01*
X-171390Y-43338D01*
X-171390Y-54810D01*
X-171458Y-55176D01*
X-171676Y-55517D01*
X-172010Y-55746D01*
X-172406Y-55826D01*
X-182231Y-55826D01*
X-183124Y-56719D01*
X-183124Y-82981D01*
X-182231Y-83874D01*
X-172406Y-83874D01*
X-172040Y-83942D01*
X-171699Y-84160D01*
X-171470Y-84494D01*
X-171390Y-84890D01*
X-171390Y-98602D01*
X-131659Y-138333D01*
X-131445Y-138648D01*
X-131361Y-139044D01*
X-131439Y-139440D01*
X-133124Y-143509D01*
X-133124Y-148591D01*
X-131179Y-153286D01*
X-127586Y-156879D01*
X-122891Y-158824D01*
X-117809Y-158824D01*
X-113114Y-156879D01*
X-109521Y-153286D01*
X-107576Y-148591D01*
X-107576Y-143509D01*
X-109521Y-138814D01*
X-113114Y-135221D01*
X-117809Y-133276D01*
X-122891Y-133276D01*
X-126960Y-134961D01*
X-127332Y-135039D01*
X-127730Y-134964D01*
X-128067Y-134741D01*
X-166012Y-96795D01*
X-166230Y-96473D01*
X-166310Y-96077D01*
X-166310Y-84890D01*
X-166242Y-84524D01*
X-166024Y-84183D01*
X-165690Y-83954D01*
X-165294Y-83874D01*
X-155469Y-83874D01*
X-154576Y-82981D01*
X-154576Y-56719D01*
X-155469Y-55826D01*
X-165294Y-55826D01*
X-165660Y-55758D01*
X-166001Y-55540D01*
X-166230Y-55206D01*
X-166310Y-54810D01*
X-166310Y-45863D01*
X-166236Y-45482D01*
X-166012Y-45145D01*
X-148597Y-27730D01*
X-148275Y-27512D01*
X-147879Y-27432D01*
X-81080Y-27432D01*
X-80729Y-27495D01*
X-80385Y-27707D01*
X-80151Y-28037D01*
X-80064Y-28432D01*
X-80138Y-28829D01*
X-80362Y-29166D01*
X-85313Y-34118D01*
X-88090Y-40822D01*
X-88090Y-48078D01*
X-85313Y-54782D01*
X-80182Y-59913D01*
X-73478Y-62690D01*
X-66222Y-62690D01*
X-59518Y-59913D01*
X-54387Y-54782D01*
X-51610Y-48078D01*
X-51610Y-40822D01*
X-54387Y-34118D01*
X-59338Y-29166D01*
X-59542Y-28874D01*
X-59635Y-28480D01*
X-59568Y-28082D01*
X-59350Y-27741D01*
X-59016Y-27512D01*
X-58620Y-27432D01*
X-18303Y-27432D01*
X4572Y-4557D01*
X4572Y137052D01*
X4646Y137433D01*
X4870Y137770D01*
X34270Y167170D01*
X34592Y167388D01*
X34988Y167468D01*
X179371Y167468D01*
X186226Y174323D01*
X186518Y174527D01*
X186912Y174620D01*
X187310Y174552D01*
X187651Y174334D01*
X187880Y174001D01*
X187960Y173605D01*
X187960Y153223D01*
X187886Y152842D01*
X187662Y152505D01*
X177356Y142198D01*
X177356Y99102D01*
X189694Y86763D01*
X189912Y86441D01*
X189992Y86045D01*
X189992Y19253D01*
X189918Y18872D01*
X189694Y18535D01*
X180033Y8873D01*
X179711Y8656D01*
X179315Y8576D01*
X176173Y8576D01*
X173523Y5926D01*
X173523Y2178D01*
X176173Y-472D01*
X180313Y-472D01*
X180664Y-535D01*
X181008Y-747D01*
X181242Y-1077D01*
X181329Y-1472D01*
X181254Y-1870D01*
X181031Y-2207D01*
X179493Y-3745D01*
X179170Y-3962D01*
X178774Y-4043D01*
X176389Y-4043D01*
X173739Y-6693D01*
X173739Y-10441D01*
X176389Y-13091D01*
X179961Y-13091D01*
X180312Y-13153D01*
X180656Y-13366D01*
X180890Y-13696D01*
X180977Y-14091D01*
X180903Y-14488D01*
X180679Y-14825D01*
X179285Y-16219D01*
X178963Y-16437D01*
X178567Y-16517D01*
X176182Y-16517D01*
X173532Y-19167D01*
X173532Y-22915D01*
X176182Y-25565D01*
X179930Y-25565D01*
X182580Y-22915D01*
X182580Y-20530D01*
X182654Y-20149D01*
X182877Y-19812D01*
X188734Y-13955D01*
X189026Y-13751D01*
X189420Y-13658D01*
X189818Y-13726D01*
X190159Y-13944D01*
X190388Y-14277D01*
X190468Y-14674D01*
X190468Y-192290D01*
X190394Y-192671D01*
X190170Y-193008D01*
X176548Y-206630D01*
X176226Y-206848D01*
X175830Y-206928D01*
X175733Y-206928D01*
X175382Y-206865D01*
X175038Y-206653D01*
X174804Y-206323D01*
X174717Y-205928D01*
X174792Y-205531D01*
X175015Y-205194D01*
X175500Y-204708D01*
X175500Y-201412D01*
X156500Y-201412D01*
X156500Y-204708D01*
X156985Y-205194D01*
X157189Y-205486D01*
X157282Y-205880D01*
X157214Y-206278D01*
X156997Y-206619D01*
X156663Y-206848D01*
X156267Y-206928D01*
X-139400Y-206928D01*
X-171390Y-238918D01*
X-171390Y-245310D01*
X-171458Y-245676D01*
X-171676Y-246017D01*
X-172010Y-246246D01*
X-172406Y-246326D01*
X-182231Y-246326D01*
X-183124Y-247219D01*
X-183124Y-273481D01*
X-182231Y-274374D01*
X-172406Y-274374D01*
X-172040Y-274442D01*
X-171699Y-274660D01*
X-171470Y-274994D01*
X-171390Y-275390D01*
X-171390Y-289102D01*
X-131659Y-328833D01*
X-131445Y-329148D01*
X-131361Y-329544D01*
X-131439Y-329940D01*
X-133124Y-334009D01*
X-133124Y-339091D01*
X-131179Y-343786D01*
X-127586Y-347379D01*
X-122891Y-349324D01*
X-117809Y-349324D01*
X-113114Y-347379D01*
X-109521Y-343786D01*
X-107576Y-339091D01*
X-107576Y-334009D01*
X-109521Y-329314D01*
X-113114Y-325721D01*
X-117809Y-323776D01*
X-122891Y-323776D01*
X-126960Y-325461D01*
X-127332Y-325539D01*
X-127730Y-325464D01*
X-128067Y-325241D01*
X-166012Y-287295D01*
X-166230Y-286973D01*
X-166310Y-286577D01*
X-166310Y-275390D01*
X-166242Y-275024D01*
X-166024Y-274683D01*
X-165690Y-274454D01*
X-165294Y-274374D01*
X-155469Y-274374D01*
X-154576Y-273481D01*
X-154576Y-247219D01*
X-155469Y-246326D01*
X-165294Y-246326D01*
X-165660Y-246258D01*
X-166001Y-246040D01*
X-166230Y-245706D01*
X-166310Y-245310D01*
X-166310Y-241443D01*
X-166236Y-241062D01*
X-166012Y-240725D01*
X-137593Y-212306D01*
X-137271Y-212088D01*
X-136875Y-212008D01*
X63947Y-212008D01*
X64298Y-212071D01*
X64642Y-212283D01*
X64876Y-212613D01*
X64963Y-213008D01*
X64889Y-213405D01*
X64665Y-213742D01*
X32379Y-246028D01*
X32057Y-246246D01*
X31661Y-246326D01*
X8269Y-246326D01*
X7376Y-247219D01*
X7376Y-273481D01*
X8269Y-274374D01*
X18094Y-274374D01*
X18460Y-274442D01*
X18801Y-274660D01*
X19030Y-274994D01*
X19110Y-275390D01*
X19110Y-289102D01*
X58841Y-328833D01*
X59055Y-329148D01*
X59139Y-329544D01*
X59061Y-329940D01*
X57376Y-334009D01*
X57376Y-339091D01*
X59321Y-343786D01*
X62914Y-347379D01*
X67609Y-349324D01*
X72691Y-349324D01*
X77386Y-347379D01*
X80979Y-343786D01*
X82924Y-339091D01*
X82924Y-334009D01*
X80979Y-329314D01*
X77386Y-325721D01*
X72691Y-323776D01*
X67609Y-323776D01*
X63540Y-325461D01*
X63168Y-325539D01*
X62770Y-325464D01*
X62433Y-325241D01*
X24488Y-287295D01*
X24270Y-286973D01*
X24190Y-286577D01*
X24190Y-275390D01*
X24258Y-275024D01*
X24476Y-274683D01*
X24810Y-274454D01*
X25206Y-274374D01*
X35031Y-274374D01*
X35924Y-273481D01*
X35924Y-250089D01*
X35998Y-249708D01*
X36222Y-249371D01*
X69223Y-216370D01*
X69545Y-216152D01*
X69941Y-216072D01*
X113454Y-216072D01*
X113798Y-216132D01*
X114144Y-216342D01*
X114380Y-216669D01*
X114470Y-217064D01*
X114399Y-217462D01*
X114178Y-217801D01*
X113843Y-218027D01*
X110318Y-219487D01*
X105187Y-224618D01*
X102410Y-231322D01*
X102410Y-238578D01*
X105187Y-245282D01*
X110318Y-250413D01*
X117022Y-253190D01*
X124278Y-253190D01*
X130982Y-250413D01*
X136113Y-245282D01*
X138890Y-238578D01*
X138890Y-231322D01*
X136113Y-224618D01*
X130982Y-219487D01*
X127457Y-218027D01*
X127162Y-217840D01*
X126923Y-217514D01*
X126830Y-217120D01*
X126898Y-216722D01*
X127116Y-216381D01*
X127449Y-216152D01*
X127846Y-216072D01*
X180038Y-216072D01*
X199104Y-197006D01*
X199104Y-84890D01*
X199172Y-84524D01*
X199390Y-84183D01*
X199724Y-83954D01*
X200120Y-83874D01*
X208594Y-83874D01*
X208960Y-83942D01*
X209301Y-84160D01*
X209530Y-84494D01*
X209610Y-84890D01*
X209610Y-98602D01*
X249341Y-138333D01*
X249555Y-138648D01*
X249639Y-139044D01*
X249561Y-139440D01*
X247876Y-143509D01*
X247876Y-148591D01*
X249821Y-153286D01*
X253414Y-156879D01*
X258109Y-158824D01*
X263191Y-158824D01*
X267886Y-156879D01*
X271479Y-153286D01*
X273424Y-148591D01*
X273424Y-143509D01*
X271479Y-138814D01*
X267886Y-135221D01*
X263191Y-133276D01*
X258109Y-133276D01*
X254040Y-134961D01*
X253668Y-135039D01*
X253270Y-134964D01*
X252933Y-134741D01*
X214988Y-96795D01*
X214770Y-96473D01*
X214690Y-96077D01*
X214690Y-84890D01*
X214758Y-84524D01*
X214976Y-84183D01*
X215310Y-83954D01*
X215706Y-83874D01*
X225531Y-83874D01*
X226424Y-82981D01*
X226424Y-56719D01*
X225531Y-55826D01*
X200120Y-55826D01*
X199754Y-55758D01*
X199413Y-55540D01*
X199184Y-55206D01*
X199104Y-54810D01*
X199104Y-14064D01*
X199178Y-13682D01*
X199402Y-13345D01*
X210312Y-2435D01*
X210312Y88543D01*
X210375Y88894D01*
X210587Y89238D01*
X210917Y89472D01*
X211312Y89559D01*
X211709Y89485D01*
X212046Y89261D01*
X249141Y52167D01*
X249355Y51852D01*
X249439Y51457D01*
X249361Y51060D01*
X247676Y46991D01*
X247676Y41909D01*
X249621Y37214D01*
X253214Y33621D01*
X257909Y31676D01*
X262991Y31676D01*
X267686Y33621D01*
X271279Y37214D01*
X272439Y40013D01*
X272647Y40331D01*
X272981Y40560D01*
X273377Y40640D01*
X342080Y40640D01*
X378968Y77529D01*
X378968Y252368D01*
X379042Y252749D01*
X379266Y253086D01*
X397764Y271585D01*
X397764Y309408D01*
X388542Y318630D01*
X385490Y318630D01*
X385124Y318698D01*
X384783Y318916D01*
X384554Y319250D01*
X384474Y319646D01*
X384474Y321183D01*
X383138Y322520D01*
X382920Y322842D01*
X382840Y323238D01*
X382840Y342253D01*
X350562Y374531D01*
X350344Y374853D01*
X350270Y375222D01*
X349990Y375502D01*
X349779Y375809D01*
X349692Y376204D01*
X349766Y376601D01*
X349990Y376938D01*
X350264Y377213D01*
X350264Y381727D01*
X349990Y382002D01*
X349779Y382309D01*
X349692Y382704D01*
X349766Y383101D01*
X349990Y383438D01*
X350264Y383713D01*
X350264Y388227D01*
X349092Y389399D01*
X334084Y389399D01*
X333703Y389473D01*
X333366Y389697D01*
X320310Y402752D01*
X252710Y402752D01*
X239654Y389697D01*
X239332Y389479D01*
X238936Y389399D01*
X223928Y389399D01*
X223336Y388808D01*
X223014Y388590D01*
X222618Y388510D01*
X214038Y388510D01*
X213657Y388584D01*
X213319Y388808D01*
X197407Y404720D01*
X101258Y404720D01*
X100892Y404788D01*
X100551Y405006D01*
X100322Y405340D01*
X100242Y405736D01*
X100242Y413498D01*
X99249Y415896D01*
X97414Y417731D01*
X95016Y418724D01*
X74920Y418724D01*
X72667Y417791D01*
X72310Y417714D01*
X71912Y417782D01*
X71571Y417999D01*
X71342Y418333D01*
X71262Y418729D01*
X71262Y426000D01*
X71297Y426263D01*
X71996Y428874D01*
X72259Y429329D01*
X74171Y431241D01*
X74626Y431504D01*
X77237Y432203D01*
X77500Y432238D01*
X380000Y432238D01*
X380159Y432226D01*
X387953Y430991D01*
X388255Y430893D01*
X395286Y427310D01*
X395544Y427123D01*
X401123Y421544D01*
X401310Y421286D01*
X404893Y414255D01*
X404991Y413953D01*
X406226Y406159D01*
X406238Y406000D01*
X406238Y315392D01*
X408442Y313188D01*
X431222Y313188D01*
X431588Y313120D01*
X431929Y312902D01*
X432158Y312568D01*
X432238Y312172D01*
X432238Y305728D01*
X432170Y305362D01*
X431952Y305021D01*
X431618Y304792D01*
X431222Y304712D01*
X418442Y304712D01*
X416238Y302508D01*
X416238Y285960D01*
X416170Y285594D01*
X415952Y285253D01*
X415618Y285024D01*
X415222Y284944D01*
X410561Y284944D01*
X407200Y283552D01*
X404628Y280980D01*
X403236Y277619D01*
X403236Y273981D01*
X404628Y270620D01*
X407200Y268048D01*
X410561Y266656D01*
X415222Y266656D01*
X415588Y266588D01*
X415929Y266370D01*
X416158Y266036D01*
X416238Y265640D01*
X416238Y260560D01*
X416170Y260194D01*
X415952Y259853D01*
X415618Y259624D01*
X415222Y259544D01*
X410561Y259544D01*
X407200Y258152D01*
X404628Y255580D01*
X403236Y252219D01*
X403236Y248581D01*
X404628Y245220D01*
X407200Y242648D01*
X410561Y241256D01*
X415222Y241256D01*
X415588Y241188D01*
X415929Y240970D01*
X416158Y240636D01*
X416238Y240240D01*
X416238Y235160D01*
X416170Y234794D01*
X415952Y234453D01*
X415618Y234224D01*
X415222Y234144D01*
X410561Y234144D01*
X407200Y232752D01*
X404628Y230180D01*
X403236Y226819D01*
X403236Y223181D01*
X404628Y219820D01*
X407200Y217248D01*
X410561Y215856D01*
X415222Y215856D01*
X415588Y215788D01*
X415929Y215570D01*
X416158Y215236D01*
X416238Y214840D01*
X416238Y209760D01*
X416170Y209394D01*
X415952Y209053D01*
X415618Y208824D01*
X415222Y208744D01*
X410561Y208744D01*
X407200Y207352D01*
X404628Y204780D01*
X403236Y201419D01*
X403236Y197781D01*
X404628Y194420D01*
X407200Y191848D01*
X410561Y190456D01*
X415222Y190456D01*
X415588Y190388D01*
X415929Y190170D01*
X416158Y189836D01*
X416238Y189440D01*
X416238Y184836D01*
X416170Y184470D01*
X415952Y184129D01*
X415618Y183900D01*
X415222Y183820D01*
X410466Y183820D01*
X406931Y182355D01*
X404225Y179649D01*
X402809Y176232D01*
X422032Y176232D01*
X422032Y172168D01*
X402809Y172168D01*
X404225Y168751D01*
X406931Y166045D01*
X410466Y164580D01*
X415222Y164580D01*
X415588Y164512D01*
X415929Y164294D01*
X416158Y163960D01*
X416238Y163564D01*
X416238Y147492D01*
X418442Y145288D01*
X431222Y145288D01*
X431588Y145220D01*
X431929Y145002D01*
X432158Y144668D01*
X432238Y144272D01*
X432238Y137828D01*
X432170Y137462D01*
X431952Y137121D01*
X431618Y136892D01*
X431222Y136812D01*
X408442Y136812D01*
X406238Y134608D01*
X406238Y47603D01*
X408956Y39239D01*
X414125Y32125D01*
X421239Y26956D01*
X429603Y24238D01*
X431222Y24238D01*
X431588Y24170D01*
X431929Y23952D01*
X432158Y23618D01*
X432238Y23222D01*
X432238Y16778D01*
X432170Y16412D01*
X431952Y16071D01*
X431618Y15842D01*
X431222Y15762D01*
X418865Y15762D01*
X413072Y13362D01*
X408638Y8929D01*
X406238Y3135D01*
X406238Y-3135D01*
X408638Y-8929D01*
X413072Y-13362D01*
X418865Y-15762D01*
X431222Y-15762D01*
X431588Y-15830D01*
X431929Y-16048D01*
X432158Y-16382D01*
X432238Y-16778D01*
X432238Y-23222D01*
X432170Y-23588D01*
X431952Y-23929D01*
X431618Y-24158D01*
X431222Y-24238D01*
X429603Y-24238D01*
X421239Y-26956D01*
X414125Y-32125D01*
X408956Y-39239D01*
X406238Y-47603D01*
X406238Y-134608D01*
X408442Y-136812D01*
X431222Y-136812D01*
X431588Y-136880D01*
X431929Y-137098D01*
X432158Y-137432D01*
X432238Y-137828D01*
X432238Y-144272D01*
X432170Y-144638D01*
X431952Y-144979D01*
X431618Y-145208D01*
X431222Y-145288D01*
X418442Y-145288D01*
X416238Y-147492D01*
X416238Y-164040D01*
X416170Y-164406D01*
X415952Y-164747D01*
X415618Y-164976D01*
X415222Y-165056D01*
X410551Y-165056D01*
X407190Y-166448D01*
X404618Y-169020D01*
X404311Y-169763D01*
X404102Y-170081D01*
X403768Y-170310D01*
X403372Y-170390D01*
X387589Y-170390D01*
X387223Y-170322D01*
X386882Y-170104D01*
X386766Y-169934D01*
X383979Y-167147D01*
X383524Y-167147D01*
X383143Y-167073D01*
X382806Y-166849D01*
X377246Y-161290D01*
X272742Y-161290D01*
X260465Y-173566D01*
X260143Y-173784D01*
X259747Y-173864D01*
X248691Y-173864D01*
X248325Y-173796D01*
X247984Y-173578D01*
X247755Y-173244D01*
X247675Y-172848D01*
X247675Y-172438D01*
X246782Y-171546D01*
X235818Y-171546D01*
X234925Y-172438D01*
X234925Y-172594D01*
X234857Y-172960D01*
X234639Y-173301D01*
X234305Y-173530D01*
X233909Y-173610D01*
X228398Y-173610D01*
X228017Y-173536D01*
X227680Y-173312D01*
X224322Y-169954D01*
X224104Y-169632D01*
X224024Y-169236D01*
X224024Y-161249D01*
X223131Y-160356D01*
X206869Y-160356D01*
X205976Y-161249D01*
X205976Y-171511D01*
X206869Y-172404D01*
X214856Y-172404D01*
X215237Y-172478D01*
X215574Y-172702D01*
X224611Y-181738D01*
X233909Y-181738D01*
X234275Y-181806D01*
X234616Y-182024D01*
X234845Y-182358D01*
X234925Y-182754D01*
X234925Y-182910D01*
X235818Y-183803D01*
X246782Y-183803D01*
X247675Y-182910D01*
X247675Y-182500D01*
X247743Y-182134D01*
X247961Y-181793D01*
X248295Y-181564D01*
X248691Y-181484D01*
X259495Y-181484D01*
X259876Y-181558D01*
X259954Y-181610D01*
X263198Y-181610D01*
X275601Y-169208D01*
X275923Y-168990D01*
X276319Y-168910D01*
X373669Y-168910D01*
X374050Y-168984D01*
X374387Y-169208D01*
X377417Y-172238D01*
X377635Y-172560D01*
X377715Y-172956D01*
X377715Y-173411D01*
X380309Y-176005D01*
X380764Y-176005D01*
X381145Y-176079D01*
X381482Y-176303D01*
X383190Y-178010D01*
X403372Y-178010D01*
X403746Y-178081D01*
X404085Y-178302D01*
X404311Y-178637D01*
X404618Y-179380D01*
X407190Y-181952D01*
X410551Y-183344D01*
X415222Y-183344D01*
X415588Y-183412D01*
X415929Y-183630D01*
X416158Y-183964D01*
X416238Y-184360D01*
X416238Y-189440D01*
X416170Y-189806D01*
X415952Y-190147D01*
X415618Y-190376D01*
X415222Y-190456D01*
X410551Y-190456D01*
X407190Y-191848D01*
X404618Y-194420D01*
X403345Y-197493D01*
X403137Y-197811D01*
X402803Y-198040D01*
X402407Y-198120D01*
X388487Y-198120D01*
X388105Y-198046D01*
X387768Y-197822D01*
X386082Y-196136D01*
X382334Y-196136D01*
X379684Y-198786D01*
X379684Y-202534D01*
X382334Y-205184D01*
X386082Y-205184D01*
X387768Y-203498D01*
X388090Y-203280D01*
X388487Y-203200D01*
X403285Y-203200D01*
X403659Y-203271D01*
X403998Y-203492D01*
X404224Y-203827D01*
X404618Y-204780D01*
X407190Y-207352D01*
X410551Y-208744D01*
X415222Y-208744D01*
X415588Y-208812D01*
X415929Y-209030D01*
X416158Y-209364D01*
X416238Y-209760D01*
X416238Y-214840D01*
X416170Y-215206D01*
X415952Y-215547D01*
X415618Y-215776D01*
X415222Y-215856D01*
X410551Y-215856D01*
X407190Y-217248D01*
X404618Y-219820D01*
X403345Y-222893D01*
X403137Y-223211D01*
X402803Y-223440D01*
X402407Y-223520D01*
X392551Y-223520D01*
X392169Y-223446D01*
X391832Y-223222D01*
X390146Y-221536D01*
X386398Y-221536D01*
X383748Y-224186D01*
X383748Y-227934D01*
X386398Y-230584D01*
X390146Y-230584D01*
X391832Y-228898D01*
X392154Y-228680D01*
X392551Y-228600D01*
X403285Y-228600D01*
X403659Y-228671D01*
X403998Y-228892D01*
X404224Y-229227D01*
X404618Y-230180D01*
X407190Y-232752D01*
X410551Y-234144D01*
X415222Y-234144D01*
X415588Y-234212D01*
X415929Y-234430D01*
X416158Y-234764D01*
X416238Y-235160D01*
X416238Y-240240D01*
X416170Y-240606D01*
X415952Y-240947D01*
X415618Y-241176D01*
X415222Y-241256D01*
X410551Y-241256D01*
X407190Y-242648D01*
X404618Y-245220D01*
X403226Y-248581D01*
X403226Y-252219D01*
X404618Y-255580D01*
X407190Y-258152D01*
X410551Y-259544D01*
X415222Y-259544D01*
X415588Y-259612D01*
X415929Y-259830D01*
X416158Y-260164D01*
X416238Y-260560D01*
X416238Y-265164D01*
X416170Y-265530D01*
X415952Y-265871D01*
X415618Y-266100D01*
X415222Y-266180D01*
X410456Y-266180D01*
X406921Y-267645D01*
X404215Y-270351D01*
X402799Y-273768D01*
X422022Y-273768D01*
X422022Y-277832D01*
X402799Y-277832D01*
X404215Y-281249D01*
X406921Y-283955D01*
X410456Y-285420D01*
X415222Y-285420D01*
X415588Y-285488D01*
X415929Y-285706D01*
X416158Y-286040D01*
X416238Y-286436D01*
X416238Y-302508D01*
X418442Y-304712D01*
X431222Y-304712D01*
X431588Y-304780D01*
X431929Y-304998D01*
X432158Y-305332D01*
X432238Y-305728D01*
X432238Y-312172D01*
X432170Y-312538D01*
X431952Y-312879D01*
X431618Y-313108D01*
X431222Y-313188D01*
X408442Y-313188D01*
X406238Y-315392D01*
X406238Y-380000D01*
X406226Y-380159D01*
X404991Y-387953D01*
X404893Y-388255D01*
X401310Y-395286D01*
X401123Y-395544D01*
X395544Y-401123D01*
X395286Y-401310D01*
X388255Y-404893D01*
X387953Y-404991D01*
X380159Y-406226D01*
X380000Y-406238D01*
X315392Y-406238D01*
X313188Y-408442D01*
X313188Y-431222D01*
X313120Y-431588D01*
X312902Y-431929D01*
X312568Y-432158D01*
X312172Y-432238D01*
X305728Y-432238D01*
X305362Y-432170D01*
X305021Y-431952D01*
X304792Y-431618D01*
X304712Y-431222D01*
X304712Y-418442D01*
X302508Y-416238D01*
X285960Y-416238D01*
X285594Y-416170D01*
X285253Y-415952D01*
X285024Y-415618D01*
X284944Y-415222D01*
X284944Y-410561D01*
X283552Y-407200D01*
X280980Y-404628D01*
X279011Y-403813D01*
X278693Y-403604D01*
X278464Y-403270D01*
X278384Y-402874D01*
X278384Y-376135D01*
X278458Y-375753D01*
X278682Y-375416D01*
X278844Y-375254D01*
X278844Y-371506D01*
X276194Y-368856D01*
X272446Y-368856D01*
X269796Y-371506D01*
X269796Y-375254D01*
X269958Y-375416D01*
X270176Y-375738D01*
X270256Y-376135D01*
X270256Y-404572D01*
X270182Y-404953D01*
X269958Y-405290D01*
X268048Y-407200D01*
X266656Y-410561D01*
X266656Y-415222D01*
X266588Y-415588D01*
X266370Y-415929D01*
X266036Y-416158D01*
X265640Y-416238D01*
X260560Y-416238D01*
X260194Y-416170D01*
X259853Y-415952D01*
X259624Y-415618D01*
X259544Y-415222D01*
X259544Y-410561D01*
X258152Y-407200D01*
X255580Y-404628D01*
X253567Y-403795D01*
X253249Y-403586D01*
X253020Y-403252D01*
X252940Y-402856D01*
X252940Y-382343D01*
X252795Y-382128D01*
X252715Y-381732D01*
X252715Y-379816D01*
X250065Y-377166D01*
X246317Y-377166D01*
X243667Y-379816D01*
X243667Y-383564D01*
X246317Y-386214D01*
X246844Y-386214D01*
X247210Y-386282D01*
X247551Y-386500D01*
X247780Y-386833D01*
X247860Y-387230D01*
X247860Y-402856D01*
X247789Y-403230D01*
X247568Y-403569D01*
X247233Y-403795D01*
X245220Y-404628D01*
X242648Y-407200D01*
X241256Y-410561D01*
X241256Y-415222D01*
X241188Y-415588D01*
X240970Y-415929D01*
X240636Y-416158D01*
X240240Y-416238D01*
X235160Y-416238D01*
X234794Y-416170D01*
X234453Y-415952D01*
X234224Y-415618D01*
X234144Y-415222D01*
X234144Y-410561D01*
X232752Y-407200D01*
X230180Y-404628D01*
X228167Y-403795D01*
X227849Y-403586D01*
X227620Y-403252D01*
X227540Y-402856D01*
X227540Y-388540D01*
X227420Y-388420D01*
X227203Y-388098D01*
X227123Y-387702D01*
X227123Y-383730D01*
X224473Y-381080D01*
X220725Y-381080D01*
X218075Y-383730D01*
X218075Y-387478D01*
X220725Y-390128D01*
X221444Y-390128D01*
X221810Y-390196D01*
X222151Y-390414D01*
X222380Y-390748D01*
X222460Y-391144D01*
X222460Y-402856D01*
X222389Y-403230D01*
X222168Y-403569D01*
X221833Y-403795D01*
X219820Y-404628D01*
X217248Y-407200D01*
X215856Y-410561D01*
X215856Y-415222D01*
X215788Y-415588D01*
X215570Y-415929D01*
X215236Y-416158D01*
X214840Y-416238D01*
X209760Y-416238D01*
X209394Y-416170D01*
X209053Y-415952D01*
X208824Y-415618D01*
X208744Y-415222D01*
X208744Y-410561D01*
X207352Y-407200D01*
X204780Y-404628D01*
X201419Y-403236D01*
X197781Y-403236D01*
X194420Y-404628D01*
X191848Y-407200D01*
X190456Y-410561D01*
X190456Y-415222D01*
X190388Y-415588D01*
X190170Y-415929D01*
X189836Y-416158D01*
X189440Y-416238D01*
X184836Y-416238D01*
X184470Y-416170D01*
X184129Y-415952D01*
X183900Y-415618D01*
X183820Y-415222D01*
X183820Y-410466D01*
X182355Y-406931D01*
X179649Y-404225D01*
X176232Y-402809D01*
X176232Y-422032D01*
X172168Y-422032D01*
X172168Y-402809D01*
X168751Y-404225D01*
X166045Y-406931D01*
X164580Y-410466D01*
X164580Y-415222D01*
X164512Y-415588D01*
X164294Y-415929D01*
X163960Y-416158D01*
X163564Y-416238D01*
X147492Y-416238D01*
X145288Y-418442D01*
X145288Y-431222D01*
X145220Y-431588D01*
X145002Y-431929D01*
X144668Y-432158D01*
X144272Y-432238D01*
X137828Y-432238D01*
X137462Y-432170D01*
X137121Y-431952D01*
X136892Y-431618D01*
X136812Y-431222D01*
X136812Y-408442D01*
X134608Y-406238D01*
X47603Y-406238D01*
X39239Y-408956D01*
X32125Y-414125D01*
X26956Y-421239D01*
X24238Y-429603D01*
X24238Y-431222D01*
X24170Y-431588D01*
X23952Y-431929D01*
X23618Y-432158D01*
X23222Y-432238D01*
X16778Y-432238D01*
X16412Y-432170D01*
X16071Y-431952D01*
X15842Y-431618D01*
X15762Y-431222D01*
X15762Y-418865D01*
X13362Y-413072D01*
X8929Y-408638D01*
X3135Y-406238D01*
X-3135Y-406238D01*
X-8929Y-408638D01*
X-13362Y-413072D01*
X-15762Y-418865D01*
X-15762Y-431222D01*
X-15830Y-431588D01*
X-16048Y-431929D01*
X-16382Y-432158D01*
X-16778Y-432238D01*
X-23222Y-432238D01*
X-23588Y-432170D01*
X-23929Y-431952D01*
X-24158Y-431618D01*
X-24238Y-431222D01*
X-24238Y-429603D01*
X-26956Y-421239D01*
X-32125Y-414125D01*
X-39239Y-408956D01*
X-47603Y-406238D01*
X-134608Y-406238D01*
X-136812Y-408442D01*
X-136812Y-431222D01*
X-136880Y-431588D01*
X-137098Y-431929D01*
X-137432Y-432158D01*
X-137828Y-432238D01*
X-144272Y-432238D01*
X-144638Y-432170D01*
X-144979Y-431952D01*
X-145208Y-431618D01*
X-145288Y-431222D01*
X-145288Y-418442D01*
X-147492Y-416238D01*
X-164040Y-416238D01*
X-164406Y-416170D01*
X-164747Y-415952D01*
X-164976Y-415618D01*
X-165056Y-415222D01*
X-165056Y-410561D01*
X-166448Y-407200D01*
X-169020Y-404628D01*
X-169763Y-404321D01*
X-170081Y-404112D01*
X-170310Y-403778D01*
X-170390Y-403382D01*
X-170390Y-372544D01*
X-170533Y-372400D01*
X-170751Y-372078D01*
X-170831Y-371682D01*
X-170831Y-371227D01*
X-173425Y-368633D01*
X-177095Y-368633D01*
X-179689Y-371227D01*
X-179689Y-374897D01*
X-178308Y-376278D01*
X-178090Y-376600D01*
X-178010Y-376996D01*
X-178010Y-403382D01*
X-178081Y-403756D01*
X-178302Y-404095D01*
X-178637Y-404321D01*
X-179380Y-404628D01*
X-181952Y-407200D01*
X-183344Y-410561D01*
X-183344Y-415222D01*
X-183412Y-415588D01*
X-183630Y-415929D01*
X-183964Y-416158D01*
X-184360Y-416238D01*
X-189440Y-416238D01*
X-189806Y-416170D01*
X-190147Y-415952D01*
X-190376Y-415618D01*
X-190456Y-415222D01*
X-190456Y-410561D01*
X-191848Y-407200D01*
X-194420Y-404628D01*
X-197493Y-403355D01*
X-197811Y-403147D01*
X-198040Y-402813D01*
X-198120Y-402417D01*
X-198120Y-386327D01*
X-198046Y-385945D01*
X-197822Y-385608D01*
X-196136Y-383922D01*
X-196136Y-380174D01*
X-198786Y-377524D01*
X-202534Y-377524D01*
X-205184Y-380174D01*
X-205184Y-383922D01*
X-203498Y-385608D01*
X-203280Y-385930D01*
X-203200Y-386327D01*
X-203200Y-403295D01*
X-203271Y-403669D01*
X-203492Y-404008D01*
X-203827Y-404234D01*
X-204780Y-404628D01*
X-207352Y-407200D01*
X-208744Y-410561D01*
X-208744Y-415222D01*
X-208812Y-415588D01*
X-209030Y-415929D01*
X-209364Y-416158D01*
X-209760Y-416238D01*
X-214840Y-416238D01*
X-215206Y-416170D01*
X-215547Y-415952D01*
X-215776Y-415618D01*
X-215856Y-415222D01*
X-215856Y-410561D01*
X-217248Y-407200D01*
X-219820Y-404628D01*
X-221833Y-403795D01*
X-222151Y-403586D01*
X-222380Y-403252D01*
X-222460Y-402856D01*
X-222460Y-390434D01*
X-222386Y-390053D01*
X-222162Y-389716D01*
X-220583Y-388136D01*
X-220583Y-384467D01*
X-223177Y-381873D01*
X-226846Y-381873D01*
X-229441Y-384467D01*
X-229441Y-388136D01*
X-227838Y-389740D01*
X-227620Y-390062D01*
X-227540Y-390458D01*
X-227540Y-402856D01*
X-227611Y-403230D01*
X-227832Y-403569D01*
X-228167Y-403795D01*
X-230180Y-404628D01*
X-232752Y-407200D01*
X-234144Y-410561D01*
X-234144Y-415222D01*
X-234212Y-415588D01*
X-234430Y-415929D01*
X-234764Y-416158D01*
X-235160Y-416238D01*
X-240240Y-416238D01*
X-240606Y-416170D01*
X-240947Y-415952D01*
X-241176Y-415618D01*
X-241256Y-415222D01*
X-241256Y-410561D01*
X-242648Y-407200D01*
X-245220Y-404628D01*
X-248581Y-403236D01*
X-252219Y-403236D01*
X-255580Y-404628D01*
X-258152Y-407200D01*
X-259544Y-410561D01*
X-259544Y-415222D01*
X-259612Y-415588D01*
X-259830Y-415929D01*
X-260164Y-416158D01*
X-260560Y-416238D01*
X-265164Y-416238D01*
X-265530Y-416170D01*
X-265871Y-415952D01*
X-266100Y-415618D01*
X-266180Y-415222D01*
X-266180Y-410466D01*
X-267645Y-406931D01*
X-270351Y-404225D01*
X-273768Y-402809D01*
X-273768Y-422032D01*
X-277832Y-422032D01*
X-277832Y-402809D01*
X-281249Y-404225D01*
X-283955Y-406931D01*
X-285420Y-410466D01*
X-285420Y-415222D01*
X-285488Y-415588D01*
X-285706Y-415929D01*
X-286040Y-416158D01*
X-286436Y-416238D01*
X-302508Y-416238D01*
X-304712Y-418442D01*
X-304712Y-431222D01*
X-304780Y-431588D01*
X-304998Y-431929D01*
X-305332Y-432158D01*
G37*
%LPC*%
G36*
X376865Y390238D02*
X383135Y390238D01*
X388929Y392638D01*
X393362Y397072D01*
X395762Y402865D01*
X395762Y409135D01*
X393362Y414929D01*
X388929Y419362D01*
X383135Y421762D01*
X376865Y421762D01*
X371072Y419362D01*
X366638Y414929D01*
X364238Y409135D01*
X364238Y402865D01*
X366638Y397072D01*
X371072Y392638D01*
X376865Y390238D01*
G37*
G36*
X168032Y183652D02*
X175500Y183652D01*
X175500Y186948D01*
X174328Y188120D01*
X168032Y188120D01*
X168032Y183652D01*
G37*
G36*
X-212968Y183652D02*
X-205500Y183652D01*
X-205500Y186948D01*
X-206672Y188120D01*
X-212968Y188120D01*
X-212968Y183652D01*
G37*
G36*
X-224500Y183652D02*
X-217032Y183652D01*
X-217032Y188120D01*
X-223328Y188120D01*
X-224500Y186948D01*
X-224500Y183652D01*
G37*
G36*
X156500Y183652D02*
X163968Y183652D01*
X163968Y188120D01*
X157672Y188120D01*
X156500Y186948D01*
X156500Y183652D01*
G37*
G36*
X-223131Y-172404D02*
X-206869Y-172404D01*
X-205976Y-171511D01*
X-205976Y-161369D01*
X-205902Y-160988D01*
X-205678Y-160651D01*
X-198120Y-153092D01*
X-198120Y145487D01*
X-198046Y145868D01*
X-197822Y146205D01*
X-168729Y175298D01*
X-168407Y175516D01*
X-168011Y175596D01*
X-157869Y175596D01*
X-156976Y176489D01*
X-156976Y186751D01*
X-157869Y187644D01*
X-174131Y187644D01*
X-175024Y186751D01*
X-175024Y176609D01*
X-175098Y176228D01*
X-175322Y175891D01*
X-203200Y148012D01*
X-203200Y-150567D01*
X-203274Y-150948D01*
X-203498Y-151285D01*
X-212271Y-160058D01*
X-212593Y-160276D01*
X-212989Y-160356D01*
X-223131Y-160356D01*
X-224024Y-161249D01*
X-224024Y-171511D01*
X-223131Y-172404D01*
G37*
G36*
X-212968Y175120D02*
X-206672Y175120D01*
X-205500Y176292D01*
X-205500Y179588D01*
X-212968Y179588D01*
X-212968Y175120D01*
G37*
G36*
X-223328Y175120D02*
X-217032Y175120D01*
X-217032Y179588D01*
X-224500Y179588D01*
X-224500Y176292D01*
X-223328Y175120D01*
G37*
G36*
X116822Y127810D02*
X124078Y127810D01*
X130782Y130587D01*
X135913Y135718D01*
X138690Y142422D01*
X138690Y149678D01*
X135913Y156382D01*
X130782Y161513D01*
X124078Y164290D01*
X116822Y164290D01*
X110118Y161513D01*
X104987Y156382D01*
X102210Y149678D01*
X102210Y142422D01*
X104987Y135718D01*
X110118Y130587D01*
X116822Y127810D01*
G37*
G36*
X-73678Y127810D02*
X-66422Y127810D01*
X-59718Y130587D01*
X-54587Y135718D01*
X-51810Y142422D01*
X-51810Y149678D01*
X-54587Y156382D01*
X-59718Y161513D01*
X-66422Y164290D01*
X-73678Y164290D01*
X-80382Y161513D01*
X-85513Y156382D01*
X-88290Y149678D01*
X-88290Y142422D01*
X-85513Y135718D01*
X-80382Y130587D01*
X-73678Y127810D01*
G37*
G36*
X-264178Y127810D02*
X-256922Y127810D01*
X-250218Y130587D01*
X-245087Y135718D01*
X-242310Y142422D01*
X-242310Y149678D01*
X-245087Y156382D01*
X-250218Y161513D01*
X-256922Y164290D01*
X-264178Y164290D01*
X-270882Y161513D01*
X-276013Y156382D01*
X-278790Y149678D01*
X-278790Y142422D01*
X-276013Y135718D01*
X-270882Y130587D01*
X-264178Y127810D01*
G37*
G36*
X-239800Y148082D02*
X-227082Y148082D01*
X-227082Y160550D01*
X-238628Y160550D01*
X-239800Y159378D01*
X-239800Y148082D01*
G37*
G36*
X-49300Y148082D02*
X-36582Y148082D01*
X-36582Y160550D01*
X-48128Y160550D01*
X-49300Y159378D01*
X-49300Y148082D01*
G37*
G36*
X141200Y148082D02*
X153918Y148082D01*
X153918Y160550D01*
X142372Y160550D01*
X141200Y159378D01*
X141200Y148082D01*
G37*
G36*
X157982Y148082D02*
X170700Y148082D01*
X170700Y159378D01*
X169528Y160550D01*
X157982Y160550D01*
X157982Y148082D01*
G37*
G36*
X-32518Y148082D02*
X-19800Y148082D01*
X-19800Y159378D01*
X-20972Y160550D01*
X-32518Y160550D01*
X-32518Y148082D01*
G37*
G36*
X-223018Y148082D02*
X-210300Y148082D01*
X-210300Y159378D01*
X-211472Y160550D01*
X-223018Y160550D01*
X-223018Y148082D01*
G37*
G36*
X157982Y131550D02*
X169528Y131550D01*
X170700Y132722D01*
X170700Y144018D01*
X157982Y144018D01*
X157982Y131550D01*
G37*
G36*
X142372Y131550D02*
X153918Y131550D01*
X153918Y144018D01*
X141200Y144018D01*
X141200Y132722D01*
X142372Y131550D01*
G37*
G36*
X-32518Y131550D02*
X-20972Y131550D01*
X-19800Y132722D01*
X-19800Y144018D01*
X-32518Y144018D01*
X-32518Y131550D01*
G37*
G36*
X-48128Y131550D02*
X-36582Y131550D01*
X-36582Y144018D01*
X-49300Y144018D01*
X-49300Y132722D01*
X-48128Y131550D01*
G37*
G36*
X-223018Y131550D02*
X-211472Y131550D01*
X-210300Y132722D01*
X-210300Y144018D01*
X-223018Y144018D01*
X-223018Y131550D01*
G37*
G36*
X-238628Y131550D02*
X-227082Y131550D01*
X-227082Y144018D01*
X-239800Y144018D01*
X-239800Y132722D01*
X-238628Y131550D01*
G37*
G36*
X42763Y83750D02*
X47338Y83750D01*
X51564Y85501D01*
X54799Y88736D01*
X56550Y92963D01*
X56550Y97538D01*
X55114Y101005D01*
X55037Y101362D01*
X55105Y101760D01*
X55323Y102101D01*
X55656Y102330D01*
X56052Y102410D01*
X60578Y102410D01*
X67282Y105187D01*
X72413Y110318D01*
X75190Y117022D01*
X75190Y124278D01*
X72413Y130982D01*
X67282Y136113D01*
X60578Y138890D01*
X53322Y138890D01*
X46618Y136113D01*
X41487Y130982D01*
X38710Y124278D01*
X38710Y117022D01*
X41487Y110318D01*
X43320Y108484D01*
X43524Y108192D01*
X43617Y107798D01*
X43550Y107400D01*
X43332Y107059D01*
X42998Y106830D01*
X42917Y106814D01*
X38536Y104999D01*
X35301Y101764D01*
X33550Y97538D01*
X33550Y92963D01*
X35301Y88736D01*
X38536Y85501D01*
X42763Y83750D01*
G37*
G36*
X-147738Y83750D02*
X-143163Y83750D01*
X-138936Y85501D01*
X-135701Y88736D01*
X-133950Y92963D01*
X-133950Y97538D01*
X-135386Y101005D01*
X-135463Y101362D01*
X-135395Y101760D01*
X-135177Y102101D01*
X-134844Y102330D01*
X-134448Y102410D01*
X-129922Y102410D01*
X-123218Y105187D01*
X-118087Y110318D01*
X-115310Y117022D01*
X-115310Y124278D01*
X-118087Y130982D01*
X-123218Y136113D01*
X-129922Y138890D01*
X-137178Y138890D01*
X-143882Y136113D01*
X-149013Y130982D01*
X-151790Y124278D01*
X-151790Y117022D01*
X-149013Y110318D01*
X-147180Y108484D01*
X-146976Y108192D01*
X-146883Y107798D01*
X-146950Y107400D01*
X-147168Y107059D01*
X-147502Y106830D01*
X-147583Y106814D01*
X-151964Y104999D01*
X-155199Y101764D01*
X-156950Y97538D01*
X-156950Y92963D01*
X-155199Y88736D01*
X-151964Y85501D01*
X-147738Y83750D01*
G37*
G36*
X-338238Y83750D02*
X-333663Y83750D01*
X-329436Y85501D01*
X-326201Y88736D01*
X-324450Y92963D01*
X-324450Y97538D01*
X-325886Y101005D01*
X-325963Y101362D01*
X-325895Y101760D01*
X-325677Y102101D01*
X-325344Y102330D01*
X-324948Y102410D01*
X-320422Y102410D01*
X-313718Y105187D01*
X-308587Y110318D01*
X-305810Y117022D01*
X-305810Y124278D01*
X-308587Y130982D01*
X-313718Y136113D01*
X-320422Y138890D01*
X-327678Y138890D01*
X-334382Y136113D01*
X-339513Y130982D01*
X-342290Y124278D01*
X-342290Y117022D01*
X-339513Y110318D01*
X-337680Y108484D01*
X-337476Y108192D01*
X-337383Y107798D01*
X-337450Y107400D01*
X-337668Y107059D01*
X-338002Y106830D01*
X-338083Y106814D01*
X-342464Y104999D01*
X-345699Y101764D01*
X-347450Y97538D01*
X-347450Y92963D01*
X-345699Y88736D01*
X-342464Y85501D01*
X-338238Y83750D01*
G37*
G36*
X67409Y31676D02*
X72491Y31676D01*
X77186Y33621D01*
X80779Y37214D01*
X82724Y41909D01*
X82724Y46991D01*
X80779Y51686D01*
X77186Y55279D01*
X72491Y57224D01*
X67409Y57224D01*
X63340Y55539D01*
X62968Y55461D01*
X62570Y55536D01*
X62233Y55759D01*
X24288Y93705D01*
X24070Y94027D01*
X23990Y94423D01*
X23990Y105610D01*
X24058Y105976D01*
X24276Y106317D01*
X24610Y106546D01*
X25006Y106626D01*
X34831Y106626D01*
X35724Y107519D01*
X35724Y133781D01*
X34831Y134674D01*
X8069Y134674D01*
X7176Y133781D01*
X7176Y107519D01*
X8069Y106626D01*
X17894Y106626D01*
X18260Y106558D01*
X18601Y106340D01*
X18830Y106006D01*
X18910Y105610D01*
X18910Y91898D01*
X58641Y52167D01*
X58855Y51852D01*
X58939Y51457D01*
X58861Y51060D01*
X57176Y46991D01*
X57176Y41909D01*
X59121Y37214D01*
X62714Y33621D01*
X67409Y31676D01*
G37*
G36*
X-123091Y31676D02*
X-118009Y31676D01*
X-113314Y33621D01*
X-109721Y37214D01*
X-107776Y41909D01*
X-107776Y46991D01*
X-109721Y51686D01*
X-113314Y55279D01*
X-118009Y57224D01*
X-123091Y57224D01*
X-127160Y55539D01*
X-127532Y55461D01*
X-127930Y55536D01*
X-128267Y55759D01*
X-166212Y93705D01*
X-166430Y94027D01*
X-166510Y94423D01*
X-166510Y105610D01*
X-166442Y105976D01*
X-166224Y106317D01*
X-165890Y106546D01*
X-165494Y106626D01*
X-155669Y106626D01*
X-154776Y107519D01*
X-154776Y133781D01*
X-155669Y134674D01*
X-182431Y134674D01*
X-183324Y133781D01*
X-183324Y107519D01*
X-182431Y106626D01*
X-172606Y106626D01*
X-172240Y106558D01*
X-171899Y106340D01*
X-171670Y106006D01*
X-171590Y105610D01*
X-171590Y91898D01*
X-131859Y52167D01*
X-131645Y51852D01*
X-131561Y51457D01*
X-131639Y51060D01*
X-133324Y46991D01*
X-133324Y41909D01*
X-131379Y37214D01*
X-127786Y33621D01*
X-123091Y31676D01*
G37*
G36*
X-313591Y31676D02*
X-308509Y31676D01*
X-303814Y33621D01*
X-300221Y37214D01*
X-298276Y41909D01*
X-298276Y46991D01*
X-300221Y51686D01*
X-303814Y55279D01*
X-308509Y57224D01*
X-313591Y57224D01*
X-317660Y55539D01*
X-318032Y55461D01*
X-318430Y55536D01*
X-318767Y55759D01*
X-356712Y93705D01*
X-356930Y94027D01*
X-357010Y94423D01*
X-357010Y105610D01*
X-356942Y105976D01*
X-356724Y106317D01*
X-356390Y106546D01*
X-355994Y106626D01*
X-346169Y106626D01*
X-345276Y107519D01*
X-345276Y133781D01*
X-346169Y134674D01*
X-372931Y134674D01*
X-373824Y133781D01*
X-373824Y107519D01*
X-372931Y106626D01*
X-363106Y106626D01*
X-362740Y106558D01*
X-362399Y106340D01*
X-362170Y106006D01*
X-362090Y105610D01*
X-362090Y91898D01*
X-322359Y52167D01*
X-322145Y51852D01*
X-322061Y51457D01*
X-322139Y51060D01*
X-323824Y46991D01*
X-323824Y41909D01*
X-321879Y37214D01*
X-318286Y33621D01*
X-313591Y31676D01*
G37*
G36*
X-100013Y72311D02*
X-90887Y72311D01*
X-82456Y75803D01*
X-76003Y82256D01*
X-72511Y90687D01*
X-72511Y99813D01*
X-76003Y108244D01*
X-82456Y114697D01*
X-90887Y118189D01*
X-100013Y118189D01*
X-108444Y114697D01*
X-114897Y108244D01*
X-118389Y99813D01*
X-118389Y90687D01*
X-114897Y82256D01*
X-108444Y75803D01*
X-100013Y72311D01*
G37*
G36*
X90487Y72311D02*
X99613Y72311D01*
X108044Y75803D01*
X114497Y82256D01*
X117989Y90687D01*
X117989Y99813D01*
X114497Y108244D01*
X108044Y114697D01*
X99613Y118189D01*
X90487Y118189D01*
X82056Y114697D01*
X75603Y108244D01*
X72111Y99813D01*
X72111Y90687D01*
X75603Y82256D01*
X82056Y75803D01*
X90487Y72311D01*
G37*
G36*
X-290513Y72311D02*
X-281387Y72311D01*
X-272956Y75803D01*
X-266503Y82256D01*
X-263011Y90687D01*
X-263011Y99813D01*
X-266503Y108244D01*
X-272956Y114697D01*
X-281387Y118189D01*
X-290513Y118189D01*
X-298944Y114697D01*
X-305397Y108244D01*
X-308889Y99813D01*
X-308889Y90687D01*
X-305397Y82256D01*
X-298944Y75803D01*
X-290513Y72311D01*
G37*
G36*
X-47738Y83750D02*
X-43163Y83750D01*
X-38936Y85501D01*
X-35701Y88736D01*
X-33950Y92963D01*
X-33950Y97538D01*
X-35701Y101764D01*
X-38936Y104999D01*
X-43163Y106750D01*
X-47738Y106750D01*
X-51964Y104999D01*
X-55199Y101764D01*
X-56950Y97538D01*
X-56950Y92963D01*
X-55199Y88736D01*
X-51964Y85501D01*
X-47738Y83750D01*
G37*
G36*
X-238238Y83750D02*
X-233663Y83750D01*
X-229436Y85501D01*
X-226201Y88736D01*
X-224450Y92963D01*
X-224450Y97538D01*
X-226201Y101764D01*
X-229436Y104999D01*
X-233663Y106750D01*
X-238238Y106750D01*
X-242464Y104999D01*
X-245699Y101764D01*
X-247450Y97538D01*
X-247450Y92963D01*
X-245699Y88736D01*
X-242464Y85501D01*
X-238238Y83750D01*
G37*
G36*
X142763Y83750D02*
X147338Y83750D01*
X151564Y85501D01*
X154799Y88736D01*
X156550Y92963D01*
X156550Y97538D01*
X154799Y101764D01*
X151564Y104999D01*
X147338Y106750D01*
X142763Y106750D01*
X138536Y104999D01*
X135301Y101764D01*
X133550Y97538D01*
X133550Y92963D01*
X135301Y88736D01*
X138536Y85501D01*
X142763Y83750D01*
G37*
G36*
X119900Y71882D02*
X131118Y71882D01*
X131118Y83100D01*
X130514Y83100D01*
X125644Y81083D01*
X121917Y77356D01*
X119900Y72486D01*
X119900Y71882D01*
G37*
G36*
X-70600Y71882D02*
X-59382Y71882D01*
X-59382Y83100D01*
X-59986Y83100D01*
X-64856Y81083D01*
X-68583Y77356D01*
X-70600Y72486D01*
X-70600Y71882D01*
G37*
G36*
X-261100Y71882D02*
X-249882Y71882D01*
X-249882Y83100D01*
X-250486Y83100D01*
X-255356Y81083D01*
X-259083Y77356D01*
X-261100Y72486D01*
X-261100Y71882D01*
G37*
G36*
X-245818Y71882D02*
X-234600Y71882D01*
X-234600Y72486D01*
X-236617Y77356D01*
X-240344Y81083D01*
X-245214Y83100D01*
X-245818Y83100D01*
X-245818Y71882D01*
G37*
G36*
X-55318Y71882D02*
X-44100Y71882D01*
X-44100Y72486D01*
X-46117Y77356D01*
X-49844Y81083D01*
X-54714Y83100D01*
X-55318Y83100D01*
X-55318Y71882D01*
G37*
G36*
X135182Y71882D02*
X146400Y71882D01*
X146400Y72486D01*
X144383Y77356D01*
X140656Y81083D01*
X135786Y83100D01*
X135182Y83100D01*
X135182Y71882D01*
G37*
G36*
X-245818Y56600D02*
X-245214Y56600D01*
X-240344Y58617D01*
X-236617Y62344D01*
X-234600Y67214D01*
X-234600Y67818D01*
X-245818Y67818D01*
X-245818Y56600D01*
G37*
G36*
X-59986Y56600D02*
X-59382Y56600D01*
X-59382Y67818D01*
X-70600Y67818D01*
X-70600Y67214D01*
X-68583Y62344D01*
X-64856Y58617D01*
X-59986Y56600D01*
G37*
G36*
X-55318Y56600D02*
X-54714Y56600D01*
X-49844Y58617D01*
X-46117Y62344D01*
X-44100Y67214D01*
X-44100Y67818D01*
X-55318Y67818D01*
X-55318Y56600D01*
G37*
G36*
X130514Y56600D02*
X131118Y56600D01*
X131118Y67818D01*
X119900Y67818D01*
X119900Y67214D01*
X121917Y62344D01*
X125644Y58617D01*
X130514Y56600D01*
G37*
G36*
X135182Y56600D02*
X135786Y56600D01*
X140656Y58617D01*
X144383Y62344D01*
X146400Y67214D01*
X146400Y67818D01*
X135182Y67818D01*
X135182Y56600D01*
G37*
G36*
X-250486Y56600D02*
X-249882Y56600D01*
X-249882Y67818D01*
X-261100Y67818D01*
X-261100Y67214D01*
X-259083Y62344D01*
X-255356Y58617D01*
X-250486Y56600D01*
G37*
G36*
X282468Y-16500D02*
X289032Y-16500D01*
X295097Y-13988D01*
X299738Y-9347D01*
X302250Y-3282D01*
X302250Y3282D01*
X299738Y9347D01*
X295097Y13988D01*
X289032Y16500D01*
X282468Y16500D01*
X276403Y13988D01*
X271762Y9347D01*
X269250Y3282D01*
X269250Y-3282D01*
X271762Y-9347D01*
X276403Y-13988D01*
X282468Y-16500D01*
G37*
G36*
X-289032Y-16500D02*
X-282468Y-16500D01*
X-276403Y-13988D01*
X-271762Y-9347D01*
X-269250Y-3282D01*
X-269250Y3282D01*
X-271762Y9347D01*
X-276403Y13988D01*
X-282468Y16500D01*
X-289032Y16500D01*
X-295097Y13988D01*
X-299738Y9347D01*
X-302250Y3282D01*
X-302250Y-3282D01*
X-299738Y-9347D01*
X-295097Y-13988D01*
X-289032Y-16500D01*
G37*
G36*
X-263978Y-62690D02*
X-256722Y-62690D01*
X-250018Y-59913D01*
X-244887Y-54782D01*
X-242110Y-48078D01*
X-242110Y-40822D01*
X-244887Y-34118D01*
X-250018Y-28987D01*
X-256722Y-26210D01*
X-263978Y-26210D01*
X-270682Y-28987D01*
X-275813Y-34118D01*
X-278590Y-40822D01*
X-278590Y-48078D01*
X-275813Y-54782D01*
X-270682Y-59913D01*
X-263978Y-62690D01*
G37*
G36*
X307522Y-62690D02*
X314778Y-62690D01*
X321482Y-59913D01*
X326613Y-54782D01*
X329390Y-48078D01*
X329390Y-40822D01*
X326613Y-34118D01*
X321482Y-28987D01*
X314778Y-26210D01*
X307522Y-26210D01*
X300818Y-28987D01*
X295687Y-34118D01*
X292910Y-40822D01*
X292910Y-48078D01*
X295687Y-54782D01*
X300818Y-59913D01*
X307522Y-62690D01*
G37*
G36*
X117022Y-62690D02*
X124278Y-62690D01*
X130982Y-59913D01*
X136113Y-54782D01*
X138890Y-48078D01*
X138890Y-40822D01*
X136113Y-34118D01*
X130982Y-28987D01*
X124278Y-26210D01*
X117022Y-26210D01*
X110318Y-28987D01*
X105187Y-34118D01*
X102410Y-40822D01*
X102410Y-48078D01*
X105187Y-54782D01*
X110318Y-59913D01*
X117022Y-62690D01*
G37*
G36*
X-32318Y-42418D02*
X-19600Y-42418D01*
X-19600Y-31122D01*
X-20772Y-29950D01*
X-32318Y-29950D01*
X-32318Y-42418D01*
G37*
G36*
X348682Y-42418D02*
X361400Y-42418D01*
X361400Y-31122D01*
X360228Y-29950D01*
X348682Y-29950D01*
X348682Y-42418D01*
G37*
G36*
X158182Y-42418D02*
X170900Y-42418D01*
X170900Y-31122D01*
X169728Y-29950D01*
X158182Y-29950D01*
X158182Y-42418D01*
G37*
G36*
X-222818Y-42418D02*
X-210100Y-42418D01*
X-210100Y-31122D01*
X-211272Y-29950D01*
X-222818Y-29950D01*
X-222818Y-42418D01*
G37*
G36*
X-239600Y-42418D02*
X-226882Y-42418D01*
X-226882Y-29950D01*
X-238428Y-29950D01*
X-239600Y-31122D01*
X-239600Y-42418D01*
G37*
G36*
X-49100Y-42418D02*
X-36382Y-42418D01*
X-36382Y-29950D01*
X-47928Y-29950D01*
X-49100Y-31122D01*
X-49100Y-42418D01*
G37*
G36*
X141400Y-42418D02*
X154118Y-42418D01*
X154118Y-29950D01*
X142572Y-29950D01*
X141400Y-31122D01*
X141400Y-42418D01*
G37*
G36*
X331900Y-42418D02*
X344618Y-42418D01*
X344618Y-29950D01*
X333072Y-29950D01*
X331900Y-31122D01*
X331900Y-42418D01*
G37*
G36*
X333072Y-58950D02*
X344618Y-58950D01*
X344618Y-46482D01*
X331900Y-46482D01*
X331900Y-57778D01*
X333072Y-58950D01*
G37*
G36*
X-238428Y-58950D02*
X-226882Y-58950D01*
X-226882Y-46482D01*
X-239600Y-46482D01*
X-239600Y-57778D01*
X-238428Y-58950D01*
G37*
G36*
X-222818Y-58950D02*
X-211272Y-58950D01*
X-210100Y-57778D01*
X-210100Y-46482D01*
X-222818Y-46482D01*
X-222818Y-58950D01*
G37*
G36*
X-47928Y-58950D02*
X-36382Y-58950D01*
X-36382Y-46482D01*
X-49100Y-46482D01*
X-49100Y-57778D01*
X-47928Y-58950D01*
G37*
G36*
X-32318Y-58950D02*
X-20772Y-58950D01*
X-19600Y-57778D01*
X-19600Y-46482D01*
X-32318Y-46482D01*
X-32318Y-58950D01*
G37*
G36*
X142572Y-58950D02*
X154118Y-58950D01*
X154118Y-46482D01*
X141400Y-46482D01*
X141400Y-57778D01*
X142572Y-58950D01*
G37*
G36*
X158182Y-58950D02*
X169728Y-58950D01*
X170900Y-57778D01*
X170900Y-46482D01*
X158182Y-46482D01*
X158182Y-58950D01*
G37*
G36*
X348682Y-58950D02*
X360228Y-58950D01*
X361400Y-57778D01*
X361400Y-46482D01*
X348682Y-46482D01*
X348682Y-58950D01*
G37*
G36*
X42963Y-106750D02*
X47538Y-106750D01*
X51764Y-104999D01*
X54999Y-101764D01*
X56750Y-97538D01*
X56750Y-92963D01*
X55314Y-89495D01*
X55237Y-89138D01*
X55305Y-88740D01*
X55523Y-88399D01*
X55856Y-88170D01*
X56252Y-88090D01*
X60778Y-88090D01*
X67482Y-85313D01*
X72613Y-80182D01*
X75390Y-73478D01*
X75390Y-66222D01*
X72613Y-59518D01*
X67482Y-54387D01*
X60778Y-51610D01*
X53522Y-51610D01*
X46818Y-54387D01*
X41687Y-59518D01*
X38910Y-66222D01*
X38910Y-73478D01*
X41687Y-80182D01*
X43520Y-82016D01*
X43724Y-82308D01*
X43817Y-82702D01*
X43750Y-83100D01*
X43532Y-83441D01*
X43198Y-83670D01*
X43117Y-83686D01*
X38736Y-85501D01*
X35501Y-88736D01*
X33750Y-92963D01*
X33750Y-97538D01*
X35501Y-101764D01*
X38736Y-104999D01*
X42963Y-106750D01*
G37*
G36*
X-338038Y-106750D02*
X-333463Y-106750D01*
X-329236Y-104999D01*
X-326001Y-101764D01*
X-324250Y-97538D01*
X-324250Y-92963D01*
X-325686Y-89495D01*
X-325763Y-89138D01*
X-325695Y-88740D01*
X-325477Y-88399D01*
X-325144Y-88170D01*
X-324748Y-88090D01*
X-320222Y-88090D01*
X-313518Y-85313D01*
X-308387Y-80182D01*
X-305610Y-73478D01*
X-305610Y-66222D01*
X-308387Y-59518D01*
X-313518Y-54387D01*
X-320222Y-51610D01*
X-327478Y-51610D01*
X-334182Y-54387D01*
X-339313Y-59518D01*
X-342090Y-66222D01*
X-342090Y-73478D01*
X-339313Y-80182D01*
X-337480Y-82016D01*
X-337276Y-82308D01*
X-337183Y-82702D01*
X-337250Y-83100D01*
X-337468Y-83441D01*
X-337802Y-83670D01*
X-337883Y-83686D01*
X-342264Y-85501D01*
X-345499Y-88736D01*
X-347250Y-92963D01*
X-347250Y-97538D01*
X-345499Y-101764D01*
X-342264Y-104999D01*
X-338038Y-106750D01*
G37*
G36*
X-147538Y-106750D02*
X-142963Y-106750D01*
X-138736Y-104999D01*
X-135501Y-101764D01*
X-133750Y-97538D01*
X-133750Y-92963D01*
X-135186Y-89495D01*
X-135263Y-89138D01*
X-135195Y-88740D01*
X-134977Y-88399D01*
X-134644Y-88170D01*
X-134248Y-88090D01*
X-129722Y-88090D01*
X-123018Y-85313D01*
X-117887Y-80182D01*
X-115110Y-73478D01*
X-115110Y-66222D01*
X-117887Y-59518D01*
X-123018Y-54387D01*
X-129722Y-51610D01*
X-136978Y-51610D01*
X-143682Y-54387D01*
X-148813Y-59518D01*
X-151590Y-66222D01*
X-151590Y-73478D01*
X-148813Y-80182D01*
X-146980Y-82016D01*
X-146776Y-82308D01*
X-146683Y-82702D01*
X-146750Y-83100D01*
X-146968Y-83441D01*
X-147302Y-83670D01*
X-147383Y-83686D01*
X-151764Y-85501D01*
X-154999Y-88736D01*
X-156750Y-92963D01*
X-156750Y-97538D01*
X-154999Y-101764D01*
X-151764Y-104999D01*
X-147538Y-106750D01*
G37*
G36*
X233463Y-106750D02*
X238038Y-106750D01*
X242264Y-104999D01*
X245499Y-101764D01*
X247250Y-97538D01*
X247250Y-92963D01*
X245814Y-89495D01*
X245737Y-89138D01*
X245805Y-88740D01*
X246023Y-88399D01*
X246356Y-88170D01*
X246752Y-88090D01*
X251278Y-88090D01*
X257982Y-85313D01*
X263113Y-80182D01*
X265890Y-73478D01*
X265890Y-66222D01*
X263113Y-59518D01*
X257982Y-54387D01*
X251278Y-51610D01*
X244022Y-51610D01*
X237318Y-54387D01*
X232187Y-59518D01*
X229410Y-66222D01*
X229410Y-73478D01*
X232187Y-80182D01*
X234020Y-82016D01*
X234224Y-82308D01*
X234317Y-82702D01*
X234250Y-83100D01*
X234032Y-83441D01*
X233698Y-83670D01*
X233617Y-83686D01*
X229236Y-85501D01*
X226001Y-88736D01*
X224250Y-92963D01*
X224250Y-97538D01*
X226001Y-101764D01*
X229236Y-104999D01*
X233463Y-106750D01*
G37*
G36*
X67609Y-158824D02*
X72691Y-158824D01*
X77386Y-156879D01*
X80979Y-153286D01*
X82924Y-148591D01*
X82924Y-143509D01*
X80979Y-138814D01*
X77386Y-135221D01*
X72691Y-133276D01*
X67609Y-133276D01*
X63540Y-134961D01*
X63168Y-135039D01*
X62770Y-134964D01*
X62433Y-134741D01*
X24488Y-96795D01*
X24270Y-96473D01*
X24190Y-96077D01*
X24190Y-84890D01*
X24258Y-84524D01*
X24476Y-84183D01*
X24810Y-83954D01*
X25206Y-83874D01*
X35031Y-83874D01*
X35924Y-82981D01*
X35924Y-56719D01*
X35031Y-55826D01*
X8269Y-55826D01*
X7376Y-56719D01*
X7376Y-82981D01*
X8269Y-83874D01*
X18094Y-83874D01*
X18460Y-83942D01*
X18801Y-84160D01*
X19030Y-84494D01*
X19110Y-84890D01*
X19110Y-98602D01*
X58841Y-138333D01*
X59055Y-138648D01*
X59139Y-139044D01*
X59061Y-139440D01*
X57376Y-143509D01*
X57376Y-148591D01*
X59321Y-153286D01*
X62914Y-156879D01*
X67609Y-158824D01*
G37*
G36*
X-313391Y-158824D02*
X-308309Y-158824D01*
X-303614Y-156879D01*
X-300021Y-153286D01*
X-298076Y-148591D01*
X-298076Y-143509D01*
X-300021Y-138814D01*
X-303614Y-135221D01*
X-308309Y-133276D01*
X-313391Y-133276D01*
X-317460Y-134961D01*
X-317832Y-135039D01*
X-318230Y-134964D01*
X-318567Y-134741D01*
X-356512Y-96795D01*
X-356730Y-96473D01*
X-356810Y-96077D01*
X-356810Y-84890D01*
X-356742Y-84524D01*
X-356524Y-84183D01*
X-356190Y-83954D01*
X-355794Y-83874D01*
X-345969Y-83874D01*
X-345076Y-82981D01*
X-345076Y-56719D01*
X-345969Y-55826D01*
X-372731Y-55826D01*
X-373624Y-56719D01*
X-373624Y-82981D01*
X-372731Y-83874D01*
X-362906Y-83874D01*
X-362540Y-83942D01*
X-362199Y-84160D01*
X-361970Y-84494D01*
X-361890Y-84890D01*
X-361890Y-98602D01*
X-322159Y-138333D01*
X-321945Y-138648D01*
X-321861Y-139044D01*
X-321939Y-139440D01*
X-323624Y-143509D01*
X-323624Y-148591D01*
X-321679Y-153286D01*
X-318086Y-156879D01*
X-313391Y-158824D01*
G37*
G36*
X-99813Y-118189D02*
X-90687Y-118189D01*
X-82256Y-114697D01*
X-75803Y-108244D01*
X-72311Y-99813D01*
X-72311Y-90687D01*
X-75803Y-82256D01*
X-82256Y-75803D01*
X-90687Y-72311D01*
X-99813Y-72311D01*
X-108244Y-75803D01*
X-114697Y-82256D01*
X-118189Y-90687D01*
X-118189Y-99813D01*
X-114697Y-108244D01*
X-108244Y-114697D01*
X-99813Y-118189D01*
G37*
G36*
X-290313Y-118189D02*
X-281187Y-118189D01*
X-272756Y-114697D01*
X-266303Y-108244D01*
X-262811Y-99813D01*
X-262811Y-90687D01*
X-266303Y-82256D01*
X-272756Y-75803D01*
X-281187Y-72311D01*
X-290313Y-72311D01*
X-298744Y-75803D01*
X-305197Y-82256D01*
X-308689Y-90687D01*
X-308689Y-99813D01*
X-305197Y-108244D01*
X-298744Y-114697D01*
X-290313Y-118189D01*
G37*
G36*
X281187Y-118189D02*
X290313Y-118189D01*
X298744Y-114697D01*
X305197Y-108244D01*
X308689Y-99813D01*
X308689Y-90687D01*
X305197Y-82256D01*
X298744Y-75803D01*
X290313Y-72311D01*
X281187Y-72311D01*
X272756Y-75803D01*
X266303Y-82256D01*
X262811Y-90687D01*
X262811Y-99813D01*
X266303Y-108244D01*
X272756Y-114697D01*
X281187Y-118189D01*
G37*
G36*
X90687Y-118189D02*
X99813Y-118189D01*
X108244Y-114697D01*
X114697Y-108244D01*
X118189Y-99813D01*
X118189Y-90687D01*
X114697Y-82256D01*
X108244Y-75803D01*
X99813Y-72311D01*
X90687Y-72311D01*
X82256Y-75803D01*
X75803Y-82256D01*
X72311Y-90687D01*
X72311Y-99813D01*
X75803Y-108244D01*
X82256Y-114697D01*
X90687Y-118189D01*
G37*
G36*
X-47538Y-106750D02*
X-42963Y-106750D01*
X-38736Y-104999D01*
X-35501Y-101764D01*
X-33750Y-97538D01*
X-33750Y-92963D01*
X-35501Y-88736D01*
X-38736Y-85501D01*
X-42963Y-83750D01*
X-47538Y-83750D01*
X-51764Y-85501D01*
X-54999Y-88736D01*
X-56750Y-92963D01*
X-56750Y-97538D01*
X-54999Y-101764D01*
X-51764Y-104999D01*
X-47538Y-106750D01*
G37*
G36*
X142963Y-106750D02*
X147538Y-106750D01*
X151764Y-104999D01*
X154999Y-101764D01*
X156750Y-97538D01*
X156750Y-92963D01*
X154999Y-88736D01*
X151764Y-85501D01*
X147538Y-83750D01*
X142963Y-83750D01*
X138736Y-85501D01*
X135501Y-88736D01*
X133750Y-92963D01*
X133750Y-97538D01*
X135501Y-101764D01*
X138736Y-104999D01*
X142963Y-106750D01*
G37*
G36*
X333463Y-106750D02*
X338038Y-106750D01*
X342264Y-104999D01*
X345499Y-101764D01*
X347250Y-97538D01*
X347250Y-92963D01*
X345499Y-88736D01*
X342264Y-85501D01*
X338038Y-83750D01*
X333463Y-83750D01*
X329236Y-85501D01*
X326001Y-88736D01*
X324250Y-92963D01*
X324250Y-97538D01*
X326001Y-101764D01*
X329236Y-104999D01*
X333463Y-106750D01*
G37*
G36*
X-238038Y-106750D02*
X-233463Y-106750D01*
X-229236Y-104999D01*
X-226001Y-101764D01*
X-224250Y-97538D01*
X-224250Y-92963D01*
X-226001Y-88736D01*
X-229236Y-85501D01*
X-233463Y-83750D01*
X-238038Y-83750D01*
X-242264Y-85501D01*
X-245499Y-88736D01*
X-247250Y-92963D01*
X-247250Y-97538D01*
X-245499Y-101764D01*
X-242264Y-104999D01*
X-238038Y-106750D01*
G37*
G36*
X325882Y-118618D02*
X337100Y-118618D01*
X337100Y-118014D01*
X335083Y-113144D01*
X331356Y-109417D01*
X326486Y-107400D01*
X325882Y-107400D01*
X325882Y-118618D01*
G37*
G36*
X135382Y-118618D02*
X146600Y-118618D01*
X146600Y-118014D01*
X144583Y-113144D01*
X140856Y-109417D01*
X135986Y-107400D01*
X135382Y-107400D01*
X135382Y-118618D01*
G37*
G36*
X-55118Y-118618D02*
X-43900Y-118618D01*
X-43900Y-118014D01*
X-45917Y-113144D01*
X-49644Y-109417D01*
X-54514Y-107400D01*
X-55118Y-107400D01*
X-55118Y-118618D01*
G37*
G36*
X-245618Y-118618D02*
X-234400Y-118618D01*
X-234400Y-118014D01*
X-236417Y-113144D01*
X-240144Y-109417D01*
X-245014Y-107400D01*
X-245618Y-107400D01*
X-245618Y-118618D01*
G37*
G36*
X-260900Y-118618D02*
X-249682Y-118618D01*
X-249682Y-107400D01*
X-250286Y-107400D01*
X-255156Y-109417D01*
X-258883Y-113144D01*
X-260900Y-118014D01*
X-260900Y-118618D01*
G37*
G36*
X-70400Y-118618D02*
X-59182Y-118618D01*
X-59182Y-107400D01*
X-59786Y-107400D01*
X-64656Y-109417D01*
X-68383Y-113144D01*
X-70400Y-118014D01*
X-70400Y-118618D01*
G37*
G36*
X120100Y-118618D02*
X131318Y-118618D01*
X131318Y-107400D01*
X130714Y-107400D01*
X125844Y-109417D01*
X122117Y-113144D01*
X120100Y-118014D01*
X120100Y-118618D01*
G37*
G36*
X310600Y-118618D02*
X321818Y-118618D01*
X321818Y-107400D01*
X321214Y-107400D01*
X316344Y-109417D01*
X312617Y-113144D01*
X310600Y-118014D01*
X310600Y-118618D01*
G37*
G36*
X325882Y-133900D02*
X326486Y-133900D01*
X331356Y-131883D01*
X335083Y-128156D01*
X337100Y-123286D01*
X337100Y-122682D01*
X325882Y-122682D01*
X325882Y-133900D01*
G37*
G36*
X321214Y-133900D02*
X321818Y-133900D01*
X321818Y-122682D01*
X310600Y-122682D01*
X310600Y-123286D01*
X312617Y-128156D01*
X316344Y-131883D01*
X321214Y-133900D01*
G37*
G36*
X-250286Y-133900D02*
X-249682Y-133900D01*
X-249682Y-122682D01*
X-260900Y-122682D01*
X-260900Y-123286D01*
X-258883Y-128156D01*
X-255156Y-131883D01*
X-250286Y-133900D01*
G37*
G36*
X-245618Y-133900D02*
X-245014Y-133900D01*
X-240144Y-131883D01*
X-236417Y-128156D01*
X-234400Y-123286D01*
X-234400Y-122682D01*
X-245618Y-122682D01*
X-245618Y-133900D01*
G37*
G36*
X-59786Y-133900D02*
X-59182Y-133900D01*
X-59182Y-122682D01*
X-70400Y-122682D01*
X-70400Y-123286D01*
X-68383Y-128156D01*
X-64656Y-131883D01*
X-59786Y-133900D01*
G37*
G36*
X135382Y-133900D02*
X135986Y-133900D01*
X140856Y-131883D01*
X144583Y-128156D01*
X146600Y-123286D01*
X146600Y-122682D01*
X135382Y-122682D01*
X135382Y-133900D01*
G37*
G36*
X130714Y-133900D02*
X131318Y-133900D01*
X131318Y-122682D01*
X120100Y-122682D01*
X120100Y-123286D01*
X122117Y-128156D01*
X125844Y-131883D01*
X130714Y-133900D01*
G37*
G36*
X-55118Y-133900D02*
X-54514Y-133900D01*
X-49644Y-131883D01*
X-45917Y-128156D01*
X-43900Y-123286D01*
X-43900Y-122682D01*
X-55118Y-122682D01*
X-55118Y-133900D01*
G37*
G36*
X-174131Y-205404D02*
X-157869Y-205404D01*
X-156976Y-204511D01*
X-156976Y-194369D01*
X-156902Y-193988D01*
X-156678Y-193651D01*
X-146205Y-183178D01*
X-145883Y-182960D01*
X-145487Y-182880D01*
X153452Y-182880D01*
X163631Y-172702D01*
X163953Y-172484D01*
X164349Y-172404D01*
X174131Y-172404D01*
X175024Y-171511D01*
X175024Y-161249D01*
X174131Y-160356D01*
X157869Y-160356D01*
X156976Y-161249D01*
X156976Y-171751D01*
X156902Y-172132D01*
X156678Y-172469D01*
X151645Y-177502D01*
X151323Y-177720D01*
X150927Y-177800D01*
X-148012Y-177800D01*
X-163271Y-193058D01*
X-163593Y-193276D01*
X-163989Y-193356D01*
X-174131Y-193356D01*
X-175024Y-194249D01*
X-175024Y-204511D01*
X-174131Y-205404D01*
G37*
G36*
X-361333Y-219724D02*
X-275749Y-219724D01*
X-251013Y-194988D01*
X-250691Y-194770D01*
X-250294Y-194690D01*
X-246151Y-194690D01*
X-245785Y-194758D01*
X-245444Y-194976D01*
X-245215Y-195310D01*
X-245135Y-195706D01*
X-245135Y-195862D01*
X-244242Y-196755D01*
X-233278Y-196755D01*
X-232385Y-195862D01*
X-232385Y-195706D01*
X-232317Y-195340D01*
X-232099Y-194999D01*
X-231765Y-194770D01*
X-231369Y-194690D01*
X-229457Y-194690D01*
X-219468Y-184702D01*
X-219146Y-184484D01*
X-218750Y-184404D01*
X-178277Y-184404D01*
X-166574Y-172702D01*
X-166252Y-172484D01*
X-165856Y-172404D01*
X-157869Y-172404D01*
X-156976Y-171511D01*
X-156976Y-161249D01*
X-157869Y-160356D01*
X-174131Y-160356D01*
X-175024Y-161249D01*
X-175024Y-169236D01*
X-175098Y-169617D01*
X-175322Y-169954D01*
X-181346Y-175978D01*
X-181668Y-176196D01*
X-182064Y-176276D01*
X-222537Y-176276D01*
X-231300Y-185039D01*
X-231607Y-185249D01*
X-232002Y-185336D01*
X-232400Y-185262D01*
X-232737Y-185039D01*
X-233278Y-184498D01*
X-244242Y-184498D01*
X-245135Y-185390D01*
X-245135Y-185546D01*
X-245203Y-185912D01*
X-245421Y-186253D01*
X-245755Y-186482D01*
X-246151Y-186562D01*
X-254082Y-186562D01*
X-278818Y-211298D01*
X-279141Y-211516D01*
X-279537Y-211596D01*
X-357546Y-211596D01*
X-357927Y-211522D01*
X-358264Y-211298D01*
X-362303Y-207259D01*
X-362521Y-206937D01*
X-362601Y-206541D01*
X-362601Y-206445D01*
X-365195Y-203851D01*
X-368865Y-203851D01*
X-371459Y-206445D01*
X-371459Y-210115D01*
X-368865Y-212709D01*
X-368769Y-212709D01*
X-368388Y-212783D01*
X-368051Y-213007D01*
X-361333Y-219724D01*
G37*
G36*
X-245611Y-173102D02*
X-240792Y-173102D01*
X-240792Y-168530D01*
X-244439Y-168530D01*
X-245611Y-169701D01*
X-245611Y-173102D01*
G37*
G36*
X-236728Y-173102D02*
X-231909Y-173102D01*
X-231909Y-169701D01*
X-233081Y-168530D01*
X-236728Y-168530D01*
X-236728Y-173102D01*
G37*
G36*
X-289032Y-207000D02*
X-282468Y-207000D01*
X-276403Y-204488D01*
X-271762Y-199847D01*
X-269250Y-193782D01*
X-269250Y-187218D01*
X-271762Y-181153D01*
X-276403Y-176512D01*
X-282468Y-174000D01*
X-289032Y-174000D01*
X-295097Y-176512D01*
X-299738Y-181153D01*
X-302250Y-187218D01*
X-302250Y-193782D01*
X-299738Y-199847D01*
X-295097Y-204488D01*
X-289032Y-207000D01*
G37*
G36*
X282468Y-207000D02*
X289032Y-207000D01*
X295097Y-204488D01*
X299738Y-199847D01*
X302250Y-193782D01*
X302250Y-187218D01*
X299738Y-181153D01*
X295097Y-176512D01*
X289032Y-174000D01*
X282468Y-174000D01*
X276403Y-176512D01*
X271762Y-181153D01*
X269250Y-187218D01*
X269250Y-193782D01*
X271762Y-199847D01*
X276403Y-204488D01*
X282468Y-207000D01*
G37*
G36*
X-236728Y-181739D02*
X-233081Y-181739D01*
X-231909Y-180567D01*
X-231909Y-177166D01*
X-236728Y-177166D01*
X-236728Y-181739D01*
G37*
G36*
X-244439Y-181739D02*
X-240792Y-181739D01*
X-240792Y-177166D01*
X-245611Y-177166D01*
X-245611Y-180567D01*
X-244439Y-181739D01*
G37*
G36*
X243332Y-191134D02*
X248151Y-191134D01*
X248151Y-187733D01*
X246979Y-186562D01*
X243332Y-186562D01*
X243332Y-191134D01*
G37*
G36*
X234449Y-191134D02*
X239268Y-191134D01*
X239268Y-186562D01*
X235621Y-186562D01*
X234449Y-187733D01*
X234449Y-191134D01*
G37*
G36*
X168032Y-197348D02*
X175500Y-197348D01*
X175500Y-194052D01*
X174328Y-192880D01*
X168032Y-192880D01*
X168032Y-197348D01*
G37*
G36*
X-212968Y-197348D02*
X-205500Y-197348D01*
X-205500Y-194052D01*
X-206672Y-192880D01*
X-212968Y-192880D01*
X-212968Y-197348D01*
G37*
G36*
X-224500Y-197348D02*
X-217032Y-197348D01*
X-217032Y-192880D01*
X-223328Y-192880D01*
X-224500Y-194052D01*
X-224500Y-197348D01*
G37*
G36*
X156500Y-197348D02*
X163968Y-197348D01*
X163968Y-192880D01*
X157672Y-192880D01*
X156500Y-194052D01*
X156500Y-197348D01*
G37*
G36*
X206869Y-205404D02*
X223131Y-205404D01*
X224024Y-204511D01*
X224024Y-194249D01*
X223131Y-193356D01*
X206869Y-193356D01*
X205976Y-194249D01*
X205976Y-204511D01*
X206869Y-205404D01*
G37*
G36*
X243332Y-199771D02*
X246979Y-199771D01*
X248151Y-198599D01*
X248151Y-195198D01*
X243332Y-195198D01*
X243332Y-199771D01*
G37*
G36*
X235621Y-199771D02*
X239268Y-199771D01*
X239268Y-195198D01*
X234449Y-195198D01*
X234449Y-198599D01*
X235621Y-199771D01*
G37*
G36*
X-223328Y-205880D02*
X-217032Y-205880D01*
X-217032Y-201412D01*
X-224500Y-201412D01*
X-224500Y-204708D01*
X-223328Y-205880D01*
G37*
G36*
X-212968Y-205880D02*
X-206672Y-205880D01*
X-205500Y-204708D01*
X-205500Y-201412D01*
X-212968Y-201412D01*
X-212968Y-205880D01*
G37*
G36*
X-73478Y-253190D02*
X-66222Y-253190D01*
X-59518Y-250413D01*
X-54387Y-245282D01*
X-51610Y-238578D01*
X-51610Y-231322D01*
X-54387Y-224618D01*
X-59518Y-219487D01*
X-66222Y-216710D01*
X-73478Y-216710D01*
X-80182Y-219487D01*
X-85313Y-224618D01*
X-88090Y-231322D01*
X-88090Y-238578D01*
X-85313Y-245282D01*
X-80182Y-250413D01*
X-73478Y-253190D01*
G37*
G36*
X-263978Y-253190D02*
X-256722Y-253190D01*
X-250018Y-250413D01*
X-244887Y-245282D01*
X-242110Y-238578D01*
X-242110Y-231322D01*
X-244887Y-224618D01*
X-250018Y-219487D01*
X-256722Y-216710D01*
X-263978Y-216710D01*
X-270682Y-219487D01*
X-275813Y-224618D01*
X-278590Y-231322D01*
X-278590Y-238578D01*
X-275813Y-245282D01*
X-270682Y-250413D01*
X-263978Y-253190D01*
G37*
G36*
X307522Y-253190D02*
X314778Y-253190D01*
X321482Y-250413D01*
X326613Y-245282D01*
X329390Y-238578D01*
X329390Y-231322D01*
X326613Y-224618D01*
X321482Y-219487D01*
X314778Y-216710D01*
X307522Y-216710D01*
X300818Y-219487D01*
X295687Y-224618D01*
X292910Y-231322D01*
X292910Y-238578D01*
X295687Y-245282D01*
X300818Y-250413D01*
X307522Y-253190D01*
G37*
G36*
X141400Y-232918D02*
X154118Y-232918D01*
X154118Y-220450D01*
X142572Y-220450D01*
X141400Y-221622D01*
X141400Y-232918D01*
G37*
G36*
X-239600Y-232918D02*
X-226882Y-232918D01*
X-226882Y-220450D01*
X-238428Y-220450D01*
X-239600Y-221622D01*
X-239600Y-232918D01*
G37*
G36*
X331900Y-232918D02*
X344618Y-232918D01*
X344618Y-220450D01*
X333072Y-220450D01*
X331900Y-221622D01*
X331900Y-232918D01*
G37*
G36*
X-49100Y-232918D02*
X-36382Y-232918D01*
X-36382Y-220450D01*
X-47928Y-220450D01*
X-49100Y-221622D01*
X-49100Y-232918D01*
G37*
G36*
X-32318Y-232918D02*
X-19600Y-232918D01*
X-19600Y-221622D01*
X-20772Y-220450D01*
X-32318Y-220450D01*
X-32318Y-232918D01*
G37*
G36*
X348682Y-232918D02*
X361400Y-232918D01*
X361400Y-221622D01*
X360228Y-220450D01*
X348682Y-220450D01*
X348682Y-232918D01*
G37*
G36*
X-222818Y-232918D02*
X-210100Y-232918D01*
X-210100Y-221622D01*
X-211272Y-220450D01*
X-222818Y-220450D01*
X-222818Y-232918D01*
G37*
G36*
X158182Y-232918D02*
X170900Y-232918D01*
X170900Y-221622D01*
X169728Y-220450D01*
X158182Y-220450D01*
X158182Y-232918D01*
G37*
G36*
X-32318Y-249450D02*
X-20772Y-249450D01*
X-19600Y-248278D01*
X-19600Y-236982D01*
X-32318Y-236982D01*
X-32318Y-249450D01*
G37*
G36*
X158182Y-249450D02*
X169728Y-249450D01*
X170900Y-248278D01*
X170900Y-236982D01*
X158182Y-236982D01*
X158182Y-249450D01*
G37*
G36*
X142572Y-249450D02*
X154118Y-249450D01*
X154118Y-236982D01*
X141400Y-236982D01*
X141400Y-248278D01*
X142572Y-249450D01*
G37*
G36*
X-238428Y-249450D02*
X-226882Y-249450D01*
X-226882Y-236982D01*
X-239600Y-236982D01*
X-239600Y-248278D01*
X-238428Y-249450D01*
G37*
G36*
X-222818Y-249450D02*
X-211272Y-249450D01*
X-210100Y-248278D01*
X-210100Y-236982D01*
X-222818Y-236982D01*
X-222818Y-249450D01*
G37*
G36*
X-47928Y-249450D02*
X-36382Y-249450D01*
X-36382Y-236982D01*
X-49100Y-236982D01*
X-49100Y-248278D01*
X-47928Y-249450D01*
G37*
G36*
X348682Y-249450D02*
X360228Y-249450D01*
X361400Y-248278D01*
X361400Y-236982D01*
X348682Y-236982D01*
X348682Y-249450D01*
G37*
G36*
X333072Y-249450D02*
X344618Y-249450D01*
X344618Y-236982D01*
X331900Y-236982D01*
X331900Y-248278D01*
X333072Y-249450D01*
G37*
G36*
X233463Y-297250D02*
X238038Y-297250D01*
X242264Y-295499D01*
X245499Y-292264D01*
X247250Y-288038D01*
X247250Y-283463D01*
X245814Y-279995D01*
X245737Y-279638D01*
X245805Y-279240D01*
X246023Y-278899D01*
X246356Y-278670D01*
X246752Y-278590D01*
X251278Y-278590D01*
X257982Y-275813D01*
X263113Y-270682D01*
X265890Y-263978D01*
X265890Y-256722D01*
X263113Y-250018D01*
X257982Y-244887D01*
X251278Y-242110D01*
X244022Y-242110D01*
X237318Y-244887D01*
X232187Y-250018D01*
X229410Y-256722D01*
X229410Y-263978D01*
X232187Y-270682D01*
X234020Y-272516D01*
X234224Y-272808D01*
X234317Y-273202D01*
X234250Y-273600D01*
X234032Y-273941D01*
X233698Y-274170D01*
X233617Y-274186D01*
X229236Y-276001D01*
X226001Y-279236D01*
X224250Y-283463D01*
X224250Y-288038D01*
X226001Y-292264D01*
X229236Y-295499D01*
X233463Y-297250D01*
G37*
G36*
X42963Y-297250D02*
X47538Y-297250D01*
X51764Y-295499D01*
X54999Y-292264D01*
X56750Y-288038D01*
X56750Y-283463D01*
X55314Y-279995D01*
X55237Y-279638D01*
X55305Y-279240D01*
X55523Y-278899D01*
X55856Y-278670D01*
X56252Y-278590D01*
X60778Y-278590D01*
X67482Y-275813D01*
X72613Y-270682D01*
X75390Y-263978D01*
X75390Y-256722D01*
X72613Y-250018D01*
X67482Y-244887D01*
X60778Y-242110D01*
X53522Y-242110D01*
X46818Y-244887D01*
X41687Y-250018D01*
X38910Y-256722D01*
X38910Y-263978D01*
X41687Y-270682D01*
X43520Y-272516D01*
X43724Y-272808D01*
X43817Y-273202D01*
X43750Y-273600D01*
X43532Y-273941D01*
X43198Y-274170D01*
X43117Y-274186D01*
X38736Y-276001D01*
X35501Y-279236D01*
X33750Y-283463D01*
X33750Y-288038D01*
X35501Y-292264D01*
X38736Y-295499D01*
X42963Y-297250D01*
G37*
G36*
X-147538Y-297250D02*
X-142963Y-297250D01*
X-138736Y-295499D01*
X-135501Y-292264D01*
X-133750Y-288038D01*
X-133750Y-283463D01*
X-135186Y-279995D01*
X-135263Y-279638D01*
X-135195Y-279240D01*
X-134977Y-278899D01*
X-134644Y-278670D01*
X-134248Y-278590D01*
X-129722Y-278590D01*
X-123018Y-275813D01*
X-117887Y-270682D01*
X-115110Y-263978D01*
X-115110Y-256722D01*
X-117887Y-250018D01*
X-123018Y-244887D01*
X-129722Y-242110D01*
X-136978Y-242110D01*
X-143682Y-244887D01*
X-148813Y-250018D01*
X-151590Y-256722D01*
X-151590Y-263978D01*
X-148813Y-270682D01*
X-146980Y-272516D01*
X-146776Y-272808D01*
X-146683Y-273202D01*
X-146750Y-273600D01*
X-146968Y-273941D01*
X-147302Y-274170D01*
X-147383Y-274186D01*
X-151764Y-276001D01*
X-154999Y-279236D01*
X-156750Y-283463D01*
X-156750Y-288038D01*
X-154999Y-292264D01*
X-151764Y-295499D01*
X-147538Y-297250D01*
G37*
G36*
X-338038Y-297250D02*
X-333463Y-297250D01*
X-329236Y-295499D01*
X-326001Y-292264D01*
X-324250Y-288038D01*
X-324250Y-283463D01*
X-325686Y-279995D01*
X-325763Y-279638D01*
X-325695Y-279240D01*
X-325477Y-278899D01*
X-325144Y-278670D01*
X-324748Y-278590D01*
X-320222Y-278590D01*
X-313518Y-275813D01*
X-308387Y-270682D01*
X-305610Y-263978D01*
X-305610Y-256722D01*
X-308387Y-250018D01*
X-313518Y-244887D01*
X-320222Y-242110D01*
X-327478Y-242110D01*
X-334182Y-244887D01*
X-339313Y-250018D01*
X-342090Y-256722D01*
X-342090Y-263978D01*
X-339313Y-270682D01*
X-337480Y-272516D01*
X-337276Y-272808D01*
X-337183Y-273202D01*
X-337250Y-273600D01*
X-337468Y-273941D01*
X-337802Y-274170D01*
X-337883Y-274186D01*
X-342264Y-276001D01*
X-345499Y-279236D01*
X-347250Y-283463D01*
X-347250Y-288038D01*
X-345499Y-292264D01*
X-342264Y-295499D01*
X-338038Y-297250D01*
G37*
G36*
X258109Y-349324D02*
X263191Y-349324D01*
X267886Y-347379D01*
X271479Y-343786D01*
X273424Y-339091D01*
X273424Y-334009D01*
X271479Y-329314D01*
X267886Y-325721D01*
X263191Y-323776D01*
X258109Y-323776D01*
X254040Y-325461D01*
X253668Y-325539D01*
X253270Y-325464D01*
X252933Y-325241D01*
X214988Y-287295D01*
X214770Y-286973D01*
X214690Y-286577D01*
X214690Y-275390D01*
X214758Y-275024D01*
X214976Y-274683D01*
X215310Y-274454D01*
X215706Y-274374D01*
X225531Y-274374D01*
X226424Y-273481D01*
X226424Y-247219D01*
X225531Y-246326D01*
X198769Y-246326D01*
X197876Y-247219D01*
X197876Y-273481D01*
X198769Y-274374D01*
X208594Y-274374D01*
X208960Y-274442D01*
X209301Y-274660D01*
X209530Y-274994D01*
X209610Y-275390D01*
X209610Y-289102D01*
X249341Y-328833D01*
X249555Y-329148D01*
X249639Y-329544D01*
X249561Y-329940D01*
X247876Y-334009D01*
X247876Y-339091D01*
X249821Y-343786D01*
X253414Y-347379D01*
X258109Y-349324D01*
G37*
G36*
X281187Y-308689D02*
X290313Y-308689D01*
X298744Y-305197D01*
X305197Y-298744D01*
X308689Y-290313D01*
X308689Y-281187D01*
X305197Y-272756D01*
X298744Y-266303D01*
X290313Y-262811D01*
X281187Y-262811D01*
X272756Y-266303D01*
X266303Y-272756D01*
X262811Y-281187D01*
X262811Y-290313D01*
X266303Y-298744D01*
X272756Y-305197D01*
X281187Y-308689D01*
G37*
G36*
X90687Y-308689D02*
X99813Y-308689D01*
X108244Y-305197D01*
X114697Y-298744D01*
X118189Y-290313D01*
X118189Y-281187D01*
X114697Y-272756D01*
X108244Y-266303D01*
X99813Y-262811D01*
X90687Y-262811D01*
X82256Y-266303D01*
X75803Y-272756D01*
X72311Y-281187D01*
X72311Y-290313D01*
X75803Y-298744D01*
X82256Y-305197D01*
X90687Y-308689D01*
G37*
G36*
X-99813Y-308689D02*
X-90687Y-308689D01*
X-82256Y-305197D01*
X-75803Y-298744D01*
X-72311Y-290313D01*
X-72311Y-281187D01*
X-75803Y-272756D01*
X-82256Y-266303D01*
X-90687Y-262811D01*
X-99813Y-262811D01*
X-108244Y-266303D01*
X-114697Y-272756D01*
X-118189Y-281187D01*
X-118189Y-290313D01*
X-114697Y-298744D01*
X-108244Y-305197D01*
X-99813Y-308689D01*
G37*
G36*
X-290313Y-308689D02*
X-281187Y-308689D01*
X-272756Y-305197D01*
X-266303Y-298744D01*
X-262811Y-290313D01*
X-262811Y-281187D01*
X-266303Y-272756D01*
X-272756Y-266303D01*
X-281187Y-262811D01*
X-290313Y-262811D01*
X-298744Y-266303D01*
X-305197Y-272756D01*
X-308689Y-281187D01*
X-308689Y-290313D01*
X-305197Y-298744D01*
X-298744Y-305197D01*
X-290313Y-308689D01*
G37*
G36*
X333463Y-297250D02*
X338038Y-297250D01*
X342264Y-295499D01*
X345499Y-292264D01*
X347250Y-288038D01*
X347250Y-283463D01*
X345499Y-279236D01*
X342264Y-276001D01*
X338038Y-274250D01*
X333463Y-274250D01*
X329236Y-276001D01*
X326001Y-279236D01*
X324250Y-283463D01*
X324250Y-288038D01*
X326001Y-292264D01*
X329236Y-295499D01*
X333463Y-297250D01*
G37*
G36*
X142963Y-297250D02*
X147538Y-297250D01*
X151764Y-295499D01*
X154999Y-292264D01*
X156750Y-288038D01*
X156750Y-283463D01*
X154999Y-279236D01*
X151764Y-276001D01*
X147538Y-274250D01*
X142963Y-274250D01*
X138736Y-276001D01*
X135501Y-279236D01*
X133750Y-283463D01*
X133750Y-288038D01*
X135501Y-292264D01*
X138736Y-295499D01*
X142963Y-297250D01*
G37*
G36*
X-47538Y-297250D02*
X-42963Y-297250D01*
X-38736Y-295499D01*
X-35501Y-292264D01*
X-33750Y-288038D01*
X-33750Y-283463D01*
X-35501Y-279236D01*
X-38736Y-276001D01*
X-42963Y-274250D01*
X-47538Y-274250D01*
X-51764Y-276001D01*
X-54999Y-279236D01*
X-56750Y-283463D01*
X-56750Y-288038D01*
X-54999Y-292264D01*
X-51764Y-295499D01*
X-47538Y-297250D01*
G37*
G36*
X-238038Y-297250D02*
X-233463Y-297250D01*
X-229236Y-295499D01*
X-226001Y-292264D01*
X-224250Y-288038D01*
X-224250Y-283463D01*
X-226001Y-279236D01*
X-229236Y-276001D01*
X-233463Y-274250D01*
X-238038Y-274250D01*
X-242264Y-276001D01*
X-245499Y-279236D01*
X-247250Y-283463D01*
X-247250Y-288038D01*
X-245499Y-292264D01*
X-242264Y-295499D01*
X-238038Y-297250D01*
G37*
G36*
X-245618Y-309118D02*
X-234400Y-309118D01*
X-234400Y-308514D01*
X-236417Y-303644D01*
X-240144Y-299917D01*
X-245014Y-297900D01*
X-245618Y-297900D01*
X-245618Y-309118D01*
G37*
G36*
X-55118Y-309118D02*
X-43900Y-309118D01*
X-43900Y-308514D01*
X-45917Y-303644D01*
X-49644Y-299917D01*
X-54514Y-297900D01*
X-55118Y-297900D01*
X-55118Y-309118D01*
G37*
G36*
X135382Y-309118D02*
X146600Y-309118D01*
X146600Y-308514D01*
X144583Y-303644D01*
X140856Y-299917D01*
X135986Y-297900D01*
X135382Y-297900D01*
X135382Y-309118D01*
G37*
G36*
X-70400Y-309118D02*
X-59182Y-309118D01*
X-59182Y-297900D01*
X-59786Y-297900D01*
X-64656Y-299917D01*
X-68383Y-303644D01*
X-70400Y-308514D01*
X-70400Y-309118D01*
G37*
G36*
X325882Y-309118D02*
X337100Y-309118D01*
X337100Y-308514D01*
X335083Y-303644D01*
X331356Y-299917D01*
X326486Y-297900D01*
X325882Y-297900D01*
X325882Y-309118D01*
G37*
G36*
X310600Y-309118D02*
X321818Y-309118D01*
X321818Y-297900D01*
X321214Y-297900D01*
X316344Y-299917D01*
X312617Y-303644D01*
X310600Y-308514D01*
X310600Y-309118D01*
G37*
G36*
X120100Y-309118D02*
X131318Y-309118D01*
X131318Y-297900D01*
X130714Y-297900D01*
X125844Y-299917D01*
X122117Y-303644D01*
X120100Y-308514D01*
X120100Y-309118D01*
G37*
G36*
X-260900Y-309118D02*
X-249682Y-309118D01*
X-249682Y-297900D01*
X-250286Y-297900D01*
X-255156Y-299917D01*
X-258883Y-303644D01*
X-260900Y-308514D01*
X-260900Y-309118D01*
G37*
G36*
X-250286Y-324400D02*
X-249682Y-324400D01*
X-249682Y-313182D01*
X-260900Y-313182D01*
X-260900Y-313786D01*
X-258883Y-318656D01*
X-255156Y-322383D01*
X-250286Y-324400D01*
G37*
G36*
X-245618Y-324400D02*
X-245014Y-324400D01*
X-240144Y-322383D01*
X-236417Y-318656D01*
X-234400Y-313786D01*
X-234400Y-313182D01*
X-245618Y-313182D01*
X-245618Y-324400D01*
G37*
G36*
X-59786Y-324400D02*
X-59182Y-324400D01*
X-59182Y-313182D01*
X-70400Y-313182D01*
X-70400Y-313786D01*
X-68383Y-318656D01*
X-64656Y-322383D01*
X-59786Y-324400D01*
G37*
G36*
X-55118Y-324400D02*
X-54514Y-324400D01*
X-49644Y-322383D01*
X-45917Y-318656D01*
X-43900Y-313786D01*
X-43900Y-313182D01*
X-55118Y-313182D01*
X-55118Y-324400D01*
G37*
G36*
X130714Y-324400D02*
X131318Y-324400D01*
X131318Y-313182D01*
X120100Y-313182D01*
X120100Y-313786D01*
X122117Y-318656D01*
X125844Y-322383D01*
X130714Y-324400D01*
G37*
G36*
X135382Y-324400D02*
X135986Y-324400D01*
X140856Y-322383D01*
X144583Y-318656D01*
X146600Y-313786D01*
X146600Y-313182D01*
X135382Y-313182D01*
X135382Y-324400D01*
G37*
G36*
X321214Y-324400D02*
X321818Y-324400D01*
X321818Y-313182D01*
X310600Y-313182D01*
X310600Y-313786D01*
X312617Y-318656D01*
X316344Y-322383D01*
X321214Y-324400D01*
G37*
G36*
X325882Y-324400D02*
X326486Y-324400D01*
X331356Y-322383D01*
X335083Y-318656D01*
X337100Y-313786D01*
X337100Y-313182D01*
X325882Y-313182D01*
X325882Y-324400D01*
G37*
G36*
X376865Y-395762D02*
X383135Y-395762D01*
X388929Y-393362D01*
X393362Y-388929D01*
X395762Y-383135D01*
X395762Y-376865D01*
X393362Y-371072D01*
X388929Y-366638D01*
X383135Y-364238D01*
X376865Y-364238D01*
X371072Y-366638D01*
X366638Y-371072D01*
X364238Y-376865D01*
X364238Y-383135D01*
X366638Y-388929D01*
X371072Y-393362D01*
X376865Y-395762D01*
G37*
G36*
X-383135Y-395762D02*
X-376865Y-395762D01*
X-371072Y-393362D01*
X-366638Y-388929D01*
X-364238Y-383135D01*
X-364238Y-376865D01*
X-366638Y-371072D01*
X-371072Y-366638D01*
X-376865Y-364238D01*
X-383135Y-364238D01*
X-388929Y-366638D01*
X-393362Y-371072D01*
X-395762Y-376865D01*
X-395762Y-383135D01*
X-393362Y-388929D01*
X-388929Y-393362D01*
X-383135Y-395762D01*
G37*
%LPD*%
G36*
X-385808Y202220D02*
X-386204Y202140D01*
X-402856Y202140D01*
X-403230Y202211D01*
X-403569Y202432D01*
X-403795Y202767D01*
X-404628Y204780D01*
X-407200Y207352D01*
X-410561Y208744D01*
X-415222Y208744D01*
X-415588Y208812D01*
X-415929Y209030D01*
X-416158Y209364D01*
X-416238Y209760D01*
X-416238Y214840D01*
X-416170Y215206D01*
X-415952Y215547D01*
X-415618Y215776D01*
X-415222Y215856D01*
X-410561Y215856D01*
X-407200Y217248D01*
X-404628Y219820D01*
X-403795Y221833D01*
X-403586Y222151D01*
X-403252Y222380D01*
X-402856Y222460D01*
X-392901Y222460D01*
X-392520Y222386D01*
X-392183Y222162D01*
X-390455Y220434D01*
X-386785Y220434D01*
X-385057Y222162D01*
X-384735Y222380D01*
X-384339Y222460D01*
X-378468Y222460D01*
X-362038Y238890D01*
X-362038Y325657D01*
X-361964Y326038D01*
X-361740Y326375D01*
X-344287Y343829D01*
X-343965Y344046D01*
X-343568Y344127D01*
X-337743Y344127D01*
X-336851Y345019D01*
X-336851Y346964D01*
X-336782Y347330D01*
X-336564Y347671D01*
X-336231Y347900D01*
X-335835Y347980D01*
X-234323Y347980D01*
X-233942Y347906D01*
X-233605Y347682D01*
X-216122Y330200D01*
X-212330Y330200D01*
X-211964Y330132D01*
X-211623Y329914D01*
X-211500Y329734D01*
X-209982Y328216D01*
X-197298Y328216D01*
X-195966Y329548D01*
X-195966Y335932D01*
X-197298Y337264D01*
X-209982Y337264D01*
X-211500Y335746D01*
X-211600Y335589D01*
X-211934Y335360D01*
X-212330Y335280D01*
X-213597Y335280D01*
X-213978Y335354D01*
X-214315Y335578D01*
X-231798Y353060D01*
X-335835Y353060D01*
X-336201Y353128D01*
X-336541Y353346D01*
X-336770Y353680D01*
X-336851Y354076D01*
X-336851Y356021D01*
X-337743Y356914D01*
X-346993Y356914D01*
X-347886Y356021D01*
X-347886Y347835D01*
X-347960Y347454D01*
X-348183Y347117D01*
X-367118Y328182D01*
X-367118Y241415D01*
X-367192Y241034D01*
X-367416Y240697D01*
X-380275Y227838D01*
X-380597Y227620D01*
X-380993Y227540D01*
X-384613Y227540D01*
X-384994Y227614D01*
X-385331Y227838D01*
X-386785Y229292D01*
X-390455Y229292D01*
X-391909Y227838D01*
X-392231Y227620D01*
X-392627Y227540D01*
X-402856Y227540D01*
X-403230Y227611D01*
X-403569Y227832D01*
X-403795Y228167D01*
X-404628Y230180D01*
X-407200Y232752D01*
X-410561Y234144D01*
X-415222Y234144D01*
X-415588Y234212D01*
X-415929Y234430D01*
X-416158Y234764D01*
X-416238Y235160D01*
X-416238Y240240D01*
X-416170Y240606D01*
X-415952Y240947D01*
X-415618Y241176D01*
X-415222Y241256D01*
X-410561Y241256D01*
X-407200Y242648D01*
X-404628Y245220D01*
X-403236Y248581D01*
X-403236Y252219D01*
X-404628Y255580D01*
X-407200Y258152D01*
X-410561Y259544D01*
X-415222Y259544D01*
X-415588Y259612D01*
X-415929Y259830D01*
X-416158Y260164D01*
X-416238Y260560D01*
X-416238Y265164D01*
X-416170Y265530D01*
X-415952Y265871D01*
X-415618Y266100D01*
X-415222Y266180D01*
X-410466Y266180D01*
X-406931Y267645D01*
X-404225Y270351D01*
X-402809Y273768D01*
X-422032Y273768D01*
X-422032Y277832D01*
X-402809Y277832D01*
X-404225Y281249D01*
X-406931Y283955D01*
X-410466Y285420D01*
X-415222Y285420D01*
X-415588Y285488D01*
X-415929Y285706D01*
X-416158Y286040D01*
X-416238Y286436D01*
X-416238Y302508D01*
X-418442Y304712D01*
X-431222Y304712D01*
X-431588Y304780D01*
X-431929Y304998D01*
X-432158Y305332D01*
X-432238Y305728D01*
X-432238Y312172D01*
X-432170Y312538D01*
X-431952Y312879D01*
X-431618Y313108D01*
X-431222Y313188D01*
X-408442Y313188D01*
X-406238Y315392D01*
X-406238Y406000D01*
X-406226Y406159D01*
X-404991Y413953D01*
X-404893Y414255D01*
X-401310Y421286D01*
X-401123Y421544D01*
X-395544Y427123D01*
X-395286Y427310D01*
X-388255Y430893D01*
X-387953Y430991D01*
X-380159Y432226D01*
X-380000Y432238D01*
X-77500Y432238D01*
X-77237Y432203D01*
X-74626Y431504D01*
X-74171Y431241D01*
X-72259Y429329D01*
X-71996Y428874D01*
X-71297Y426263D01*
X-71262Y426000D01*
X-71262Y418573D01*
X-71325Y418222D01*
X-71537Y417878D01*
X-71867Y417644D01*
X-72262Y417557D01*
X-72659Y417631D01*
X-72704Y417661D01*
X-75270Y418724D01*
X-95366Y418724D01*
X-97764Y417731D01*
X-99599Y415896D01*
X-100592Y413498D01*
X-100592Y412280D01*
X-100660Y411914D01*
X-100878Y411573D01*
X-101212Y411344D01*
X-101608Y411264D01*
X-111154Y411264D01*
X-111535Y411338D01*
X-111872Y411562D01*
X-117125Y416814D01*
X-132940Y416814D01*
X-133306Y416882D01*
X-133647Y417100D01*
X-133876Y417434D01*
X-133956Y417830D01*
X-133956Y422381D01*
X-134849Y423274D01*
X-152111Y423274D01*
X-153004Y422381D01*
X-153004Y403119D01*
X-152111Y402226D01*
X-134849Y402226D01*
X-133956Y403119D01*
X-133956Y407670D01*
X-133888Y408036D01*
X-133670Y408377D01*
X-133336Y408606D01*
X-132940Y408686D01*
X-120912Y408686D01*
X-120531Y408612D01*
X-120194Y408388D01*
X-114941Y403136D01*
X-101608Y403136D01*
X-101242Y403068D01*
X-100901Y402850D01*
X-100672Y402516D01*
X-100592Y402120D01*
X-100592Y400902D01*
X-99599Y398504D01*
X-97764Y396669D01*
X-95415Y395696D01*
X-95114Y395504D01*
X-94878Y395176D01*
X-94788Y394782D01*
X-94859Y394384D01*
X-95079Y394045D01*
X-95415Y393819D01*
X-98033Y392734D01*
X-100002Y390765D01*
X-101068Y388192D01*
X-101068Y383832D01*
X-83286Y383832D01*
X-83286Y379768D01*
X-101068Y379768D01*
X-101068Y375408D01*
X-100002Y372835D01*
X-98033Y370866D01*
X-95415Y369781D01*
X-95114Y369589D01*
X-94878Y369261D01*
X-94788Y368867D01*
X-94859Y368469D01*
X-95079Y368130D01*
X-95415Y367904D01*
X-97764Y366931D01*
X-99599Y365096D01*
X-100592Y362698D01*
X-100592Y355029D01*
X-100666Y354648D01*
X-100890Y354311D01*
X-109007Y346194D01*
X-109329Y345976D01*
X-109725Y345896D01*
X-109821Y345896D01*
X-112140Y343577D01*
X-112432Y343373D01*
X-112826Y343280D01*
X-113224Y343348D01*
X-113565Y343566D01*
X-113794Y343899D01*
X-113874Y344295D01*
X-113874Y388379D01*
X-123313Y397818D01*
X-304274Y397818D01*
X-313628Y388464D01*
X-313782Y388228D01*
X-314117Y388002D01*
X-316062Y387196D01*
X-318600Y384658D01*
X-319974Y381341D01*
X-319974Y377751D01*
X-318600Y374434D01*
X-316062Y371896D01*
X-312745Y370522D01*
X-309155Y370522D01*
X-305838Y371896D01*
X-303300Y374434D01*
X-301926Y377751D01*
X-301926Y381341D01*
X-303300Y384658D01*
X-305890Y387248D01*
X-306065Y387361D01*
X-306299Y387691D01*
X-306385Y388085D01*
X-306311Y388483D01*
X-306088Y388820D01*
X-302467Y392440D01*
X-302145Y392658D01*
X-301749Y392738D01*
X-253803Y392738D01*
X-253452Y392675D01*
X-253108Y392463D01*
X-252874Y392133D01*
X-252787Y391738D01*
X-252861Y391341D01*
X-253085Y391004D01*
X-256103Y387985D01*
X-256418Y387771D01*
X-256814Y387687D01*
X-257211Y387765D01*
X-259155Y388570D01*
X-262745Y388570D01*
X-266062Y387196D01*
X-268600Y384658D01*
X-269974Y381341D01*
X-269974Y377751D01*
X-268600Y374434D01*
X-266062Y371896D01*
X-262745Y370522D01*
X-259155Y370522D01*
X-255838Y371896D01*
X-253300Y374434D01*
X-251926Y377751D01*
X-251926Y381341D01*
X-252731Y383285D01*
X-252809Y383658D01*
X-252735Y384056D01*
X-252511Y384393D01*
X-248781Y388122D01*
X-248459Y388340D01*
X-248063Y388420D01*
X-191130Y388420D01*
X-190764Y388352D01*
X-190423Y388134D01*
X-190194Y387800D01*
X-190114Y387404D01*
X-190114Y382228D01*
X-188782Y380896D01*
X-187520Y380896D01*
X-187154Y380828D01*
X-186813Y380610D01*
X-186584Y380276D01*
X-186512Y379921D01*
X-179269Y372678D01*
X-179065Y372386D01*
X-178972Y371992D01*
X-179040Y371594D01*
X-179258Y371253D01*
X-179592Y371024D01*
X-179988Y370944D01*
X-188782Y370944D01*
X-190114Y369612D01*
X-190114Y366349D01*
X-190188Y365968D01*
X-190412Y365631D01*
X-194178Y361864D01*
X-194178Y337906D01*
X-187324Y331052D01*
X-158898Y331052D01*
X-158547Y330989D01*
X-158203Y330777D01*
X-157969Y330447D01*
X-157882Y330052D01*
X-157956Y329655D01*
X-158180Y329318D01*
X-158414Y329083D01*
X-158414Y327546D01*
X-158482Y327180D01*
X-158700Y326839D01*
X-159034Y326610D01*
X-159430Y326530D01*
X-160372Y326530D01*
X-160825Y326078D01*
X-161147Y325860D01*
X-161543Y325780D01*
X-173750Y325780D01*
X-174116Y325848D01*
X-174457Y326066D01*
X-174580Y326246D01*
X-176098Y327764D01*
X-188782Y327764D01*
X-190114Y326432D01*
X-190114Y320048D01*
X-188782Y318716D01*
X-183776Y318716D01*
X-183425Y318653D01*
X-183081Y318441D01*
X-182847Y318111D01*
X-182760Y317716D01*
X-182834Y317319D01*
X-183058Y316982D01*
X-196236Y303803D01*
X-196236Y276092D01*
X-187023Y266880D01*
X-160808Y266880D01*
X-146858Y280829D01*
X-146566Y281033D01*
X-146172Y281126D01*
X-145774Y281059D01*
X-145433Y280841D01*
X-145204Y280507D01*
X-145124Y280111D01*
X-145124Y276103D01*
X-145222Y275667D01*
X-145465Y275344D01*
X-151110Y270326D01*
X-151389Y270150D01*
X-151463Y270135D01*
X-152544Y269054D01*
X-152587Y269013D01*
X-153714Y268012D01*
X-153718Y267994D01*
X-153760Y267930D01*
X-153760Y266402D01*
X-153762Y266342D01*
X-153850Y264837D01*
X-153840Y264821D01*
X-153760Y264425D01*
X-153760Y261391D01*
X-153828Y261025D01*
X-154046Y260684D01*
X-154380Y260455D01*
X-154776Y260375D01*
X-154970Y260375D01*
X-155863Y259482D01*
X-155863Y248518D01*
X-154970Y247625D01*
X-144498Y247625D01*
X-143606Y248518D01*
X-143606Y259482D01*
X-144498Y260375D01*
X-145124Y260375D01*
X-145490Y260443D01*
X-145831Y260661D01*
X-146060Y260995D01*
X-146140Y261391D01*
X-146140Y264092D01*
X-146042Y264528D01*
X-145799Y264852D01*
X-137261Y272441D01*
X-136938Y272635D01*
X-136538Y272697D01*
X-136146Y272598D01*
X-135824Y272354D01*
X-130860Y266723D01*
X-130687Y266447D01*
X-130667Y266347D01*
X-129529Y265209D01*
X-129485Y265163D01*
X-128435Y263971D01*
X-128396Y263963D01*
X-128311Y263906D01*
X-126702Y263906D01*
X-126638Y263904D01*
X-125054Y263804D01*
X-125020Y263826D01*
X-124623Y263906D01*
X-118931Y263906D01*
X-118550Y263832D01*
X-118213Y263608D01*
X-118146Y263541D01*
X-114476Y263541D01*
X-111882Y266135D01*
X-111882Y269805D01*
X-114476Y272399D01*
X-118146Y272399D01*
X-118213Y272332D01*
X-118535Y272114D01*
X-118931Y272034D01*
X-124248Y272034D01*
X-124688Y272134D01*
X-125011Y272378D01*
X-127052Y274694D01*
X-127219Y274955D01*
X-127306Y275350D01*
X-127232Y275748D01*
X-127008Y276085D01*
X-126836Y276257D01*
X-126836Y281097D01*
X-126948Y281209D01*
X-127158Y281516D01*
X-127245Y281911D01*
X-127171Y282308D01*
X-126948Y282645D01*
X-126836Y282757D01*
X-126836Y287597D01*
X-126948Y287709D01*
X-127158Y288016D01*
X-127245Y288411D01*
X-127171Y288808D01*
X-126948Y289145D01*
X-126649Y289444D01*
X-126538Y289611D01*
X-122510Y293640D01*
X-122510Y312617D01*
X-122447Y312968D01*
X-122235Y313312D01*
X-121905Y313546D01*
X-121510Y313633D01*
X-121113Y313559D01*
X-120776Y313335D01*
X-110500Y303060D01*
X-101608Y303060D01*
X-101242Y302992D01*
X-100901Y302774D01*
X-100672Y302440D01*
X-100592Y302044D01*
X-100592Y299302D01*
X-99599Y296904D01*
X-97764Y295069D01*
X-95366Y294076D01*
X-75270Y294076D01*
X-72740Y295124D01*
X-72704Y295149D01*
X-72310Y295242D01*
X-71912Y295175D01*
X-71571Y294957D01*
X-71342Y294623D01*
X-71262Y294227D01*
X-71262Y291573D01*
X-71325Y291222D01*
X-71537Y290878D01*
X-71867Y290644D01*
X-72262Y290557D01*
X-72659Y290631D01*
X-72704Y290661D01*
X-75270Y291724D01*
X-95366Y291724D01*
X-97764Y290731D01*
X-99599Y288896D01*
X-100592Y286498D01*
X-100592Y273902D01*
X-100090Y272689D01*
X-100012Y272317D01*
X-100087Y271919D01*
X-100310Y271582D01*
X-132835Y239058D01*
X-133157Y238840D01*
X-133553Y238760D01*
X-186487Y238760D01*
X-186868Y238834D01*
X-187205Y239058D01*
X-194528Y246380D01*
X-232860Y246380D01*
X-241856Y237384D01*
X-242178Y237166D01*
X-242574Y237086D01*
X-250910Y237086D01*
X-251276Y237154D01*
X-251617Y237372D01*
X-251846Y237706D01*
X-251926Y238102D01*
X-251926Y242677D01*
X-252819Y243570D01*
X-269081Y243570D01*
X-269974Y242677D01*
X-269974Y226415D01*
X-269081Y225522D01*
X-252819Y225522D01*
X-251926Y226415D01*
X-251926Y230990D01*
X-251858Y231356D01*
X-251640Y231697D01*
X-251306Y231926D01*
X-250910Y232006D01*
X-243939Y232006D01*
X-243588Y231943D01*
X-243244Y231731D01*
X-243010Y231401D01*
X-242923Y231006D01*
X-242997Y230609D01*
X-243221Y230272D01*
X-269995Y203498D01*
X-270317Y203280D01*
X-270713Y203200D01*
X-376856Y203200D01*
X-377237Y203274D01*
X-377574Y203498D01*
X-379165Y205089D01*
X-382835Y205089D01*
X-385486Y202438D01*
X-385808Y202220D01*
G37*
%LPC*%
G36*
X-382835Y305451D02*
X-379165Y305451D01*
X-376571Y308045D01*
X-376571Y311715D01*
X-376638Y311782D01*
X-376856Y312104D01*
X-376936Y312500D01*
X-376936Y331168D01*
X-376862Y331549D01*
X-376638Y331886D01*
X-364566Y343959D01*
X-364259Y344169D01*
X-363864Y344256D01*
X-363466Y344182D01*
X-363382Y344127D01*
X-354047Y344127D01*
X-353155Y345019D01*
X-353155Y356021D01*
X-354310Y357177D01*
X-354528Y357499D01*
X-354608Y357895D01*
X-354608Y363465D01*
X-354534Y363846D01*
X-354310Y364183D01*
X-353155Y365339D01*
X-353155Y376341D01*
X-354310Y377497D01*
X-354528Y377819D01*
X-354608Y378215D01*
X-354608Y383444D01*
X-354534Y383825D01*
X-354310Y384162D01*
X-330084Y408388D01*
X-329762Y408606D01*
X-329366Y408686D01*
X-182020Y408686D01*
X-181654Y408618D01*
X-181313Y408400D01*
X-181084Y408066D01*
X-181004Y407670D01*
X-181004Y403119D01*
X-180111Y402226D01*
X-162849Y402226D01*
X-161956Y403119D01*
X-161956Y422381D01*
X-162849Y423274D01*
X-180111Y423274D01*
X-181004Y422381D01*
X-181004Y417830D01*
X-181072Y417464D01*
X-181290Y417123D01*
X-181624Y416894D01*
X-182020Y416814D01*
X-333153Y416814D01*
X-362736Y387231D01*
X-362736Y378215D01*
X-362810Y377834D01*
X-363034Y377497D01*
X-364190Y376341D01*
X-364190Y365339D01*
X-363034Y364183D01*
X-362816Y363861D01*
X-362736Y363465D01*
X-362736Y357895D01*
X-362810Y357514D01*
X-363034Y357177D01*
X-364190Y356021D01*
X-364190Y355600D01*
X-364258Y355234D01*
X-364476Y354893D01*
X-364809Y354664D01*
X-365206Y354584D01*
X-365435Y354584D01*
X-385064Y334955D01*
X-385064Y312500D01*
X-385138Y312119D01*
X-385362Y311782D01*
X-385429Y311715D01*
X-385429Y308045D01*
X-382835Y305451D01*
G37*
G36*
X-383135Y390238D02*
X-376865Y390238D01*
X-371072Y392638D01*
X-366638Y397072D01*
X-364238Y402865D01*
X-364238Y409135D01*
X-366638Y414929D01*
X-371072Y419362D01*
X-376865Y421762D01*
X-383135Y421762D01*
X-388929Y419362D01*
X-393362Y414929D01*
X-395762Y409135D01*
X-395762Y402865D01*
X-393362Y397072D01*
X-388929Y392638D01*
X-383135Y390238D01*
G37*
G36*
X-283918Y381578D02*
X-276509Y381578D01*
X-277896Y384927D01*
X-280569Y387600D01*
X-283918Y388987D01*
X-283918Y381578D01*
G37*
G36*
X-295391Y381578D02*
X-287982Y381578D01*
X-287982Y388987D01*
X-291331Y387600D01*
X-294004Y384927D01*
X-295391Y381578D01*
G37*
G36*
X-319544Y357124D02*
X-231544Y357124D01*
X-215585Y373082D01*
X-215263Y373300D01*
X-214867Y373380D01*
X-212330Y373380D01*
X-211964Y373312D01*
X-211623Y373094D01*
X-211500Y372914D01*
X-209982Y371396D01*
X-197298Y371396D01*
X-195966Y372728D01*
X-195966Y379112D01*
X-197298Y380444D01*
X-209982Y380444D01*
X-211500Y378926D01*
X-211600Y378769D01*
X-211934Y378540D01*
X-212330Y378460D01*
X-217392Y378460D01*
X-233351Y362502D01*
X-233673Y362284D01*
X-234069Y362204D01*
X-317019Y362204D01*
X-317400Y362278D01*
X-317737Y362502D01*
X-328616Y373380D01*
X-335835Y373380D01*
X-336201Y373448D01*
X-336541Y373666D01*
X-336770Y374000D01*
X-336851Y374396D01*
X-336851Y376341D01*
X-337743Y377234D01*
X-338812Y377234D01*
X-339178Y377302D01*
X-339519Y377520D01*
X-339748Y377853D01*
X-339828Y378250D01*
X-339828Y379628D01*
X-339754Y380010D01*
X-339530Y380347D01*
X-337319Y382558D01*
X-337319Y386227D01*
X-339914Y388821D01*
X-343583Y388821D01*
X-346177Y386227D01*
X-346177Y382558D01*
X-345206Y381586D01*
X-344988Y381264D01*
X-344908Y380868D01*
X-344908Y378250D01*
X-344976Y377883D01*
X-345194Y377543D01*
X-345528Y377314D01*
X-345924Y377234D01*
X-346993Y377234D01*
X-347886Y376341D01*
X-347886Y365339D01*
X-346993Y364447D01*
X-337743Y364447D01*
X-336851Y365339D01*
X-336851Y367284D01*
X-336782Y367650D01*
X-336564Y367991D01*
X-336231Y368220D01*
X-335835Y368300D01*
X-331141Y368300D01*
X-330760Y368226D01*
X-330423Y368002D01*
X-319544Y357124D01*
G37*
G36*
X-283918Y377514D02*
X-283918Y370105D01*
X-280569Y371492D01*
X-277896Y374165D01*
X-276509Y377514D01*
X-283918Y377514D01*
G37*
G36*
X-291331Y371492D02*
X-287982Y370105D01*
X-287982Y377514D01*
X-295391Y377514D01*
X-294004Y374165D01*
X-291331Y371492D01*
G37*
G36*
X-345938Y276022D02*
X-339962Y276022D01*
X-334440Y278309D01*
X-330213Y282536D01*
X-327926Y288058D01*
X-327926Y321034D01*
X-330213Y326556D01*
X-334440Y330783D01*
X-339962Y333070D01*
X-345938Y333070D01*
X-351460Y330783D01*
X-355687Y326556D01*
X-357974Y321034D01*
X-357974Y288058D01*
X-355687Y282536D01*
X-351460Y278309D01*
X-345938Y276022D01*
G37*
G36*
X-231938Y276022D02*
X-225962Y276022D01*
X-220440Y278309D01*
X-216213Y282536D01*
X-213926Y288058D01*
X-213926Y321034D01*
X-216213Y326556D01*
X-220440Y330783D01*
X-225962Y333070D01*
X-231938Y333070D01*
X-237460Y330783D01*
X-241687Y326556D01*
X-243974Y321034D01*
X-243974Y288058D01*
X-241687Y282536D01*
X-237460Y278309D01*
X-231938Y276022D01*
G37*
G36*
X-171831Y256032D02*
X-167258Y256032D01*
X-167258Y260851D01*
X-170659Y260851D01*
X-171831Y259679D01*
X-171831Y256032D01*
G37*
G36*
X-163194Y256032D02*
X-158622Y256032D01*
X-158622Y259679D01*
X-159793Y260851D01*
X-163194Y260851D01*
X-163194Y256032D01*
G37*
G36*
X-170659Y247149D02*
X-167258Y247149D01*
X-167258Y251968D01*
X-171831Y251968D01*
X-171831Y248321D01*
X-170659Y247149D01*
G37*
G36*
X-163194Y247149D02*
X-159793Y247149D01*
X-158622Y248321D01*
X-158622Y251968D01*
X-163194Y251968D01*
X-163194Y247149D01*
G37*
G36*
X-320391Y236578D02*
X-312982Y236578D01*
X-312982Y243987D01*
X-316331Y242600D01*
X-319004Y239927D01*
X-320391Y236578D01*
G37*
G36*
X-308918Y236578D02*
X-301509Y236578D01*
X-302896Y239927D01*
X-305569Y242600D01*
X-308918Y243987D01*
X-308918Y236578D01*
G37*
G36*
X-308918Y232514D02*
X-308918Y225105D01*
X-305569Y226492D01*
X-302896Y229165D01*
X-301509Y232514D01*
X-308918Y232514D01*
G37*
G36*
X-316331Y226492D02*
X-312982Y225105D01*
X-312982Y232514D01*
X-320391Y232514D01*
X-319004Y229165D01*
X-316331Y226492D01*
G37*
%LPD*%
G36*
X198061Y284400D02*
X197666Y284313D01*
X197269Y284387D01*
X196932Y284610D01*
X166332Y315211D01*
X166114Y315533D01*
X166034Y315929D01*
X166034Y321183D01*
X164698Y322520D01*
X164480Y322842D01*
X164400Y323238D01*
X164400Y329935D01*
X164463Y330286D01*
X164675Y330630D01*
X165005Y330864D01*
X165400Y330951D01*
X165797Y330877D01*
X166134Y330653D01*
X170533Y326254D01*
X170751Y325932D01*
X170757Y325899D01*
X173425Y323231D01*
X177095Y323231D01*
X179689Y325825D01*
X179689Y329495D01*
X177095Y332089D01*
X173425Y332089D01*
X173373Y332036D01*
X173065Y331826D01*
X172670Y331739D01*
X172273Y331813D01*
X171936Y332036D01*
X168666Y335307D01*
X168462Y335599D01*
X168368Y335993D01*
X168436Y336391D01*
X168654Y336732D01*
X168988Y336961D01*
X169384Y337041D01*
X182472Y337041D01*
X183644Y338213D01*
X183644Y338316D01*
X183712Y338682D01*
X183930Y339023D01*
X184264Y339252D01*
X184289Y339257D01*
X187960Y342928D01*
X187960Y392212D01*
X186331Y393842D01*
X186127Y394134D01*
X186033Y394528D01*
X186101Y394926D01*
X186319Y395267D01*
X186653Y395496D01*
X187049Y395576D01*
X193199Y395576D01*
X193580Y395502D01*
X193917Y395278D01*
X212265Y376930D01*
X222006Y376930D01*
X222357Y376867D01*
X222701Y376655D01*
X222935Y376325D01*
X223022Y375930D01*
X222948Y375533D01*
X222756Y375243D01*
X222756Y370713D01*
X223030Y370438D01*
X223241Y370131D01*
X223328Y369736D01*
X223254Y369339D01*
X223030Y369002D01*
X222756Y368727D01*
X222756Y364213D01*
X223030Y363938D01*
X223241Y363631D01*
X223328Y363236D01*
X223254Y362839D01*
X223030Y362502D01*
X222756Y362227D01*
X222756Y357713D01*
X223030Y357438D01*
X223241Y357131D01*
X223328Y356736D01*
X223254Y356339D01*
X223030Y356002D01*
X222756Y355727D01*
X222756Y351213D01*
X223030Y350938D01*
X223241Y350631D01*
X223328Y350236D01*
X223254Y349839D01*
X223030Y349502D01*
X222756Y349227D01*
X222756Y344684D01*
X222904Y344468D01*
X222991Y344073D01*
X222917Y343675D01*
X222694Y343338D01*
X222280Y342924D01*
X222280Y342375D01*
X241520Y342375D01*
X241520Y342924D01*
X241106Y343338D01*
X240896Y343645D01*
X240809Y344040D01*
X240883Y344438D01*
X241044Y344681D01*
X241044Y345692D01*
X241107Y346043D01*
X241319Y346387D01*
X241649Y346621D01*
X242044Y346707D01*
X242441Y346633D01*
X242778Y346410D01*
X244242Y344946D01*
X244460Y344624D01*
X244540Y344228D01*
X244540Y323238D01*
X244466Y322857D01*
X244242Y322520D01*
X242906Y321183D01*
X242906Y319646D01*
X242838Y319280D01*
X242620Y318939D01*
X242286Y318710D01*
X241890Y318630D01*
X232388Y318630D01*
X198369Y284610D01*
X198061Y284400D01*
G37*
%LPC*%
G36*
X233805Y336565D02*
X240069Y336565D01*
X241520Y338016D01*
X241520Y338565D01*
X233805Y338565D01*
X233805Y336565D01*
G37*
G36*
X223731Y336565D02*
X229995Y336565D01*
X229995Y338565D01*
X222280Y338565D01*
X222280Y338016D01*
X223731Y336565D01*
G37*
%LPD*%
G36*
X369981Y256830D02*
X369586Y256743D01*
X369189Y256817D01*
X368852Y257041D01*
X356652Y269240D01*
X345578Y269240D01*
X345197Y269314D01*
X344860Y269538D01*
X336848Y277550D01*
X336630Y277872D01*
X336550Y278268D01*
X336550Y296962D01*
X319568Y313944D01*
X279779Y313944D01*
X279398Y314018D01*
X279061Y314242D01*
X275552Y317751D01*
X275334Y318073D01*
X275254Y318469D01*
X275254Y321183D01*
X273918Y322520D01*
X273700Y322842D01*
X273620Y323238D01*
X273620Y336716D01*
X273683Y337067D01*
X273895Y337411D01*
X274225Y337645D01*
X274620Y337732D01*
X275017Y337658D01*
X275354Y337434D01*
X275748Y337041D01*
X280924Y337041D01*
X281290Y336973D01*
X281631Y336755D01*
X281860Y336421D01*
X281940Y336025D01*
X281940Y331804D01*
X281866Y331423D01*
X281642Y331086D01*
X280051Y329495D01*
X280051Y325825D01*
X282645Y323231D01*
X286315Y323231D01*
X288909Y325825D01*
X288909Y329495D01*
X287318Y331086D01*
X287100Y331408D01*
X287020Y331804D01*
X287020Y336025D01*
X287088Y336391D01*
X287306Y336732D01*
X287640Y336961D01*
X288036Y337041D01*
X291692Y337041D01*
X292864Y338213D01*
X292864Y342756D01*
X292716Y342972D01*
X292629Y343367D01*
X292703Y343765D01*
X292926Y344102D01*
X293340Y344516D01*
X293340Y345065D01*
X274100Y345065D01*
X274100Y344225D01*
X274037Y343874D01*
X273825Y343530D01*
X273495Y343296D01*
X273100Y343210D01*
X272703Y343284D01*
X272366Y343507D01*
X241342Y374531D01*
X241124Y374853D01*
X241050Y375222D01*
X240770Y375502D01*
X240559Y375809D01*
X240472Y376204D01*
X240546Y376601D01*
X240770Y376938D01*
X241083Y377252D01*
X241118Y377433D01*
X241342Y377770D01*
X256882Y393311D01*
X257205Y393528D01*
X257601Y393608D01*
X315529Y393608D01*
X315911Y393534D01*
X316248Y393311D01*
X331287Y378271D01*
X331326Y378264D01*
X331667Y378046D01*
X331896Y377712D01*
X331976Y377316D01*
X331976Y377213D01*
X332250Y376938D01*
X332461Y376631D01*
X332548Y376236D01*
X332474Y375839D01*
X332250Y375502D01*
X331976Y375227D01*
X331976Y370713D01*
X332250Y370438D01*
X332461Y370131D01*
X332548Y369736D01*
X332474Y369339D01*
X332250Y369002D01*
X331976Y368727D01*
X331976Y364213D01*
X332250Y363938D01*
X332461Y363631D01*
X332548Y363236D01*
X332474Y362839D01*
X332250Y362502D01*
X331976Y362227D01*
X331976Y357713D01*
X332250Y357438D01*
X332461Y357131D01*
X332548Y356736D01*
X332474Y356339D01*
X332250Y356002D01*
X331976Y355727D01*
X331976Y351213D01*
X332250Y350938D01*
X332461Y350631D01*
X332548Y350236D01*
X332474Y349839D01*
X332250Y349502D01*
X331976Y349227D01*
X331976Y344684D01*
X332124Y344468D01*
X332211Y344073D01*
X332137Y343675D01*
X331914Y343338D01*
X331500Y342924D01*
X331500Y342375D01*
X350740Y342375D01*
X350740Y342924D01*
X350326Y343338D01*
X350116Y343645D01*
X350029Y344040D01*
X350103Y344438D01*
X350264Y344681D01*
X350264Y345691D01*
X350327Y346043D01*
X350539Y346387D01*
X350869Y346621D01*
X351264Y346707D01*
X351661Y346633D01*
X351998Y346410D01*
X353462Y344946D01*
X353680Y344624D01*
X353760Y344227D01*
X353760Y323238D01*
X353686Y322857D01*
X353462Y322520D01*
X352126Y321183D01*
X352126Y317339D01*
X352052Y316958D01*
X351828Y316621D01*
X340360Y305152D01*
X340360Y288508D01*
X345698Y283169D01*
X345916Y282847D01*
X345996Y282451D01*
X345996Y280066D01*
X348646Y277416D01*
X352394Y277416D01*
X355044Y280066D01*
X355044Y282866D01*
X355107Y283217D01*
X355319Y283561D01*
X355649Y283795D01*
X356044Y283882D01*
X356441Y283808D01*
X356778Y283584D01*
X360963Y279400D01*
X361481Y279400D01*
X361863Y279326D01*
X362200Y279102D01*
X363886Y277416D01*
X367634Y277416D01*
X370284Y280066D01*
X370284Y283814D01*
X367634Y286464D01*
X363886Y286464D01*
X363203Y285781D01*
X362896Y285570D01*
X362501Y285483D01*
X362103Y285558D01*
X361766Y285781D01*
X357065Y290482D01*
X356861Y290774D01*
X356768Y291168D01*
X356836Y291566D01*
X357054Y291907D01*
X357387Y292136D01*
X357784Y292216D01*
X359193Y292216D01*
X359582Y292604D01*
X359889Y292815D01*
X360284Y292902D01*
X360681Y292828D01*
X361018Y292604D01*
X361407Y292216D01*
X367231Y292216D01*
X367419Y292345D01*
X367814Y292432D01*
X368211Y292358D01*
X368548Y292134D01*
X374098Y286584D01*
X374316Y286262D01*
X374396Y285866D01*
X374396Y282797D01*
X376178Y281014D01*
X376396Y280692D01*
X376476Y280296D01*
X376476Y280066D01*
X379126Y277416D01*
X382874Y277416D01*
X385524Y280066D01*
X385524Y283814D01*
X382822Y286516D01*
X382604Y286838D01*
X382524Y287235D01*
X382524Y289653D01*
X381696Y290482D01*
X381492Y290774D01*
X381399Y291168D01*
X381467Y291566D01*
X381684Y291907D01*
X382018Y292136D01*
X382414Y292216D01*
X383193Y292216D01*
X384474Y293497D01*
X384474Y302901D01*
X384537Y303252D01*
X384749Y303596D01*
X385079Y303830D01*
X385474Y303917D01*
X385871Y303843D01*
X386208Y303619D01*
X388322Y301505D01*
X388540Y301183D01*
X388620Y300787D01*
X388620Y275793D01*
X388546Y275412D01*
X388322Y275075D01*
X370288Y257041D01*
X369981Y256830D01*
G37*
%LPC*%
G36*
X259746Y379016D02*
X263494Y379016D01*
X266086Y381608D01*
X266408Y381826D01*
X266805Y381906D01*
X273084Y381906D01*
X273450Y381838D01*
X273791Y381620D01*
X273959Y381375D01*
X293340Y381375D01*
X293340Y381924D01*
X292926Y382338D01*
X292716Y382645D01*
X292629Y383040D01*
X292703Y383438D01*
X292864Y383681D01*
X292864Y388227D01*
X291692Y389399D01*
X286459Y389399D01*
X286078Y389473D01*
X285741Y389697D01*
X285403Y390034D01*
X262367Y390034D01*
X260694Y388362D01*
X260372Y388144D01*
X259976Y388064D01*
X259746Y388064D01*
X257096Y385414D01*
X257096Y381666D01*
X259746Y379016D01*
G37*
G36*
X274100Y374875D02*
X293340Y374875D01*
X293340Y375424D01*
X293263Y375502D01*
X293052Y375809D01*
X292965Y376204D01*
X293040Y376601D01*
X293263Y376938D01*
X293340Y377016D01*
X293340Y377565D01*
X274100Y377565D01*
X274100Y377016D01*
X274177Y376938D01*
X274388Y376631D01*
X274475Y376236D01*
X274400Y375839D01*
X274177Y375502D01*
X274100Y375424D01*
X274100Y374875D01*
G37*
G36*
X274100Y368375D02*
X293340Y368375D01*
X293340Y368924D01*
X293263Y369002D01*
X293052Y369309D01*
X292965Y369704D01*
X293040Y370101D01*
X293263Y370438D01*
X293340Y370516D01*
X293340Y371065D01*
X274100Y371065D01*
X274100Y370516D01*
X274177Y370438D01*
X274388Y370131D01*
X274475Y369736D01*
X274400Y369339D01*
X274177Y369002D01*
X274100Y368924D01*
X274100Y368375D01*
G37*
G36*
X274100Y361875D02*
X293340Y361875D01*
X293340Y362424D01*
X293263Y362502D01*
X293052Y362809D01*
X292965Y363204D01*
X293040Y363601D01*
X293263Y363938D01*
X293340Y364016D01*
X293340Y364565D01*
X274100Y364565D01*
X274100Y364016D01*
X274177Y363938D01*
X274388Y363631D01*
X274475Y363236D01*
X274400Y362839D01*
X274177Y362502D01*
X274100Y362424D01*
X274100Y361875D01*
G37*
G36*
X274100Y355375D02*
X293340Y355375D01*
X293340Y355924D01*
X293263Y356002D01*
X293052Y356309D01*
X292965Y356704D01*
X293040Y357101D01*
X293263Y357438D01*
X293340Y357516D01*
X293340Y358065D01*
X274100Y358065D01*
X274100Y357516D01*
X274177Y357438D01*
X274388Y357131D01*
X274475Y356736D01*
X274400Y356339D01*
X274177Y356002D01*
X274100Y355924D01*
X274100Y355375D01*
G37*
G36*
X274100Y348875D02*
X293340Y348875D01*
X293340Y349424D01*
X293263Y349502D01*
X293052Y349809D01*
X292965Y350204D01*
X293040Y350601D01*
X293263Y350938D01*
X293340Y351016D01*
X293340Y351565D01*
X274100Y351565D01*
X274100Y351016D01*
X274177Y350938D01*
X274388Y350631D01*
X274475Y350236D01*
X274400Y349839D01*
X274177Y349502D01*
X274100Y349424D01*
X274100Y348875D01*
G37*
G36*
X343025Y336565D02*
X349289Y336565D01*
X350740Y338016D01*
X350740Y338565D01*
X343025Y338565D01*
X343025Y336565D01*
G37*
G36*
X332951Y336565D02*
X339215Y336565D01*
X339215Y338565D01*
X331500Y338565D01*
X331500Y338016D01*
X332951Y336565D01*
G37*
%LPD*%
G36*
X-151514Y291734D02*
X-151908Y291641D01*
X-152306Y291709D01*
X-152647Y291926D01*
X-152876Y292260D01*
X-152956Y292656D01*
X-152956Y293974D01*
X-155606Y296624D01*
X-159354Y296624D01*
X-161040Y294938D01*
X-161362Y294720D01*
X-161759Y294640D01*
X-168344Y294640D01*
X-168710Y294708D01*
X-169051Y294926D01*
X-169280Y295260D01*
X-169360Y295656D01*
X-169360Y296145D01*
X-181012Y296145D01*
X-181012Y302273D01*
X-183101Y302273D01*
X-183452Y302335D01*
X-183796Y302548D01*
X-184030Y302877D01*
X-184117Y303272D01*
X-184042Y303670D01*
X-183819Y304007D01*
X-175310Y312516D01*
X-174987Y312734D01*
X-174591Y312814D01*
X-150287Y312814D01*
X-145782Y317318D01*
X-145460Y317536D01*
X-145064Y317616D01*
X-143347Y317616D01*
X-142958Y318004D01*
X-142651Y318215D01*
X-142256Y318302D01*
X-141859Y318228D01*
X-141522Y318004D01*
X-141348Y317830D01*
X-141130Y317508D01*
X-141050Y317112D01*
X-141050Y311381D01*
X-141124Y311000D01*
X-141348Y310663D01*
X-149680Y302330D01*
X-149680Y293900D01*
X-149754Y293519D01*
X-149978Y293182D01*
X-151222Y291938D01*
X-151514Y291734D01*
G37*
%LPC*%
G36*
X-176948Y300209D02*
X-169360Y300209D01*
X-169360Y300794D01*
X-170838Y302273D01*
X-176948Y302273D01*
X-176948Y300209D01*
G37*
%LPD*%
G36*
X208434Y150375D02*
X208040Y150282D01*
X207642Y150350D01*
X207301Y150568D01*
X207072Y150901D01*
X206992Y151297D01*
X206992Y174580D01*
X207060Y174946D01*
X207278Y175287D01*
X207612Y175516D01*
X208008Y175596D01*
X211444Y175596D01*
X211810Y175528D01*
X212151Y175310D01*
X212380Y174976D01*
X212460Y174580D01*
X212460Y173559D01*
X212386Y173177D01*
X212162Y172840D01*
X211376Y172054D01*
X211376Y168306D01*
X214026Y165656D01*
X217774Y165656D01*
X220424Y168306D01*
X220424Y172054D01*
X218616Y173862D01*
X218412Y174154D01*
X218319Y174548D01*
X218387Y174946D01*
X218605Y175287D01*
X218938Y175516D01*
X219335Y175596D01*
X223131Y175596D01*
X224024Y176489D01*
X224024Y186751D01*
X223131Y187644D01*
X208008Y187644D01*
X207642Y187712D01*
X207301Y187930D01*
X207072Y188264D01*
X206992Y188660D01*
X206992Y207580D01*
X207060Y207946D01*
X207278Y208287D01*
X207612Y208516D01*
X208008Y208596D01*
X214856Y208596D01*
X215237Y208522D01*
X215574Y208298D01*
X222071Y201802D01*
X231369Y201802D01*
X231735Y201734D01*
X232076Y201516D01*
X232305Y201182D01*
X232385Y200786D01*
X232385Y200630D01*
X233278Y199738D01*
X244242Y199738D01*
X245135Y200630D01*
X245135Y200786D01*
X245203Y201152D01*
X245421Y201493D01*
X245755Y201722D01*
X246151Y201802D01*
X309149Y201802D01*
X351446Y244098D01*
X351768Y244316D01*
X352164Y244396D01*
X352394Y244396D01*
X355044Y247046D01*
X355044Y250794D01*
X352394Y253444D01*
X348646Y253444D01*
X345996Y250794D01*
X345996Y250564D01*
X345922Y250183D01*
X345698Y249846D01*
X306080Y210228D01*
X305758Y210010D01*
X305362Y209930D01*
X246151Y209930D01*
X245785Y209998D01*
X245444Y210216D01*
X245215Y210550D01*
X245135Y210946D01*
X245135Y211102D01*
X244242Y211995D01*
X233278Y211995D01*
X232385Y211102D01*
X232385Y210946D01*
X232317Y210580D01*
X232099Y210239D01*
X231765Y210010D01*
X231369Y209930D01*
X225858Y209930D01*
X225477Y210004D01*
X225140Y210228D01*
X224322Y211046D01*
X224104Y211368D01*
X224024Y211764D01*
X224024Y219751D01*
X223131Y220644D01*
X208008Y220644D01*
X207642Y220712D01*
X207301Y220930D01*
X207072Y221264D01*
X206992Y221660D01*
X206992Y279882D01*
X207066Y280263D01*
X207290Y280600D01*
X230340Y303650D01*
X230662Y303868D01*
X231059Y303948D01*
X241890Y303948D01*
X242256Y303880D01*
X242597Y303662D01*
X242826Y303328D01*
X242906Y302932D01*
X242906Y293497D01*
X244187Y292216D01*
X249973Y292216D01*
X250362Y292604D01*
X250669Y292815D01*
X251064Y292902D01*
X251461Y292828D01*
X251798Y292604D01*
X252187Y292216D01*
X254570Y292216D01*
X254936Y292148D01*
X255277Y291930D01*
X255506Y291596D01*
X255586Y291200D01*
X255586Y279773D01*
X255512Y279392D01*
X255288Y279055D01*
X255221Y278988D01*
X255221Y275318D01*
X255288Y275251D01*
X255506Y274929D01*
X255586Y274533D01*
X255586Y263285D01*
X255515Y262911D01*
X255294Y262572D01*
X254959Y262346D01*
X254813Y262286D01*
X252064Y259537D01*
X250576Y255944D01*
X250576Y252056D01*
X252064Y248463D01*
X254813Y245714D01*
X258406Y244226D01*
X262294Y244226D01*
X265887Y245714D01*
X268636Y248463D01*
X270124Y252056D01*
X270124Y255944D01*
X268636Y259537D01*
X265887Y262286D01*
X264341Y262926D01*
X264023Y263135D01*
X263794Y263468D01*
X263714Y263865D01*
X263714Y274533D01*
X263788Y274914D01*
X264012Y275251D01*
X264079Y275318D01*
X264079Y278988D01*
X264012Y279055D01*
X263794Y279377D01*
X263714Y279773D01*
X263714Y291200D01*
X263782Y291566D01*
X264000Y291907D01*
X264334Y292136D01*
X264730Y292216D01*
X265973Y292216D01*
X266362Y292604D01*
X266669Y292815D01*
X267064Y292902D01*
X267461Y292828D01*
X267798Y292604D01*
X268187Y292216D01*
X273973Y292216D01*
X275254Y293497D01*
X275254Y303784D01*
X275322Y304150D01*
X275540Y304491D01*
X275874Y304720D01*
X276270Y304800D01*
X315360Y304800D01*
X315741Y304726D01*
X316078Y304502D01*
X327108Y293472D01*
X327326Y293150D01*
X327406Y292754D01*
X327406Y273522D01*
X341848Y259080D01*
X351587Y259080D01*
X351968Y259006D01*
X352305Y258782D01*
X360382Y250705D01*
X360600Y250383D01*
X360680Y249987D01*
X360680Y189433D01*
X360606Y189052D01*
X360382Y188715D01*
X344685Y173018D01*
X344363Y172800D01*
X343967Y172720D01*
X230867Y172720D01*
X208726Y150579D01*
X208434Y150375D01*
G37*
%LPC*%
G36*
X224700Y256032D02*
X232918Y256032D01*
X232918Y264250D01*
X225872Y264250D01*
X224700Y263078D01*
X224700Y256032D01*
G37*
G36*
X236982Y256032D02*
X245200Y256032D01*
X245200Y263078D01*
X244028Y264250D01*
X236982Y264250D01*
X236982Y256032D01*
G37*
G36*
X309206Y244226D02*
X313094Y244226D01*
X316687Y245714D01*
X319436Y248463D01*
X320924Y252056D01*
X320924Y255944D01*
X319436Y259537D01*
X316687Y262286D01*
X313094Y263774D01*
X309206Y263774D01*
X305613Y262286D01*
X302864Y259537D01*
X301376Y255944D01*
X301376Y252056D01*
X302864Y248463D01*
X305613Y245714D01*
X309206Y244226D01*
G37*
G36*
X283806Y244226D02*
X287694Y244226D01*
X291287Y245714D01*
X294036Y248463D01*
X295524Y252056D01*
X295524Y255944D01*
X294036Y259537D01*
X291287Y262286D01*
X287694Y263774D01*
X283806Y263774D01*
X280213Y262286D01*
X277464Y259537D01*
X275976Y255944D01*
X275976Y252056D01*
X277464Y248463D01*
X280213Y245714D01*
X283806Y244226D01*
G37*
G36*
X225872Y243750D02*
X232918Y243750D01*
X232918Y251968D01*
X224700Y251968D01*
X224700Y244922D01*
X225872Y243750D01*
G37*
G36*
X236982Y243750D02*
X244028Y243750D01*
X245200Y244922D01*
X245200Y251968D01*
X236982Y251968D01*
X236982Y243750D01*
G37*
G36*
X240792Y192406D02*
X245611Y192406D01*
X245611Y195807D01*
X244439Y196979D01*
X240792Y196979D01*
X240792Y192406D01*
G37*
G36*
X231909Y192406D02*
X236728Y192406D01*
X236728Y196979D01*
X233081Y196979D01*
X231909Y195807D01*
X231909Y192406D01*
G37*
G36*
X240792Y183770D02*
X244439Y183770D01*
X245611Y184941D01*
X245611Y188342D01*
X240792Y188342D01*
X240792Y183770D01*
G37*
G36*
X233081Y183770D02*
X236728Y183770D01*
X236728Y188342D01*
X231909Y188342D01*
X231909Y184941D01*
X233081Y183770D01*
G37*
%LPD*%
G36*
X-376918Y178090D02*
X-377314Y178010D01*
X-403382Y178010D01*
X-403756Y178081D01*
X-404095Y178302D01*
X-404321Y178637D01*
X-404628Y179380D01*
X-407200Y181952D01*
X-410561Y183344D01*
X-415222Y183344D01*
X-415588Y183412D01*
X-415929Y183630D01*
X-416158Y183964D01*
X-416238Y184360D01*
X-416238Y189440D01*
X-416170Y189806D01*
X-415952Y190147D01*
X-415618Y190376D01*
X-415222Y190456D01*
X-410561Y190456D01*
X-407200Y191848D01*
X-404628Y194420D01*
X-403795Y196433D01*
X-403586Y196751D01*
X-403252Y196980D01*
X-402856Y197060D01*
X-384084Y197060D01*
X-383703Y196986D01*
X-383366Y196762D01*
X-382835Y196231D01*
X-379165Y196231D01*
X-377574Y197822D01*
X-377252Y198040D01*
X-376856Y198120D01*
X-268188Y198120D01*
X-229369Y236938D01*
X-229047Y237156D01*
X-228651Y237236D01*
X-198736Y237236D01*
X-198355Y237162D01*
X-198018Y236938D01*
X-190696Y229616D01*
X-129345Y229616D01*
X-106998Y251962D01*
X-106676Y252180D01*
X-106280Y252260D01*
X-101608Y252260D01*
X-101242Y252192D01*
X-100901Y251974D01*
X-100672Y251640D01*
X-100592Y251244D01*
X-100592Y248502D01*
X-99599Y246104D01*
X-97764Y244269D01*
X-95366Y243276D01*
X-75270Y243276D01*
X-72740Y244324D01*
X-72704Y244349D01*
X-72310Y244442D01*
X-71912Y244375D01*
X-71571Y244157D01*
X-71342Y243823D01*
X-71262Y243427D01*
X-71262Y233263D01*
X-69167Y228204D01*
X-65296Y224333D01*
X-60237Y222238D01*
X60237Y222238D01*
X65296Y224333D01*
X69167Y228204D01*
X71262Y233263D01*
X71262Y243271D01*
X71327Y243629D01*
X71543Y243972D01*
X71874Y244203D01*
X72270Y244287D01*
X72667Y244209D01*
X74920Y243276D01*
X81412Y243276D01*
X81778Y243208D01*
X82119Y242990D01*
X82348Y242656D01*
X82428Y242260D01*
X82428Y226141D01*
X82354Y225760D01*
X82130Y225423D01*
X70115Y213408D01*
X69793Y213190D01*
X69397Y213110D01*
X22828Y213110D01*
X18120Y208402D01*
X17812Y208191D01*
X17417Y208104D01*
X17020Y208178D01*
X16683Y208402D01*
X15054Y210030D01*
X11072Y210030D01*
X11072Y203048D01*
X7008Y203048D01*
X7008Y210030D01*
X3026Y210030D01*
X990Y207994D01*
X990Y207542D01*
X927Y207190D01*
X715Y206846D01*
X385Y206612D01*
X-10Y206526D01*
X-407Y206600D01*
X-744Y206823D01*
X-6932Y213011D01*
X-31144Y213011D01*
X-34607Y209547D01*
X-34929Y209330D01*
X-35325Y209250D01*
X-43601Y209250D01*
X-44494Y208357D01*
X-44494Y199107D01*
X-43601Y198215D01*
X-32599Y198215D01*
X-31707Y199107D01*
X-31707Y204843D01*
X-31632Y205224D01*
X-31409Y205561D01*
X-29337Y207633D01*
X-29015Y207850D01*
X-28619Y207931D01*
X-24294Y207931D01*
X-23928Y207862D01*
X-23587Y207644D01*
X-23358Y207311D01*
X-23278Y206915D01*
X-23278Y205358D01*
X-9576Y205358D01*
X-9576Y206018D01*
X-9513Y206369D01*
X-9301Y206713D01*
X-8971Y206947D01*
X-8576Y207034D01*
X-8179Y206959D01*
X-7842Y206736D01*
X-2838Y201732D01*
X-2620Y201410D01*
X-2540Y201014D01*
X-2540Y189720D01*
X-2603Y189369D01*
X-2815Y189025D01*
X-3145Y188791D01*
X-3540Y188704D01*
X-3937Y188778D01*
X-4274Y189002D01*
X-6433Y191160D01*
X-9036Y191160D01*
X-9402Y191228D01*
X-9743Y191446D01*
X-9972Y191780D01*
X-10052Y192176D01*
X-10052Y193070D01*
X-10945Y193963D01*
X-21909Y193963D01*
X-22802Y193070D01*
X-22802Y192176D01*
X-22870Y191810D01*
X-23088Y191469D01*
X-23422Y191240D01*
X-23818Y191160D01*
X-30691Y191160D01*
X-31057Y191228D01*
X-31397Y191446D01*
X-31626Y191780D01*
X-31675Y192021D01*
X-32599Y192946D01*
X-43601Y192946D01*
X-44540Y192007D01*
X-44562Y191888D01*
X-44780Y191547D01*
X-45113Y191318D01*
X-45510Y191238D01*
X-119030Y191238D01*
X-119411Y191312D01*
X-119748Y191536D01*
X-146897Y218684D01*
X-155960Y218684D01*
X-156326Y218752D01*
X-156667Y218970D01*
X-156896Y219304D01*
X-156976Y219700D01*
X-156976Y219751D01*
X-157869Y220644D01*
X-174131Y220644D01*
X-175024Y219751D01*
X-175024Y219700D01*
X-175092Y219334D01*
X-175310Y218993D01*
X-175644Y218764D01*
X-176040Y218684D01*
X-190598Y218684D01*
X-208231Y201051D01*
X-208553Y200834D01*
X-208949Y200754D01*
X-230893Y200754D01*
X-231259Y200822D01*
X-231600Y201040D01*
X-231829Y201373D01*
X-231909Y201770D01*
X-231909Y203834D01*
X-236728Y203834D01*
X-236728Y198246D01*
X-237060Y198246D01*
X-237131Y197864D01*
X-237354Y197527D01*
X-238081Y196800D01*
X-238403Y196583D01*
X-238800Y196503D01*
X-244242Y196503D01*
X-245135Y195610D01*
X-245135Y193040D01*
X-245203Y192674D01*
X-245421Y192333D01*
X-245755Y192104D01*
X-246151Y192024D01*
X-347123Y192024D01*
X-359780Y179368D01*
X-360102Y179150D01*
X-360498Y179070D01*
X-370506Y179070D01*
X-370887Y179144D01*
X-371224Y179368D01*
X-371545Y179689D01*
X-375215Y179689D01*
X-376596Y178308D01*
X-376918Y178090D01*
G37*
%LPC*%
G36*
X-223131Y208596D02*
X-206869Y208596D01*
X-205976Y209489D01*
X-205976Y219751D01*
X-206869Y220644D01*
X-211444Y220644D01*
X-211810Y220712D01*
X-212151Y220930D01*
X-212380Y221264D01*
X-212460Y221660D01*
X-212460Y223951D01*
X-212386Y224333D01*
X-212162Y224670D01*
X-210106Y226726D01*
X-210106Y230474D01*
X-212756Y233124D01*
X-216504Y233124D01*
X-219154Y230474D01*
X-219154Y226726D01*
X-217838Y225410D01*
X-217620Y225088D01*
X-217540Y224691D01*
X-217540Y221660D01*
X-217608Y221294D01*
X-217826Y220953D01*
X-218160Y220724D01*
X-218556Y220644D01*
X-223131Y220644D01*
X-224024Y219751D01*
X-224024Y209489D01*
X-223131Y208596D01*
G37*
G36*
X-236728Y207898D02*
X-231909Y207898D01*
X-231909Y211299D01*
X-233081Y212471D01*
X-236728Y212471D01*
X-236728Y207898D01*
G37*
G36*
X-245611Y207898D02*
X-240792Y207898D01*
X-240792Y212471D01*
X-244439Y212471D01*
X-245611Y211299D01*
X-245611Y207898D01*
G37*
G36*
X-244439Y199262D02*
X-240792Y199262D01*
X-240792Y203834D01*
X-245611Y203834D01*
X-245611Y200433D01*
X-244439Y199262D01*
G37*
G36*
X-22106Y196722D02*
X-18459Y196722D01*
X-18459Y201294D01*
X-23278Y201294D01*
X-23278Y197893D01*
X-22106Y196722D01*
G37*
G36*
X-14395Y196722D02*
X-10748Y196722D01*
X-9576Y197893D01*
X-9576Y201294D01*
X-14395Y201294D01*
X-14395Y196722D01*
G37*
%LPD*%
G36*
X288991Y45800D02*
X288595Y45720D01*
X274240Y45720D01*
X273874Y45788D01*
X273533Y46006D01*
X273304Y46340D01*
X273224Y46736D01*
X273224Y46991D01*
X271279Y51686D01*
X267686Y55279D01*
X262991Y57224D01*
X257909Y57224D01*
X253840Y55539D01*
X253468Y55461D01*
X253070Y55536D01*
X252733Y55759D01*
X214788Y93705D01*
X214570Y94027D01*
X214490Y94423D01*
X214490Y105610D01*
X214558Y105976D01*
X214776Y106317D01*
X215110Y106546D01*
X215506Y106626D01*
X225331Y106626D01*
X226224Y107519D01*
X226224Y133781D01*
X225331Y134674D01*
X202458Y134674D01*
X202107Y134737D01*
X201763Y134949D01*
X201529Y135279D01*
X201443Y135674D01*
X201517Y136071D01*
X201740Y136408D01*
X232674Y167342D01*
X232996Y167560D01*
X233392Y167640D01*
X346492Y167640D01*
X363010Y184157D01*
X363302Y184362D01*
X363696Y184455D01*
X364094Y184387D01*
X364435Y184169D01*
X364664Y183835D01*
X364744Y183439D01*
X364744Y92810D01*
X364676Y92444D01*
X364458Y92103D01*
X364124Y91874D01*
X363728Y91794D01*
X361346Y91794D01*
X358696Y89144D01*
X358696Y85396D01*
X361346Y82746D01*
X365094Y82746D01*
X367744Y85396D01*
X367744Y87781D01*
X367818Y88162D01*
X368042Y88499D01*
X368090Y88547D01*
X368382Y88751D01*
X368776Y88844D01*
X369174Y88777D01*
X369515Y88559D01*
X369744Y88225D01*
X369824Y87829D01*
X369824Y81737D01*
X369750Y81356D01*
X369526Y81019D01*
X339605Y51098D01*
X339283Y50880D01*
X338887Y50800D01*
X293573Y50800D01*
X293192Y50874D01*
X292855Y51098D01*
X291842Y52111D01*
X291624Y52433D01*
X291544Y52829D01*
X291544Y55214D01*
X288894Y57864D01*
X285146Y57864D01*
X282496Y55214D01*
X282496Y51466D01*
X285146Y48816D01*
X287531Y48816D01*
X287912Y48742D01*
X288249Y48518D01*
X289313Y47454D01*
X289518Y47162D01*
X289611Y46768D01*
X289543Y46370D01*
X289325Y46029D01*
X288991Y45800D01*
G37*
%LPC*%
G36*
X307322Y127810D02*
X314578Y127810D01*
X321282Y130587D01*
X326413Y135718D01*
X329190Y142422D01*
X329190Y149678D01*
X326413Y156382D01*
X321282Y161513D01*
X314578Y164290D01*
X307322Y164290D01*
X300618Y161513D01*
X295487Y156382D01*
X292710Y149678D01*
X292710Y142422D01*
X295487Y135718D01*
X300618Y130587D01*
X307322Y127810D01*
G37*
G36*
X331700Y148082D02*
X344418Y148082D01*
X344418Y160550D01*
X332872Y160550D01*
X331700Y159378D01*
X331700Y148082D01*
G37*
G36*
X348482Y148082D02*
X361200Y148082D01*
X361200Y159378D01*
X360028Y160550D01*
X348482Y160550D01*
X348482Y148082D01*
G37*
G36*
X348482Y131550D02*
X360028Y131550D01*
X361200Y132722D01*
X361200Y144018D01*
X348482Y144018D01*
X348482Y131550D01*
G37*
G36*
X332872Y131550D02*
X344418Y131550D01*
X344418Y144018D01*
X331700Y144018D01*
X331700Y132722D01*
X332872Y131550D01*
G37*
G36*
X233263Y83750D02*
X237838Y83750D01*
X242064Y85501D01*
X245299Y88736D01*
X247050Y92963D01*
X247050Y97538D01*
X245614Y101005D01*
X245537Y101362D01*
X245605Y101760D01*
X245823Y102101D01*
X246156Y102330D01*
X246552Y102410D01*
X251078Y102410D01*
X257782Y105187D01*
X262913Y110318D01*
X265690Y117022D01*
X265690Y124278D01*
X262913Y130982D01*
X257782Y136113D01*
X251078Y138890D01*
X243822Y138890D01*
X237118Y136113D01*
X231987Y130982D01*
X229210Y124278D01*
X229210Y117022D01*
X231987Y110318D01*
X233820Y108484D01*
X234024Y108192D01*
X234117Y107798D01*
X234050Y107400D01*
X233832Y107059D01*
X233498Y106830D01*
X233417Y106814D01*
X229036Y104999D01*
X225801Y101764D01*
X224050Y97538D01*
X224050Y92963D01*
X225801Y88736D01*
X229036Y85501D01*
X233263Y83750D01*
G37*
G36*
X280987Y72311D02*
X290113Y72311D01*
X298544Y75803D01*
X304997Y82256D01*
X308489Y90687D01*
X308489Y99813D01*
X304997Y108244D01*
X298544Y114697D01*
X290113Y118189D01*
X280987Y118189D01*
X272556Y114697D01*
X266103Y108244D01*
X262611Y99813D01*
X262611Y90687D01*
X266103Y82256D01*
X272556Y75803D01*
X280987Y72311D01*
G37*
G36*
X333263Y83750D02*
X337838Y83750D01*
X342064Y85501D01*
X345299Y88736D01*
X347050Y92963D01*
X347050Y97538D01*
X345299Y101764D01*
X342064Y104999D01*
X337838Y106750D01*
X333263Y106750D01*
X329036Y104999D01*
X325801Y101764D01*
X324050Y97538D01*
X324050Y92963D01*
X325801Y88736D01*
X329036Y85501D01*
X333263Y83750D01*
G37*
G36*
X310400Y71882D02*
X321618Y71882D01*
X321618Y83100D01*
X321014Y83100D01*
X316144Y81083D01*
X312417Y77356D01*
X310400Y72486D01*
X310400Y71882D01*
G37*
G36*
X325682Y71882D02*
X336900Y71882D01*
X336900Y72486D01*
X334883Y77356D01*
X331156Y81083D01*
X326286Y83100D01*
X325682Y83100D01*
X325682Y71882D01*
G37*
G36*
X321014Y56600D02*
X321618Y56600D01*
X321618Y67818D01*
X310400Y67818D01*
X310400Y67214D01*
X312417Y62344D01*
X316144Y58617D01*
X321014Y56600D01*
G37*
G36*
X325682Y56600D02*
X326286Y56600D01*
X331156Y58617D01*
X334883Y62344D01*
X336900Y67214D01*
X336900Y67818D01*
X325682Y67818D01*
X325682Y56600D01*
G37*
%LPD*%
D10*
X238760Y190374D03*
X238760Y205866D03*
X-238760Y205866D03*
X-238760Y190374D03*
X241300Y-193166D03*
X241300Y-177674D03*
X-238760Y-175134D03*
X-238760Y-190626D03*
D11*
X-165226Y254000D03*
X-149734Y254000D03*
D10*
X-16427Y203326D03*
X-16427Y187834D03*
D12*
X-310950Y234546D03*
D13*
X-260950Y234546D03*
D12*
X-260950Y379546D03*
X-285950Y379546D03*
X-310950Y379546D03*
D14*
X-228950Y318046D02*
X-228950Y291046D01*
X-342950Y291046D02*
X-342950Y318046D01*
D15*
X234950Y254000D03*
D16*
X260350Y254000D03*
X285750Y254000D03*
X311150Y254000D03*
D17*
X166000Y181620D03*
X166000Y214620D03*
X215000Y181620D03*
X215000Y214620D03*
X-215000Y181620D03*
X-215000Y214620D03*
X-166000Y181620D03*
X-166000Y214620D03*
X-215000Y-199380D03*
X-215000Y-166380D03*
X-166000Y-199380D03*
X-166000Y-166380D03*
X166000Y-199380D03*
X166000Y-166380D03*
X215000Y-199380D03*
X215000Y-166380D03*
D18*
X-177040Y387670D02*
X-187840Y387670D01*
X-177040Y387670D02*
X-177040Y383170D01*
X-187840Y383170D01*
X-187840Y387670D01*
X-187840Y384595D02*
X-177040Y384595D01*
X-177040Y386020D02*
X-187840Y386020D01*
X-187840Y387445D02*
X-177040Y387445D01*
X-198240Y378170D02*
X-209040Y378170D01*
X-198240Y378170D02*
X-198240Y373670D01*
X-209040Y373670D01*
X-209040Y378170D01*
X-209040Y375095D02*
X-198240Y375095D01*
X-198240Y376520D02*
X-209040Y376520D01*
X-209040Y377945D02*
X-198240Y377945D01*
X-187840Y368670D02*
X-177040Y368670D01*
X-177040Y364170D01*
X-187840Y364170D01*
X-187840Y368670D01*
X-187840Y365595D02*
X-177040Y365595D01*
X-177040Y367020D02*
X-187840Y367020D01*
X-187840Y368445D02*
X-177040Y368445D01*
X-177040Y344490D02*
X-187840Y344490D01*
X-177040Y344490D02*
X-177040Y339990D01*
X-187840Y339990D01*
X-187840Y344490D01*
X-187840Y341415D02*
X-177040Y341415D01*
X-177040Y342840D02*
X-187840Y342840D01*
X-187840Y344265D02*
X-177040Y344265D01*
X-198240Y334990D02*
X-209040Y334990D01*
X-198240Y334990D02*
X-198240Y330490D01*
X-209040Y330490D01*
X-209040Y334990D01*
X-209040Y331915D02*
X-198240Y331915D01*
X-198240Y333340D02*
X-209040Y333340D01*
X-209040Y334765D02*
X-198240Y334765D01*
X-187840Y325490D02*
X-177040Y325490D01*
X-177040Y320990D01*
X-187840Y320990D01*
X-187840Y325490D01*
X-187840Y322415D02*
X-177040Y322415D01*
X-177040Y323840D02*
X-187840Y323840D01*
X-187840Y325265D02*
X-177040Y325265D01*
D19*
X-342368Y370840D03*
X-358672Y370840D03*
X-342368Y350520D03*
X-358672Y350520D03*
D20*
X-152400Y365228D03*
X-152400Y381532D03*
X-132080Y365228D03*
X-132080Y381532D03*
D21*
X245092Y320278D02*
X245092Y311902D01*
X245092Y320278D02*
X249068Y320278D01*
X249068Y311902D01*
X245092Y311902D01*
X245092Y313161D02*
X249068Y313161D01*
X249068Y314420D02*
X245092Y314420D01*
X245092Y315679D02*
X249068Y315679D01*
X249068Y316938D02*
X245092Y316938D01*
X245092Y318197D02*
X249068Y318197D01*
X249068Y319456D02*
X245092Y319456D01*
X253092Y320278D02*
X253092Y311902D01*
X253092Y320278D02*
X257068Y320278D01*
X257068Y311902D01*
X253092Y311902D01*
X253092Y313161D02*
X257068Y313161D01*
X257068Y314420D02*
X253092Y314420D01*
X253092Y315679D02*
X257068Y315679D01*
X257068Y316938D02*
X253092Y316938D01*
X253092Y318197D02*
X257068Y318197D01*
X257068Y319456D02*
X253092Y319456D01*
X261092Y320278D02*
X261092Y311902D01*
X261092Y320278D02*
X265068Y320278D01*
X265068Y311902D01*
X261092Y311902D01*
X261092Y313161D02*
X265068Y313161D01*
X265068Y314420D02*
X261092Y314420D01*
X261092Y315679D02*
X265068Y315679D01*
X265068Y316938D02*
X261092Y316938D01*
X261092Y318197D02*
X265068Y318197D01*
X265068Y319456D02*
X261092Y319456D01*
X269092Y320278D02*
X269092Y311902D01*
X269092Y320278D02*
X273068Y320278D01*
X273068Y311902D01*
X269092Y311902D01*
X269092Y313161D02*
X273068Y313161D01*
X273068Y314420D02*
X269092Y314420D01*
X269092Y315679D02*
X273068Y315679D01*
X273068Y316938D02*
X269092Y316938D01*
X269092Y318197D02*
X273068Y318197D01*
X273068Y319456D02*
X269092Y319456D01*
X273068Y302778D02*
X273068Y294402D01*
X269092Y294402D01*
X269092Y302778D01*
X273068Y302778D01*
X273068Y295661D02*
X269092Y295661D01*
X269092Y296920D02*
X273068Y296920D01*
X273068Y298179D02*
X269092Y298179D01*
X269092Y299438D02*
X273068Y299438D01*
X273068Y300697D02*
X269092Y300697D01*
X269092Y301956D02*
X273068Y301956D01*
X265068Y302778D02*
X265068Y294402D01*
X261092Y294402D01*
X261092Y302778D01*
X265068Y302778D01*
X265068Y295661D02*
X261092Y295661D01*
X261092Y296920D02*
X265068Y296920D01*
X265068Y298179D02*
X261092Y298179D01*
X261092Y299438D02*
X265068Y299438D01*
X265068Y300697D02*
X261092Y300697D01*
X261092Y301956D02*
X265068Y301956D01*
X257068Y302778D02*
X257068Y294402D01*
X253092Y294402D01*
X253092Y302778D01*
X257068Y302778D01*
X257068Y295661D02*
X253092Y295661D01*
X253092Y296920D02*
X257068Y296920D01*
X257068Y298179D02*
X253092Y298179D01*
X253092Y299438D02*
X257068Y299438D01*
X257068Y300697D02*
X253092Y300697D01*
X253092Y301956D02*
X257068Y301956D01*
X249068Y302778D02*
X249068Y294402D01*
X245092Y294402D01*
X245092Y302778D01*
X249068Y302778D01*
X249068Y295661D02*
X245092Y295661D01*
X245092Y296920D02*
X249068Y296920D01*
X249068Y298179D02*
X245092Y298179D01*
X245092Y299438D02*
X249068Y299438D01*
X249068Y300697D02*
X245092Y300697D01*
X245092Y301956D02*
X249068Y301956D01*
X135872Y311902D02*
X135872Y320278D01*
X139848Y320278D01*
X139848Y311902D01*
X135872Y311902D01*
X135872Y313161D02*
X139848Y313161D01*
X139848Y314420D02*
X135872Y314420D01*
X135872Y315679D02*
X139848Y315679D01*
X139848Y316938D02*
X135872Y316938D01*
X135872Y318197D02*
X139848Y318197D01*
X139848Y319456D02*
X135872Y319456D01*
X143872Y320278D02*
X143872Y311902D01*
X143872Y320278D02*
X147848Y320278D01*
X147848Y311902D01*
X143872Y311902D01*
X143872Y313161D02*
X147848Y313161D01*
X147848Y314420D02*
X143872Y314420D01*
X143872Y315679D02*
X147848Y315679D01*
X147848Y316938D02*
X143872Y316938D01*
X143872Y318197D02*
X147848Y318197D01*
X147848Y319456D02*
X143872Y319456D01*
X151872Y320278D02*
X151872Y311902D01*
X151872Y320278D02*
X155848Y320278D01*
X155848Y311902D01*
X151872Y311902D01*
X151872Y313161D02*
X155848Y313161D01*
X155848Y314420D02*
X151872Y314420D01*
X151872Y315679D02*
X155848Y315679D01*
X155848Y316938D02*
X151872Y316938D01*
X151872Y318197D02*
X155848Y318197D01*
X155848Y319456D02*
X151872Y319456D01*
X159872Y320278D02*
X159872Y311902D01*
X159872Y320278D02*
X163848Y320278D01*
X163848Y311902D01*
X159872Y311902D01*
X159872Y313161D02*
X163848Y313161D01*
X163848Y314420D02*
X159872Y314420D01*
X159872Y315679D02*
X163848Y315679D01*
X163848Y316938D02*
X159872Y316938D01*
X159872Y318197D02*
X163848Y318197D01*
X163848Y319456D02*
X159872Y319456D01*
X163848Y302778D02*
X163848Y294402D01*
X159872Y294402D01*
X159872Y302778D01*
X163848Y302778D01*
X163848Y295661D02*
X159872Y295661D01*
X159872Y296920D02*
X163848Y296920D01*
X163848Y298179D02*
X159872Y298179D01*
X159872Y299438D02*
X163848Y299438D01*
X163848Y300697D02*
X159872Y300697D01*
X159872Y301956D02*
X163848Y301956D01*
X155848Y302778D02*
X155848Y294402D01*
X151872Y294402D01*
X151872Y302778D01*
X155848Y302778D01*
X155848Y295661D02*
X151872Y295661D01*
X151872Y296920D02*
X155848Y296920D01*
X155848Y298179D02*
X151872Y298179D01*
X151872Y299438D02*
X155848Y299438D01*
X155848Y300697D02*
X151872Y300697D01*
X151872Y301956D02*
X155848Y301956D01*
X147848Y302778D02*
X147848Y294402D01*
X143872Y294402D01*
X143872Y302778D01*
X147848Y302778D01*
X147848Y295661D02*
X143872Y295661D01*
X143872Y296920D02*
X147848Y296920D01*
X147848Y298179D02*
X143872Y298179D01*
X143872Y299438D02*
X147848Y299438D01*
X147848Y300697D02*
X143872Y300697D01*
X143872Y301956D02*
X147848Y301956D01*
X139848Y302778D02*
X139848Y294402D01*
X135872Y294402D01*
X135872Y302778D01*
X139848Y302778D01*
X139848Y295661D02*
X135872Y295661D01*
X135872Y296920D02*
X139848Y296920D01*
X139848Y298179D02*
X135872Y298179D01*
X135872Y299438D02*
X139848Y299438D01*
X139848Y300697D02*
X135872Y300697D01*
X135872Y301956D02*
X139848Y301956D01*
X354312Y311902D02*
X354312Y320278D01*
X358288Y320278D01*
X358288Y311902D01*
X354312Y311902D01*
X354312Y313161D02*
X358288Y313161D01*
X358288Y314420D02*
X354312Y314420D01*
X354312Y315679D02*
X358288Y315679D01*
X358288Y316938D02*
X354312Y316938D01*
X354312Y318197D02*
X358288Y318197D01*
X358288Y319456D02*
X354312Y319456D01*
X362312Y320278D02*
X362312Y311902D01*
X362312Y320278D02*
X366288Y320278D01*
X366288Y311902D01*
X362312Y311902D01*
X362312Y313161D02*
X366288Y313161D01*
X366288Y314420D02*
X362312Y314420D01*
X362312Y315679D02*
X366288Y315679D01*
X366288Y316938D02*
X362312Y316938D01*
X362312Y318197D02*
X366288Y318197D01*
X366288Y319456D02*
X362312Y319456D01*
X370312Y320278D02*
X370312Y311902D01*
X370312Y320278D02*
X374288Y320278D01*
X374288Y311902D01*
X370312Y311902D01*
X370312Y313161D02*
X374288Y313161D01*
X374288Y314420D02*
X370312Y314420D01*
X370312Y315679D02*
X374288Y315679D01*
X374288Y316938D02*
X370312Y316938D01*
X370312Y318197D02*
X374288Y318197D01*
X374288Y319456D02*
X370312Y319456D01*
X378312Y320278D02*
X378312Y311902D01*
X378312Y320278D02*
X382288Y320278D01*
X382288Y311902D01*
X378312Y311902D01*
X378312Y313161D02*
X382288Y313161D01*
X382288Y314420D02*
X378312Y314420D01*
X378312Y315679D02*
X382288Y315679D01*
X382288Y316938D02*
X378312Y316938D01*
X378312Y318197D02*
X382288Y318197D01*
X382288Y319456D02*
X378312Y319456D01*
X382288Y302778D02*
X382288Y294402D01*
X378312Y294402D01*
X378312Y302778D01*
X382288Y302778D01*
X382288Y295661D02*
X378312Y295661D01*
X378312Y296920D02*
X382288Y296920D01*
X382288Y298179D02*
X378312Y298179D01*
X378312Y299438D02*
X382288Y299438D01*
X382288Y300697D02*
X378312Y300697D01*
X378312Y301956D02*
X382288Y301956D01*
X374288Y302778D02*
X374288Y294402D01*
X370312Y294402D01*
X370312Y302778D01*
X374288Y302778D01*
X374288Y295661D02*
X370312Y295661D01*
X370312Y296920D02*
X374288Y296920D01*
X374288Y298179D02*
X370312Y298179D01*
X370312Y299438D02*
X374288Y299438D01*
X374288Y300697D02*
X370312Y300697D01*
X370312Y301956D02*
X374288Y301956D01*
X366288Y302778D02*
X366288Y294402D01*
X362312Y294402D01*
X362312Y302778D01*
X366288Y302778D01*
X366288Y295661D02*
X362312Y295661D01*
X362312Y296920D02*
X366288Y296920D01*
X366288Y298179D02*
X362312Y298179D01*
X362312Y299438D02*
X366288Y299438D01*
X366288Y300697D02*
X362312Y300697D01*
X362312Y301956D02*
X366288Y301956D01*
X358288Y302778D02*
X358288Y294402D01*
X354312Y294402D01*
X354312Y302778D01*
X358288Y302778D01*
X358288Y295661D02*
X354312Y295661D01*
X354312Y296920D02*
X358288Y296920D01*
X358288Y298179D02*
X354312Y298179D01*
X354312Y299438D02*
X358288Y299438D01*
X358288Y300697D02*
X354312Y300697D01*
X354312Y301956D02*
X358288Y301956D01*
X-128252Y319802D02*
X-128252Y328178D01*
X-128252Y319802D02*
X-132228Y319802D01*
X-132228Y328178D01*
X-128252Y328178D01*
X-128252Y321061D02*
X-132228Y321061D01*
X-132228Y322320D02*
X-128252Y322320D01*
X-128252Y323579D02*
X-132228Y323579D01*
X-132228Y324838D02*
X-128252Y324838D01*
X-128252Y326097D02*
X-132228Y326097D01*
X-132228Y327356D02*
X-128252Y327356D01*
X-136252Y328178D02*
X-136252Y319802D01*
X-140228Y319802D01*
X-140228Y328178D01*
X-136252Y328178D01*
X-136252Y321061D02*
X-140228Y321061D01*
X-140228Y322320D02*
X-136252Y322320D01*
X-136252Y323579D02*
X-140228Y323579D01*
X-140228Y324838D02*
X-136252Y324838D01*
X-136252Y326097D02*
X-140228Y326097D01*
X-140228Y327356D02*
X-136252Y327356D01*
X-144252Y328178D02*
X-144252Y319802D01*
X-148228Y319802D01*
X-148228Y328178D01*
X-144252Y328178D01*
X-144252Y321061D02*
X-148228Y321061D01*
X-148228Y322320D02*
X-144252Y322320D01*
X-144252Y323579D02*
X-148228Y323579D01*
X-148228Y324838D02*
X-144252Y324838D01*
X-144252Y326097D02*
X-148228Y326097D01*
X-148228Y327356D02*
X-144252Y327356D01*
X-152252Y328178D02*
X-152252Y319802D01*
X-156228Y319802D01*
X-156228Y328178D01*
X-152252Y328178D01*
X-152252Y321061D02*
X-156228Y321061D01*
X-156228Y322320D02*
X-152252Y322320D01*
X-152252Y323579D02*
X-156228Y323579D01*
X-156228Y324838D02*
X-152252Y324838D01*
X-152252Y326097D02*
X-156228Y326097D01*
X-156228Y327356D02*
X-152252Y327356D01*
X-156228Y337302D02*
X-156228Y345678D01*
X-152252Y345678D01*
X-152252Y337302D01*
X-156228Y337302D01*
X-156228Y338561D02*
X-152252Y338561D01*
X-152252Y339820D02*
X-156228Y339820D01*
X-156228Y341079D02*
X-152252Y341079D01*
X-152252Y342338D02*
X-156228Y342338D01*
X-156228Y343597D02*
X-152252Y343597D01*
X-152252Y344856D02*
X-156228Y344856D01*
X-148228Y345678D02*
X-148228Y337302D01*
X-148228Y345678D02*
X-144252Y345678D01*
X-144252Y337302D01*
X-148228Y337302D01*
X-148228Y338561D02*
X-144252Y338561D01*
X-144252Y339820D02*
X-148228Y339820D01*
X-148228Y341079D02*
X-144252Y341079D01*
X-144252Y342338D02*
X-148228Y342338D01*
X-148228Y343597D02*
X-144252Y343597D01*
X-144252Y344856D02*
X-148228Y344856D01*
X-140228Y345678D02*
X-140228Y337302D01*
X-140228Y345678D02*
X-136252Y345678D01*
X-136252Y337302D01*
X-140228Y337302D01*
X-140228Y338561D02*
X-136252Y338561D01*
X-136252Y339820D02*
X-140228Y339820D01*
X-140228Y341079D02*
X-136252Y341079D01*
X-136252Y342338D02*
X-140228Y342338D01*
X-140228Y343597D02*
X-136252Y343597D01*
X-136252Y344856D02*
X-140228Y344856D01*
X-132228Y345678D02*
X-132228Y337302D01*
X-132228Y345678D02*
X-128252Y345678D01*
X-128252Y337302D01*
X-132228Y337302D01*
X-132228Y338561D02*
X-128252Y338561D01*
X-128252Y339820D02*
X-132228Y339820D01*
X-132228Y341079D02*
X-128252Y341079D01*
X-128252Y342338D02*
X-132228Y342338D01*
X-132228Y343597D02*
X-128252Y343597D01*
X-128252Y344856D02*
X-132228Y344856D01*
D22*
X-310850Y-336550D03*
X-247650Y-311150D03*
D23*
X-359350Y-260350D03*
X-224850Y-234950D03*
D22*
X-120550Y44450D03*
X-57350Y69850D03*
D23*
X-169050Y120650D03*
X-34550Y146050D03*
D22*
X69950Y44450D03*
X133150Y69850D03*
D23*
X21450Y120650D03*
X155950Y146050D03*
D22*
X260450Y44450D03*
X323650Y69850D03*
D23*
X211950Y120650D03*
X346450Y146050D03*
D22*
X-120350Y-336550D03*
X-57150Y-311150D03*
D23*
X-168850Y-260350D03*
X-34350Y-234950D03*
D22*
X70150Y-336550D03*
X133350Y-311150D03*
D23*
X21650Y-260350D03*
X156150Y-234950D03*
D22*
X260650Y-336550D03*
X323850Y-311150D03*
D23*
X212150Y-260350D03*
X346650Y-234950D03*
D22*
X-310850Y-146050D03*
X-247650Y-120650D03*
D23*
X-359350Y-69850D03*
X-224850Y-44450D03*
D22*
X-120350Y-146050D03*
X-57150Y-120650D03*
D23*
X-168850Y-69850D03*
X-34350Y-44450D03*
D22*
X70150Y-146050D03*
X133350Y-120650D03*
D23*
X21650Y-69850D03*
X156150Y-44450D03*
D22*
X260650Y-146050D03*
X323850Y-120650D03*
D23*
X212150Y-69850D03*
X346650Y-44450D03*
D22*
X-311050Y44450D03*
X-247850Y69850D03*
D23*
X-359550Y120650D03*
X-225050Y146050D03*
D24*
X76218Y259800D02*
X93718Y259800D01*
X93718Y249800D01*
X76218Y249800D01*
X76218Y259800D01*
X76218Y259300D02*
X93718Y259300D01*
X93718Y285200D02*
X76218Y285200D01*
X93718Y285200D02*
X93718Y275200D01*
X76218Y275200D01*
X76218Y285200D01*
X76218Y284700D02*
X93718Y284700D01*
X93718Y310600D02*
X76218Y310600D01*
X93718Y310600D02*
X93718Y300600D01*
X76218Y300600D01*
X76218Y310600D01*
X76218Y310100D02*
X93718Y310100D01*
X93718Y336000D02*
X76218Y336000D01*
X93718Y336000D02*
X93718Y326000D01*
X76218Y326000D01*
X76218Y336000D01*
X76218Y335500D02*
X93718Y335500D01*
X93718Y361400D02*
X76218Y361400D01*
X93718Y361400D02*
X93718Y351400D01*
X76218Y351400D01*
X76218Y361400D01*
X76218Y360900D02*
X93718Y360900D01*
X93718Y386800D02*
X76218Y386800D01*
X93718Y386800D02*
X93718Y376800D01*
X76218Y376800D01*
X76218Y386800D01*
X76218Y386300D02*
X93718Y386300D01*
X93718Y412200D02*
X76218Y412200D01*
X93718Y412200D02*
X93718Y402200D01*
X76218Y402200D01*
X76218Y412200D01*
X76218Y411700D02*
X93718Y411700D01*
X-76568Y259800D02*
X-94068Y259800D01*
X-76568Y259800D02*
X-76568Y249800D01*
X-94068Y249800D01*
X-94068Y259800D01*
X-94068Y259300D02*
X-76568Y259300D01*
X-76568Y285200D02*
X-94068Y285200D01*
X-76568Y285200D02*
X-76568Y275200D01*
X-94068Y275200D01*
X-94068Y285200D01*
X-94068Y284700D02*
X-76568Y284700D01*
X-76568Y310600D02*
X-94068Y310600D01*
X-76568Y310600D02*
X-76568Y300600D01*
X-94068Y300600D01*
X-94068Y310600D01*
X-94068Y310100D02*
X-76568Y310100D01*
X-76568Y336000D02*
X-94068Y336000D01*
X-76568Y336000D02*
X-76568Y326000D01*
X-94068Y326000D01*
X-94068Y336000D01*
X-94068Y335500D02*
X-76568Y335500D01*
X-76568Y361400D02*
X-94068Y361400D01*
X-76568Y361400D02*
X-76568Y351400D01*
X-94068Y351400D01*
X-94068Y361400D01*
X-94068Y360900D02*
X-76568Y360900D01*
X-76568Y386800D02*
X-94068Y386800D01*
X-76568Y386800D02*
X-76568Y376800D01*
X-94068Y376800D01*
X-94068Y386800D01*
X-94068Y386300D02*
X-76568Y386300D01*
X-76568Y412200D02*
X-94068Y412200D01*
X-76568Y412200D02*
X-76568Y402200D01*
X-94068Y402200D01*
X-94068Y412200D01*
X-94068Y411700D02*
X-76568Y411700D01*
D25*
X224756Y387399D02*
X239044Y387399D01*
X239044Y384541D01*
X224756Y384541D01*
X224756Y387399D01*
X224756Y385446D02*
X239044Y385446D01*
X239044Y386351D02*
X224756Y386351D01*
X224756Y387256D02*
X239044Y387256D01*
X239044Y380899D02*
X224756Y380899D01*
X239044Y380899D02*
X239044Y378041D01*
X224756Y378041D01*
X224756Y380899D01*
X224756Y378946D02*
X239044Y378946D01*
X239044Y379851D02*
X224756Y379851D01*
X224756Y380756D02*
X239044Y380756D01*
X239044Y374399D02*
X224756Y374399D01*
X239044Y374399D02*
X239044Y371541D01*
X224756Y371541D01*
X224756Y374399D01*
X224756Y372446D02*
X239044Y372446D01*
X239044Y373351D02*
X224756Y373351D01*
X224756Y374256D02*
X239044Y374256D01*
X239044Y367899D02*
X224756Y367899D01*
X239044Y367899D02*
X239044Y365041D01*
X224756Y365041D01*
X224756Y367899D01*
X224756Y365946D02*
X239044Y365946D01*
X239044Y366851D02*
X224756Y366851D01*
X224756Y367756D02*
X239044Y367756D01*
X239044Y361399D02*
X224756Y361399D01*
X239044Y361399D02*
X239044Y358541D01*
X224756Y358541D01*
X224756Y361399D01*
X224756Y359446D02*
X239044Y359446D01*
X239044Y360351D02*
X224756Y360351D01*
X224756Y361256D02*
X239044Y361256D01*
X239044Y354899D02*
X224756Y354899D01*
X239044Y354899D02*
X239044Y352041D01*
X224756Y352041D01*
X224756Y354899D01*
X224756Y352946D02*
X239044Y352946D01*
X239044Y353851D02*
X224756Y353851D01*
X224756Y354756D02*
X239044Y354756D01*
X239044Y348399D02*
X224756Y348399D01*
X239044Y348399D02*
X239044Y345541D01*
X224756Y345541D01*
X224756Y348399D01*
X224756Y346446D02*
X239044Y346446D01*
X239044Y347351D02*
X224756Y347351D01*
X224756Y348256D02*
X239044Y348256D01*
X239044Y341899D02*
X224756Y341899D01*
X239044Y341899D02*
X239044Y339041D01*
X224756Y339041D01*
X224756Y341899D01*
X224756Y339946D02*
X239044Y339946D01*
X239044Y340851D02*
X224756Y340851D01*
X224756Y341756D02*
X239044Y341756D01*
X181644Y341899D02*
X167356Y341899D01*
X181644Y341899D02*
X181644Y339041D01*
X167356Y339041D01*
X167356Y341899D01*
X167356Y339946D02*
X181644Y339946D01*
X181644Y340851D02*
X167356Y340851D01*
X167356Y341756D02*
X181644Y341756D01*
X181644Y348399D02*
X167356Y348399D01*
X181644Y348399D02*
X181644Y345541D01*
X167356Y345541D01*
X167356Y348399D01*
X167356Y346446D02*
X181644Y346446D01*
X181644Y347351D02*
X167356Y347351D01*
X167356Y348256D02*
X181644Y348256D01*
X181644Y354899D02*
X167356Y354899D01*
X181644Y354899D02*
X181644Y352041D01*
X167356Y352041D01*
X167356Y354899D01*
X167356Y352946D02*
X181644Y352946D01*
X181644Y353851D02*
X167356Y353851D01*
X167356Y354756D02*
X181644Y354756D01*
X181644Y361399D02*
X167356Y361399D01*
X181644Y361399D02*
X181644Y358541D01*
X167356Y358541D01*
X167356Y361399D01*
X167356Y359446D02*
X181644Y359446D01*
X181644Y360351D02*
X167356Y360351D01*
X167356Y361256D02*
X181644Y361256D01*
X181644Y367899D02*
X167356Y367899D01*
X181644Y367899D02*
X181644Y365041D01*
X167356Y365041D01*
X167356Y367899D01*
X167356Y365946D02*
X181644Y365946D01*
X181644Y366851D02*
X167356Y366851D01*
X167356Y367756D02*
X181644Y367756D01*
X181644Y374399D02*
X167356Y374399D01*
X181644Y374399D02*
X181644Y371541D01*
X167356Y371541D01*
X167356Y374399D01*
X167356Y372446D02*
X181644Y372446D01*
X181644Y373351D02*
X167356Y373351D01*
X167356Y374256D02*
X181644Y374256D01*
X181644Y380899D02*
X167356Y380899D01*
X181644Y380899D02*
X181644Y378041D01*
X167356Y378041D01*
X167356Y380899D01*
X167356Y378946D02*
X181644Y378946D01*
X181644Y379851D02*
X167356Y379851D01*
X167356Y380756D02*
X181644Y380756D01*
X181644Y387399D02*
X167356Y387399D01*
X181644Y387399D02*
X181644Y384541D01*
X167356Y384541D01*
X167356Y387399D01*
X167356Y385446D02*
X181644Y385446D01*
X181644Y386351D02*
X167356Y386351D01*
X167356Y387256D02*
X181644Y387256D01*
X333976Y387399D02*
X348264Y387399D01*
X348264Y384541D01*
X333976Y384541D01*
X333976Y387399D01*
X333976Y385446D02*
X348264Y385446D01*
X348264Y386351D02*
X333976Y386351D01*
X333976Y387256D02*
X348264Y387256D01*
X348264Y380899D02*
X333976Y380899D01*
X348264Y380899D02*
X348264Y378041D01*
X333976Y378041D01*
X333976Y380899D01*
X333976Y378946D02*
X348264Y378946D01*
X348264Y379851D02*
X333976Y379851D01*
X333976Y380756D02*
X348264Y380756D01*
X348264Y374399D02*
X333976Y374399D01*
X348264Y374399D02*
X348264Y371541D01*
X333976Y371541D01*
X333976Y374399D01*
X333976Y372446D02*
X348264Y372446D01*
X348264Y373351D02*
X333976Y373351D01*
X333976Y374256D02*
X348264Y374256D01*
X348264Y367899D02*
X333976Y367899D01*
X348264Y367899D02*
X348264Y365041D01*
X333976Y365041D01*
X333976Y367899D01*
X333976Y365946D02*
X348264Y365946D01*
X348264Y366851D02*
X333976Y366851D01*
X333976Y367756D02*
X348264Y367756D01*
X348264Y361399D02*
X333976Y361399D01*
X348264Y361399D02*
X348264Y358541D01*
X333976Y358541D01*
X333976Y361399D01*
X333976Y359446D02*
X348264Y359446D01*
X348264Y360351D02*
X333976Y360351D01*
X333976Y361256D02*
X348264Y361256D01*
X348264Y354899D02*
X333976Y354899D01*
X348264Y354899D02*
X348264Y352041D01*
X333976Y352041D01*
X333976Y354899D01*
X333976Y352946D02*
X348264Y352946D01*
X348264Y353851D02*
X333976Y353851D01*
X333976Y354756D02*
X348264Y354756D01*
X348264Y348399D02*
X333976Y348399D01*
X348264Y348399D02*
X348264Y345541D01*
X333976Y345541D01*
X333976Y348399D01*
X333976Y346446D02*
X348264Y346446D01*
X348264Y347351D02*
X333976Y347351D01*
X333976Y348256D02*
X348264Y348256D01*
X348264Y341899D02*
X333976Y341899D01*
X348264Y341899D02*
X348264Y339041D01*
X333976Y339041D01*
X333976Y341899D01*
X333976Y339946D02*
X348264Y339946D01*
X348264Y340851D02*
X333976Y340851D01*
X333976Y341756D02*
X348264Y341756D01*
X290864Y341899D02*
X276576Y341899D01*
X290864Y341899D02*
X290864Y339041D01*
X276576Y339041D01*
X276576Y341899D01*
X276576Y339946D02*
X290864Y339946D01*
X290864Y340851D02*
X276576Y340851D01*
X276576Y341756D02*
X290864Y341756D01*
X290864Y348399D02*
X276576Y348399D01*
X290864Y348399D02*
X290864Y345541D01*
X276576Y345541D01*
X276576Y348399D01*
X276576Y346446D02*
X290864Y346446D01*
X290864Y347351D02*
X276576Y347351D01*
X276576Y348256D02*
X290864Y348256D01*
X290864Y354899D02*
X276576Y354899D01*
X290864Y354899D02*
X290864Y352041D01*
X276576Y352041D01*
X276576Y354899D01*
X276576Y352946D02*
X290864Y352946D01*
X290864Y353851D02*
X276576Y353851D01*
X276576Y354756D02*
X290864Y354756D01*
X290864Y361399D02*
X276576Y361399D01*
X290864Y361399D02*
X290864Y358541D01*
X276576Y358541D01*
X276576Y361399D01*
X276576Y359446D02*
X290864Y359446D01*
X290864Y360351D02*
X276576Y360351D01*
X276576Y361256D02*
X290864Y361256D01*
X290864Y367899D02*
X276576Y367899D01*
X290864Y367899D02*
X290864Y365041D01*
X276576Y365041D01*
X276576Y367899D01*
X276576Y365946D02*
X290864Y365946D01*
X290864Y366851D02*
X276576Y366851D01*
X276576Y367756D02*
X290864Y367756D01*
X290864Y374399D02*
X276576Y374399D01*
X290864Y374399D02*
X290864Y371541D01*
X276576Y371541D01*
X276576Y374399D01*
X276576Y372446D02*
X290864Y372446D01*
X290864Y373351D02*
X276576Y373351D01*
X276576Y374256D02*
X290864Y374256D01*
X290864Y380899D02*
X276576Y380899D01*
X290864Y380899D02*
X290864Y378041D01*
X276576Y378041D01*
X276576Y380899D01*
X276576Y378946D02*
X290864Y378946D01*
X290864Y379851D02*
X276576Y379851D01*
X276576Y380756D02*
X290864Y380756D01*
X290864Y387399D02*
X276576Y387399D01*
X290864Y387399D02*
X290864Y384541D01*
X276576Y384541D01*
X276576Y387399D01*
X276576Y385446D02*
X290864Y385446D01*
X290864Y386351D02*
X276576Y386351D01*
X276576Y387256D02*
X290864Y387256D01*
D26*
X-171884Y277106D02*
X-186076Y277106D01*
X-186076Y280248D01*
X-171884Y280248D01*
X-171884Y277106D01*
X-171884Y278102D02*
X-186076Y278102D01*
X-186076Y279098D02*
X-171884Y279098D01*
X-171884Y280094D02*
X-186076Y280094D01*
X-186076Y283606D02*
X-171884Y283606D01*
X-186076Y283606D02*
X-186076Y286748D01*
X-171884Y286748D01*
X-171884Y283606D01*
X-171884Y284602D02*
X-186076Y284602D01*
X-186076Y285598D02*
X-171884Y285598D01*
X-171884Y286594D02*
X-186076Y286594D01*
X-186076Y290106D02*
X-171884Y290106D01*
X-186076Y290106D02*
X-186076Y293248D01*
X-171884Y293248D01*
X-171884Y290106D01*
X-171884Y291102D02*
X-186076Y291102D01*
X-186076Y292098D02*
X-171884Y292098D01*
X-171884Y293094D02*
X-186076Y293094D01*
X-186076Y296606D02*
X-171884Y296606D01*
X-186076Y296606D02*
X-186076Y299748D01*
X-171884Y299748D01*
X-171884Y296606D01*
X-171884Y297602D02*
X-186076Y297602D01*
X-186076Y298598D02*
X-171884Y298598D01*
X-171884Y299594D02*
X-186076Y299594D01*
X-143076Y296606D02*
X-128884Y296606D01*
X-143076Y296606D02*
X-143076Y299748D01*
X-128884Y299748D01*
X-128884Y296606D01*
X-128884Y297602D02*
X-143076Y297602D01*
X-143076Y298598D02*
X-128884Y298598D01*
X-128884Y299594D02*
X-143076Y299594D01*
X-143076Y290106D02*
X-128884Y290106D01*
X-143076Y290106D02*
X-143076Y293248D01*
X-128884Y293248D01*
X-128884Y290106D01*
X-128884Y291102D02*
X-143076Y291102D01*
X-143076Y292098D02*
X-128884Y292098D01*
X-128884Y293094D02*
X-143076Y293094D01*
X-143076Y283606D02*
X-128884Y283606D01*
X-143076Y283606D02*
X-143076Y286748D01*
X-128884Y286748D01*
X-128884Y283606D01*
X-128884Y284602D02*
X-143076Y284602D01*
X-143076Y285598D02*
X-128884Y285598D01*
X-128884Y286594D02*
X-143076Y286594D01*
X-143076Y277106D02*
X-128884Y277106D01*
X-143076Y277106D02*
X-143076Y280248D01*
X-128884Y280248D01*
X-128884Y277106D01*
X-128884Y278102D02*
X-143076Y278102D01*
X-143076Y279098D02*
X-128884Y279098D01*
X-128884Y280094D02*
X-143076Y280094D01*
D27*
X4465Y184605D02*
X13615Y184605D01*
X4465Y184605D02*
X4465Y187555D01*
X13615Y187555D01*
X13615Y184605D01*
X13615Y187407D02*
X4465Y187407D01*
X4465Y194105D02*
X13615Y194105D01*
X4465Y194105D02*
X4465Y197055D01*
X13615Y197055D01*
X13615Y194105D01*
X13615Y196907D02*
X4465Y196907D01*
X4465Y203605D02*
X13615Y203605D01*
X4465Y203605D02*
X4465Y206555D01*
X13615Y206555D01*
X13615Y203605D01*
X13615Y206407D02*
X4465Y206407D01*
X29565Y203605D02*
X38715Y203605D01*
X29565Y203605D02*
X29565Y206555D01*
X38715Y206555D01*
X38715Y203605D01*
X38715Y206407D02*
X29565Y206407D01*
X29565Y184605D02*
X38715Y184605D01*
X29565Y184605D02*
X29565Y187555D01*
X38715Y187555D01*
X38715Y184605D01*
X38715Y187407D02*
X29565Y187407D01*
D28*
X-412380Y174200D02*
X-427620Y174200D01*
X-427620Y199600D02*
X-412380Y199600D01*
X-412380Y225000D02*
X-427620Y225000D01*
X-427620Y250400D02*
X-412380Y250400D01*
X-412380Y275800D02*
X-427620Y275800D01*
X-427520Y-275800D02*
X-412280Y-275800D01*
X-412280Y-250400D02*
X-427520Y-250400D01*
X-427520Y-225000D02*
X-412280Y-225000D01*
X-412280Y-199600D02*
X-427520Y-199600D01*
X-427520Y-174200D02*
X-412280Y-174200D01*
X412370Y-174200D02*
X427610Y-174200D01*
X427610Y-199600D02*
X412370Y-199600D01*
X412370Y-225000D02*
X427610Y-225000D01*
X427610Y-250400D02*
X412370Y-250400D01*
X412370Y-275800D02*
X427610Y-275800D01*
X-174200Y-412380D02*
X-174200Y-427620D01*
X-199600Y-427620D02*
X-199600Y-412380D01*
X-225000Y-412380D02*
X-225000Y-427620D01*
X-250400Y-427620D02*
X-250400Y-412380D01*
X-275800Y-412380D02*
X-275800Y-427620D01*
X275800Y-427620D02*
X275800Y-412380D01*
X250400Y-412380D02*
X250400Y-427620D01*
X225000Y-427620D02*
X225000Y-412380D01*
X199600Y-412380D02*
X199600Y-427620D01*
X174200Y-427620D02*
X174200Y-412380D01*
X412380Y275800D02*
X427620Y275800D01*
X427620Y250400D02*
X412380Y250400D01*
X412380Y225000D02*
X427620Y225000D01*
X427620Y199600D02*
X412380Y199600D01*
X412380Y174200D02*
X427620Y174200D01*
D29*
X-143480Y412750D03*
X-171480Y412750D03*
D20*
X-38100Y203732D03*
X-38100Y187428D03*
D30*
X-152400Y355600D03*
D31*
X-152400Y365228D01*
X-157480Y292100D02*
X-179828Y292100D01*
X-178980Y291677D01*
D30*
X-157480Y292100D03*
D32*
X106680Y269240D03*
D31*
X106680Y274320D01*
X100800Y280200D01*
X84968Y280200D01*
D30*
X-132080Y355600D03*
D31*
X-132080Y365228D01*
D32*
X122023Y269137D03*
D31*
X106680Y284480D01*
X106680Y294640D01*
X95720Y305600D01*
X84968Y305600D01*
X-128065Y291677D02*
X-135980Y291677D01*
X-125050Y348570D02*
X-132080Y355600D01*
X-125050Y348570D02*
X-125050Y294692D01*
X-128065Y291677D01*
X-146240Y323990D02*
X-146002Y324228D01*
X-182440Y366420D02*
X-186030Y366420D01*
X-146002Y327174D02*
X-146002Y324228D01*
X-146240Y323990D02*
X-146002Y323752D01*
X-146002Y320691D01*
X-146002Y327174D02*
X-152420Y333592D01*
X-186272Y333592D01*
X-191638Y338958D01*
X-191638Y360812D01*
X-186030Y366420D01*
X-146002Y320691D02*
X-151339Y315354D01*
X-178980Y285177D02*
X-186741Y285178D01*
X-190140Y288577D02*
X-190140Y301278D01*
X-190140Y288577D02*
X-186741Y285178D01*
X-176064Y315354D02*
X-151339Y315354D01*
X-176064Y315354D02*
X-190140Y301278D01*
X-159320Y323990D02*
X-154240Y323990D01*
X-159320Y318910D01*
X-160070Y323240D02*
X-182440Y323240D01*
X-160070Y323240D02*
X-159320Y323990D01*
X-146102Y285178D02*
X-135980Y285177D01*
X-161860Y269420D02*
X-185971Y269420D01*
X-161860Y269420D02*
X-146102Y285178D01*
X-159320Y318910D02*
X-177537Y318910D01*
X-193696Y302751D01*
X-193696Y277144D01*
X-185971Y269420D01*
D33*
X-182440Y385420D02*
X-156288Y385420D01*
X-152400Y381532D01*
X-132080Y381532D01*
X364300Y298590D02*
X380300Y298590D01*
X364300Y298590D02*
X356300Y298590D01*
D30*
X381000Y281940D03*
D33*
X-154240Y341490D02*
X-154990Y342240D01*
X-182440Y342240D01*
X-182440Y344610D02*
X-171450Y355600D01*
D30*
X152400Y281940D03*
D33*
X149860Y281940D01*
X146050Y285750D01*
X146050Y298590D01*
X259650Y298590D02*
X271080Y298590D01*
X255080Y298590D02*
X247080Y298590D01*
X255080Y298590D02*
X259650Y298590D01*
X263080Y298590D02*
X271080Y298590D01*
X372300Y298590D02*
X380300Y298590D01*
X146050Y298590D02*
X145860Y298590D01*
X137860Y298590D01*
X145860Y298590D02*
X161860Y298590D01*
X153860Y298590D01*
X-146240Y341490D02*
X-154240Y341490D01*
X-146240Y341490D02*
X-130240Y341490D01*
X-138240Y341490D01*
D30*
X149860Y383540D03*
D33*
X378460Y287970D02*
X378460Y284480D01*
X381000Y281940D01*
X378460Y287970D02*
X367840Y298590D01*
X364300Y298590D01*
D30*
X261620Y383540D03*
D33*
X264050Y385970D02*
X283720Y385970D01*
X264050Y385970D02*
X261620Y383540D01*
X174500Y385970D02*
X152290Y385970D01*
X149860Y383540D01*
D32*
X-107986Y341467D03*
D33*
X-86588Y355130D02*
X-85318Y356400D01*
X-86588Y355130D02*
X-94323Y355130D01*
X-107986Y341467D01*
X259650Y298590D02*
X259650Y277153D01*
X259650Y261050D01*
X260350Y260350D02*
X260350Y254000D01*
X260350Y260350D02*
X259650Y261050D01*
D32*
X-171450Y355600D03*
D33*
X-182440Y381596D02*
X-182440Y385420D01*
X-171450Y370606D02*
X-171450Y355600D01*
X-171450Y370606D02*
X-182440Y381596D01*
D32*
X-116311Y267970D03*
X259650Y277153D03*
D33*
X-116311Y267970D02*
X-126543Y267970D01*
X-135980Y278677D01*
D34*
X-149950Y266260D01*
X-149950Y254216D01*
X-149734Y254000D01*
X-182440Y342240D02*
X-182440Y344610D01*
D31*
X231900Y372970D02*
X239311Y372970D01*
X271080Y341201D01*
X271080Y316090D01*
X212150Y-260350D02*
X212150Y-288050D01*
X260650Y-336550D01*
X271080Y316090D02*
X273620Y316090D01*
D30*
X363220Y87270D03*
D31*
X355600Y266700D02*
X344105Y266700D01*
X334010Y276795D01*
X334010Y295910D01*
X278306Y311404D02*
X273620Y316090D01*
X318516Y311404D02*
X334010Y295910D01*
X318516Y311404D02*
X278306Y311404D01*
X367284Y91334D02*
X363220Y87270D01*
X367284Y255016D02*
X355600Y266700D01*
X367284Y255016D02*
X367284Y91334D01*
X239311Y366470D02*
X231900Y366470D01*
X239311Y366470D02*
X263080Y342701D01*
X263080Y316090D01*
X21650Y-260350D02*
X21650Y-288050D01*
X70150Y-336550D01*
X265382Y313788D02*
X263080Y316090D01*
X265382Y313788D02*
X265382Y310366D01*
X353060Y261620D02*
X363220Y251460D01*
X353060Y261620D02*
X342900Y261620D01*
X329946Y274574D01*
X329946Y294227D01*
X316833Y307340D01*
X268408Y307340D01*
X265382Y310366D01*
X363220Y187960D02*
X345440Y170180D01*
X363220Y187960D02*
X363220Y251460D01*
X68468Y-213532D02*
X21650Y-260350D01*
X68468Y-213532D02*
X178986Y-213532D01*
X231920Y170180D02*
X345440Y170180D01*
X196152Y134413D02*
X196152Y106888D01*
X207772Y95268D01*
X196152Y134413D02*
X231920Y170180D01*
X196564Y-195954D02*
X178986Y-213532D01*
X196564Y-195954D02*
X196564Y-12591D01*
X207772Y-1383D01*
X207772Y95268D01*
X231900Y359970D02*
X239311Y359970D01*
X255080Y344201D01*
X255080Y316090D01*
X-168850Y-260350D02*
X-168850Y-288050D01*
X-120350Y-336550D01*
X252778Y313788D02*
X255080Y316090D01*
X252778Y313788D02*
X252778Y310366D01*
X248900Y306488D01*
X229586Y306488D01*
X-168850Y-239970D02*
X-168850Y-260350D01*
X-168850Y-239970D02*
X-138348Y-209468D01*
X177303Y-209468D01*
X204452Y281354D02*
X229586Y306488D01*
X204452Y281354D02*
X204452Y148460D01*
X192088Y136096D02*
X192088Y105204D01*
X203708Y93584D01*
X192088Y136096D02*
X204452Y148460D01*
X193008Y-193763D02*
X177303Y-209468D01*
X193008Y-193763D02*
X193008Y-11118D01*
X203708Y-418D01*
X203708Y93584D01*
X247080Y316090D02*
X247080Y345701D01*
X239311Y353470D01*
X231900Y353470D01*
X-359350Y-260350D02*
X-359350Y-288050D01*
X-310850Y-336550D01*
D30*
X178056Y-21041D03*
D31*
X188024Y103521D02*
X188024Y137779D01*
X188024Y103521D02*
X199644Y91901D01*
X188024Y137779D02*
X200388Y150143D01*
X200388Y283038D01*
X233440Y316090D01*
X247080Y316090D01*
X199644Y547D02*
X178056Y-21041D01*
X199644Y547D02*
X199644Y91901D01*
X284480Y339710D02*
X283720Y340470D01*
X166958Y346838D02*
X163602Y343482D01*
X163602Y336778D01*
X172720Y327660D01*
X174368Y346838D02*
X174500Y346970D01*
X174368Y346838D02*
X166958Y346838D01*
X172720Y327660D02*
X175260Y327660D01*
D32*
X175260Y327660D03*
X284480Y327660D03*
D31*
X284480Y339710D01*
X104140Y373192D02*
X84968Y356400D01*
X104140Y373192D02*
X104140Y386080D01*
X111760Y393700D01*
X182880Y393700D01*
X185420Y391160D01*
X183312Y341872D02*
X175902Y341872D01*
X174500Y340470D01*
X185420Y343980D02*
X185420Y391160D01*
X185420Y343980D02*
X183312Y341872D01*
X256128Y396148D02*
X317002Y396148D01*
X256128Y396148D02*
X239450Y379470D01*
X231900Y379470D01*
X339718Y380872D02*
X341120Y379470D01*
X339718Y380872D02*
X332279Y380872D01*
X317002Y396148D01*
X231900Y379470D02*
X213318Y379470D01*
X87220Y379320D02*
X84968Y381800D01*
X194672Y398116D02*
X213318Y379470D01*
X194672Y398116D02*
X106016Y398116D01*
X87220Y379320D01*
X333500Y385970D02*
X341120Y385970D01*
X333500Y385970D02*
X319258Y400212D01*
X253762Y400212D01*
X239520Y385970D01*
X231900Y385970D01*
X212565Y385970D02*
X196355Y402180D01*
X212565Y385970D02*
X231900Y385970D01*
X196355Y402180D02*
X87408Y402180D01*
X84968Y407200D01*
X167089Y372970D02*
X174500Y372970D01*
X167089Y372970D02*
X137860Y343741D01*
X137860Y316090D01*
X-359350Y-69850D02*
X-359350Y-97550D01*
X-310850Y-146050D01*
X127000Y305230D02*
X137860Y316090D01*
X127000Y305230D02*
X127000Y284480D01*
X144780Y266700D01*
X172720Y266700D01*
X180340Y259080D01*
X-1524Y-2032D02*
X-20828Y-21336D01*
X-179324Y-21336D01*
X-185420Y-15240D01*
D30*
X-185420Y-15240D03*
D31*
X-1524Y-2032D02*
X-1524Y140716D01*
X180340Y179650D02*
X180340Y259080D01*
X31832Y174072D02*
X-1524Y140716D01*
X174763Y174072D02*
X180340Y179650D01*
X174763Y174072D02*
X31832Y174072D01*
X167089Y366470D02*
X174500Y366470D01*
X167089Y366470D02*
X145860Y345241D01*
X145860Y316090D01*
X-168850Y-69850D02*
X-168850Y-97550D01*
X-120350Y-146050D01*
X132162Y304314D02*
X134336Y306488D01*
X145860Y312668D02*
X145860Y316090D01*
X145860Y312668D02*
X139680Y306488D01*
X134336Y306488D01*
X132162Y304314D02*
X132162Y286938D01*
X147320Y271780D01*
X175260Y271780D01*
X185420Y261620D01*
X185420Y177110D01*
X-168850Y-44390D02*
X-168850Y-69850D01*
X178319Y170008D02*
X185420Y177110D01*
X178319Y170008D02*
X33515Y170008D01*
X-149352Y-24892D02*
X-168850Y-44390D01*
X2032Y138525D02*
X33515Y170008D01*
X2032Y-3505D02*
X-19355Y-24892D01*
X2032Y-3505D02*
X2032Y138525D01*
X-19355Y-24892D02*
X-149352Y-24892D01*
X167089Y359970D02*
X174500Y359970D01*
X167089Y359970D02*
X153860Y346741D01*
X153860Y316090D01*
X21650Y-69850D02*
X21650Y-97550D01*
X70150Y-146050D01*
X154892Y315058D02*
X153860Y316090D01*
X154892Y315058D02*
X154892Y311636D01*
X160040Y306488D01*
X165384Y306488D01*
X190500Y281372D01*
X190500Y151750D01*
X179896Y141146D01*
X179896Y100154D01*
X192532Y87518D01*
X192532Y17780D01*
X178425Y3673D01*
X178047Y4052D01*
D30*
X178047Y4052D03*
D31*
X174500Y353470D02*
X167090Y353470D01*
X212150Y-69850D02*
X212150Y-97550D01*
X260650Y-146050D01*
X195580Y282370D02*
X161860Y316090D01*
X195580Y282370D02*
X195580Y151083D01*
D30*
X178263Y-8567D03*
D31*
X183960Y139463D02*
X195580Y151083D01*
X159538Y345918D02*
X167090Y353470D01*
X159538Y335095D02*
X161860Y332773D01*
X161860Y316090D01*
X159538Y335095D02*
X159538Y345918D01*
X183960Y101119D02*
X196088Y88991D01*
X196088Y9258D01*
X178263Y-8567D01*
X183960Y101119D02*
X183960Y139463D01*
X341120Y353470D02*
X348530Y353470D01*
X356300Y345700D01*
X356300Y317500D01*
X356300Y316090D01*
X-359550Y120650D02*
X-359550Y92950D01*
X-311050Y44450D01*
D30*
X350520Y281940D03*
D31*
X342900Y289560D02*
X342900Y304100D01*
X342900Y289560D02*
X350520Y281940D01*
X342900Y304100D02*
X356300Y317500D01*
X348531Y359970D02*
X341120Y359970D01*
X348531Y359970D02*
X364300Y344201D01*
X364300Y316090D01*
X-169050Y120650D02*
X-169050Y92950D01*
X-120550Y44450D01*
D30*
X365760Y281940D03*
D31*
X347980Y295488D02*
X347980Y301692D01*
X359824Y308192D02*
X363220Y311588D01*
X363220Y315010D01*
X364300Y316090D01*
X354480Y308192D02*
X347980Y301692D01*
X354480Y308192D02*
X359824Y308192D01*
X353887Y290068D02*
X353400Y290068D01*
X347980Y295488D01*
X362015Y281940D02*
X365760Y281940D01*
X362015Y281940D02*
X353887Y290068D01*
X348531Y366470D02*
X341120Y366470D01*
X348531Y366470D02*
X372300Y342701D01*
X372300Y316090D01*
X21450Y120650D02*
X21450Y119380D01*
X21450Y92950D01*
X69950Y44450D01*
X370840Y314630D02*
X372300Y316090D01*
X370840Y314630D02*
X370840Y314128D01*
X377628Y307340D01*
X386080Y307340D01*
X391160Y302260D01*
X391160Y274320D01*
X340360Y48260D02*
X292100Y48260D01*
X287020Y53340D01*
D30*
X287020Y53340D03*
D31*
X340360Y48260D02*
X372364Y80264D01*
X372364Y255524D02*
X391160Y274320D01*
X372364Y255524D02*
X372364Y80264D01*
X348531Y372970D02*
X341120Y372970D01*
X348531Y372970D02*
X380300Y341201D01*
X380300Y316090D01*
X211950Y120650D02*
X211950Y92950D01*
X260450Y44450D01*
X380300Y316090D02*
X387490Y316090D01*
X395224Y308356D02*
X395224Y272637D01*
X395224Y308356D02*
X387490Y316090D01*
X260450Y44450D02*
X261720Y43180D01*
X341027Y43180D01*
X376428Y78581D01*
X376428Y253841D02*
X395224Y272637D01*
X376428Y253841D02*
X376428Y78581D01*
X215000Y171080D02*
X215000Y181620D01*
X215000Y171080D02*
X215900Y170180D01*
D30*
X215900Y170180D03*
X-214630Y228600D03*
D31*
X-215000Y228230D01*
X-215000Y214620D01*
X-166000Y181620D02*
X-200660Y146960D01*
X-200660Y-152040D01*
X-215000Y-166380D01*
X152400Y-180340D02*
X166000Y-166740D01*
X166000Y-166380D01*
X-146960Y-180340D02*
X-166000Y-199380D01*
X-146960Y-180340D02*
X152400Y-180340D01*
X166000Y214620D02*
X80667Y214620D01*
X72397Y206350D01*
X35410Y206350D01*
X34140Y205080D01*
X16510Y195580D02*
X9040Y195580D01*
X20320Y199390D02*
X20320Y207010D01*
X20320Y199390D02*
X16510Y195580D01*
X84968Y224668D02*
X84968Y254800D01*
X84968Y224668D02*
X70870Y210570D01*
X23880Y210570D01*
X20320Y207010D01*
X-85318Y280200D02*
X-86118Y279400D01*
X-88900Y279400D01*
X-132080Y236220D01*
X-187960Y236220D01*
X-195580Y243840D01*
X-231807Y243840D02*
X-241101Y234546D01*
X-260950Y234546D01*
X-231807Y243840D02*
X-195580Y243840D01*
X-109448Y305600D02*
X-85318Y305600D01*
X-109448Y305600D02*
X-120478Y316630D01*
X-120478Y384925D01*
X-126513Y390960D01*
X-249536Y390960D01*
X-260950Y379546D01*
X-310950Y379546D02*
X-310950Y387550D01*
X-116414Y334315D02*
X-105479Y323380D01*
X-116414Y334315D02*
X-116414Y387327D01*
X-85318Y331000D02*
X-92938Y323380D01*
X-105479Y323380D01*
X-116414Y387327D02*
X-124365Y395278D01*
X-303222Y395278D01*
X-310950Y387550D01*
D33*
X226294Y-177674D02*
X241300Y-177674D01*
X226294Y-177674D02*
X215000Y-166380D01*
X223754Y205866D02*
X238760Y205866D01*
X223754Y205866D02*
X215000Y214620D01*
X-238760Y190374D02*
X-241174Y187960D01*
X-345440Y187960D01*
X-238760Y-190626D02*
X-231140Y-190626D01*
X-220854Y-180340D02*
X-179960Y-180340D01*
X-220854Y-180340D02*
X-231140Y-190626D01*
X-179960Y-180340D02*
X-166000Y-166380D01*
X-166000Y214620D02*
X-188914Y214620D01*
X-232445Y196690D02*
X-238760Y190374D01*
X-232445Y196690D02*
X-206845Y196690D01*
X-188914Y214620D01*
X-166000Y214620D02*
X-148580Y214620D01*
X-121794Y187834D01*
D30*
X350520Y248920D03*
D33*
X307466Y205866D01*
X238760Y205866D01*
X274320Y-418520D02*
X275800Y-420000D01*
D30*
X274320Y-373380D03*
D33*
X274320Y-418520D01*
D32*
X-381000Y309880D03*
D33*
X-358672Y350520D02*
X-358672Y370840D01*
X-345440Y187960D02*
X-358140Y175260D01*
X-16427Y187834D02*
X-15943Y187350D01*
X-171480Y412750D02*
X-331470Y412750D01*
X-358672Y385548D01*
X-358672Y370840D01*
X-358672Y350520D02*
X-363752Y350520D01*
X-381000Y333272D01*
X-381000Y309880D01*
D34*
X-38100Y187428D02*
X-38022Y187350D01*
X-15943Y187350D01*
X-38100Y187428D02*
X-121388Y187428D01*
X-121794Y187834D01*
X20884Y179320D02*
X27644Y186080D01*
X34140Y186080D01*
X-8011Y187350D02*
X-15943Y187350D01*
X19Y179320D02*
X20884Y179320D01*
X19Y179320D02*
X-8011Y187350D01*
X-374440Y174200D02*
X-420000Y174200D01*
X-374440Y174200D02*
X-373380Y175260D01*
D32*
X-373380Y175260D03*
D34*
X-358140Y175260D01*
X-379741Y-275800D02*
X-419900Y-275800D01*
X-379741Y-275800D02*
X-375920Y-279621D01*
D32*
X-375895Y-279621D03*
D34*
X-375920Y-279621D01*
D32*
X-367030Y-208280D03*
D34*
X-174200Y-374122D02*
X-174200Y-420000D01*
X-174200Y-374122D02*
X-175260Y-373062D01*
D32*
X-175260Y-373062D03*
D33*
X-277433Y-215660D02*
X-359650Y-215660D01*
X-367030Y-208280D01*
X-252399Y-190626D02*
X-238760Y-190626D01*
X-252399Y-190626D02*
X-277433Y-215660D01*
D34*
X241300Y-177674D02*
X261494Y-177674D01*
X261620Y-177800D01*
X274320Y-165100D01*
X375668Y-165100D01*
X384768Y-174200D02*
X419990Y-174200D01*
X384768Y-174200D02*
X382144Y-171576D01*
D32*
X382144Y-171576D03*
D34*
X375668Y-165100D01*
D30*
X409448Y-147320D03*
X409068Y-22860D03*
X409068Y22860D03*
X411988Y145208D03*
D32*
X204470Y353060D03*
X312420Y355600D03*
X121920Y353060D03*
D30*
X-165132Y307340D03*
D32*
X214630Y236220D03*
X214630Y254000D03*
X260350Y187960D03*
X314960Y187960D03*
X-124460Y220980D03*
X-109220Y208280D03*
X121920Y238760D03*
X152400Y238760D03*
X-107950Y389890D03*
X-107950Y374650D03*
D31*
X419990Y-199600D02*
X418930Y-200660D01*
X250400Y-383430D02*
X250400Y-420000D01*
D30*
X384208Y-200660D03*
D31*
X418930Y-200660D01*
X-199600Y-420000D02*
X-200660Y-418940D01*
X-269240Y200660D02*
X-230124Y239776D01*
X-197263Y239776D01*
X-189643Y232156D02*
X-130397Y232156D01*
X-189643Y232156D02*
X-197263Y239776D01*
X-107753Y254800D02*
X-85318Y254800D01*
X-107753Y254800D02*
X-130397Y232156D01*
X-382060Y199600D02*
X-420000Y199600D01*
X-382060Y199600D02*
X-381000Y200660D01*
D32*
X-381000Y200660D03*
D31*
X-269240Y200660D01*
D30*
X-200660Y-382048D03*
D31*
X-200660Y-418940D01*
X249018Y-382048D02*
X250400Y-383430D01*
D30*
X248191Y-381690D03*
D31*
X248549Y-382048D02*
X249018Y-382048D01*
X248549Y-382048D02*
X248191Y-381690D01*
X-384600Y-250400D02*
X-419900Y-250400D01*
X-384600Y-250400D02*
X-383140Y-251860D01*
D32*
X-383140Y-251860D03*
D31*
X-216340Y375920D02*
X-203640Y375920D01*
X-216340Y375920D02*
X-232596Y359664D01*
X-318492Y359664D01*
X-329668Y370840D01*
X-342368Y370840D01*
X-342368Y383773D01*
X-341748Y384392D01*
D32*
X-341748Y384392D03*
D31*
X418930Y-226060D02*
X419990Y-225000D01*
X225000Y-389592D02*
X225000Y-420000D01*
X225000Y-389592D02*
X222599Y-387191D01*
D30*
X388272Y-226060D03*
D31*
X418930Y-226060D01*
X-203640Y332740D02*
X-215070Y332740D01*
X-232850Y350520D01*
X-342368Y350520D01*
X-343503Y349386D01*
X-343503Y348205D01*
X-364578Y327130D02*
X-364578Y239942D01*
X-364578Y327130D02*
X-343503Y348205D01*
X-225000Y-386314D02*
X-225000Y-420000D01*
X-225000Y-386314D02*
X-225012Y-386302D01*
D32*
X-225012Y-386302D03*
D31*
X-388757Y225000D02*
X-420000Y225000D01*
X-388757Y225000D02*
X-388620Y224863D01*
D32*
X-388620Y224863D03*
D31*
X-379520Y225000D02*
X-364578Y239942D01*
X-379520Y225000D02*
X-388757Y225000D01*
X-382480Y-225000D02*
X-419900Y-225000D01*
X-382480Y-225000D02*
X-382270Y-224790D01*
D32*
X-382270Y-224790D03*
D30*
X222599Y-385604D03*
D31*
X222599Y-387191D01*
X-130510Y323720D02*
X-130240Y323990D01*
X-130510Y323720D02*
X-130510Y304918D01*
X-135980Y298177D01*
X-176222Y274650D02*
X-178980Y278677D01*
X-138510Y323720D02*
X-138240Y323990D01*
X-138510Y323720D02*
X-138510Y309908D01*
X-147140Y301278D02*
X-147140Y292427D01*
X-164918Y274650D01*
X-176222Y274650D01*
X-147140Y301278D02*
X-138510Y309908D01*
D33*
X-113258Y407200D02*
X-85318Y407200D01*
X-113258Y407200D02*
X-118808Y412750D01*
X-143480Y412750D01*
D31*
X0Y190500D02*
X4420Y186080D01*
D34*
X9040Y186080D01*
D31*
X-30092Y210471D02*
X-36830Y203732D01*
X-38100Y203732D01*
X-30092Y210471D02*
X-7984Y210471D01*
X0Y202487D01*
X0Y190500D01*
M02*
