G04 EAGLE Gerber RS-274X export*
G75*
%MOMM*%
%FSLAX34Y34*%
%LPD*%
%INSoldermask Top*%
%IPPOS*%
%AMOC8*
5,1,8,0,0,1.08239X$1,22.5*%
G01*
G04 Define Apertures*
%ADD10C,2.801600*%
%ADD11C,1.601600*%
%ADD12R,1.601600X1.601600*%
%ADD13C,2.801600*%
%ADD14R,1.751600X1.751600*%
%ADD15C,1.751600*%
%ADD16C,2.351600*%
%ADD17C,4.089400*%
%ADD18C,1.801600*%
%ADD19C,3.149600*%
%ADD20C,1.625600*%
D10*
X285750Y0D03*
X-285750Y0D03*
X-285750Y-190500D03*
X285750Y-190500D03*
D11*
X-310950Y234546D03*
D12*
X-260950Y234546D03*
D11*
X-260950Y379546D03*
X-285950Y379546D03*
X-310950Y379546D03*
D13*
X-228950Y318046D02*
X-228950Y291046D01*
X-342950Y291046D02*
X-342950Y318046D01*
D14*
X234950Y254000D03*
D15*
X260350Y254000D03*
X285750Y254000D03*
X311150Y254000D03*
D16*
X-310850Y-336550D03*
X-247650Y-311150D03*
D17*
X-285750Y-285750D03*
D18*
X-335750Y-285750D03*
X-235750Y-285750D03*
D19*
X-260350Y-234950D03*
X-323850Y-260350D03*
D16*
X-120550Y44450D03*
X-57350Y69850D03*
D17*
X-95450Y95250D03*
D18*
X-145450Y95250D03*
X-45450Y95250D03*
D19*
X-70050Y146050D03*
X-133550Y120650D03*
D16*
X69950Y44450D03*
X133150Y69850D03*
D17*
X95050Y95250D03*
D18*
X45050Y95250D03*
X145050Y95250D03*
D19*
X120450Y146050D03*
X56950Y120650D03*
D16*
X260450Y44450D03*
X323650Y69850D03*
D17*
X285550Y95250D03*
D18*
X235550Y95250D03*
X335550Y95250D03*
D19*
X310950Y146050D03*
X247450Y120650D03*
D16*
X-120350Y-336550D03*
X-57150Y-311150D03*
D17*
X-95250Y-285750D03*
D18*
X-145250Y-285750D03*
X-45250Y-285750D03*
D19*
X-69850Y-234950D03*
X-133350Y-260350D03*
D16*
X70150Y-336550D03*
X133350Y-311150D03*
D17*
X95250Y-285750D03*
D18*
X45250Y-285750D03*
X145250Y-285750D03*
D19*
X120650Y-234950D03*
X57150Y-260350D03*
D16*
X260650Y-336550D03*
X323850Y-311150D03*
D17*
X285750Y-285750D03*
D18*
X235750Y-285750D03*
X335750Y-285750D03*
D19*
X311150Y-234950D03*
X247650Y-260350D03*
D16*
X-310850Y-146050D03*
X-247650Y-120650D03*
D17*
X-285750Y-95250D03*
D18*
X-335750Y-95250D03*
X-235750Y-95250D03*
D19*
X-260350Y-44450D03*
X-323850Y-69850D03*
D16*
X-120350Y-146050D03*
X-57150Y-120650D03*
D17*
X-95250Y-95250D03*
D18*
X-145250Y-95250D03*
X-45250Y-95250D03*
D19*
X-69850Y-44450D03*
X-133350Y-69850D03*
D16*
X70150Y-146050D03*
X133350Y-120650D03*
D17*
X95250Y-95250D03*
D18*
X45250Y-95250D03*
X145250Y-95250D03*
D19*
X120650Y-44450D03*
X57150Y-69850D03*
D16*
X260650Y-146050D03*
X323850Y-120650D03*
D17*
X285750Y-95250D03*
D18*
X235750Y-95250D03*
X335750Y-95250D03*
D19*
X311150Y-44450D03*
X247650Y-69850D03*
D16*
X-311050Y44450D03*
X-247850Y69850D03*
D17*
X-285950Y95250D03*
D18*
X-335950Y95250D03*
X-235950Y95250D03*
D19*
X-260550Y146050D03*
X-324050Y120650D03*
D20*
X-412380Y174200D02*
X-427620Y174200D01*
X-427620Y199600D02*
X-412380Y199600D01*
X-412380Y225000D02*
X-427620Y225000D01*
X-427620Y250400D02*
X-412380Y250400D01*
X-412380Y275800D02*
X-427620Y275800D01*
X-427520Y-275800D02*
X-412280Y-275800D01*
X-412280Y-250400D02*
X-427520Y-250400D01*
X-427520Y-225000D02*
X-412280Y-225000D01*
X-412280Y-199600D02*
X-427520Y-199600D01*
X-427520Y-174200D02*
X-412280Y-174200D01*
X412370Y-174200D02*
X427610Y-174200D01*
X427610Y-199600D02*
X412370Y-199600D01*
X412370Y-225000D02*
X427610Y-225000D01*
X427610Y-250400D02*
X412370Y-250400D01*
X412370Y-275800D02*
X427610Y-275800D01*
X-174200Y-412380D02*
X-174200Y-427620D01*
X-199600Y-427620D02*
X-199600Y-412380D01*
X-225000Y-412380D02*
X-225000Y-427620D01*
X-250400Y-427620D02*
X-250400Y-412380D01*
X-275800Y-412380D02*
X-275800Y-427620D01*
X275800Y-427620D02*
X275800Y-412380D01*
X250400Y-412380D02*
X250400Y-427620D01*
X225000Y-427620D02*
X225000Y-412380D01*
X199600Y-412380D02*
X199600Y-427620D01*
X174200Y-427620D02*
X174200Y-412380D01*
X412380Y275800D02*
X427620Y275800D01*
X427620Y250400D02*
X412380Y250400D01*
X412380Y225000D02*
X427620Y225000D01*
X427620Y199600D02*
X412380Y199600D01*
X412380Y174200D02*
X427620Y174200D01*
M02*
