G04 EAGLE Gerber RS-274X export*
G75*
%MOMM*%
%FSLAX34Y34*%
%LPD*%
%INSolderpaste Bottom*%
%IPPOS*%
%AMOC8*
5,1,8,0,0,1.08239X$1,22.5*%
G01*
G04 Define Apertures*
%ADD10R,0.970200X0.920900*%
%ADD11R,0.920900X0.970200*%
%ADD12R,1.500000X0.900000*%
%ADD13C,0.150000*%
%ADD14R,0.798700X0.973900*%
%ADD15R,0.973900X0.798700*%
%ADD16C,0.132500*%
%ADD17R,2.550000X2.500000*%
%ADD18C,1.000000*%
%ADD19C,0.095250*%
%ADD20C,0.104775*%
%ADD21C,0.295000*%
%ADD22R,1.600000X1.800000*%
D10*
X238760Y190374D03*
X238760Y205866D03*
X-238760Y205866D03*
X-238760Y190374D03*
X241300Y-193166D03*
X241300Y-177674D03*
X-238760Y-175134D03*
X-238760Y-190626D03*
D11*
X-165226Y254000D03*
X-149734Y254000D03*
D10*
X-16427Y203326D03*
X-16427Y187834D03*
D12*
X166000Y181620D03*
X166000Y214620D03*
X215000Y181620D03*
X215000Y214620D03*
X-215000Y181620D03*
X-215000Y214620D03*
X-166000Y181620D03*
X-166000Y214620D03*
X-215000Y-199380D03*
X-215000Y-166380D03*
X-166000Y-199380D03*
X-166000Y-166380D03*
X166000Y-199380D03*
X166000Y-166380D03*
X215000Y-199380D03*
X215000Y-166380D03*
D13*
X-177040Y387670D02*
X-187840Y387670D01*
X-177040Y387670D02*
X-177040Y383170D01*
X-187840Y383170D01*
X-187840Y387670D01*
X-187840Y384595D02*
X-177040Y384595D01*
X-177040Y386020D02*
X-187840Y386020D01*
X-187840Y387445D02*
X-177040Y387445D01*
X-198240Y378170D02*
X-209040Y378170D01*
X-198240Y378170D02*
X-198240Y373670D01*
X-209040Y373670D01*
X-209040Y378170D01*
X-209040Y375095D02*
X-198240Y375095D01*
X-198240Y376520D02*
X-209040Y376520D01*
X-209040Y377945D02*
X-198240Y377945D01*
X-187840Y368670D02*
X-177040Y368670D01*
X-177040Y364170D01*
X-187840Y364170D01*
X-187840Y368670D01*
X-187840Y365595D02*
X-177040Y365595D01*
X-177040Y367020D02*
X-187840Y367020D01*
X-187840Y368445D02*
X-177040Y368445D01*
X-177040Y344490D02*
X-187840Y344490D01*
X-177040Y344490D02*
X-177040Y339990D01*
X-187840Y339990D01*
X-187840Y344490D01*
X-187840Y341415D02*
X-177040Y341415D01*
X-177040Y342840D02*
X-187840Y342840D01*
X-187840Y344265D02*
X-177040Y344265D01*
X-198240Y334990D02*
X-209040Y334990D01*
X-198240Y334990D02*
X-198240Y330490D01*
X-209040Y330490D01*
X-209040Y334990D01*
X-209040Y331915D02*
X-198240Y331915D01*
X-198240Y333340D02*
X-209040Y333340D01*
X-209040Y334765D02*
X-198240Y334765D01*
X-187840Y325490D02*
X-177040Y325490D01*
X-177040Y320990D01*
X-187840Y320990D01*
X-187840Y325490D01*
X-187840Y322415D02*
X-177040Y322415D01*
X-177040Y323840D02*
X-187840Y323840D01*
X-187840Y325265D02*
X-177040Y325265D01*
D14*
X-342368Y370840D03*
X-358672Y370840D03*
X-342368Y350520D03*
X-358672Y350520D03*
D15*
X-152400Y365228D03*
X-152400Y381532D03*
X-132080Y365228D03*
X-132080Y381532D03*
D16*
X245092Y320278D02*
X245092Y311902D01*
X245092Y320278D02*
X249068Y320278D01*
X249068Y311902D01*
X245092Y311902D01*
X245092Y313161D02*
X249068Y313161D01*
X249068Y314420D02*
X245092Y314420D01*
X245092Y315679D02*
X249068Y315679D01*
X249068Y316938D02*
X245092Y316938D01*
X245092Y318197D02*
X249068Y318197D01*
X249068Y319456D02*
X245092Y319456D01*
X253092Y320278D02*
X253092Y311902D01*
X253092Y320278D02*
X257068Y320278D01*
X257068Y311902D01*
X253092Y311902D01*
X253092Y313161D02*
X257068Y313161D01*
X257068Y314420D02*
X253092Y314420D01*
X253092Y315679D02*
X257068Y315679D01*
X257068Y316938D02*
X253092Y316938D01*
X253092Y318197D02*
X257068Y318197D01*
X257068Y319456D02*
X253092Y319456D01*
X261092Y320278D02*
X261092Y311902D01*
X261092Y320278D02*
X265068Y320278D01*
X265068Y311902D01*
X261092Y311902D01*
X261092Y313161D02*
X265068Y313161D01*
X265068Y314420D02*
X261092Y314420D01*
X261092Y315679D02*
X265068Y315679D01*
X265068Y316938D02*
X261092Y316938D01*
X261092Y318197D02*
X265068Y318197D01*
X265068Y319456D02*
X261092Y319456D01*
X269092Y320278D02*
X269092Y311902D01*
X269092Y320278D02*
X273068Y320278D01*
X273068Y311902D01*
X269092Y311902D01*
X269092Y313161D02*
X273068Y313161D01*
X273068Y314420D02*
X269092Y314420D01*
X269092Y315679D02*
X273068Y315679D01*
X273068Y316938D02*
X269092Y316938D01*
X269092Y318197D02*
X273068Y318197D01*
X273068Y319456D02*
X269092Y319456D01*
X273068Y302778D02*
X273068Y294402D01*
X269092Y294402D01*
X269092Y302778D01*
X273068Y302778D01*
X273068Y295661D02*
X269092Y295661D01*
X269092Y296920D02*
X273068Y296920D01*
X273068Y298179D02*
X269092Y298179D01*
X269092Y299438D02*
X273068Y299438D01*
X273068Y300697D02*
X269092Y300697D01*
X269092Y301956D02*
X273068Y301956D01*
X265068Y302778D02*
X265068Y294402D01*
X261092Y294402D01*
X261092Y302778D01*
X265068Y302778D01*
X265068Y295661D02*
X261092Y295661D01*
X261092Y296920D02*
X265068Y296920D01*
X265068Y298179D02*
X261092Y298179D01*
X261092Y299438D02*
X265068Y299438D01*
X265068Y300697D02*
X261092Y300697D01*
X261092Y301956D02*
X265068Y301956D01*
X257068Y302778D02*
X257068Y294402D01*
X253092Y294402D01*
X253092Y302778D01*
X257068Y302778D01*
X257068Y295661D02*
X253092Y295661D01*
X253092Y296920D02*
X257068Y296920D01*
X257068Y298179D02*
X253092Y298179D01*
X253092Y299438D02*
X257068Y299438D01*
X257068Y300697D02*
X253092Y300697D01*
X253092Y301956D02*
X257068Y301956D01*
X249068Y302778D02*
X249068Y294402D01*
X245092Y294402D01*
X245092Y302778D01*
X249068Y302778D01*
X249068Y295661D02*
X245092Y295661D01*
X245092Y296920D02*
X249068Y296920D01*
X249068Y298179D02*
X245092Y298179D01*
X245092Y299438D02*
X249068Y299438D01*
X249068Y300697D02*
X245092Y300697D01*
X245092Y301956D02*
X249068Y301956D01*
X135872Y311902D02*
X135872Y320278D01*
X139848Y320278D01*
X139848Y311902D01*
X135872Y311902D01*
X135872Y313161D02*
X139848Y313161D01*
X139848Y314420D02*
X135872Y314420D01*
X135872Y315679D02*
X139848Y315679D01*
X139848Y316938D02*
X135872Y316938D01*
X135872Y318197D02*
X139848Y318197D01*
X139848Y319456D02*
X135872Y319456D01*
X143872Y320278D02*
X143872Y311902D01*
X143872Y320278D02*
X147848Y320278D01*
X147848Y311902D01*
X143872Y311902D01*
X143872Y313161D02*
X147848Y313161D01*
X147848Y314420D02*
X143872Y314420D01*
X143872Y315679D02*
X147848Y315679D01*
X147848Y316938D02*
X143872Y316938D01*
X143872Y318197D02*
X147848Y318197D01*
X147848Y319456D02*
X143872Y319456D01*
X151872Y320278D02*
X151872Y311902D01*
X151872Y320278D02*
X155848Y320278D01*
X155848Y311902D01*
X151872Y311902D01*
X151872Y313161D02*
X155848Y313161D01*
X155848Y314420D02*
X151872Y314420D01*
X151872Y315679D02*
X155848Y315679D01*
X155848Y316938D02*
X151872Y316938D01*
X151872Y318197D02*
X155848Y318197D01*
X155848Y319456D02*
X151872Y319456D01*
X159872Y320278D02*
X159872Y311902D01*
X159872Y320278D02*
X163848Y320278D01*
X163848Y311902D01*
X159872Y311902D01*
X159872Y313161D02*
X163848Y313161D01*
X163848Y314420D02*
X159872Y314420D01*
X159872Y315679D02*
X163848Y315679D01*
X163848Y316938D02*
X159872Y316938D01*
X159872Y318197D02*
X163848Y318197D01*
X163848Y319456D02*
X159872Y319456D01*
X163848Y302778D02*
X163848Y294402D01*
X159872Y294402D01*
X159872Y302778D01*
X163848Y302778D01*
X163848Y295661D02*
X159872Y295661D01*
X159872Y296920D02*
X163848Y296920D01*
X163848Y298179D02*
X159872Y298179D01*
X159872Y299438D02*
X163848Y299438D01*
X163848Y300697D02*
X159872Y300697D01*
X159872Y301956D02*
X163848Y301956D01*
X155848Y302778D02*
X155848Y294402D01*
X151872Y294402D01*
X151872Y302778D01*
X155848Y302778D01*
X155848Y295661D02*
X151872Y295661D01*
X151872Y296920D02*
X155848Y296920D01*
X155848Y298179D02*
X151872Y298179D01*
X151872Y299438D02*
X155848Y299438D01*
X155848Y300697D02*
X151872Y300697D01*
X151872Y301956D02*
X155848Y301956D01*
X147848Y302778D02*
X147848Y294402D01*
X143872Y294402D01*
X143872Y302778D01*
X147848Y302778D01*
X147848Y295661D02*
X143872Y295661D01*
X143872Y296920D02*
X147848Y296920D01*
X147848Y298179D02*
X143872Y298179D01*
X143872Y299438D02*
X147848Y299438D01*
X147848Y300697D02*
X143872Y300697D01*
X143872Y301956D02*
X147848Y301956D01*
X139848Y302778D02*
X139848Y294402D01*
X135872Y294402D01*
X135872Y302778D01*
X139848Y302778D01*
X139848Y295661D02*
X135872Y295661D01*
X135872Y296920D02*
X139848Y296920D01*
X139848Y298179D02*
X135872Y298179D01*
X135872Y299438D02*
X139848Y299438D01*
X139848Y300697D02*
X135872Y300697D01*
X135872Y301956D02*
X139848Y301956D01*
X354312Y311902D02*
X354312Y320278D01*
X358288Y320278D01*
X358288Y311902D01*
X354312Y311902D01*
X354312Y313161D02*
X358288Y313161D01*
X358288Y314420D02*
X354312Y314420D01*
X354312Y315679D02*
X358288Y315679D01*
X358288Y316938D02*
X354312Y316938D01*
X354312Y318197D02*
X358288Y318197D01*
X358288Y319456D02*
X354312Y319456D01*
X362312Y320278D02*
X362312Y311902D01*
X362312Y320278D02*
X366288Y320278D01*
X366288Y311902D01*
X362312Y311902D01*
X362312Y313161D02*
X366288Y313161D01*
X366288Y314420D02*
X362312Y314420D01*
X362312Y315679D02*
X366288Y315679D01*
X366288Y316938D02*
X362312Y316938D01*
X362312Y318197D02*
X366288Y318197D01*
X366288Y319456D02*
X362312Y319456D01*
X370312Y320278D02*
X370312Y311902D01*
X370312Y320278D02*
X374288Y320278D01*
X374288Y311902D01*
X370312Y311902D01*
X370312Y313161D02*
X374288Y313161D01*
X374288Y314420D02*
X370312Y314420D01*
X370312Y315679D02*
X374288Y315679D01*
X374288Y316938D02*
X370312Y316938D01*
X370312Y318197D02*
X374288Y318197D01*
X374288Y319456D02*
X370312Y319456D01*
X378312Y320278D02*
X378312Y311902D01*
X378312Y320278D02*
X382288Y320278D01*
X382288Y311902D01*
X378312Y311902D01*
X378312Y313161D02*
X382288Y313161D01*
X382288Y314420D02*
X378312Y314420D01*
X378312Y315679D02*
X382288Y315679D01*
X382288Y316938D02*
X378312Y316938D01*
X378312Y318197D02*
X382288Y318197D01*
X382288Y319456D02*
X378312Y319456D01*
X382288Y302778D02*
X382288Y294402D01*
X378312Y294402D01*
X378312Y302778D01*
X382288Y302778D01*
X382288Y295661D02*
X378312Y295661D01*
X378312Y296920D02*
X382288Y296920D01*
X382288Y298179D02*
X378312Y298179D01*
X378312Y299438D02*
X382288Y299438D01*
X382288Y300697D02*
X378312Y300697D01*
X378312Y301956D02*
X382288Y301956D01*
X374288Y302778D02*
X374288Y294402D01*
X370312Y294402D01*
X370312Y302778D01*
X374288Y302778D01*
X374288Y295661D02*
X370312Y295661D01*
X370312Y296920D02*
X374288Y296920D01*
X374288Y298179D02*
X370312Y298179D01*
X370312Y299438D02*
X374288Y299438D01*
X374288Y300697D02*
X370312Y300697D01*
X370312Y301956D02*
X374288Y301956D01*
X366288Y302778D02*
X366288Y294402D01*
X362312Y294402D01*
X362312Y302778D01*
X366288Y302778D01*
X366288Y295661D02*
X362312Y295661D01*
X362312Y296920D02*
X366288Y296920D01*
X366288Y298179D02*
X362312Y298179D01*
X362312Y299438D02*
X366288Y299438D01*
X366288Y300697D02*
X362312Y300697D01*
X362312Y301956D02*
X366288Y301956D01*
X358288Y302778D02*
X358288Y294402D01*
X354312Y294402D01*
X354312Y302778D01*
X358288Y302778D01*
X358288Y295661D02*
X354312Y295661D01*
X354312Y296920D02*
X358288Y296920D01*
X358288Y298179D02*
X354312Y298179D01*
X354312Y299438D02*
X358288Y299438D01*
X358288Y300697D02*
X354312Y300697D01*
X354312Y301956D02*
X358288Y301956D01*
X-128252Y319802D02*
X-128252Y328178D01*
X-128252Y319802D02*
X-132228Y319802D01*
X-132228Y328178D01*
X-128252Y328178D01*
X-128252Y321061D02*
X-132228Y321061D01*
X-132228Y322320D02*
X-128252Y322320D01*
X-128252Y323579D02*
X-132228Y323579D01*
X-132228Y324838D02*
X-128252Y324838D01*
X-128252Y326097D02*
X-132228Y326097D01*
X-132228Y327356D02*
X-128252Y327356D01*
X-136252Y328178D02*
X-136252Y319802D01*
X-140228Y319802D01*
X-140228Y328178D01*
X-136252Y328178D01*
X-136252Y321061D02*
X-140228Y321061D01*
X-140228Y322320D02*
X-136252Y322320D01*
X-136252Y323579D02*
X-140228Y323579D01*
X-140228Y324838D02*
X-136252Y324838D01*
X-136252Y326097D02*
X-140228Y326097D01*
X-140228Y327356D02*
X-136252Y327356D01*
X-144252Y328178D02*
X-144252Y319802D01*
X-148228Y319802D01*
X-148228Y328178D01*
X-144252Y328178D01*
X-144252Y321061D02*
X-148228Y321061D01*
X-148228Y322320D02*
X-144252Y322320D01*
X-144252Y323579D02*
X-148228Y323579D01*
X-148228Y324838D02*
X-144252Y324838D01*
X-144252Y326097D02*
X-148228Y326097D01*
X-148228Y327356D02*
X-144252Y327356D01*
X-152252Y328178D02*
X-152252Y319802D01*
X-156228Y319802D01*
X-156228Y328178D01*
X-152252Y328178D01*
X-152252Y321061D02*
X-156228Y321061D01*
X-156228Y322320D02*
X-152252Y322320D01*
X-152252Y323579D02*
X-156228Y323579D01*
X-156228Y324838D02*
X-152252Y324838D01*
X-152252Y326097D02*
X-156228Y326097D01*
X-156228Y327356D02*
X-152252Y327356D01*
X-156228Y337302D02*
X-156228Y345678D01*
X-152252Y345678D01*
X-152252Y337302D01*
X-156228Y337302D01*
X-156228Y338561D02*
X-152252Y338561D01*
X-152252Y339820D02*
X-156228Y339820D01*
X-156228Y341079D02*
X-152252Y341079D01*
X-152252Y342338D02*
X-156228Y342338D01*
X-156228Y343597D02*
X-152252Y343597D01*
X-152252Y344856D02*
X-156228Y344856D01*
X-148228Y345678D02*
X-148228Y337302D01*
X-148228Y345678D02*
X-144252Y345678D01*
X-144252Y337302D01*
X-148228Y337302D01*
X-148228Y338561D02*
X-144252Y338561D01*
X-144252Y339820D02*
X-148228Y339820D01*
X-148228Y341079D02*
X-144252Y341079D01*
X-144252Y342338D02*
X-148228Y342338D01*
X-148228Y343597D02*
X-144252Y343597D01*
X-144252Y344856D02*
X-148228Y344856D01*
X-140228Y345678D02*
X-140228Y337302D01*
X-140228Y345678D02*
X-136252Y345678D01*
X-136252Y337302D01*
X-140228Y337302D01*
X-140228Y338561D02*
X-136252Y338561D01*
X-136252Y339820D02*
X-140228Y339820D01*
X-140228Y341079D02*
X-136252Y341079D01*
X-136252Y342338D02*
X-140228Y342338D01*
X-140228Y343597D02*
X-136252Y343597D01*
X-136252Y344856D02*
X-140228Y344856D01*
X-132228Y345678D02*
X-132228Y337302D01*
X-132228Y345678D02*
X-128252Y345678D01*
X-128252Y337302D01*
X-132228Y337302D01*
X-132228Y338561D02*
X-128252Y338561D01*
X-128252Y339820D02*
X-132228Y339820D01*
X-132228Y341079D02*
X-128252Y341079D01*
X-128252Y342338D02*
X-132228Y342338D01*
X-132228Y343597D02*
X-128252Y343597D01*
X-128252Y344856D02*
X-132228Y344856D01*
D17*
X-359350Y-260350D03*
X-224850Y-234950D03*
X-169050Y120650D03*
X-34550Y146050D03*
X21450Y120650D03*
X155950Y146050D03*
X211950Y120650D03*
X346450Y146050D03*
X-168850Y-260350D03*
X-34350Y-234950D03*
X21650Y-260350D03*
X156150Y-234950D03*
X212150Y-260350D03*
X346650Y-234950D03*
X-359350Y-69850D03*
X-224850Y-44450D03*
X-168850Y-69850D03*
X-34350Y-44450D03*
X21650Y-69850D03*
X156150Y-44450D03*
X212150Y-69850D03*
X346650Y-44450D03*
X-359550Y120650D03*
X-225050Y146050D03*
D18*
X76218Y259800D02*
X93718Y259800D01*
X93718Y249800D01*
X76218Y249800D01*
X76218Y259800D01*
X76218Y259300D02*
X93718Y259300D01*
X93718Y285200D02*
X76218Y285200D01*
X93718Y285200D02*
X93718Y275200D01*
X76218Y275200D01*
X76218Y285200D01*
X76218Y284700D02*
X93718Y284700D01*
X93718Y310600D02*
X76218Y310600D01*
X93718Y310600D02*
X93718Y300600D01*
X76218Y300600D01*
X76218Y310600D01*
X76218Y310100D02*
X93718Y310100D01*
X93718Y336000D02*
X76218Y336000D01*
X93718Y336000D02*
X93718Y326000D01*
X76218Y326000D01*
X76218Y336000D01*
X76218Y335500D02*
X93718Y335500D01*
X93718Y361400D02*
X76218Y361400D01*
X93718Y361400D02*
X93718Y351400D01*
X76218Y351400D01*
X76218Y361400D01*
X76218Y360900D02*
X93718Y360900D01*
X93718Y386800D02*
X76218Y386800D01*
X93718Y386800D02*
X93718Y376800D01*
X76218Y376800D01*
X76218Y386800D01*
X76218Y386300D02*
X93718Y386300D01*
X93718Y412200D02*
X76218Y412200D01*
X93718Y412200D02*
X93718Y402200D01*
X76218Y402200D01*
X76218Y412200D01*
X76218Y411700D02*
X93718Y411700D01*
X-76568Y259800D02*
X-94068Y259800D01*
X-76568Y259800D02*
X-76568Y249800D01*
X-94068Y249800D01*
X-94068Y259800D01*
X-94068Y259300D02*
X-76568Y259300D01*
X-76568Y285200D02*
X-94068Y285200D01*
X-76568Y285200D02*
X-76568Y275200D01*
X-94068Y275200D01*
X-94068Y285200D01*
X-94068Y284700D02*
X-76568Y284700D01*
X-76568Y310600D02*
X-94068Y310600D01*
X-76568Y310600D02*
X-76568Y300600D01*
X-94068Y300600D01*
X-94068Y310600D01*
X-94068Y310100D02*
X-76568Y310100D01*
X-76568Y336000D02*
X-94068Y336000D01*
X-76568Y336000D02*
X-76568Y326000D01*
X-94068Y326000D01*
X-94068Y336000D01*
X-94068Y335500D02*
X-76568Y335500D01*
X-76568Y361400D02*
X-94068Y361400D01*
X-76568Y361400D02*
X-76568Y351400D01*
X-94068Y351400D01*
X-94068Y361400D01*
X-94068Y360900D02*
X-76568Y360900D01*
X-76568Y386800D02*
X-94068Y386800D01*
X-76568Y386800D02*
X-76568Y376800D01*
X-94068Y376800D01*
X-94068Y386800D01*
X-94068Y386300D02*
X-76568Y386300D01*
X-76568Y412200D02*
X-94068Y412200D01*
X-76568Y412200D02*
X-76568Y402200D01*
X-94068Y402200D01*
X-94068Y412200D01*
X-94068Y411700D02*
X-76568Y411700D01*
D19*
X224756Y387399D02*
X239044Y387399D01*
X239044Y384541D01*
X224756Y384541D01*
X224756Y387399D01*
X224756Y385446D02*
X239044Y385446D01*
X239044Y386351D02*
X224756Y386351D01*
X224756Y387256D02*
X239044Y387256D01*
X239044Y380899D02*
X224756Y380899D01*
X239044Y380899D02*
X239044Y378041D01*
X224756Y378041D01*
X224756Y380899D01*
X224756Y378946D02*
X239044Y378946D01*
X239044Y379851D02*
X224756Y379851D01*
X224756Y380756D02*
X239044Y380756D01*
X239044Y374399D02*
X224756Y374399D01*
X239044Y374399D02*
X239044Y371541D01*
X224756Y371541D01*
X224756Y374399D01*
X224756Y372446D02*
X239044Y372446D01*
X239044Y373351D02*
X224756Y373351D01*
X224756Y374256D02*
X239044Y374256D01*
X239044Y367899D02*
X224756Y367899D01*
X239044Y367899D02*
X239044Y365041D01*
X224756Y365041D01*
X224756Y367899D01*
X224756Y365946D02*
X239044Y365946D01*
X239044Y366851D02*
X224756Y366851D01*
X224756Y367756D02*
X239044Y367756D01*
X239044Y361399D02*
X224756Y361399D01*
X239044Y361399D02*
X239044Y358541D01*
X224756Y358541D01*
X224756Y361399D01*
X224756Y359446D02*
X239044Y359446D01*
X239044Y360351D02*
X224756Y360351D01*
X224756Y361256D02*
X239044Y361256D01*
X239044Y354899D02*
X224756Y354899D01*
X239044Y354899D02*
X239044Y352041D01*
X224756Y352041D01*
X224756Y354899D01*
X224756Y352946D02*
X239044Y352946D01*
X239044Y353851D02*
X224756Y353851D01*
X224756Y354756D02*
X239044Y354756D01*
X239044Y348399D02*
X224756Y348399D01*
X239044Y348399D02*
X239044Y345541D01*
X224756Y345541D01*
X224756Y348399D01*
X224756Y346446D02*
X239044Y346446D01*
X239044Y347351D02*
X224756Y347351D01*
X224756Y348256D02*
X239044Y348256D01*
X239044Y341899D02*
X224756Y341899D01*
X239044Y341899D02*
X239044Y339041D01*
X224756Y339041D01*
X224756Y341899D01*
X224756Y339946D02*
X239044Y339946D01*
X239044Y340851D02*
X224756Y340851D01*
X224756Y341756D02*
X239044Y341756D01*
X181644Y341899D02*
X167356Y341899D01*
X181644Y341899D02*
X181644Y339041D01*
X167356Y339041D01*
X167356Y341899D01*
X167356Y339946D02*
X181644Y339946D01*
X181644Y340851D02*
X167356Y340851D01*
X167356Y341756D02*
X181644Y341756D01*
X181644Y348399D02*
X167356Y348399D01*
X181644Y348399D02*
X181644Y345541D01*
X167356Y345541D01*
X167356Y348399D01*
X167356Y346446D02*
X181644Y346446D01*
X181644Y347351D02*
X167356Y347351D01*
X167356Y348256D02*
X181644Y348256D01*
X181644Y354899D02*
X167356Y354899D01*
X181644Y354899D02*
X181644Y352041D01*
X167356Y352041D01*
X167356Y354899D01*
X167356Y352946D02*
X181644Y352946D01*
X181644Y353851D02*
X167356Y353851D01*
X167356Y354756D02*
X181644Y354756D01*
X181644Y361399D02*
X167356Y361399D01*
X181644Y361399D02*
X181644Y358541D01*
X167356Y358541D01*
X167356Y361399D01*
X167356Y359446D02*
X181644Y359446D01*
X181644Y360351D02*
X167356Y360351D01*
X167356Y361256D02*
X181644Y361256D01*
X181644Y367899D02*
X167356Y367899D01*
X181644Y367899D02*
X181644Y365041D01*
X167356Y365041D01*
X167356Y367899D01*
X167356Y365946D02*
X181644Y365946D01*
X181644Y366851D02*
X167356Y366851D01*
X167356Y367756D02*
X181644Y367756D01*
X181644Y374399D02*
X167356Y374399D01*
X181644Y374399D02*
X181644Y371541D01*
X167356Y371541D01*
X167356Y374399D01*
X167356Y372446D02*
X181644Y372446D01*
X181644Y373351D02*
X167356Y373351D01*
X167356Y374256D02*
X181644Y374256D01*
X181644Y380899D02*
X167356Y380899D01*
X181644Y380899D02*
X181644Y378041D01*
X167356Y378041D01*
X167356Y380899D01*
X167356Y378946D02*
X181644Y378946D01*
X181644Y379851D02*
X167356Y379851D01*
X167356Y380756D02*
X181644Y380756D01*
X181644Y387399D02*
X167356Y387399D01*
X181644Y387399D02*
X181644Y384541D01*
X167356Y384541D01*
X167356Y387399D01*
X167356Y385446D02*
X181644Y385446D01*
X181644Y386351D02*
X167356Y386351D01*
X167356Y387256D02*
X181644Y387256D01*
X333976Y387399D02*
X348264Y387399D01*
X348264Y384541D01*
X333976Y384541D01*
X333976Y387399D01*
X333976Y385446D02*
X348264Y385446D01*
X348264Y386351D02*
X333976Y386351D01*
X333976Y387256D02*
X348264Y387256D01*
X348264Y380899D02*
X333976Y380899D01*
X348264Y380899D02*
X348264Y378041D01*
X333976Y378041D01*
X333976Y380899D01*
X333976Y378946D02*
X348264Y378946D01*
X348264Y379851D02*
X333976Y379851D01*
X333976Y380756D02*
X348264Y380756D01*
X348264Y374399D02*
X333976Y374399D01*
X348264Y374399D02*
X348264Y371541D01*
X333976Y371541D01*
X333976Y374399D01*
X333976Y372446D02*
X348264Y372446D01*
X348264Y373351D02*
X333976Y373351D01*
X333976Y374256D02*
X348264Y374256D01*
X348264Y367899D02*
X333976Y367899D01*
X348264Y367899D02*
X348264Y365041D01*
X333976Y365041D01*
X333976Y367899D01*
X333976Y365946D02*
X348264Y365946D01*
X348264Y366851D02*
X333976Y366851D01*
X333976Y367756D02*
X348264Y367756D01*
X348264Y361399D02*
X333976Y361399D01*
X348264Y361399D02*
X348264Y358541D01*
X333976Y358541D01*
X333976Y361399D01*
X333976Y359446D02*
X348264Y359446D01*
X348264Y360351D02*
X333976Y360351D01*
X333976Y361256D02*
X348264Y361256D01*
X348264Y354899D02*
X333976Y354899D01*
X348264Y354899D02*
X348264Y352041D01*
X333976Y352041D01*
X333976Y354899D01*
X333976Y352946D02*
X348264Y352946D01*
X348264Y353851D02*
X333976Y353851D01*
X333976Y354756D02*
X348264Y354756D01*
X348264Y348399D02*
X333976Y348399D01*
X348264Y348399D02*
X348264Y345541D01*
X333976Y345541D01*
X333976Y348399D01*
X333976Y346446D02*
X348264Y346446D01*
X348264Y347351D02*
X333976Y347351D01*
X333976Y348256D02*
X348264Y348256D01*
X348264Y341899D02*
X333976Y341899D01*
X348264Y341899D02*
X348264Y339041D01*
X333976Y339041D01*
X333976Y341899D01*
X333976Y339946D02*
X348264Y339946D01*
X348264Y340851D02*
X333976Y340851D01*
X333976Y341756D02*
X348264Y341756D01*
X290864Y341899D02*
X276576Y341899D01*
X290864Y341899D02*
X290864Y339041D01*
X276576Y339041D01*
X276576Y341899D01*
X276576Y339946D02*
X290864Y339946D01*
X290864Y340851D02*
X276576Y340851D01*
X276576Y341756D02*
X290864Y341756D01*
X290864Y348399D02*
X276576Y348399D01*
X290864Y348399D02*
X290864Y345541D01*
X276576Y345541D01*
X276576Y348399D01*
X276576Y346446D02*
X290864Y346446D01*
X290864Y347351D02*
X276576Y347351D01*
X276576Y348256D02*
X290864Y348256D01*
X290864Y354899D02*
X276576Y354899D01*
X290864Y354899D02*
X290864Y352041D01*
X276576Y352041D01*
X276576Y354899D01*
X276576Y352946D02*
X290864Y352946D01*
X290864Y353851D02*
X276576Y353851D01*
X276576Y354756D02*
X290864Y354756D01*
X290864Y361399D02*
X276576Y361399D01*
X290864Y361399D02*
X290864Y358541D01*
X276576Y358541D01*
X276576Y361399D01*
X276576Y359446D02*
X290864Y359446D01*
X290864Y360351D02*
X276576Y360351D01*
X276576Y361256D02*
X290864Y361256D01*
X290864Y367899D02*
X276576Y367899D01*
X290864Y367899D02*
X290864Y365041D01*
X276576Y365041D01*
X276576Y367899D01*
X276576Y365946D02*
X290864Y365946D01*
X290864Y366851D02*
X276576Y366851D01*
X276576Y367756D02*
X290864Y367756D01*
X290864Y374399D02*
X276576Y374399D01*
X290864Y374399D02*
X290864Y371541D01*
X276576Y371541D01*
X276576Y374399D01*
X276576Y372446D02*
X290864Y372446D01*
X290864Y373351D02*
X276576Y373351D01*
X276576Y374256D02*
X290864Y374256D01*
X290864Y380899D02*
X276576Y380899D01*
X290864Y380899D02*
X290864Y378041D01*
X276576Y378041D01*
X276576Y380899D01*
X276576Y378946D02*
X290864Y378946D01*
X290864Y379851D02*
X276576Y379851D01*
X276576Y380756D02*
X290864Y380756D01*
X290864Y387399D02*
X276576Y387399D01*
X290864Y387399D02*
X290864Y384541D01*
X276576Y384541D01*
X276576Y387399D01*
X276576Y385446D02*
X290864Y385446D01*
X290864Y386351D02*
X276576Y386351D01*
X276576Y387256D02*
X290864Y387256D01*
D20*
X-171884Y277106D02*
X-186076Y277106D01*
X-186076Y280248D01*
X-171884Y280248D01*
X-171884Y277106D01*
X-171884Y278102D02*
X-186076Y278102D01*
X-186076Y279098D02*
X-171884Y279098D01*
X-171884Y280094D02*
X-186076Y280094D01*
X-186076Y283606D02*
X-171884Y283606D01*
X-186076Y283606D02*
X-186076Y286748D01*
X-171884Y286748D01*
X-171884Y283606D01*
X-171884Y284602D02*
X-186076Y284602D01*
X-186076Y285598D02*
X-171884Y285598D01*
X-171884Y286594D02*
X-186076Y286594D01*
X-186076Y290106D02*
X-171884Y290106D01*
X-186076Y290106D02*
X-186076Y293248D01*
X-171884Y293248D01*
X-171884Y290106D01*
X-171884Y291102D02*
X-186076Y291102D01*
X-186076Y292098D02*
X-171884Y292098D01*
X-171884Y293094D02*
X-186076Y293094D01*
X-186076Y296606D02*
X-171884Y296606D01*
X-186076Y296606D02*
X-186076Y299748D01*
X-171884Y299748D01*
X-171884Y296606D01*
X-171884Y297602D02*
X-186076Y297602D01*
X-186076Y298598D02*
X-171884Y298598D01*
X-171884Y299594D02*
X-186076Y299594D01*
X-143076Y296606D02*
X-128884Y296606D01*
X-143076Y296606D02*
X-143076Y299748D01*
X-128884Y299748D01*
X-128884Y296606D01*
X-128884Y297602D02*
X-143076Y297602D01*
X-143076Y298598D02*
X-128884Y298598D01*
X-128884Y299594D02*
X-143076Y299594D01*
X-143076Y290106D02*
X-128884Y290106D01*
X-143076Y290106D02*
X-143076Y293248D01*
X-128884Y293248D01*
X-128884Y290106D01*
X-128884Y291102D02*
X-143076Y291102D01*
X-143076Y292098D02*
X-128884Y292098D01*
X-128884Y293094D02*
X-143076Y293094D01*
X-143076Y283606D02*
X-128884Y283606D01*
X-143076Y283606D02*
X-143076Y286748D01*
X-128884Y286748D01*
X-128884Y283606D01*
X-128884Y284602D02*
X-143076Y284602D01*
X-143076Y285598D02*
X-128884Y285598D01*
X-128884Y286594D02*
X-143076Y286594D01*
X-143076Y277106D02*
X-128884Y277106D01*
X-143076Y277106D02*
X-143076Y280248D01*
X-128884Y280248D01*
X-128884Y277106D01*
X-128884Y278102D02*
X-143076Y278102D01*
X-143076Y279098D02*
X-128884Y279098D01*
X-128884Y280094D02*
X-143076Y280094D01*
D21*
X4465Y184605D02*
X13615Y184605D01*
X4465Y184605D02*
X4465Y187555D01*
X13615Y187555D01*
X13615Y184605D01*
X13615Y187407D02*
X4465Y187407D01*
X4465Y194105D02*
X13615Y194105D01*
X4465Y194105D02*
X4465Y197055D01*
X13615Y197055D01*
X13615Y194105D01*
X13615Y196907D02*
X4465Y196907D01*
X4465Y203605D02*
X13615Y203605D01*
X4465Y203605D02*
X4465Y206555D01*
X13615Y206555D01*
X13615Y203605D01*
X13615Y206407D02*
X4465Y206407D01*
X29565Y203605D02*
X38715Y203605D01*
X29565Y203605D02*
X29565Y206555D01*
X38715Y206555D01*
X38715Y203605D01*
X38715Y206407D02*
X29565Y206407D01*
X29565Y184605D02*
X38715Y184605D01*
X29565Y184605D02*
X29565Y187555D01*
X38715Y187555D01*
X38715Y184605D01*
X38715Y187407D02*
X29565Y187407D01*
D22*
X-143480Y412750D03*
X-171480Y412750D03*
D15*
X-38100Y203732D03*
X-38100Y187428D03*
M02*
